<?xml version="1.0" encoding="utf-8"?>
<!-- Generator: Adobe Illustrator 21.1.0, SVG Export Plug-In . SVG Version: 6.00 Build 0)  -->
<svg version="1.1" id="Слой_1" xmlns="http://www.w3.org/2000/svg" xmlns:xlink="http://www.w3.org/1999/xlink" x="0px" y="0px"
	 viewBox="0 0 512 512" style="enable-background:new 0 0 512 512;" xml:space="preserve">
<style type="text/css">
	.st0{fill:#C08A92;}
	.st1{fill:#9D6574;}
	.st2{fill:#D1A87F;}
	.st3{fill:#FFFFFF;}
	.st4{fill:#B59166;}
	.st5{fill:#D59487;}
	.st6{fill:#CF8478;}
	.st7{fill:#9292A7;}
	.st8{fill:#ADAEC5;}
	.st9{fill:#A87277;}
</style>
<g>
	<path class="st0" d="M218.5,512.5l5-8l-39-10l-6,19L218.5,512.5z"/>
</g>
<g>
	<path d="M269,146.9c-0.1-1-0.6-1.7-1.4-2.1c-0.9-0.5-1.7-0.8-2.5-0.9c-0.9-0.9-1.8-1.5-2.8-2.1c-1.4-0.2-2.7-0.6-3.8-1.4l-3.6-2
		c-1.3-0.6-2.6-0.7-4.2-0.4l-2.2-1.4c-0.8-0.5-1.6-0.9-2.5-1c-1.2-0.4-2.4-0.4-3.4,0l-3.4,1c-2.4-0.5-4.6-0.2-6.8,0.7
		c-2.1,1-4.1,2.2-6,3.8c-2,0.9-4,2.1-6,3.7c-1.9,1.5-3.7,3.2-5.2,5.1c-1.6,1.9-2.7,4-3.4,6.2l-1.4,5.5c-0.5,1.9-0.6,3.8-0.2,5.9
		c-1,1.9-1.7,4-2.3,6.2c-0.5,2.1-0.6,4.4-0.4,6.8l-0.1,0.6c-0.1,0.1,0,0.3,0.1,0.5c0,0.8-0.1,1.6-0.2,2.4l-0.2,2.4
		c0.1,0.7,0.4,1.4,0.9,2.1l0.1-0.2l0.3,0.3l0.3,7c0.1,2.4-0.2,4.6-0.7,6.8l-1.8-1.2l0.3-1.9l-0.4,0.8c-0.2,0.3-0.4,0.5-0.6,0.6
		l-5.2-5.3h-0.9c-0.1,0.3,0,0.6,0.3,0.7l0.6,0.6l-0.9,1.4l-0.2,0.9l-0.2,1.6c0,0.2-0.1,0.4-0.3,0.6l-0.2,0.8l0.1,0.9
		c-0.3,1-0.3,2,0,2.8l1.3,2.6c0.5,0.9,0.8,1.8,0.9,2.8c-1.6,1.1-3.2,2-5,2.8l-0.4,0.4c0,0.6,0.1,1,0.4,1.1l1.1,0.4
		c0.4,0,0.7,0.3,1,0.8l2.2,0.1l2.1-0.6l1.5,3.2c-0.7,0.6-1.2,1.3-1.5,2.1l-2.9,3v0.4c0.3-0.4,0.5-0.5,0.9-0.3l0.9,0.6
		c0.2,0.2,0.6,0.3,0.9,0.3c0.6,0,1-0.1,1.5-0.3l1.2-0.9l0.5,4.2l-0.1,3c0.1,1,0.2,2,0.5,2.9l-0.1,0.2l-5.4-0.9
		c-1.9-0.2-3.7-0.5-5.4-1l-5.2-1.7c-1.7-0.6-3.4-1.1-5.2-1.3l-5.8,0.3l-2.4,0.4c-0.8,0.1-1.5,0.5-2.1,1c-1.8,1.5-3.2,3.3-4.2,5.3
		s-1.7,4.1-2.1,6.4c0.5,10.2,2.2,20,5.1,29.3c0.7,0.7,1,1.3,1,2.1c0,0.7-0.1,1.5-0.2,2.2c-0.2,0.8-0.1,1.6,0.1,2.5
		c0.1,0.7,0.4,1.4,1.1,1.9l1.7,1.6c0.5,0.6,0.7,1.3,0.5,2.2c0.1,8.1,1.8,15.7,5,22.7c0.2,1.3,0.3,2.7,0.2,4l-0.1,4.1
		c0,1.3,0.2,2.5,0.8,3.7c1.1,1,2,2.1,2.7,3.4l2.3,3.6c0.5,0.8,1.1,1.3,1.9,1.7l2,1.5c0.2,1.2,0.3,2.5,0.2,3.8l-0.4,3.7
		c0.7,1.9,1.7,3.5,3.2,4.8c1.4,1.3,2.9,2.4,4.6,3.5c1.7,1,3.3,2,4.8,3.1c1.6,1,3.3,1.7,5,2.2l11,1.9l0.3,0.3c0.5,1.9,0.9,4,1.2,6.1
		c0.3,2.1,0.2,4.2-0.3,6.2l-2.7,10.8c-1.2,0.6-1.9,1.5-2.2,2.6c-0.3,1.1-0.5,2.3-0.5,3.5c0,1.3-0.2,2.4-0.5,3.5l-1.9,6.9
		c0.3,0.8,0.4,1.4,0.1,2l-0.9,1.6c-0.3,0.6-0.6,1.1-0.7,1.7L212,399c0,0.5-0.2,0.8-0.4,1.2c-0.7,3.4-1.5,6.8-2.5,10.1
		c-1,3.3-2.1,6.6-3.4,9.8l-8,20.5l-0.2,1.8l0.3,0.8c0.1,0.3,0.2,0.5,0.2,0.8c-0.5,0.7-0.6,1.3-0.5,2l0.6,2.1l-9.8,28.3l-8.2,30.1
		l-0.7,4.1h1.3c0.7-2.1,1.3-4.2,1.8-6.3l1.9-6.4c0.7,1.1,1.6,2.1,2.7,2.9c3.5,2.4,7.2,4.4,11,6.1c3.9,1.6,7.9,2.7,12.2,3.3l4.8,0.2
		l4.6-0.7c0.2,0.2,0.2,0.3,0,0.4l-0.2,0.5h0.8c2.6-3.9,4.9-7.9,7-12l15.5-29.9l2.7,0.5l9.2,0.7l6.3,1l6.5,0.3l0.6-0.3
		c0.3-0.2,0.5-0.1,0.7,0.2l0.1,8.2c-0.1,2.8,0,5.5,0.4,8.2c-0.1,1.7-0.2,3.5-0.2,5.3c0,1.9,0.1,3.6,0.3,5.3l0.5,12.5h1.9
		c-0.2-0.5-0.2-0.9-0.1-1.3c0.2-0.4,0.1-0.8,0-1.3v-0.4c-0.1-0.1-0.1-0.3,0.1-0.4l-0.1-0.2l0.1-0.1l-0.5-13.6l0.3-0.5
		c3.9,1.5,8.1,2.4,12.7,2.8l13.5-0.7c4.4-0.8,8.4-2.4,12-4.5l0.1,0.1l-0.7,8.6c-0.2,2.8-0.4,5.7-0.8,8.4l0.1,0.2l-0.2,2.9h2.1
		l4.6-53c-0.1-0.1-0.2-0.3-0.1-0.4l0.1-0.5l8.2-6.9l1-1.3c0.2-0.5,0.2-1.1,0-1.7l3.9-3.7l-3.7-17.1c-1.2-5.8-2.1-11.6-2.8-17.6
		l-2.6-14.7l-1.8-5.2l0.2-0.3l2.1-0.1l1.8-0.9c0.6-0.4,1.2-0.5,2-0.4c1.1-0.3,1.9-0.9,2.1-1.9c0.3-0.9,0.4-1.9,0.3-3.1
		c-0.1-1.1-0.1-2.1,0-3.1l1.6,0.5c0.6,0.2,1.2,0.1,1.7-0.3c0.7-0.4,1.2-0.9,1.5-1.6l0.3-2.3l-0.3-1.2c-0.2-0.4-0.3-0.8-0.3-1.1
		c-0.1-0.4,0.2-0.7,0.7-1c1.6,0,2.9-0.5,3.9-1.5l0.4-1.5l0.1-1.4l1.2-0.6l1.1-1c0.9-0.9,1.4-1.9,1.6-3.2c0.1-1.2,0.1-2.5,0-3.6
		c1.6-2,3.1-4,4.4-6l3.7-6.4c0.5-1.5,1.3-3,2.3-4.4l2.9-1c0.9-0.3,1.8-0.9,2.4-1.8c0.4-1.7,0.5-3.4,0.4-5.2l-0.5-5.1
		c-0.6-1.6-0.8-3.2-0.9-5l-0.4-5c-0.2-1.7-0.8-3.2-1.8-4.6c-1.8-1.5-3.3-3.1-4.4-5l-3.1-5.6c-0.9-1.9-2-3.7-3.4-5.4l-9.8-13v-0.8
		l0.2-0.8c-0.1-0.6-0.4-1.1-0.7-1.4l-1.1-1.2c0.4-0.8,0.5-1.6,0.1-2.3L328,277c-0.7-0.7-1.2-1.3-1.5-2l0.3-4.6
		c0.1-0.6-0.1-1.2-0.6-1.6l-1.3-1.4c-0.4-0.5-0.5-1.1-0.4-1.8l-0.6-8.7c-0.2-2.8-0.8-5.6-1.8-8.2c-1.2-2.1-3.1-3.5-5.3-4.1l-7.1-0.5
		l-13.4,1.5h-4.7c-2.7-0.8-5.5-1.8-8.1-3c-2.7-1.1-5.2-2.5-7.6-4.3l-3.3-8.7c0.3-0.2,0.6-0.4,1-0.5l1.1-0.4c1.6-0.4,3.2-1.1,4.7-2
		c1.4-1,2.7-2.2,3.8-3.6c1-1.5,1.7-3,2.1-4.7l0.6,1.2l0.8,0.9c0.6-0.8,1-1.7,1.1-2.7l0.3-3l0.7,1.3c0.3,0.2,0.6,0.4,0.9,0.5
		c0-1.6-0.2-3.2-0.5-4.7l-4.2-17.7l-1.5-9c-0.2-3.6-0.7-7.1-1.5-10.4c-0.9-3.4-1.8-6.6-2.9-9.8l-3.2-9.7l-3-4.5
		C271.8,149.4,270.5,148.1,269,146.9z M262.9,160.3c1.1,0.9,1.9,2.1,2.1,3.5c-0.3-1-1-1.8-1.8-2.5c-0.9-0.8-1.8-1.3-2.8-1.7
		c-1.3,0.3-2.6,0.8-3.7,1.4l-3.5,2.1l-1.6,2.1h-1.2l1.3-3.7c0.9-1.2,2.1-2.2,3.3-2.9c1.3-0.8,2.7-1,4.3-0.5
		C260.5,158.6,261.7,159.3,262.9,160.3z M265.8,160.4l2.5,1.4l2.2,2l0.9,1.9c-0.7-1-1.6-1.9-2.6-2.8L265.8,160.4z M264.8,169.4
		c0.7,2.5,1.5,5,2.4,7.5c0.9,2.4,1.5,5,1.9,7.6c0.9,2.7,1.6,5.6,2.2,8.7c0.6,3,0.9,6.1,0.8,9.2c-0.1,3-0.8,5.9-2.1,8.7l-4.5,7.3
		c-1.6,2.4-3.5,4.7-5.6,6.8c-1.5,1.1-3,1.7-4.4,1.7c-1.5,0-2.9-0.2-4.3-0.9l-4.2-1.8c-1.4-0.8-2.8-1.3-4.2-1.5
		c-1.1-0.8-2.4-1.5-3.6-2c-1.3-0.6-2.5-1.3-3.7-2c-1.2-0.7-2.3-1.7-3.3-2.8c-2.2-3-3.8-6.2-4.9-9.7c-2.4-6.2-4.3-12.6-5.8-19.3
		c2.2-1.5,4.1-3.3,5.5-5.4c1.4-2,2.6-4.1,3.5-6.4l2.8-6.7c1.6-0.8,3.2-1.4,4.9-1.8l5.3-1c1.4,0.2,2.7-0.1,3.8-0.9l0.7,0.2l-0.5,0.7
		c0.4,0.4,0.9,0.5,1.4,0.3l1.5-0.6h1.2l-0.1,0.3h1l0.9-0.3c1.1-0.6,2.4-1,3.7-1.2c1.4-0.3,2.7-0.3,4.2,0c1,0.5,1.8,1.3,2.2,2.3
		L264.8,169.4z M272.4,183.4l-0.8-0.8l0.4-0.3l-0.2-0.3c-0.9,0.7-1.4,1.6-1.6,2.7l-0.4-2.2c-0.1-0.7,0.2-1.3,1-1.8
		c0.4,0,0.8,0.1,1.1,0.4l0.8,1c0.7,1.9,1.2,3.9,1.4,6.1c0.2,2.1,0.1,4.3-0.3,6.4l-0.4-0.4l-0.5,0.1c-0.1,0.4-0.2,0.8-0.1,1.2
		l0.2,1.2c0.1,0.3,0,0.7-0.3,1.1l-0.7-4.5c0-0.7,0.1-1.4,0.5-2c0.1-1.2,0-2.3-0.4-3.4l-1.1-3.2l0.4-1.2l0.8,1.1
		c0.2,0.3,0.4,0.7,0.7,1l-0.1-1.1L272.4,183.4z M273.2,194.9l0.1-0.2c1.2,3.3,2.2,6.7,3.1,10.2c0.8,3.4,1.1,7.1,1,10.9l-0.1,0.3
		l-0.5-0.2l-0.4-0.3l-1.7-6.2c-0.7-2.9-1.2-5.9-1.5-9l1.3,7.4c0.5,2.4,1.2,4.8,2.2,7h0.3c0.2-1.2,0.2-2.4,0-3.6l-0.4-3.6
		C275.7,203.4,274.5,199.1,273.2,194.9z M273.1,200.1v-0.2h0.2v0.2H273.1z M271.7,191.8c-0.7-2-1-4-1.1-6.1l1.1,3
		C272,189.6,272,190.6,271.7,191.8z M263.6,222.4l2.5-3.8l-0.1,22.9l-0.2,1c0,0.3-0.2,0.6-0.6,0.7h-6.6c-1.1,0.2-1.9,1.1-2.5,2.5
		l-1.1,1.6l-1.3,1.5l0.5,0.1l0.5-0.2c0.6-0.4,1.2-1,1.7-1.6l1.6-1.8c0.5-0.5,1.1-0.9,1.9-1l5.3-0.3c-1.5,4.9-3.5,9.5-5.9,14
		c-2.3,4.5-4.9,9-7.7,13.3l0.1-0.9c0-0.3-0.2-0.6-0.6-0.7l-1.2-0.1l-1,0.6v0.2c-1.6-1.7-3-3.6-4.1-5.5l-3.4-5.9l-3.4-7.8
		c-1.2-2.5-2.1-5.2-2.9-8l2.7,0.5c0.9,0.1,1.9,0.3,2.7,0.7c0.7,0.3,1.2,1,1.6,2.1c0.9,1.2,1.9,2,3.1,2.6c0.1-0.3,0.1-0.6,0-0.9
		c-0.8-0.9-1.5-1.8-2-2.7c-0.6-1-1.4-1.8-2.4-2.3l-6.1-1c-0.6-1.8-1-3.7-1.3-5.6l-0.8-5.9c0.3-0.5,0.4-0.9,0.4-1.5v-1.5l0.9,0.1
		l0.6-0.6c-0.1-1-0.2-1.8-0.4-2.7l-0.6-2.5c-0.2-0.8-0.1-1.7,0.1-2.6l0.5,0.2l0.5,0.4l0.3,1.2c0.1,0.3,0.4,0.6,0.8,0.7
		c3.1,1.8,6.4,3.1,9.8,4c3.5,0.9,7,1.5,10.7,1.8c1.6-0.1,3-0.7,4.2-1.7C261.6,224.9,262.6,223.8,263.6,222.4z M316.2,245.9h0.2
		c-1.5,1.2-2.8,2.6-3.9,4.2l-2.8,4.6l-4.7,10.8c-1.5,3.7-2.5,7.5-3.2,11.4l-0.3,6.5c-0.1,2.1-0.3,4.2-0.7,6.3
		c-0.2,1.7-0.3,3.5-0.4,5.3c0,1.7,0,3.5,0.1,5.3l0.1,0.1l0,0c-0.1-0.3-0.1-0.5,0.1-0.7l0.2-1.6c0-0.5,0.1-1.1,0.3-1.5l0.2,0.3v-0.1
		l1.8,2.4c-1.2,2.8-2.2,5.7-3.2,8.6c0,0.6,0.1,1.1,0.4,1.6l0.6,1.6c0.1,0.5,0.1,1-0.1,1.7c-0.7,1.3-1.3,2.7-1.9,4.2
		c-0.4,1.2-0.6,2.4-0.6,3.8l1.2-2.3l0.2,0.4l0.1-0.2c0.2,1.3,0.6,2.4,1.1,3.5l1.6,3.3c0.6,1.1,0.9,2.3,1.2,3.5v1.9
		c-0.1,0.6-0.1,1.3-0.1,1.9l-0.2,0.2l1-0.2l0.2,0.3h0.2c0.1,0.6,0.5,1.2,1,1.9l1,1.9c0.1,0.6,0.1,1.3-0.4,2c-1.4,1.9-3,3.5-4.8,4.8
		l-5.7,3.5c-3.9,1.6-8.2,2.6-12.6,3c-1.4,0.1-2.4-0.3-2.8-1.2c-0.5-0.8-0.9-1.8-1.1-2.9c-0.3-1.1-0.9-1.9-1.7-2.6
		c-0.3-2.3-0.3-4.8-0.3-7.2l0.2-7.4c0-2.4-0.1-4.9-0.4-7.2l-0.9-12c-0.3-4.1-0.7-8-1.3-11.9c-0.6-3.8-1.5-7.6-2.7-11.2l-2.5-10.9
		l0.3-0.3l5.8,25.5l2.4,30.2l-0.2,6.2c-0.1,2.1,0,4.2,0.3,6.2l1.1,1.5l-0.1-0.9l-0.2-1c-0.2-4-0.2-8,0-11.9l-1.6-22.5l-1.6-12.8
		l-3.8-15.1c-1.2-5.1-2.2-10.2-2.9-15.4c-0.6-3.4-0.9-6.8-0.8-10.5l0.4-0.7l0.7-0.8c0.8-0.2,1.6-0.1,2.4,0.4l3.2,4
		c1.1,1.4,2.4,2.4,4,3l3-0.3c0.9-0.1,1.8-0.6,2.5-1.4c-0.1-0.5-0.3-1-0.6-1.5c-0.4-0.4-0.7-0.9-0.9-1.4c-1.6-2.3-2.8-4.8-3.7-7.3
		l-1.2-3.4l-0.4-0.4l-1.4-4.1l0.1-0.1l0.9,0.6c1.8,1,3.6,1.9,5.6,2.7l1,0.3l5.4,1.9l0,0h0.1l-1.4-0.1h-0.4l-1.2-0.1h-0.3l-3.3-0.3
		l0.3,0.3l3.6,0.7l1.7,0.1l6.6-0.2l17.5-1.6C314,245.1,315.1,245.4,316.2,245.9L316.2,245.9z M315.2,249.1l-0.1-0.3l1.1-1.5
		c0.4-0.6,0.8-0.9,1.4-1c0.4-0.1,0.9,0.1,1.3,0.6l0.5,0.4c1.2,1.7,2,3.6,2.4,5.7c0.3,2.1,0.6,4.2,0.6,6.4c0.1,2.2,0.3,4.3,0.5,6.4
		l-0.3-0.3v0.2c-0.4-0.2-0.6-0.4-0.7-0.8l-0.4-0.7c-0.1,0.7,0,1.3,0.4,1.8c0.3,0.6,0.8,1.1,1.3,1.7l1.5,1.6c0.5,0.5,0.6,1.2,0.5,2
		l-0.2,2.2l-0.3-0.4l-0.1,0.3c-0.7-0.9-1.3-1.9-1.8-3c-0.1,0.9,0.1,1.7,0.5,2.4l1.4,2.7l3.7,4.3l-0.3,1l-0.2-0.1v0.1
		c-1-0.2-1.9-0.7-2.7-1.3c0.4,0.8,1,1.4,1.8,1.9l2.2,1.4c0.5,0.6,0.7,1.4,0.5,2.5l-0.4,1.4c-0.1,0.5,0,0.9,0.1,1.3l0.5-1.3l0.2,0.3
		l0.2-0.2l9.4,12.5l7.3,11.8c1.1,0.8,2.1,1.8,3,2.9c1,1,1.5,2.2,1.8,3.5c0.4,2,0.6,4,0.5,6.2c-0.1,2-0.1,3.9,0.1,5.8l0.5-2l0.2,1.5
		l0.2-1.5l0.7,5.4c0.3,1.8,0.3,3.6,0.2,5.5l-0.4-0.5v0.5c-0.8-1.5-1.9-2.8-3.3-4c-1.4-1.3-2.8-2.2-4.3-2.8l0,0
		c-1.6-0.7-3.2-1.2-5-1.5l-8.1-0.9L329,330c-1.4,0.3-2.6,0.9-3.6,1.9c0.1-1.1,0.4-2.1,0.8-3l1.3-2.9c0.4-1,0.6-2,0.6-3.1l0.1-0.5
		L328,322l-0.4,0.3l-0.4,1.6l-0.7,1.5l-1.3-0.5c-0.4-0.3-0.6-0.7-0.7-1.1c0-0.9,0.1-1.7,0.3-2.5l0.6-2.5c0.1-0.8,0-1.6-0.3-2.4
		l-1,3.4c-0.5-0.7-0.8-1.5-1.2-2.3c-0.3-0.9-0.9-1.5-1.9-1.9l-2-0.6c-0.7-0.3-1.2-0.7-1.5-1.4c-0.5-0.8-0.6-1.6-0.6-2.6l-0.2-2.7
		c-0.2-1.1-0.4-2.2-0.5-3.3l-0.5-3.2h-0.3l0.1,8c-2.4-2.2-4.7-4.6-6.9-7l-6.4-7.5c-0.3-0.9-0.5-2-0.6-3.1s-0.1-2.2-0.1-3.2l1-8.8
		c0.3-2.9,0.9-5.7,1.9-8.4c1.5-4.3,3.1-8.6,5.1-12.8C311,255.6,313,252.4,315.2,249.1z M268.1,230.4l2.9-0.5
		c0.5,0.7,0.9,1.5,1.1,2.4l6.8,18.5c1.1,2.6,2.6,5.1,4.5,7.5l0.2,0.7l-0.5,0.4c-0.2,0.1-0.3,0-0.4-0.1l-0.9-0.1l-0.9-0.2
		c-1.1-0.2-2.1-0.7-2.9-1.5l-4.5-5.2c-0.8-0.4-1.8-0.7-2.8-0.7c-0.6,0.2-1.2,0.5-1.8,1c-0.6,0.4-1,1-1.2,1.6
		c-0.2,3.6,0,7.1,0.6,10.5c0.5,3.4,1.2,6.7,1.8,10.1l-0.2,0.2l-0.3-0.2c-0.7-3.6-1.3-7.2-1.9-10.9c-0.5-3.6-0.7-7.3-0.5-11.3
		l0.7-18.7C267.9,232.8,267.9,231.6,268.1,230.4z M261.7,255.6L261.7,255.6c-0.9,2.3-1.9,4.5-3.1,6.6l-3.8,6.2l-0.3-0.2L261.7,255.6
		z M266.3,261.6c0.6,4.4,1.4,8.8,2.3,13.1c-2.2,2.9-4.7,5.3-7.5,7.4c-2.7,2.1-5.7,3.6-8.9,4.5c-0.3-1.2-0.4-2.6-0.4-4.1
		c0.1-1.4,0-2.8-0.2-4.1V278l3.4-0.5l0.1-1.2c0-0.5-0.2-0.8-0.5-1.1l-3-0.4l0.1-1.1c3.3-3.9,6-8,8.2-12.4c2.2-4.3,4.2-8.8,5.9-13.3
		C265.5,252.6,265.6,257.3,266.3,261.6z M271.7,288.5c1,4.2,1.9,8.4,2.5,12.6l0.6,8.5c0.3,2.7,0.3,5.6,0.2,8.6
		c-1.9-0.5-3.7-1.1-5.5-1.9l-5.4-2.2c-1.8-0.7-3.7-1.2-5.6-1.5l-0.1,0.1l5.3,2.7c1.7,0.9,3.5,1.7,5.3,2.5c1,0.4,1.9,0.8,2.9,1.1l3,1
		c-0.1,0.2-0.3,0.4-0.6,0.4l-1,0.2l-9.9,0.5l-0.2,0.2l5.6,0.6l6.2-0.3c0.2,0.7,0.2,1.3,0,1.9l-6.6,0.6l-0.3,0.3l0.3,0.3l6.7-0.7
		l-0.1,1.2l-13.7,0.1l-17.2-1.2c-2.7-0.5-5.4-1.1-8-1.7c-2.7-0.7-5.3-1.4-7.9-2.3v-0.5l9.7,1.5V321l-9.3-2.4v-0.3l2.8-0.5l2.8,0.4
		l10.7,0.5l7.7-0.4l0.3-0.3l-0.3-0.2l-17.9-0.6c1.3-0.4,2.5-0.9,3.6-1.6l3.4-1.9c1.2-0.7,2.4-1.1,3.7-1.4l1.7-0.7
		c0.5-0.2,1-0.4,1.5-0.8l-0.2-0.1l-6,1.5c-2,0.4-3.9,1.1-5.8,2l-3,1c-1.1,0.4-2.1,0.6-3.2,0.7c0.8-1.3,1.2-2.7,1.1-4.1
		c0-1.5-0.3-2.9-0.7-4.3l-1.3-4.1c0.9-4.1,1.6-8.2,2.2-12.5c0.5-4.2,0.9-8.5,1.2-12.9l3.2,4c1.1,1.3,2.5,2.6,3.8,3.6
		c1.3,1.1,2.8,1.8,4.5,2.2l3.4,0.3v1.6c0.1,0.6,0.2,1.1,0.5,1.5h3.2c0.2-0.2,0.4-0.4,0.4-0.7l0.1-0.8l-0.1-1.1v-1.2
		c3.1-1,6.1-2.5,8.9-4.5c2.8-2,5.4-4.2,7.8-6.7L271.7,288.5z M302.9,312.8c0.1-0.9,0-1.8-0.4-2.7l-1.2-1.8c0.3-1.4,0.8-2.7,1.4-4.1
		l1.3-4.1c1.8,2.1,3.6,4.1,5.5,6.1l6,5.7c0,1,0.2,2,0.5,2.8c0.5,0.9,1.1,1.6,2,2.2c0.6,0.2,1.3,0.4,2,0.4c0.8,0.1,1.3,0.4,1.7,1.1
		c0.4,1,0.9,2,1.7,2.9l-0.1,2.3c0,0.7,0.1,1.4,0.6,2c0.3,0.3,0.6,0.4,1,0.5c0.3,0.1,0.7,0.3,1,0.4l-1.2,2.6
		c-0.5,0.9-0.7,1.8-0.8,2.7c0,0.9,0.2,1.8,0.7,2.7l1.3,1.7l-3,13.4c-0.9,0.4-1.7,1-2.5,1.8c-0.8,0.7-1.3,1.6-1.5,2.6
		c0,0.7,0.1,1.4,0.4,2c-0.6,0.1-1.3,0.4-1.7,1c-0.5,0.5-0.8,1-1,1.7v1.6c-0.7,0.1-1.3,0.5-1.9,0.9c-0.7,0.4-1.1,1.1-1.2,1.8
		c-1.3-0.6-2.5-1.4-3.6-2.3l-3.4-2.9c-1.1-0.9-2.3-1.7-3.6-2.3l-7.4-2.2c-0.9-1.2-1.6-2.4-2.1-3.8l3.9-1.6l5.2-3.7
		c1.7-1.3,3.2-2.8,4.6-4.6c0.6-1,0.8-2,0.4-2.9c-0.3-0.9-0.8-1.8-1.4-2.7c-0.6-0.8-1.1-1.7-1.3-2.7c0.5-1.6,0.5-3.2-0.1-4.6l-2-4.2
		c-0.7-1.3-1.2-2.8-1.4-4.4L302.9,312.8z M348.1,337l1.1-0.1l0.5-0.7c0-0.3,0.2-0.5,0.5-0.6c-1,4-2.6,7.8-4.6,11.4
		c-2,3.6-4.3,7.1-6.8,10.5l-2.6-3.2c-0.9-1-2-1.8-3.3-2.3c-1.4-0.6-2.8-1.2-4.2-1.6c-1.5-0.5-3-0.8-4.7-0.8l4.5-18.1
		c3.4-1.1,6.7-1.2,9.9-0.3c3.3,1,6.1,2.8,8.5,5.3L348.1,337z M352.5,337.9l0.9,1.4c-1,1-2.1,1.7-3.5,2l1.6-4.7L352.5,337.9z
		 M325.8,334c-0.2-0.4-0.2-0.7,0-1.1c0.4-0.4,0.8-0.6,1.3-0.8l-0.7,2.9L325.8,334z M320.7,354.5c-0.2-0.4,0-0.9,0.3-1.4
		c0.5-0.7,1.2-1.3,2.1-1.7l2.7-0.2c1.7,0.3,3.4,0.8,5.1,1.6c1.7,0.7,3.2,1.7,4.5,3c1.3,1.2,2.2,2.7,2.7,4.6l-0.1,3.2
		c-0.2,1-0.8,1.8-1.8,2.4c-0.2,0-0.3,0.1-0.5,0.3l-0.4,0.2l-0.1-0.4v-0.5c0.4-0.1,0.7-0.3,0.8-0.8l0.3-1.1c-0.2-1.4-0.8-2.9-1.7-4.1
		c-0.9-1.3-2-2.4-3.2-3.3c-1.3-1-2.6-1.7-4-2.1l-3.4-0.6C322.7,353.5,321.7,353.8,320.7,354.5z M315,362.3l1-0.7
		c3.3,0.7,6.2,2.3,8.7,5c1.2,1.5,2.3,3,3.3,4.7c1,1.5,1.6,3.3,1.9,5.2l-0.4,1l-0.9,0.8l-1.1,0.1l-1-0.5l0.6-1l0.3,0.7
		c0,0.3,0.2,0.4,0.6,0.4l0.3-1.1l-0.2-1.1c-1-2.2-2.2-4.3-3.6-6.3c-1.5-2-3.2-3.7-5.3-5.2l-2.3-0.7l-2.5-0.2
		C314.4,363,314.6,362.5,315,362.3z M318.1,358.9c0.1-0.5,0.3-0.9,0.7-1.2l1.2-0.6c2.7-0.2,5.1,0.3,7.3,1.3c2.2,1.1,4,2.7,5.5,4.9
		l1.2,3c0.4,1,0.4,2,0.1,3.2c-0.2,0.6-0.5,0.9-1,1l-1.5,0.2l1.3-2.2l0.2,0.8c0,0.3,0.1,0.5,0.4,0.5c0.1-1.9-0.4-3.6-1.6-5.2
		c-1.1-1.5-2.5-2.8-4.1-3.8c-1.4-0.9-2.9-1.5-4.6-1.9C321.6,358.4,319.9,358.4,318.1,358.9z M319,360l0.9-0.3c1.9,0.1,3.6,0.4,5.3,1
		c1.6,0.6,3.1,1.4,4.4,2.8l1.6,1.9c0.6,0.6,0.9,1.3,1.2,2l-3.1,4c-0.8-1.5-1.7-2.9-2.8-4.3c-1-1.5-2.2-2.7-3.5-3.8
		c-1.4-1.2-2.8-2-4.5-2.5C318.5,360.4,318.8,360,319,360z M302,356.6c2.2,1.1,4.3,2.5,6.3,4.2l6.2,4.5c2.3,1.9,4.2,4.1,5.5,6.5
		s2.3,4.9,3,7.5l0.1,3.3c-0.1,1.1-0.6,2.1-1.6,2.7l-1.5,1.1l-1.7,0.8c-2.3-0.9-4.5-1.9-6.5-3.2c-2.1-1.3-4.3-2.4-6.5-3.3
		c-2.1-0.9-4.5-1.3-7-1.2c-2.6,0-4.9,0.5-6.9,1.6l-2.3-0.1l-2.1-0.4c0.7-0.3,1.4-0.4,2.2-0.5c0.8-0.1,1.5-0.3,2.2-0.7l0.3-0.7
		c0.1-0.4,0.1-0.7-0.1-0.9l-0.5-0.5l-0.5-0.3c2.4-1.3,5.2-2.1,8.3-2.3c3.1-0.1,6.1,0,9.2,0.2c0.2-0.2,0.3-0.3,0.3-0.6l-5.7-0.5
		l-5.9,0.2c-4,1.2-8,2.6-11.9,4.2l-0.4,0.4l-0.4,0.2l-0.4-0.1l-0.4-0.3l2.7-1.4c0.9-0.5,1.6-1.2,1.9-2.1l-0.4-0.9l-0.7-0.8
		c1.5-1.2,3.2-2.2,5-2.7l5.5-1.7l5.8-0.5c1.9-0.1,3.9-0.1,5.8,0.1l0.2-0.2l-0.2-0.3c-1.1-0.4-2.1-0.6-3.2-0.6l-3.4-0.1
		c-1.3-0.7-2.8-1.2-4.3-1.4l-4.4,0.3c-1.4,0.2-2.8,0.6-4.1,1.3l-4,1.9l-4.3,0.4l3-1.2c1.1-0.4,1.8-1.1,2.3-2.2c0-1-0.4-1.7-1.2-2.2
		c1-0.9,2.1-1.6,3.3-2.1l7.7-1.8l8,1.1l-11.8-3.1l-3.3,0.1l-3.2,0.8l-3.4-0.1c-0.5-0.3-1-0.5-1.5-0.6l-1.3-1l3.1-0.4l3-1
		c0.5-0.4,0.6-1,0.4-1.6L286,354c1.3-0.5,2.6-0.6,4-0.5L302,356.6z M316,364.8c1.4,0.6,2.5,1.5,3.5,2.7c0.9,1.1,1.6,2.3,2.3,3.7
		l1.9,3.9c0.5,1.4,0.9,2.9,1.1,4.5c0.2,1.7,0.2,3.2-0.1,4.9l-0.5,0.9c-0.2,0.3-0.5,0.4-0.9,0.4c0.7-1.3,1-2.7,1-4.2
		c-0.1-1.7-0.3-3.1-0.8-4.3C322.5,372.4,320,368.3,316,364.8z M334.9,362.8c0.3,0,0.4,0.1,0.4,0.4l0.2,0.7l-0.2,0.7l-0.5,0.4
		c-0.9-2.4-2.3-4.4-4.2-6.1c-2-1.8-4.2-2.8-6.7-3.2h-2.4c0.4-0.5,0.9-0.8,1.6-0.9h1.9c2.1,0.6,4,1.5,5.8,2.7
		c0.8,0.7,1.5,1.6,1.9,2.6c0.4,1.1,1,2,1.6,2.8L334.9,362.8z M323.7,372.5c-0.8-1.7-1.7-3.4-2.8-5c2.5,2.5,4.4,5.2,5.9,8.2
		c-0.1,0.4-0.3,0.8-0.6,1.2l-0.8,1.1C325,376,324.4,374.3,323.7,372.5z M275.6,327.1c0.4,2.7,0.7,5.5,0.8,8.3c0,2.9,0.2,5.7,0.3,8.5
		c0.9,0.6,1.4,1.3,1.6,2.2l0.6,2.5c0.2,0.9,0.8,1.5,1.6,2.1c1.1,0.6,2.3,0.8,3.6,0.7l7.6-1.4c1,0.9,1.8,1.9,2.4,3.1
		c-1.7-0.8-3.6-1-5.5-0.7c-2,0.3-3.7,0.9-5.3,1.8l-2,0.4c-0.7,0-1.4,0.2-1.9,0.5c-0.6,0.3-0.9,0.9-0.9,1.8c0.5,0.9,1.2,1.7,2.1,2.2
		c1,0.5,1.9,0.8,3,1l3.5-0.3c1.1-0.4,2.2-0.7,3.3-0.9c1-0.2,2.2,0,3.4,0.7c-0.3,0.3-0.6,0.4-1,0.4l-1.2,0.1
		c-1.6,0.3-3.2,0.8-4.7,1.5c-1.5,0.6-2.8,1.6-4.1,2.9c-0.7,0.4-1.3,0.8-1.9,1.3l-1.9,1.5c-0.1,0.6,0,1.1,0.2,1.6
		c0.3,0.6,0.6,1,1.1,1.3c1.1,0.6,2.3,0.8,3.7,0.6c1.3-0.1,2.5-0.4,3.5-1c1.2-1,2.6-1.8,4.1-2.1l4.4-1l3,0.3l-0.3,0.7
		c-1.9,0.1-3.6,0.5-5.3,1.2l-5,2l-3.7,2.5c-1.3,0.8-2.5,1.7-3.5,2.9c-0.2,1.3,0.2,2.2,1.3,2.9l2.2,0.3c0.4,0.3,0.7,0.7,0.8,1.2
		l-10.2,4.3c-0.9-0.6-2-0.7-3.1-0.4c-7.4,1.6-15,2.5-22.9,2.8c-0.8,0.2-1.5,0.5-2.2,1l-8-0.4c-2.5-0.6-4.9-1.3-7.3-2.3l-6.9-3
		c-0.7-0.5-1.3-1-2.1-1.5l-1.9-1.8c-0.5-0.7-0.8-1.5-0.7-2.4l1.7-7.8c0.6-2.7,1.1-5.3,1.5-8l2.5,4.6l0.3-0.3l-3.3-10l2.9-0.3
		l2.8-0.7c-0.2-0.5-0.1-0.9,0.1-1.2l0.8-0.9c0.2-0.3,0.3-0.7,0.2-1.1c0.2-2.6-0.1-5-0.7-7.3l-0.4-22.1c6.8,2,14,3.4,21.3,4.2
		l19.3,1.2L275.6,327.1z M279.5,356.8c0.1-0.6,0.4-1.1,0.9-1.2l3.3-0.5l0.9-0.4c0.3-0.1,0.5,0,0.7,0.4c-0.1,0.5-0.4,0.8-0.8,0.9
		l-1.4,0.5L279.5,356.8z M280,369l-0.2-0.6v-0.6c0.7-0.7,1.5-1.3,2.2-1.7l2.4-1.4c0.2-0.2,0.5-0.1,0.7,0.1l0.4,0.7
		c0.2,0.3,0.2,0.4,0.1,0.7l-0.3,0.6l-2.5,1.5L280,369z M286.3,373.8c0.5,0.4,0.7,1,0.8,1.6l-4.2,2.9l-0.6-0.7
		c-0.2-0.3-0.2-0.6,0-0.9C283.6,375.5,284.9,374.5,286.3,373.8z M294.6,381.3c1-0.4,1.9-0.6,2.9-0.7l1.5,0.2c0.4,0.7,0.9,1.4,1.5,2
		c0.7,0.6,1.5,1,2.4,1l2.6,0.2l2.3,1.2v0.2c-3.4,3.3-7,6.2-10.8,8.7s-7.6,4.8-11.6,6.9c0.5-1.1,0.8-2.3,1-3.7
		c0.1-1.3,0.1-2.6-0.2-3.9c0.3,0.1,0.5,0.2,0.7,0.5l0.7,0.5l2.7,0.4c0.9-0.2,1.8-0.5,2.5-1c1.1-0.9,1.7-2,1.9-3.1
		c0.2-1.2,0.2-2.4-0.1-3.6c-0.3-0.8-0.7-1.5-1.4-2.2c-0.6-0.7-1.3-1.1-2.2-1.3c-1.1-0.1-2.2,0.1-3.1,0.5c-1,0.3-1.8,1-2.5,2
		c-0.5,1-0.8,2.1-0.8,3.4c-1.7-1.6-3.6-2.6-5.8-2.9c1.8-0.6,3.4-1.2,5.1-2l4.8-2.5l3.1-0.1L294.6,381.3z M301.4,382.5
		c-0.7-0.4-1.2-0.9-1.5-1.6c1.2,0.6,2.4,1.2,3.5,2.1L301.4,382.5z M292.7,386l0.5,0.8c0.3,0.7,0.5,1.6,0.6,2.7c0,1-0.3,1.9-0.9,2.6
		c-0.5,0.6-1.2,1.1-1.9,1.4l-2.5,0.1c-0.8-0.4-1.3-0.9-1.7-1.6c-0.4-0.6-0.7-1.3-0.9-2.1c0.1-1,0.2-1.9,0.6-2.8
		c0.3-0.9,0.9-1.6,1.9-2.1C290,384.5,291.4,385,292.7,386z M289.9,377.4c0.4,0.2,0.8,0.4,1.1,0.9c-0.1,0.6-0.5,1-1,1.2l-3.6,0.8
		l-0.3-0.5c-0.2-0.2-0.2-0.4-0.2-0.5C287.2,378.5,288.5,377.9,289.9,377.4z M286.7,381.9l-5.1,2.4c-1.7,0.8-3.5,1.4-5.3,1.7v-0.3
		l9.8-4.1L286.7,381.9z M285.4,395.6c0.1,1.6-0.3,3.1-1.1,4.4c-0.7,1.1-1.6,2-2.7,2.8c-1,0.8-2.2,1.4-3.4,1.7l-0.9-8.5
		c-0.4-2.9-0.6-5.8-0.7-8.6c1.6-0.2,3,0.1,4.4,0.8c1.3,0.6,2.3,1.6,3.1,3C284.9,392.5,285.3,394,285.4,395.6z M290.4,400.3l-0.1-0.1
		l1.2-0.8c1.3,6.1,2.7,12.1,4.4,18l5,17.7l7,19.7l1.9,2.9l-4.1,2.3c-1.3,0.7-2.8,1.3-4.3,1.8l-5.3,2.1c-0.5-5-1.3-10-2.3-14.8
		l-6.4-36.7c-0.7-2.9-1.3-5.9-1.7-8.8L290.4,400.3z M296.5,396.1l4.2-3.2c1.8,5.7,3.3,11.5,4.3,17.6l2.7,18.2
		c0.8,6.1,1.8,12.1,3.2,18l1.5,9.6c-0.2,0.1-0.4,0.1-0.4,0.3l-0.4,0.3c-1.2-2.6-2.3-5.3-3.3-7.9l-6.6-16.9
		c-1.9-5.4-3.7-10.8-5.3-16.3c-1.7-5.5-3.1-11.1-4.2-16.8C293.6,398,295,397,296.5,396.1z M273.7,385.5c0.5,0.1,0.9,0.4,1.1,0.8
		l2.7,20.3l-0.5,0.8l-0.8,0.5c-6.6,2-13.6,3-21,3.1c-1.5-0.2-3-0.6-4.4-1.2c-0.6-0.5-0.9-1.2-0.9-1.9l-2.2-16.1l0.5-1.9
		c0.2-0.7,0.7-1.1,1.3-1.3C257.8,388.1,265.8,387.1,273.7,385.5z M272.5,410.8l2.9-0.8l1.9-0.8l0.3-0.3l0.5,1.3l3.2,14.9
		c1,3.5,2,7.2,2.8,10.8l4.8,20.6c0.8,3.2,1.7,6.4,2.8,9.5l0.2,0.4l-9.1,1.9c-0.7-0.1-1.2-0.3-1.7-0.8c-0.6-2.6-1.2-5.3-1.6-8
		l-1.2-8.2c-0.9-6.7-2.1-13.5-3.3-20.1c-1.3-6.6-2.4-13.3-3.3-20.1L272.5,410.8z M267.6,412c0.4-0.3,0.8-0.6,1.2-0.8l1.5-0.3
		c1,7.8,2.2,15.5,3.5,23.1l3.7,23.1l1.8,8.6l0.3,0.5l0.1,0.7l-10.2,2.6c-0.1-2.5,0-5.1,0-7.6c0.1-2.6-0.1-5.1-0.4-7.6l0.1-0.2
		l-0.2-7c-0.2-2.3-0.2-4.6-0.1-6.9l-0.8-16.3c-0.3-1.9-0.4-3.9-0.5-5.9V412z M280.5,417.6l-1.9-9.4c2-1.6,4.1-3,6.2-4.1l2.9,17.5
		l-0.1,0.2c0.9,4.3,1.7,8.7,2.4,13.2c0.6,4.5,1.4,8.8,2.3,13.2l1.3,8c0.5,2.6,1,5.3,1.6,7.9l-1.2,0.2c-0.4,0.1-0.7,0-0.8-0.5
		c-1-4.2-2.1-8.4-3.4-12.6c-1.3-4.1-2.3-8.3-3.1-12.7L280.5,417.6z M316.4,390.9l0.5,0.6c1.1,4,2,8.1,2.7,12.3l2,12.6
		c0.7,4.2,1.4,8.3,2.3,12.5l0.1,1.1l0.2,1.1v0.4c-1.6-5.1-3-10.3-4.3-15.5l-5.8-24.8c0.3-0.3,0.6-0.4,1.1-0.4L316.4,390.9z
		 M309.2,389.4c-0.3-1.1-0.4-2.2-0.3-3.4c1.3,0.3,2.3,0.8,2.9,1.8c0.5,0.9,1,1.9,1.2,3.1l5.3,24.1c1,4.8,2.2,9.5,3.7,14.1l4.2,13.9
		l-2.4,2.4c-3.8-9.6-6.9-19.4-9.3-29.5c-0.5-1.4-0.8-2.8-1.1-4.3L309.2,389.4z M303.5,390.6l4.4-3.7l5.3,29.1
		c0.9,4.8,2.1,9.6,3.6,14.2c1.6,6.1,3.5,12.1,5.8,17.9l-1.8,1.8c-0.7,0.5-1.3,1.1-1.9,1.8l-2.7,2.5l-3,1.9l-6.4-39.3L303.5,390.6z
		 M324.3,431.8h0.2v0.4h-0.2V431.8z M310,459.5l1.5-1.2c0.5-0.4,1.2-0.7,1.8-0.8l-0.7,6.3c-0.2,2.2-0.5,4.2-0.9,6.3
		c-0.7,0.5-1.3,0.9-2.1,1.1c-0.7,0.2-1.5,0.5-2.2,0.8c-3.2,1-6.5,1.7-10,2.1c-3.4,0.4-6.9,0.4-10.5,0.2c-0.4,0.1-0.8,0.1-1.1,0
		l-0.2,0.1l-6.1-0.9v-0.1l8.8-2.1c3-0.6,5.8-1.5,8.5-2.8c0.2-0.2,0.5-0.4,0.7-0.5l0.7-0.6l-0.4-0.4l-2,0.5l7.1-3.6
		C305.4,462.6,307.7,461.1,310,459.5z M304.9,474c2.3-0.5,4.6-1.3,6.8-2.3c-0.2,1.8-0.4,3.5-0.4,5.3l-0.1,5.3L310,489
		c-1.4,1.1-3,2-4.7,2.7c-1.8,0.5-3.4,1.2-5,2c-2.1,0.7-4.4,1.2-6.8,1.5l-8.5-0.6c-2.3-0.3-4.6-0.8-6.7-1.5l-6.5-2.2
		c-0.5-0.6-0.8-1.3-0.7-2.1c0.1-0.9,0.1-1.6-0.1-2.3l0.2-0.2l-0.7-12.6l8.1,1.4l8.3,0.4l10.7-0.4L304.9,474z M267.1,429.1l0.1,17.5
		c-0.1,6,0,11.9,0.2,17.8l0.3,3.2l-13-0.2c1.3-6.6,2.4-13.4,3.3-20.1c1-6.8,1.4-13.7,1.4-20.8l-0.1-4c0-1.3,0-2.7-0.1-4
		c0.1-0.1,0.2-0.2,0-0.4c-0.1-0.1-0.1-0.2,0.1-0.3l-0.1-0.4l0.1-0.2l-0.2-3l7.1-1.9l1,16.6L267.1,429.1z M249.6,143.1L249.6,143.1
		l-0.5,2.6l0.5-0.4v-0.3h0.2l-2,4.8h-0.1l0.3-0.9c0-0.4-0.2-0.6-0.6-0.7l-0.4,0.6v-0.8l-0.2-1.1h-0.3l-0.1,1.7
		c0.1,0.7-0.1,1.2-0.5,1.5h-0.5l-5.3-4.8l-0.2,0.1l3.5,5.1c-1.2-0.9-2.3-1.7-3.5-2.4l-3.4-2.4l-0.5-0.2c0.9,0.1,1.7,0.4,2.4,0.9
		l2.3,1.3l0.2-0.3l-3.3-4.4l1,0.2c0.4,0.1,0.6-0.1,0.6-0.6l3.3,4.2c0.2,0,0.3-0.1,0.5-0.3l-1.7-4.3l3.6,5l0.2-0.4l-0.1-0.1l0.1-0.2
		l-0.3-4.7l1,4.5l0.2,0.2l0.3-0.2l0.1-4.7h0.3l0.5,4.7h0.2L249.6,143.1z M255,150.8c0.8-1,1.7-1.8,2.9-2.3c-1.8,1.4-3.3,3-4.5,4.8
		L255,150.8z M251.8,151.3c1-1.1,2.1-2,3.4-2.7c-2,1.8-3.6,3.8-4.8,6l-0.8,0.4C250.1,153.6,250.9,152.4,251.8,151.3z M237.4,147.4
		l3,2.4l-7.7-3.2L237.4,147.4z M238.5,161.3c-1.5,0.8-2.8,1.8-3.8,3.2l-2.7,4.1c-1.1,3.2-2.5,6.3-4.2,9.3c-1.7,3.1-4,5.7-7.1,8
		c-0.1-0.5,0-0.9,0.2-1.1l0.7-0.7l2.7-5.6l6.7-10.7c0.1-0.2,0-0.5-0.2-0.6l-0.8,0.7l-4.7,7.5l4.6-8.5l-1.2-0.7l-1-0.9
		c-0.3-0.8-0.3-1.4,0-1.9l1.4-1.4c0.5-0.4,0.9-0.9,1.3-1.4c1.8-1.6,4-2.6,6.4-2.9c2.4-0.3,4.9-0.3,7.4-0.1c1.1,0.4,2.1,0.9,3.1,1.5
		c1,0.6,1.7,1.5,2.2,2.6c-0.1,0.6-0.3,1.1-0.5,1.7l-1,1.4l-0.6-0.2l1.2-1.2l0.2-0.8c0-0.2,0-0.5-0.1-0.8l-1.7,2.2
		c0.3-0.4,0.3-0.8,0.3-1.3c-0.1-0.4-0.2-0.9-0.4-1.2c-0.3-0.3-0.7-0.5-1.1-0.5l-3.7-0.4C240.8,160.6,239.6,160.8,238.5,161.3z
		 M200.6,196.4l3.8,3.9l-4.2-4.1L200.6,196.4z M200.5,197.3l2.3,2.3c0.7,0.8,1.5,1.5,2.4,1.9v4l0.3,1.7c-1-0.5-1.8-1-2.6-1.8
		l-2.1-2.3l-1-2c-0.3-0.7-0.3-1.4,0-2.2L200.5,197.3z M198.9,201.9l0.2-0.5c0.2,0.2,0.3,0.4,0.3,0.7l-0.4,0.4
		C198.9,202.4,198.8,202.1,198.9,201.9z M200,207.4l-0.9-1.9c-0.3-0.6-0.3-1.3-0.1-2l0.7-0.8l2.2,3.3c-0.4,0-0.7,0.2-1.1,0.5
		L200,207.4z M195.9,214.4l0.4-0.2h0.3l0.2,1.3c-0.5-0.1-0.8-0.3-1-0.8L195.9,214.4z M197.4,214.4l-0.1-0.2l3.4-2.1l1.3,3.7
		l-2.1,0.6c-0.7,0.1-1.4-0.1-2-0.5c-0.3-0.4-0.5-0.8-0.6-1.2C197.4,214.6,197.4,214.4,197.4,214.4z M211.7,205.6l1.6,1.2
		c-1.1,1-1.7,2.3-1.8,3.9L211.7,205.6z M214,207.4l1.1,0.7l-1.2,2.4c-0.4,0.8-0.7,1.6-0.9,2.6l0.2-3L214,207.4z M215.5,208.6
		c2,0.7,3.6,2,4.9,3.6c1.3,1.6,2.4,3.4,3.4,5.1c0-0.3,0-0.6-0.1-1l-0.4-0.9c1.4,1.7,2.5,3.5,3.3,5.5c0.7,2,1.4,4.1,1.9,6.2
		l-0.9,24.2c-0.8,0.9-1.8,1.3-2.9,1.3c-1.1,0-2.2-0.2-3.3-0.5l-3.1-1c-0.9-0.5-1.7-1.2-2.3-2l-2.1-2.5c-2-2.3-3.7-4.7-5.2-7.2
		c-1.4-2.5-2.4-5.2-2.9-8c0.3-2.3,0.3-4.6-0.2-6.7c-0.4-2.2-1-4.4-1.8-6.4l-2.1-6.2c0.3,0.5,0.8,0.8,1.4,0.9l1-0.2
		c0.2-0.1,0.5-0.4,0.6-0.7c0.2-0.7,0.2-1.4,0-2l-1.2-3.6c1.5,0.7,2.7,1.7,3.4,3c0.7,1.2,1.2,2.6,1.5,4.2l1.1,4.5
		c0.4,1.4,1.2,2.8,2.2,3.9l1.9,2l0.3-0.3c-0.7-0.5-1-1-0.9-1.5l0.4-1.7c0.2-0.6,0.3-1.2,0.2-1.8c-0.2-1.9-0.2-3.7,0.1-5.4
		C214,211.6,214.6,210.1,215.5,208.6z M208.3,203.6l0.1,3.6l-0.1-1.5c0.1-0.6,0-1-0.2-1.5l-0.7,0.8l-0.6-2.4L208.3,203.6z
		 M200.6,207.4c0.4-0.4,0.7-0.7,1.2-0.8l0.9,0.1l1.5,4.3l-0.2,0.8l-0.4,0.8c-0.6,0.1-1,0.1-1.3-0.3l-0.8-1.1L200.6,207.4z
		 M201.3,224.8l-0.6-0.5l1.5-1.5c0.4-0.5,0.7-1,0.8-1.6l0.8-1c0.4,1,0.7,2.1,0.7,3.3l-1.4,1.2L201.3,224.8z M212.6,220.8l-0.1,1.2
		c-0.7-0.8-1.2-1.7-1.7-2.6C211.5,219.8,212.1,220.1,212.6,220.8z M220.9,194.9c0.8-0.2,1.3,0,1.5,0.5l0.6,1.7l0.4,1.9l-1.3-0.8
		c-0.5-0.3-0.9-0.4-1.4-0.4v0.2l2.2,1.5c-0.2,1.4,0.1,2.6,0.7,3.6c0.7,1.1,1.5,2,2.5,2.9c0.3,1.2,0.7,2.5,1.4,3.7l-0.6-0.4l-0.3-1.5
		c-0.1-0.6-0.5-0.9-1-0.9c-0.4,0.3-0.5,0.7-0.3,1.2c-2.9-3.3-4.6-7.1-5.2-11.4C220.1,196.1,220.4,195.4,220.9,194.9z M223.5,199.9
		l0.5,0.4l0.8,3.4c-0.4-0.3-0.7-0.9-0.9-1.6L223.5,199.9z M225.7,207.6l0.2-0.2l2.9,10c1.1,3.3,2.6,6.4,4.7,9.2l0.4-0.1v0.4
		c0,0.2-0.1,0.3-0.2,0.4h-0.2c-2.1-3-3.7-6.2-4.8-9.5L225.7,207.6z M231.8,219.4c0.9,2,1.4,4.3,1.7,6.5l-4.2-12.7L231.8,219.4z
		 M176.7,245.4l2.2-5.9c0.4,1.2,0.8,2.4,1.1,3.7l4.1,15.7h1.9l-5.6-20.7v-1.3l-0.3-1.2l0.7-1.5c0.2-0.6,0.2-1.1,0.1-1.6l2.7,1.9
		c0.9,0.7,1.8,1.4,2.5,2.4c1.8,1.6,3.3,3.3,4.5,5.1c1.2,1.9,2.2,3.8,3.1,5.8l2.7,5.9l5.8,15.1l-0.6-0.9l-0.8-0.8
		c0,0.3,0,0.6,0.3,0.9l0.5,1c1.4,3.5,3.4,6.8,5.8,9.9l-1.2,4.1c-0.4,1.3-0.9,2.6-1.6,3.8c-1.4-0.7-2.9-1.2-4.4-1.5l-4.6-1.3l-3,0.2
		l0.1-0.1l-6.4-23.8h-1.8l6.5,24.2l-1.2,0.4c-0.4-1.4-0.9-2.8-1.4-4.1l-6.9-19.9l-2.5,0.6l-2.4,1l-0.1-0.1l2.2-1.5l2.4-1.2l-3.1-9.4
		C177.5,248.6,177,246.9,176.7,245.4z M175.5,269.8l0.1,0.1v1.6L175.5,269.8z M175,270.3l0.4-0.6l0.1,0.1L175,270.3z M174.5,271.5
		l-0.5-0.8L174.5,271.5L174.5,271.5z M177.7,276h0.1v1.8l-0.1-1.5l-0.2,0.6L177.7,276z M177,278.4l0.3-0.6l-0.6,2.4L177,278.4z
		 M176.6,280.9v-0.2l0.1,0.4l-0.8-0.7C176.1,280.5,176.4,280.8,176.6,280.9z M232.2,227.4l-0.1,0.4c-0.5,0.1-1,0.3-1.5,0.6
		c-0.4,0.3-0.8,0.7-1,1.2c-0.3,1.6-0.3,3.3-0.2,5l1.9,13.1c0.4,2.8,0.6,5.6,0.7,8.6l-1.6-0.7c0.5-0.5,0.9-1,1.1-1.8
		c0.2-0.7,0.2-1.4,0-2.1c-0.2-0.6-0.6-1-1.2-1.3c-0.6-0.2-1.1-0.4-1.6-0.7c-0.4-0.3-0.5-0.9-0.2-1.6l0.6-16.2
		c0.1-0.6,0.1-1.2,0.1-1.8v-1.8l2.8-1.1L232.2,227.4z M228.9,250.8l0.9,0.5l0.7,0.9c0.1,0.5,0,1-0.4,1.5c-1.2,0.8-2.5,1.5-3.9,2
		l-4.4,0.2c-1.5-0.4-2.9-0.9-4.3-1.4c-1.4-0.6-2.7-1.5-3.8-2.6l-0.3-1.5c-0.1-0.5-0.1-1,0.2-1.5c0.5,1.1,1.4,2,2.4,2.6
		c1.1,0.7,2.2,1.2,3.3,1.5l3.2,0.8l3.4,0.1c1.1-0.2,2-0.7,2.8-1.7C229,251.8,229.1,251.4,228.9,250.8z M231.6,242.1l1.6,0.5
		c1.1,4.2,2.6,8.4,4.5,12.4l6,11.8l2.3,3.3c0.8,1.1,1.7,2.2,2.7,3.2l-0.1,1.4c0,0.5-0.3,0.7-1,0.5l-2.5,0.4l-0.2,1
		c-0.1,0.4,0,0.8,0.3,1l3.5,0.4l0.2,0.4l-0.6,8.9c-2.2,0-4.1-0.5-5.9-1.5c-1.7-1.1-3.3-2.4-4.7-3.9c-1.5-1.6-2.8-3.3-4-4.9
		c-0.1-1.7-0.1-3.4,0-5.1c0.1-1.7,0.1-3.4,0-5.1l-0.6-12.6C232.8,250.1,232.3,246.1,231.6,242.1z M233.1,241.8l-0.8-0.1l-0.7-0.2
		l-1.1-8.3l0.3-0.5C231.3,235.8,232.1,238.8,233.1,241.8z M231.7,257.4c0,1-0.3,1.8-0.9,2.5c-0.6,0.7-1.3,1.3-2,1.8
		c-1.2,0.6-2.5,1.1-3.8,1.4l-4,0.2c-1.7-0.5-3.4-1.2-5-2.2s-2.8-2.4-3.5-4.2l0.1-0.7c0.7,1.2,1.6,2.3,2.8,3c1.2,0.7,2.4,1.3,3.7,1.9
		c1.6,0.7,3.3,0.8,5,0.4c1.7-0.5,3.3-1.2,4.7-2.1l1-1.2c0.4-0.4,0.6-0.9,0.5-1.4l0.8,0.1L231.7,257.4z M230.7,261.5v0.3l0.2-0.2
		l0.2,15.9c-0.4,3.5-0.8,7-1.3,10.4l-1.7,10.3l0.1-1.3l-0.1,0.5l-0.1,0.1l-0.1-0.1l0.8-11.9c0.2-1,0.3-2,0.2-3c0-1.1,0.3-2,0.9-2.7
		c0.3-0.9,0.4-1.8,0.5-2.7c0-1-0.4-1.8-1.2-2.4c0.1-0.9,0-1.8,0-2.7c-0.1-1,0.1-1.7,0.7-2.4l-0.1-1.6c-0.1-0.5-0.3-1-0.7-1.3
		l1.1-0.9c0.4-0.4,0.5-0.9,0.6-1.3c0-0.5-0.1-0.9-0.3-1.2l-0.6-1.1L230.7,261.5z M225.1,257.4c-1.4,0.5-2.7,0.5-3.9,0
		c-1.3-0.4-2.5-1-3.6-1.6l3.6,1.2L225.1,257.4z M223.3,258.9c1.7,0.2,3.4-0.2,5.1-1.1c-1.2,0.9-2.5,1.4-3.9,1.5l-4.3-0.4
		c-1.3-0.5-2.4-1.1-3.6-1.7c-1.1-0.7-2.2-1.5-3.2-2.5l-0.3-0.9l-0.1-1l1.1,1.6c1.2,1.1,2.7,2.2,4.3,3
		C219.9,258.3,221.6,258.8,223.3,258.9z M229.7,265.1c-0.5,0.4-0.9,0.6-1.5,0.6l-1.6,0.1l-0.3,0.1H226l-0.1-0.1l-0.2,0.1
		c-2.6-0.1-5.1-0.5-7.4-1.3c-2.4-0.7-4.4-2.1-6.2-4.1l-0.3-0.9l0.1-1c1.2,1.6,2.6,2.8,4.2,3.8c1.7,1,3.4,1.8,5.2,2.3l4.3,0.1
		c1.3,0,2.6-0.5,3.7-1.5c0.2,0.2,0.4,0.5,0.4,0.8C229.8,264.5,229.8,264.9,229.7,265.1z M228.4,270l0.8-1.2c0.2,0.8,0.1,1.3-0.5,1.7
		l-1.5,1.1c-1.1,0.7-2.4,1.2-3.8,1.4c-1.4,0.2-2.8,0.2-4.2,0c-1.5-0.2-2.7-0.7-3.8-1.4c-1.1-0.7-2-1.6-2.8-2.6
		c-0.8-1-1.4-2.1-1.7-3.2c0-0.6,0.1-1,0.4-1.3c0.1,1.2,0.4,2.2,1.1,3.1c0.7,0.9,1.6,1.7,2.6,2.4c1,0.6,2,1.2,2.9,1.6l4.7,0.4
		c1.6-0.1,3.2-0.5,4.6-1L228.4,270z M228,267.1c0.3,0.3,0.3,0.6,0.2,1l-0.2,1c-0.8,0.9-1.8,1.4-3,1.5l-3.3,0.2
		c-1.9-0.2-3.7-0.7-5.5-1.5c-1.7-0.8-3-2.1-3.8-4l0.2-2.7c2.2,1.8,4.5,3.1,7.1,3.9C222.3,267.4,225.1,267.5,228,267.1z M222.7,274.4
		l2.8-1c0.9-0.3,1.8-0.9,2.6-1.5l0.1,5.2c-1.1,1.3-2.6,2.2-4.4,2.5l-5.1-0.2c-1.9-0.4-3.6-1.4-5-2.9c-1.4-1.5-2.3-3.2-2.7-5
		c-0.2-0.8-0.2-1.6,0-2.3c1.4,1.9,3.1,3.4,5.2,4.3C218.1,274.4,220.3,274.6,222.7,274.4z M232.2,270.3v-5.9
		c0.5,4.1,0.5,8.2,0.3,12.4c-0.3,4.1-0.7,8.1-1.1,12.1l-0.8,4.8c-0.3,1.6-0.7,3.2-1.3,4.6c0.8-3.5,1.3-7.1,1.8-10.8
		c0.4-3.6,0.8-7.3,1-11C232.2,274.5,232.2,272.4,232.2,270.3z M245,266.6l-0.5-0.9c1.2,2,2.6,3.8,4.1,5.7
		C247.2,269.9,246,268.4,245,266.6z M249.4,275.4l0.1-4.6l0.7-0.4c0.3,0,0.5,0.1,0.6,0.4l0.1,2.5c0,0.8,0.1,1.6,0.4,2.3l1.7,0.2
		c0.5-0.1,1,0,1.5,0.4c0,0.5-0.2,0.9-0.6,1l-2.7,0.1l-0.3,0.3l0.4,12.3l-0.5,0.7h-1c-0.3,0-0.5-0.2-0.5-0.6l0.4-12.2
		c-0.4-0.3-0.8-0.5-1.3-0.5h-1.6c-0.5,0-0.9-0.2-1.2-0.5c0.1-0.6,0.5-0.9,0.9-0.9h1.6C248.6,275.9,249,275.6,249.4,275.4z
		 M212,250.4c0.2,0.4,0.3,0.7,0.3,1l-0.3,0.9l-0.2,1.1l0.4,1.7l-3.7,0.3L212,250.4z M203.8,259c-0.3,0.8-0.5,1.8-0.4,2.8l0.1,2.7
		l-0.1-1.1c-0.1-1.6,0-3.2,0.3-4.7h0.1V259z M207.5,263l-0.1,0.2l0.1-0.5V263z M209.6,265.1c-0.1,0.5,0,1,0.3,1.4l0.4,1.4l-0.5,0.4
		l0.5-0.6c-0.4-0.7-0.6-1.5-0.8-2.3c0.1-0.7,0.3-1.3,0.6-1.8l1.5-1.3C210.6,263.1,209.9,264,209.6,265.1z M209.1,269l-0.8,0.9
		c-0.5,0.8-0.7,1.7-0.6,2.7l0.9,2.8l-0.2,0.8c0.1-0.4,0-0.7,0-1l-0.7-2.4c-0.3-0.8-0.2-1.7,0.3-2.5
		C208.3,269.8,208.6,269.4,209.1,269z M203.7,268.4l-0.1-0.4l-0.1-2.1L203.7,268.4z M208.8,271.3l0.3-0.9c0.1-0.2,0.4-0.4,0.7-0.4
		c0,1.1,0.2,2.1,0.6,3l1.3,2.8l2.5,2.5c0.8,0.9,1.8,1.5,2.8,1.8c1.4,0.4,2.8,0.7,4.3,0.7c1.4,0.1,2.9-0.1,4.2-0.6
		c1.4-0.5,2.5-1.3,3.5-2.4l0.1-0.4c0.3,0.5,0.3,1,0.2,1.6l-0.7,1.5c-1.1,1-2.4,1.6-3.8,2l-4.6,0.2c-1.5-0.1-3-0.5-4.3-1
		c-2-1-3.7-2.4-5-4.2C209.6,275.5,208.9,273.5,208.8,271.3z M205.6,273.5l-0.1-0.2l1.7-9.5c-0.2,1.7-0.4,3.3-0.7,4.8L205.6,273.5z
		 M207.7,277.6l0.2-0.2l-0.1,0.3c-0.8-0.6-1.2-1.2-1.2-1.8L207.7,277.6z M209,277.1V277c1.9,2.6,4.1,4.5,6.8,5.9
		c2.7,1.3,5.6,1.6,8.9,0.8l1.7-0.5c0.5-0.2,1.1-0.5,1.6-0.9c0,3-0.2,5.9-0.6,8.7l-3.9,27.9l-2.6,1.5c-0.8,0.6-1.7,1-2.7,1.3
		l-2.9-0.1c-2.2-1.2-4.2-2.7-6.1-4.5c-2-1.7-3.7-3.7-5.3-5.7l-4.3-6.2l5-13.9C206.2,286.6,207.7,282,209,277.1z M201.6,294.4
		c-0.1,0.8-0.4,1.3-0.9,1.6l-1.6,0.6c-0.6,0.2-1.1,0.6-1.3,1.3c-0.9,1.5-1,3.2-0.6,5c0.5,1.8,1.2,3.3,2.2,4.8c1.9,2.6,4,5.3,6.4,8
		c2.3,2.6,4.9,4.9,7.7,6.8c2.1,0.6,4,0.6,5.9,0c1.8-0.5,3.5-1.4,5.2-2.7c1.6-1.2,3.1-2.6,4.5-4l1.4-2.3c-1.1,2.1-2.5,4-3.9,6
		c-1.5,1.9-3.1,3.8-4.7,5.7c-1.2,1.6-2.2,3.2-3.2,5c-0.9,1.7-2.2,3.2-3.8,4.5l-2.5,1.5c-0.8,0.5-1.7,0.9-2.6,1.2l-3-0.1
		c-2.1-0.8-4-1.9-5.7-3.3l-0.8-0.6l2.3,1.6c0.9,0.7,1.9,1.1,2.9,1.5v-0.7l-8.3-10.8l-0.1-0.7c-0.5-1.2-0.7-2.5-0.6-3.9l0.3-7.7
		l-0.5-2.9l-0.1-0.1l0.6,2.9c0.3,1.9,0.7,3.7,1.2,5.5h0.1l-0.3-7.5c-0.2-1.3-0.4-2.6-0.7-3.8l-0.6-3.7l0.2-2.8
		c0.1-1,0.3-1.9,0.7-2.6c0.3-0.8,1-1.4,2-1.9L201.6,294.4z M190.5,286.5l1.1-0.3l2.2,8.4l-0.1,0.1L190.5,286.5z M185.1,287.1
		l0.2-0.1c-1.6,0.9-3.2,1.9-4.7,3h-0.1C182,289,183.5,288,185.1,287.1z M185,297.8l-1-0.3l0.8,0.3l1.1,0.7l4.2,1.3l3.8,0.6
		c-1.4-0.1-2.8-0.4-4-0.7l-3.8-1.2L185,297.8z M194.6,300.4h-0.4c0.2,0,0.3-0.1,0.4-0.2V300.4z M194.5,301.9l-0.1,0.3v-0.3H194.5z
		 M194.4,303.6v-1.1l0.1,0.8c0,0.6-0.3,0.8-0.9,0.7c-2.3,1.2-4.3,2.9-6,5.1c-1.7,2.1-2.7,4.4-3,7v-0.8c0.5-2.6,1.7-4.9,3.5-7
		C190,306.3,192.1,304.6,194.4,303.6z M194.8,306l0.1-0.3l0.1,0.3c-1.2,0.8-2,1.7-2.7,2.9l0.4-0.7l0.9-1.2L194.8,306z M186.8,317.4
		l-0.7-0.1c0.7,0,1.2-0.1,1.7-0.4l-0.1,0.1C187.4,317.1,187.1,317.4,186.8,317.4z M188.2,316.5l0.1,0.3c-0.1-0.2-0.3-0.2-0.4,0
		L188.2,316.5z M185.1,318.9l-0.3-0.3l4.1,3.1l0.9,0.8L185.1,318.9z M190.8,324L190.8,324L190.8,324L190.8,324z M227.8,301.4
		l1.6,4.3c0.5,1.6,0.7,3.1,0.7,4.6c0,1.6-0.6,3-1.6,4.3l-1.6,1.8l-1.9,1.4c0.7-2.7,1.2-5.4,1.7-8.1L227.8,301.4z M227.7,334.4
		c0.1,0.1,0.1,0.2-0.1,0.3l0.1,5.7c0,1.9,0.2,3.8,0.6,5.6L228,351l-0.5,0.3l-9.7-0.5l-7.4-1.6c-1-0.1-1.9-0.5-2.8-1l-8.7-4.7
		c-1.1-0.7-2.1-1.4-3.1-2.4l-1.5-1.7l0,0c-0.6-1-1.2-2.1-1.6-3.3l0.4-1.2c0.7,0.3,1.4,0.7,2,1.2l0.1,0.1l0.5,0.4l0.1,0.1l0.6,0.5
		h0.1c0.4,0.3,0.8,0.5,1.4,0.5c0.2-0.5,0.5-0.6,0.9-0.5l1,0.3l1.5,1c3.9,2.5,8.1,4.1,12.7,4.8l-0.1,0.2l1,0.2l12.2,1.5l0.3-0.3
		l-0.2-2.3l0.2-21.7l0.4,13.1C227.6,334.1,227.5,334.3,227.7,334.4z M226.5,343.6c0,0.1,0.1,0.3,0,0.6c-3.9-0.2-7.6-0.8-11.1-1.8
		c-3.6-0.9-7-2.2-10.4-3.7l0.2-0.1l-0.4-0.2l2.1-0.2l2,0.3l2-0.3c1.1-0.3,2.2-0.8,3.2-1.4l3-1.9L217,335c0.8-0.7,1.5-1.6,2-2.6
		c1.7-3.8,4-7.3,7-10.5l0.3,21.1L226.5,343.6z M217.1,379.5l0.7-1.2c1.2,2.5,2.8,4.5,4.9,5.9c2,1.4,4.3,2.6,6.8,3.5l7.2,2.5l9.5,1.5
		c1,5.4,1.8,10.9,2.6,16.4l-6.6-0.3c-3.3-0.4-6.5-1-9.5-2c-3-0.9-5.9-2-8.7-3.3l-4.1-2.4c-1.5-0.9-2.7-2-3.8-3.2
		c-1-1.2-1.5-2.7-1.5-4.5l1.5-6.3C216.7,384,217,381.8,217.1,379.5z M215.5,418.6c0.6-2.2,1.3-4.3,2.3-6.3l2.7-6.2l1.8-3.2
		c0.7,0.3,1.5,0.7,2.1,1.3c-1.7,2.3-3.2,4.7-4.5,7.2C218.6,414,217.2,416.4,215.5,418.6z M211.1,419.9l6-20.6l4.4,2.8l-6.4,13.4
		c-2,4.4-3.9,9-5.5,13.7l-5.2,8.4c-1.7,2.7-3.4,5.6-4.9,8.5l-0.2-0.2c0-0.5,0.2-0.9,0.5-1.3l0.8-1.2l6.7-13.5
		C208.7,426.6,210,423.3,211.1,419.9z M222.7,382.4c2.1,1.6,4.4,2.9,6.9,3.8l7.8,2.8l8.8,1.4c-3.2,0.1-6.2-0.3-9-1.2l-8.6-3
		l-3.3-1.8L222.7,382.4z M239.9,410.5h0.3c-0.8,4.9-1.6,9.8-2.3,14.7l-2.1,14.8l-6.1,18.9l-0.7,3.4l-4.5-1.7
		c1.2-3.9,2.3-7.9,3.2-11.9c0.8-4.1,1.9-8.1,3.1-12c1.2-4.4,2.7-8.8,4.3-13.2L239.9,410.5z M233.7,408.1c1.7,0.6,3.4,1.3,5,2
		l-8.8,24.8l-4.5,14.6l-2.6,10.7l-0.6,0.1l-0.7-0.2l-3.3-1.4l-3.1-1.8l6-23.8l5.6-27.7c0.2,0,0.3,0,0.4,0.2l-4.6,22.7l0.3,0.1
		l5.7-22.2L233.7,408.1z M220.6,413.9c1.5-2.9,3.4-5.7,5.4-8.4l-5.6,23.8c-2,8.5-4.1,16.9-6.3,25.3l-0.3,1.3l-3.6-1.9
		c-1.1-0.7-2.4-1.3-3.6-1.8l-4.8-3.3c0.4-1.3,0.9-2.4,1.7-3.5l8.2-13.9L220.6,413.9z M249.7,411.9l0.5-0.1l2.6,1.9
		c-0.8,7.3-2.1,14.4-4,21.3l-7.2,25.4l-0.9,5.2c-1-0.6-2.1-0.9-3.3-1.1l-3.7-0.6c-1.2-0.2-2.3-0.5-3.4-1c0.4-1,0.8-2,1.3-2.9l3.8-12
		c1.3-3.9,2.5-8,3.5-12.2c0.8-3.3,1.5-6.7,2-10.1l1.8-14.5l6.7,0.9L249.7,411.9z M258,419v4.3c0.2,4.3,0.1,8.5-0.2,12.7
		c-0.4,4.3-0.9,8.4-1.5,12.5l-2.6,18.8l-12.1-1.4c1.1-4.3,2.2-8.5,3.5-12.7l3.8-12.5c1.2-4.2,2.2-8.5,3-12.8l1.9-13l3.7-0.4
		C257.8,416,257.9,417.5,258,419z M228.6,466l-0.5,0.4c1.8,1,3.6,1.8,5.5,2.4c1.9,0.6,4,0.9,6.1,0.9c-1.7,0.3-3.4,0.3-5,0.1
		l-9.6-1.7c-3.4-0.8-6.6-1.8-9.9-2.9c-3.2-1.2-6.4-2.5-9.4-4l-7.3-5.5c-0.5-0.7-0.6-1.4-0.5-2.1l0.8-2.1c0.3-0.8,0.6-1.5,0.8-2.2
		l11.6,7.6c3.8,2.6,7.8,4.8,12,6.7c1.9,0.9,3.9,1.7,6,2.3L228.6,466z M239.1,471l1-0.6l-10,19.7c-2.2,0.7-4.3,1-6.5,0.8l-6.4-1
		l-6.1-1.7c-2.6-0.8-5.3-1.9-7.7-3.2l-7.4-4l-3.1-2.9c-0.9-1-1.6-2.2-2-3.5c1.7-6.3,3.7-12.5,6.1-18.5c4,3.4,8.3,6.1,12.8,8.2
		c4.6,2,9.2,3.8,14.1,5.1l7.5,1.5C233.9,471.5,236.5,471.5,239.1,471z M201.5,437.8c-0.2,0.9-0.5,1.7-0.9,2.4l-1.2,2.4
		c-0.2-0.4-0.4-0.8-0.4-1.3l0.2-1.3l9.9-25.3c-1.2,3.9-2.5,7.7-4,11.5C203.6,429.9,202.4,433.8,201.5,437.8z M201.8,485.6
		c2.3,1,4.5,2,6.7,3.1c3.1,1.3,6.3,2.3,9.7,3l10.5,1l-7.6,14.5c-0.2,0.8-0.6,1.3-1.2,1.6l-2.1,0.5l-2.2,0.3l-5-0.2l-4.9-1
		c-6.8-1.7-13-5-18.6-9.8c-1.1-0.9-1.7-2-1.7-3.2c-0.1-1.1,0.1-2.3,0.5-3.6l0.9-3.6c0.9-4,2-7.8,3.4-11.7c1.5,2.3,3.2,4.1,5.3,5.5
		C197.5,483.4,199.6,484.5,201.8,485.6z"/>
	<path class="st1" d="M265,163.8c-0.2-1.4-1-2.6-2.1-3.5c-1.2-1-2.4-1.7-3.6-2.2c-1.6-0.5-3-0.3-4.3,0.5c-1.2,0.7-2.4,1.7-3.3,2.9
		l-1.3,3.7h1.2l1.6-2.1l3.5-2.1c1.1-0.6,2.4-1.1,3.7-1.4c1,0.4,1.9,0.9,2.8,1.7C264,161.9,264.7,162.8,265,163.8z"/>
	<path class="st1" d="M268.3,161.9l-2.5-1.4l3,2.5c1,0.9,1.9,1.8,2.6,2.8l-0.9-1.9L268.3,161.9z"/>
	<path class="st2" d="M267.2,176.9c-0.9-2.5-1.7-5-2.4-7.5l-1.3-3c-0.4-1-1.2-1.8-2.2-2.3c-1.5-0.3-2.8-0.3-4.2,0
		c-1.3,0.2-2.6,0.6-3.7,1.2l-0.9,0.3h-1l0.1-0.3h-1.2l-1.5,0.6c-0.5,0.2-1,0.1-1.4-0.3l0.5-0.7l-0.7-0.2c-1.1,0.8-2.4,1.1-3.8,0.9
		l-5.3,1c-1.7,0.4-3.3,1-4.9,1.8l-2.8,6.7c-0.9,2.3-2.1,4.4-3.5,6.4c-1.4,2.1-3.3,3.9-5.5,5.4c1.5,6.7,3.4,13.1,5.8,19.3
		c1.1,3.5,2.7,6.7,4.9,9.7c1,1.1,2.1,2.1,3.3,2.8c1.2,0.7,2.4,1.4,3.7,2c1.2,0.5,2.5,1.2,3.6,2c1.4,0.2,2.8,0.7,4.2,1.5l4.2,1.8
		c1.4,0.7,2.8,0.9,4.3,0.9c1.4,0,2.9-0.6,4.4-1.7c2.1-2.1,4-4.4,5.6-6.8l4.5-7.3c1.3-2.8,2-5.7,2.1-8.7c0.1-3.1-0.2-6.2-0.8-9.2
		c-0.6-3.1-1.3-6-2.2-8.7C268.7,181.9,268.1,179.3,267.2,176.9z M263.7,174.4c0.3,0.6,0.7,1,1.1,1.5c-1.7-0.3-3.2,0-4.4,0.8
		c-1.2,0.7-2.2,1.7-3.2,2.9l-2.9,3.7c-1,1.2-2.2,2.1-3.5,2.7c1.2-0.6,2-1.5,2.6-2.5c0.5-1.1,0.9-2.1,1.3-3.3
		c0.3-1.1,0.8-2.2,1.4-3.2s1.6-1.8,3-2.4l3.2-1C262.9,173.6,263.3,173.9,263.7,174.4z M265.4,180.9l-1.8,2.4
		c0.1,0.1,0.2,0.1,0.4,0.1c0.1,0,0.2,0.1,0.3,0.3c-0.4,0-0.7,0.3-0.7,0.6l-0.3,1.2c-0.1,0.4-0.3,0.7-0.7,1c-1.3,1.1-2.8,1.8-4.5,2
		c-1.7,0.2-3.4,0.2-5.2,0l-0.6,0.9l-0.2-0.1l0.7-1.4l-0.1-0.1l0.2-0.7v-0.1l-0.6,0.9l1.4-2.7c0.4-0.9,1-1.7,1.9-2.4
		c0.9-0.8,2.1-1.4,3.3-1.7c1.3-0.2,2.6-0.1,3.8,0.4l1-0.8c0,0.3-0.1,0.4-0.3,0.6l0.2,0.1c0.4-0.3,0.7-0.7,0.9-1.2
		c0.2,0.2,0.3,0.3,0.2,0.5c-0.2,0.2-0.2,0.4,0,0.6l0.3-0.3L265.4,180.9z M262.4,208.9c-0.2,0.5-0.4,0.8-0.9,1.1l-1.1,0.8l-0.2-0.3
		c-0.4,0.4-0.6,0.9-0.5,1.7c0,0.7,0,1.3-0.1,2c-0.8,1-1.7,1.8-2.8,2.4c-1.1,0.6-2.3,1.1-3.4,1.4l-2.2,0.2l-2.2-0.2
		c-1-0.8-1.9-1.8-2.5-3l-1.3,0.4c-0.4,0.2-1,0.2-1.4,0v-0.2c0.9-0.3,1.7-0.6,2.5-1c-0.1-0.7,0-1.3,0.3-1.8c0.2-0.6,0.7-1,1.3-1.2
		c0.5-0.5,1-0.7,1.6-0.5l1.7,0.3l1.6,0.2c0.4-0.2,0.8-0.7,1.1-1.6c0.8-0.5,1.8-0.8,3-0.7c1.1,0,2,0.5,2.7,1.3
		c0.5-0.1,0.9-0.3,1.4-0.7C261.4,209.1,261.8,208.9,262.4,208.9z M255.2,201.4l-0.4-1.1l0.9,1.5c0.3,0.5,0.3,1.1,0.1,1.8l-0.7,0.5
		l-0.7,0.4l0.9-1c0.1-0.3,0.2-0.6,0.1-0.9C255.4,202.1,255.3,201.8,255.2,201.4z M243.8,191.8l-2.6-2c-1-0.6-2-0.9-3.1-1
		c-1.2-0.4-2.3-0.9-3.4-1.5c-1.2-0.6-2.3-1.1-3.5-1.4l-3.7,0.2l-3,2.1l2-2.4c0.7-0.9,1.5-1.5,2.3-2l3.1-0.2l5.4,2.4l3.6,2.6
		C242,189.6,243,190.6,243.8,191.8z M230,193.6l-0.4-1.2c0.6-0.2,1.1-0.7,1.5-1.3c-0.1,0.4,0,0.8,0.1,1.1l0.5,1
		c0.5,0.5,1,0.8,1.7,0.9c1.3-0.1,2.3-0.7,3-1.8c-0.1-0.5,0.1-0.7,0.5-0.7l0.9-0.1l0.6,0.4c-0.4,0.9-1,1.7-1.8,2.3
		c-0.9,0.6-1.7,1-2.7,1.1h-1.7c-0.5-0.1-1-0.3-1.3-0.7C230.5,194.4,230.2,193.9,230,193.6z M235.7,191.9l0.3,0.3
		c-0.6,0.8-1.4,1.3-2.4,1.5l-1-0.4l-0.7-0.8l-0.2-0.7l0.2-0.7l0.3,1.2c0.2,0.5,0.5,0.8,1,1l0.7,0.1l0.8-0.2
		C235.2,192.8,235.5,192.4,235.7,191.9z M233.5,191.6l-0.3,0.2l-0.2-0.1l-0.2-0.2h0.4L233.5,191.6z M254.8,203.1l0.2,0.3l-0.2,0.4
		l-0.2,0.2l0.1,0.1l-0.3-0.1H254l-1,1.4c-0.3,0.5-0.7,0.9-1.1,1.2c-0.4,0.3-1,0.3-1.7,0l-1.3-0.7h-1.5l-0.5-0.4l0.4-0.2l0.4,0.1
		l0.1-0.2l1.9,0.8l2.1,0.1c0.6-0.4,1-1,1.4-1.7C253.5,203.9,254.1,203.4,254.8,203.1z M246.9,206.1l0.5,0.1h0.5
		c-0.1,0.2-0.3,0.2-0.6,0.3l-0.7-0.2c-0.4-0.4-0.7-1-0.8-1.5l-0.1-1.8l0.4,1.7C246.2,205.1,246.4,205.6,246.9,206.1z"/>
	<path d="M264.8,175.9c-0.4-0.5-0.8-0.9-1.1-1.5c-0.4-0.5-0.8-0.8-1.4-0.8l-3.2,1c-1.4,0.6-2.4,1.4-3,2.4s-1.1,2.1-1.4,3.2
		c-0.4,1.2-0.8,2.2-1.3,3.3c-0.6,1-1.4,1.9-2.6,2.5c1.3-0.6,2.5-1.5,3.5-2.7l2.9-3.7c1-1.2,2-2.2,3.2-2.9
		C261.6,175.9,263.1,175.6,264.8,175.9z"/>
	<path d="M263.6,183.4l1.8-2.4l-0.4,0.1l-0.3,0.3c-0.2-0.2-0.2-0.4,0-0.6c0.1-0.2,0-0.3-0.2-0.5c-0.2,0.5-0.5,0.9-0.9,1.2l-0.2-0.1
		c0.2-0.2,0.3-0.3,0.3-0.6l-1,0.8c-1.2-0.5-2.5-0.6-3.8-0.4c-1.2,0.3-2.4,0.9-3.3,1.7c-0.9,0.7-1.5,1.5-1.9,2.4l-1.4,2.7l0.6-0.9
		v0.1l-0.2,0.7l0.1,0.1l-0.7,1.4l0.2,0.1l0.6-0.9c1.8,0.2,3.5,0.2,5.2,0c1.7-0.2,3.2-0.9,4.5-2c0.4-0.3,0.6-0.6,0.7-1l0.3-1.2
		c0-0.3,0.3-0.6,0.7-0.6c-0.1-0.2-0.2-0.3-0.3-0.3C263.8,183.4,263.7,183.4,263.6,183.4z M261.4,182.9c0.4-0.2,0.7,0,0.9,0.3
		c0.1,0.7,0.1,1.3-0.2,1.8l-1,1.4c-0.8,0.7-1.8,1.2-2.8,1.4l-3.2,0.1c-0.5-0.2-0.8-0.5-0.8-1l0.5-0.5l0.5-0.2
		c0.3,0.4,0.6,0.7,1.1,0.8l1.3,0.4c1.1-0.1,1.9-0.5,2.6-1.4c0.3-0.9,0.3-1.9,0-2.9L261.4,182.9z M259.2,183.6l0.2-0.1
		c0.2,0.2,0.4,0.6,0.4,1l-0.2,1.1c-0.5,0.8-1.2,1.2-2.1,1.2l-0.6-0.1l-0.5-0.2v-0.1c0.3,0.2,0.6,0.3,1,0.3l1.1-0.2l0.7-0.5l0.4-0.6
		C259.7,184.6,259.6,184.1,259.2,183.6z M253.7,187.6l0.7,0.5h-1.1L253.7,187.6z M257.1,185.4l-0.3,0.2l-0.1-0.1l0.5-0.4
		C257.2,185.3,257.2,185.4,257.1,185.4z"/>
	<path class="st3" d="M262.3,183.3c-0.2-0.3-0.5-0.5-0.9-0.3l-1.1,0.2c0.3,1,0.3,2,0,2.9c-0.7,0.9-1.5,1.3-2.6,1.4l-1.3-0.4
		c-0.5-0.1-0.8-0.4-1.1-0.8l-0.5,0.2l-0.5,0.5c0,0.5,0.3,0.8,0.8,1l3.2-0.1c1-0.2,2-0.7,2.8-1.4l1-1.4
		C262.4,184.6,262.4,183.9,262.3,183.3z"/>
	<path class="st4" d="M259.4,183.4l-0.2,0.1c0.4,0.5,0.5,1.1,0.4,1.8l-0.4,0.6l-0.7,0.5l-1.1,0.2c-0.4,0-0.7-0.1-1-0.3v0.1l0.5,0.2
		l0.6,0.1c0.9,0,1.6-0.4,2.1-1.2l0.2-1.1C259.8,184.1,259.6,183.6,259.4,183.4z"/>
	<path class="st2" d="M254.4,188.1l-0.7-0.5l-0.4,0.5H254.4z"/>
	<path class="st3" d="M256.8,185.6l0.3-0.2c0.1,0,0.1-0.2,0.1-0.3L256.8,185.6L256.8,185.6z"/>
	<path d="M261.5,209.9c0.5-0.3,0.7-0.6,0.9-1.1c-0.6,0.1-1,0.3-1.4,0.6c-0.5,0.4-0.9,0.6-1.4,0.7c-0.7-0.8-1.6-1.3-2.7-1.3
		c-1.2-0.1-2.2,0.2-3,0.7c-0.3,0.9-0.7,1.4-1.1,1.6l-1.6-0.2l-1.7-0.3c-0.6-0.2-1.1,0-1.6,0.5c-0.6,0.2-1.1,0.6-1.3,1.2
		c-0.3,0.5-0.4,1.1-0.3,1.8c-0.8,0.4-1.6,0.7-2.5,1v0.2c0.4,0.2,1,0.2,1.4,0l1.3-0.4c0.6,1.2,1.5,2.2,2.5,3l2.2,0.2l2.2-0.2
		c1.1-0.3,2.3-0.8,3.4-1.4c1.1-0.6,2-1.4,2.8-2.4c0.1-0.7,0.1-1.3,0.1-2c-0.1-0.8,0.1-1.3,0.5-1.7l0.2,0.3L261.5,209.9z
		 M252.9,211.6l2.3-2h2.1l1.8,0.5c-0.5,0.2-1.1,0.4-1.9,0.4c-0.7,0-1.3,0.2-1.9,0.6l-1.1,1.1l-1.3,0.8l-3.2-0.3
		c-1.1,0.2-2.1,0.5-3,1c-0.1-0.7,0.1-1.3,0.7-1.6l1.6-0.9L252.9,211.6z M252.9,213.8c0.5-0.1,1-0.2,1.4-0.6l1.2-1
		c0.4-0.5,0.9-0.7,1.5-0.7l2.5-0.7l-0.7,2.9c-0.3,0.8-0.9,1.5-1.8,2l-3.2,1c-1.1,0.5-2.2,0.7-3.2,0.7c-1.1,0.1-2.1-0.4-2.9-1.5
		c-0.5-0.4-0.8-0.8-0.9-1.2c0.8-0.6,1.8-1,2.9-1.1L252.9,213.8z"/>
	<path class="st5" d="M255.2,209.6l-2.3,2l-3.9-0.4l-1.6,0.9c-0.6,0.3-0.8,0.9-0.7,1.6c0.9-0.5,1.9-0.8,3-1l3.2,0.3l1.3-0.8l1.1-1.1
		c0.6-0.4,1.2-0.6,1.9-0.6c0.8,0,1.4-0.2,1.9-0.4l-1.8-0.5H255.2z"/>
	<path class="st5" d="M254.3,213.1c-0.4,0.4-0.9,0.5-1.4,0.6l-3.2-0.2c-1.1,0.1-2.1,0.5-2.9,1.1l0.3-0.2l1.1,0.7
		c0.4,0.3,0.8,0.5,1.2,0.6l6.3-1.2c1.3-0.4,2.1-0.8,2.5-1.2l0.8-1.4l0.3-1.1l0.2-0.1l-2.5,0.7c-0.6,0-1.1,0.2-1.5,0.7L254.3,213.1z"
		/>
	<path class="st6" d="M259.5,210.8l-0.2,0.1l-0.3,1.1l-0.8,1.4c-0.4,0.4-1.2,0.8-2.5,1.2l-6.3,1.2c-0.4-0.1-0.8-0.3-1.2-0.6
		l-1.1-0.7l-0.3,0.2c0.1,0.4,0.4,0.8,0.9,1.2c0.8,1.1,1.8,1.6,2.9,1.5c1,0,2.1-0.2,3.2-0.7l3.2-1c0.9-0.5,1.5-1.2,1.8-2L259.5,210.8
		z"/>
	<path d="M254.8,200.4l0.4,1.1c0.1,0.3,0.2,0.7,0.2,1.2c0.1,0.3,0,0.6-0.1,0.9l-0.9,1l0.7-0.4l0.7-0.5c0.2-0.7,0.2-1.3-0.1-1.8
		L254.8,200.4z"/>
	<path d="M241.2,189.8l2.6,2c-0.8-1.1-1.8-2.2-2.9-3.2l-3.6-2.6l-5.4-2.4l-3.1,0.2c-0.8,0.5-1.6,1.1-2.3,2l-2,2.4l3-2.1l3.7-0.2
		c1.2,0.3,2.3,0.8,3.5,1.4c1.1,0.6,2.2,1.1,3.4,1.5C239.2,188.9,240.2,189.1,241.2,189.8z"/>
	<path class="st3" d="M229.6,192.4l0.4,1.2c0.2,0.3,0.5,0.7,0.9,1c0.3,0.4,0.8,0.6,1.3,0.7h1.7c1-0.1,1.8-0.5,2.7-1.1
		c0.8-0.6,1.4-1.4,1.8-2.3l-0.6-0.4l-0.9,0.1c-0.4,0-0.6,0.2-0.5,0.7c-0.7,1.1-1.7,1.7-3,1.8c-0.7-0.1-1.2-0.4-1.7-0.9l-0.5-1
		c-0.1-0.3-0.2-0.7-0.1-1.1C230.7,191.8,230.2,192.3,229.6,192.4z"/>
	<path class="st4" d="M236,192.1l-0.3-0.3c-0.2,0.5-0.5,0.9-1,1.3l-0.8,0.2l-0.7-0.1c-0.5-0.2-0.8-0.5-1-1l-0.3-1.2l-0.2,0.7
		l0.2,0.7l0.7,0.8l1,0.4C234.6,193.4,235.4,192.9,236,192.1z"/>
	<path class="st3" d="M233.2,191.8l0.3-0.2l-0.3-0.1h-0.4l0.2,0.2L233.2,191.8z"/>
	<path d="M255,203.4l-0.2-0.3c-0.7,0.2-1.3,0.7-1.6,1.3c-0.4,0.7-0.8,1.3-1.4,1.7l-2.1-0.1l-1.9-0.8l-0.1,0.2l-0.4-0.1l-0.4,0.2
		l0.5,0.4h1.5l1.3,0.7c0.7,0.3,1.3,0.3,1.7,0c0.4-0.3,0.8-0.7,1.1-1.2l1-1.4h0.4l0.3,0.1l-0.1-0.1l0.2-0.2L255,203.4z"/>
	<path d="M247.4,206.1l-0.5-0.1c-0.5-0.4-0.7-0.9-0.8-1.4l-0.4-1.7l0.1,1.8c0.1,0.5,0.4,1.1,0.8,1.5l0.7,0.2
		c0.3-0.1,0.5-0.1,0.6-0.3H247.4z"/>
	<path class="st2" d="M271.6,182.6l0.8,0.8l0.4,1.1l0.1,1.1c-0.3-0.3-0.5-0.7-0.7-1l-0.8-1.1l-0.4,1.2l1.1,3.2
		c0.4,1.1,0.5,2.2,0.4,3.4c-0.4,0.6-0.5,1.3-0.5,2l0.7,4.5c0.3-0.4,0.4-0.8,0.3-1.1l-0.2-1.2c-0.1-0.4,0-0.8,0.1-1.2l0.5-0.1
		l0.4,0.4c0.4-2.1,0.5-4.3,0.3-6.4c-0.2-2.2-0.7-4.2-1.4-6.1l-0.8-1c-0.3-0.3-0.7-0.4-1.1-0.4c-0.8,0.5-1.1,1.1-1,1.8l0.4,2.2
		c0.2-1.1,0.7-2,1.6-2.7l0.2,0.3L271.6,182.6z"/>
	<path class="st3" d="M273.3,194.8l-0.1,0.2c1.3,4.2,2.5,8.4,3.4,12.7l0.4,3.6c0.2,1.2,0.2,2.4,0,3.6h-0.3c-1-2.2-1.7-4.6-2.2-7
		l-1.3-7.4c0.3,3.1,0.8,6.1,1.5,9l1.7,6.2l0.4,0.3l0.5,0.2l0.1-0.3c0.1-3.8-0.2-7.5-1-10.9C275.5,201.4,274.5,198.1,273.3,194.8z"/>
	<path class="st3" d="M273.1,199.9v0.2h0.2v-0.2H273.1z"/>
	<path class="st2" d="M270.6,185.6c0.1,2.1,0.4,4.1,1.1,6.1c0.3-1.1,0.3-2.1,0-3.1L270.6,185.6z"/>
	<path class="st2" d="M266.1,218.6l-2.5,3.8c-1,1.4-2,2.5-3.2,3.6c-1.2,1-2.6,1.6-4.2,1.7c-3.7-0.3-7.2-0.9-10.7-1.8
		c-3.4-0.9-6.7-2.2-9.8-4c-0.4-0.1-0.7-0.4-0.8-0.7l-0.3-1.2l-0.5-0.4l-0.5-0.2c-0.2,0.9-0.3,1.8-0.1,2.6l0.6,2.5
		c0.2,0.9,0.3,1.7,0.4,2.7l-0.6,0.6l-0.9-0.1v1.5c0,0.6-0.1,1-0.4,1.5l0.8,5.9c0.3,1.9,0.7,3.8,1.3,5.6l6.1,1c1,0.5,1.8,1.3,2.4,2.3
		c0.5,0.9,1.2,1.8,2,2.7c0.1,0.3,0.1,0.6,0,0.9c-1.2-0.6-2.2-1.4-3.1-2.6c-0.4-1.1-0.9-1.8-1.6-2.1c-0.8-0.4-1.8-0.6-2.7-0.7
		l-2.7-0.5c0.8,2.8,1.7,5.5,2.9,8l3.4,7.8l3.4,5.9c1.1,1.9,2.5,3.8,4.1,5.5v-0.2l1-0.6l1.2,0.1c0.4,0.1,0.6,0.4,0.6,0.7l-0.1,0.9
		c2.8-4.3,5.4-8.8,7.7-13.3c2.4-4.5,4.4-9.1,5.9-14l-5.3,0.3c-0.8,0.1-1.4,0.5-1.9,1l-1.6,1.8c-0.5,0.6-1.1,1.2-1.7,1.6l-0.5,0.2
		l-0.5-0.1l1.3-1.5l1.1-1.6c0.6-1.4,1.4-2.3,2.5-2.5h6.6c0.4-0.1,0.6-0.4,0.6-0.7l0.2-1L266.1,218.6z M257.5,235.3l-0.1,0.9
		l-1.8,5.5c-0.7,1.7-1.5,3.5-2.6,5.1h-0.2l4.7-11.6V235.3z"/>
	<path d="M257.4,236.1l0.1-0.9v-0.1l-4.7,11.6h0.2c1.1-1.6,1.9-3.4,2.6-5.1L257.4,236.1z"/>
	<path class="st7" d="M316.2,245.9l-1.2,0.9l-22.3,1.4l-7.4-1c-2.3-0.5-4.7-1.1-6.9-1.8l1.2,3.4c0.9,2.5,2.1,5,3.7,7.3
		c0.2,0.5,0.5,1,0.9,1.4c0.3,0.5,0.5,1,0.6,1.5c-0.7,0.8-1.6,1.3-2.5,1.4l-3,0.3c-1.6-0.6-2.9-1.6-4-3l-3.2-4
		c-0.8-0.5-1.6-0.6-2.4-0.4l-0.7,0.8l-0.4,0.7c-0.1,3.7,0.2,7.1,0.8,10.5c0.7,5.2,1.7,10.3,2.9,15.4l3.8,15.1l1.6,12.8l1.6,22.5
		c-0.2,3.9-0.2,7.9,0,11.9l0.2,1l0.1,0.9l-1.1-1.5c-0.3-2-0.4-4.1-0.3-6.2l0.2-6.2l-2.4-30.2l-5.8-25.5l-0.3,0.3l2.5,10.9
		c1.2,3.6,2.1,7.4,2.7,11.2c0.6,3.9,1,7.8,1.3,11.9l0.9,12c0.3,2.3,0.4,4.8,0.4,7.2l-0.2,7.4c0,2.4,0,4.9,0.3,7.2
		c0.8,0.7,1.4,1.5,1.7,2.6c0.2,1.1,0.6,2.1,1.1,2.9c0.4,0.9,1.4,1.3,2.8,1.2c4.4-0.4,8.7-1.4,12.6-3l5.7-3.5
		c1.8-1.3,3.4-2.9,4.8-4.8c0.5-0.7,0.5-1.4,0.4-2l-1-1.9c-0.5-0.7-0.9-1.3-1-1.9h-0.2l1.3,2.3c0.5,0.8,0.8,1.8,0.5,2.8l-2,2.7
		l-2.6,2.2l-0.2,0.1l-1.3-6l-2.1,1.5c-2.3,1.4-4.7,2.6-7,3.7l-3.8,1.4l-4,0.7l-0.2-0.1c0.2-0.3,0.6-0.4,1-0.6l1.2-0.4
		c4-2,7.9-3.9,11.9-5.9l3.3-1.9l2.8-2.6l0.2-0.2c0-0.6,0-1.3,0.1-1.9V329c-0.3-1.2-0.6-2.4-1.2-3.5l-1.6-3.3
		c-0.5-1.1-0.9-2.2-1.1-3.5l-0.1,0.2c0.3,1.4,0.7,2.7,1.4,4l2.1,4.3c0.2,0.8,0.3,1.7,0.3,2.7l-0.2,2.9l-1.9,1.7
		c-0.2-0.5-0.3-1.1-0.3-1.7c0.1-0.7,0-1.3-0.3-1.8l-2.7-7.6c-1-2.5-1.8-5.1-2.3-7.8c-0.3-0.6-0.4-1.2-0.3-1.9c0-0.8,0.2-1.4,0.7-1.8
		s0.9-0.8,1.2-1.3l0.8-1.5l0.7,0.6v-0.1c-1.2-0.9-2.1-1.9-2.7-3.1c-0.6-1.3-1-2.7-1.1-4.2l-0.5-4.4l2.7,7.9l1.1,2.1
		c0.3-1.1,0.5-2.3,0.8-3.4l0.8-3.6l0.2-0.2c0.2,0.1,0.4,0,0.3-0.2l-0.1-0.1c-0.1-1.8-0.1-3.6-0.1-5.3c0.1-1.8,0.2-3.6,0.4-5.3
		c0.4-2.1,0.6-4.2,0.7-6.3l0.3-6.5c0.7-3.9,1.7-7.7,3.2-11.4l4.7-10.8l2.8-4.6c1.1-1.6,2.4-3,3.9-4.2H316.2z"/>
	<path class="st8" d="M315,246.9l1.2-0.9v-0.1c-1.1-0.4-2.2-0.7-3.4-0.7l-17.5,1.6l-6.6,0.2l-1.7-0.1l-3.6-0.7l-0.9-0.3l3.6,0.3h0.3
		h0.3l1.2,0.1h0.4l1.3,0.1l0,0l-5.4-1.9l-1.2-0.4c-1.9-0.7-3.7-1.6-5.4-2.6l-0.9-0.6l-0.1,0.1l1.4,4.1l0.4,0.4
		c2.2,0.7,4.6,1.3,6.9,1.8l7.4,1L315,246.9z"/>
	<path class="st7" d="M283,244.1l1.2,0.4l-1-0.3c-2-0.8-3.8-1.7-5.6-2.7C279.3,242.4,281.1,243.4,283,244.1z"/>
	<path class="st7" d="M286.1,246.1l-3.6-0.3l0.9,0.3l-0.3-0.3l3.3,0.3H286.1z"/>
	<path class="st7" d="M289.7,246.4h-0.1l-1.3-0.1L289.7,246.4z"/>
	<path class="st8" d="M301.4,297l-0.2-0.3c-0.2,0.4-0.3,1-0.3,1.5l-0.2,1.6c-0.2,0.2-0.2,0.4-0.1,0.7l0,0c0.1,0.2-0.1,0.3-0.3,0.2
		l-0.2,0.2l-0.8,3.6c-0.3,1.1-0.5,2.3-0.8,3.4v0.2l0.4,0.8l0.1,0.7v0.1l-0.7-0.6l-0.8,1.5c-0.3,0.5-0.7,0.9-1.2,1.3s-0.7,1-0.7,1.8
		c-0.1,0.7,0,1.3,0.3,1.9c0.5,2.7,1.3,5.3,2.3,7.8l2.7,7.6c0.3,0.5,0.4,1.1,0.3,1.8c0,0.6,0.1,1.2,0.3,1.7l1.9-1.7l0.2-2.9
		c0-1-0.1-1.9-0.3-2.7l-2.1-4.3c-0.7-1.3-1.1-2.6-1.4-4l-0.2-0.4l-1.2,2.3l-0.4,0.8c0-1.8,0.3-3.5,1-5.1l1.9-4.9l-0.7-1.9
		c-0.2-0.7-0.3-1.4-0.4-2.1l3.1-8.6L301.4,297z"/>
	<path class="st7" d="M301.4,296.9v0.1l1.5,2l-3.1,8.6c0.1,0.7,0.2,1.4,0.4,2.1l0.7,1.9l-1.9,4.9c-0.7,1.6-1,3.3-1,5.1l0.4-0.8
		c0-1.4,0.2-2.6,0.6-3.8c0.6-1.5,1.2-2.9,1.9-4.2c0.2-0.7,0.2-1.2,0.1-1.7l-0.6-1.6c-0.3-0.5-0.4-1-0.4-1.6c1-2.9,2-5.8,3.2-8.6
		L301.4,296.9z"/>
	<path d="M295.2,302.3c0.1,1.5,0.5,2.9,1.1,4.2c0.6,1.2,1.5,2.2,2.7,3.1l-0.1-0.7l-0.4-0.8v-0.2l-1.1-2.1l-2.7-7.9L295.2,302.3z"/>
	<path class="st8" d="M304.5,332.8l-1,0.2c-0.7,1.3-1.8,2.6-3.1,3.6l-0.1,0.3l0.1,0.3l1.3,6l0.2-0.1l2.6-2.2l2-2.7
		c0.3-1,0-2-0.5-2.8l-1.3-2.3L304.5,332.8z"/>
	<path d="M300.7,335.5l-3.3,1.9c-4,2-7.9,3.9-11.9,5.9l-1.2,0.4c-0.4,0.2-0.8,0.3-1,0.6l0.2,0.1l4-0.7l3.8-1.4
		c2.3-1.1,4.7-2.3,7-3.7l2.1-1.5l-0.1-0.3l0.1-0.3c1.3-1,2.4-2.3,3.1-3.6L300.7,335.5z"/>
	<path class="st7" d="M315.7,250.4l-0.5-1.2c-2.2,3.2-4.2,6.5-5.7,9.9c-2,4.2-3.6,8.5-5.1,12.8c-1,2.7-1.6,5.5-1.9,8.4l-1,8.8
		c0,1,0,2.1,0.1,3.2s0.3,2.2,0.6,3.1l6.4,7.5c2.2,2.4,4.5,4.8,6.9,7l-0.1-8h0.3l0.5,3.2c0.1,1.1,0.3,2.2,0.5,3.3l0.2,2.7
		c0,1,0.1,1.8,0.6,2.6c0.3,0.7,0.8,1.1,1.5,1.4l2,0.6c1,0.4,1.6,1,1.9,1.9c0.4,0.8,0.7,1.6,1.2,2.3l1-3.4c0.3,0.8,0.4,1.6,0.3,2.4
		l-0.6,2.5c-0.2,0.8-0.3,1.6-0.3,2.5c0.1,0.4,0.3,0.8,0.7,1.1l1.3,0.5l0.7-1.5l0.4-1.6l0.4-0.3l0.2,0.3l-0.1,0.5
		c0,1.1-0.2,2.1-0.6,3.1l-1.3,2.9c-0.4,0.9-0.7,1.9-0.8,3c1-1,2.2-1.6,3.6-1.9l4.1-0.7l8.1,0.9c1.8,0.3,3.4,0.8,5,1.5
		c0.2-0.9,0.5-1.7,0.9-2.5l1-2.5c0.3-0.9,0.3-1.8,0.2-2.8c-0.5-1-0.9-2.1-1.1-3.3c-0.3-1-0.7-1.9-1.4-2.8c-0.9,1.1-2,1.9-3.2,2.6
		l-5.5,2.9c-1.2,0.5-2.5,0.9-3.8,1.2l-4.2,0.4l0.4-0.3c3.2-0.8,6.3-2,9.2-3.5c2.6-1.3,5.2-2.8,7.7-4.5l0.6-0.8l-0.1-0.1l-1.8,1.2
		l-0.5-0.7c-0.2-0.2-0.3-0.4-0.4-0.7l-0.7-0.7l0.3-0.1c-2.6,0.8-5.1,1.9-7.6,3.2c-2.7,1.3-5.1,3.4-7.1,6h-0.4c0-0.2,0.1-0.5,0.3-0.7
		l0.4-0.7c1.4-2.6,3.4-4.5,6-5.7c2.5-1.2,5.2-2,8-2.5h0.9c-0.3-0.2-0.7-0.2-1.1,0c-0.3-1.1-0.8-2-1.4-2.9l-1.8-2.5l-4.1,2
		c-2.1,1.1-4,2.7-5.6,4.7l-4.1,4.8c0.7-2.3,1.9-4.3,3.5-6.2c1.6-1.8,3.5-3.4,5.7-4.5c2-1.1,4.1-1.8,6.4-2.1l0.2-0.1h-1.4l-1.4,0.3
		l-16.3-22.6c-2.1,1.1-4.2,1.9-6.4,2.5v-0.3l9.6-5.1v-0.1c-0.3-0.1-0.5-0.1-0.7,0l-2.7,1.3c-0.6-1-1.1-2.1-1.3-3.3
		c-2.1,0.4-4.1,1-6,1.8c-2.9,1.4-5.7,3.1-8.4,5.2v-0.3c2.3-2.6,4.9-4.6,7.8-5.8c2.8-1.3,5.9-1.8,9.3-1.6l0.3,0.2
		c-0.4-0.4-0.9-0.5-1.5-0.5l-1.9,0.1l-1.7-3.4l0.9-0.2c-2.1,0-3.9-0.3-5.7-0.9c-2.2-0.8-4.3-2-6.2-3.5c2.2,1.1,4.5,2,6.9,2.7
		c2.3,0.6,4.8,0.9,7.5,0.9l-0.2-0.2l-3.5-0.1c-0.2-0.1-0.3-0.4-0.2-0.7c0-0.3-0.1-0.5-0.4-0.7l-0.7-5.8c1,0.3,2,0.7,3,1.2l0.1-0.2
		l-1-0.5l-2.5-0.9l-2.8-0.6l-1.7,0.2l-1.8-0.1l4.3-0.8l2.2,0.1c-0.2-1.7-0.4-3.3-0.4-4.9l1,2.2c0.4,0.8,0.9,1.4,1.4,2.1l0.3-0.3
		h-0.1c-0.9-1.1-1.6-2.4-2-3.8c-0.4-1.2-0.7-2.5-0.7-3.8l-0.1-0.6l-0.5-0.3L315.7,250.4z M323.6,295.6h0.3c-2,3.9-3.5,7.9-4.7,12.1
		l-0.3,0.4c0-0.3-0.1-0.7,0-1.2l0.1-1.2C319.8,302,321.3,298.8,323.6,295.6z M332.8,301l0.1,0.1l-3.9,7.3c-1.6,2.4-3.3,4.7-5.3,6.8
		l-0.2-0.1c1.1-2.6,2.5-5,4.1-7.3L332.8,301z M318.7,291.1c0.8,0.8,1.4,1.9,1.7,3.1c0.2,1.1,0.3,2.4,0.1,3.6l-0.3,0.2l-0.4-0.1
		c-0.4-1-0.7-2.1-0.8-3.3L318.7,291.1z M313.8,296.4l0.2-0.1l-0.2-0.1l0.5-2.6c0.2,1.4,0.2,2.8-0.1,4.1L313.8,296.4z"/>
	<path d="M323.9,295.6h-0.3c-2.3,3.1-3.8,6.4-4.6,10.1l-0.1,1.2c-0.1,0.5,0,0.9,0,1.2l0.3-0.4C320.4,303.5,321.9,299.5,323.9,295.6z
		"/>
	<path d="M332.9,301l-0.1-0.1l-5.2,6.8c-1.6,2.3-3,4.7-4.1,7.3l0.2,0.1c2-2.1,3.7-4.4,5.3-6.8L332.9,301z"/>
	<path d="M320.4,294.3c-0.3-1.2-0.9-2.3-1.7-3.1l0.3,3.5c0.1,1.2,0.4,2.3,0.8,3.3l0.4,0.1l0.3-0.2
		C320.7,296.6,320.6,295.4,320.4,294.3z"/>
	<path d="M314,296.3l-0.2,0.1l0.4,1.3c0.3-1.3,0.3-2.7,0.1-4.1l-0.5,2.6L314,296.3z"/>
	<path class="st8" d="M315.2,249.1l0.5,1.2l0.7,6l0.5,0.3l0.1,0.6c0.1,1.1,0.4,2.2,0.9,3.1l2,4.2l-0.1,0.3l-0.3,0.3
		c-0.5-0.7-1-1.3-1.4-2.1l-1-2.2c0,1.6,0.2,3.2,0.4,4.9h0.1c0.6,0.2,1.2,0.5,1.8,0.9l1.5,1.4l-0.1,0.3l-0.1,0.2c-1-0.5-2-0.9-3-1.2
		l0.7,5.8c0.3,0.2,0.4,0.4,0.4,0.7c-0.1,0.3,0,0.6,0.2,0.7l3.5,0.1l0.2,0.2l0,0c-0.3,0.6-0.8,0.8-1.5,0.8h-1l-0.9,0.2l1.7,3.4
		l1.9-0.1c0.6,0,1.1,0.1,1.5,0.5l0.2,0.2l-2.3,0.1l-0.9,0.2c0.2,1.2,0.7,2.3,1.3,3.3l2.7-1.3c0.2-0.1,0.4-0.1,0.7,0v0.1
		c-0.2,0.8-0.6,1.4-1.3,1.7c-0.8,0.3-1.4,0.7-2,1.2h0.1l16.3,22.6l1.4-0.3h1.4l-0.2,0.1c-0.3,0.3-0.5,0.4-0.9,0.5
		c-0.4,0.1-0.7,0.3-1,0.6l0.1,0.2l1.8,2.5c0.6,0.9,1.1,1.8,1.4,2.9c0.4-0.2,0.8-0.2,1.1,0l0.1,0.1l-0.6,0.3l-0.3,0.1l0.7,0.7
		c0.1,0.3,0.2,0.5,0.4,0.7l0.5,0.7l1.8-1.2l0.1,0.1l-0.6,0.8l-0.8,0.9l0.2,0.3c0.7,0.9,1.1,1.8,1.4,2.8c0.2,1.2,0.6,2.3,1.1,3.3
		c0.1,1,0.1,1.9-0.2,2.8l-1,2.5c-0.4,0.8-0.7,1.6-0.9,2.5l0,0c1.5,0.6,2.9,1.5,4.3,2.8c1.4,1.2,2.5,2.5,3.3,4V338
		c0.2-1.7,0.1-3.4-0.1-5l-0.6-3.9l-0.2-1.5l-0.5,2l-0.1,0.3h-0.2l-0.2-0.1l-0.1-9.9c0-1.8-0.4-3.3-1.3-4.7c-0.8-1.4-2-2.6-3.4-3.6
		l-8.3-13.2l-8.7-11.3l-0.2-0.3l-0.5,1.3l-0.2,0.2c-0.2-0.7-0.2-1.4-0.1-2.2l0.4-2.1l-0.3-0.7l-0.5-0.6c-1.5-0.7-2.8-1.8-3.8-3.2
		l0.1-0.1l0.2,0.2c0.8,0.6,1.7,1.1,2.7,1.3v-0.1l0.1-0.4l0.1-0.6l-2.6-3.1c-0.8-1-1.6-2-2.2-3.1c-0.6-1.2-0.9-2.4-1-3.7l0.1-0.1
		l0.4,0.7c0.5,1.1,1.1,2.1,1.8,3l0.1-0.3l0.2-1.1c0.2-0.9,0.1-1.7-0.3-2.4c-0.4-0.8-0.9-1.4-1.6-1.9l-1.4-1.7
		c-0.6-0.6-0.6-1.3-0.4-2l0.3,0.2l0.4,0.7c0.1,0.4,0.3,0.6,0.7,0.8v-0.2c-0.2-2-0.3-4.1-0.4-6.2c0-2.2-0.3-4.2-0.7-6.3
		c-0.3-2.1-1.1-3.9-2.3-5.7l-0.3-0.4c-0.4-0.5-0.9-0.7-1.3-0.6c-0.6,0.1-1,0.4-1.4,1l-1.1,1.5L315.2,249.1z"/>
	<path class="st7" d="M319.4,247.4l-0.5-0.4l0.3,0.4c1.2,1.8,2,3.6,2.3,5.7c0.4,2.1,0.7,4.1,0.7,6.3c0.1,2.1,0.2,4.2,0.4,6.2
		l0.3,0.3c-0.2-2.1-0.4-4.2-0.5-6.4c0-2.2-0.3-4.3-0.6-6.4C321.4,250.9,320.6,249.1,319.4,247.4z"/>
	<path d="M317.9,260.4c-0.5-0.9-0.8-2-0.9-3.1c0,1.3,0.3,2.6,0.7,3.8c0.4,1.4,1.1,2.7,2,3.8h0.1l0.1-0.3L317.9,260.4z"/>
	<path d="M317.6,265.8h-0.1l-2.2-0.1l-4.3,0.8l1.8,0.1l1.7-0.2l2.8,0.6l2.5,0.9l1,0.5l0.1-0.3l-1.5-1.4
		C318.8,266.3,318.2,266,317.6,265.8z"/>
	<path d="M320.2,275.6h1c0.7,0,1.2-0.2,1.5-0.8l0,0c-2.7,0-5.2-0.3-7.5-0.9c-2.4-0.7-4.7-1.6-6.9-2.7c1.9,1.5,4,2.7,6.2,3.5
		C316.3,275.4,318.1,275.6,320.2,275.6z"/>
	<path class="st7" d="M321.5,264.3l-0.3-0.2c-0.2,0.7-0.2,1.4,0.4,2l1.4,1.7c0.7,0.5,1.2,1.1,1.6,1.9c0.4,0.7,0.5,1.5,0.3,2.4
		l-0.2,1.1l0.3,0.4l0.2-2.2c0.1-0.8,0-1.5-0.5-2l-1.5-1.6c-0.5-0.6-1-1.1-1.3-1.7C321.5,265.5,321.4,265,321.5,264.3z"/>
	<path class="st7" d="M322.4,269.8l-0.1,0.1c0.1,1.3,0.4,2.5,1,3.7c0.6,1.1,1.4,2.1,2.2,3.1l2.6,3.1l-0.1,0.6l-0.1,0.4l0.2,0.1
		l0.3-1l-3.7-4.3l-1.4-2.7c-0.4-0.7-0.6-1.5-0.5-2.4L322.4,269.8z"/>
	<path class="st7" d="M325.2,279.5l-0.2-0.2l-0.1,0.1c1,1.4,2.3,2.5,3.8,3.2l0.5,0.6l0.3,0.7l-0.4,2.1c-0.1,0.8-0.1,1.5,0.1,2.2
		l0.2-0.2c-0.1-0.4-0.2-0.8-0.1-1.3l0.4-1.4c0.2-1.1,0-1.9-0.5-2.5l-2.2-1.4C326.2,281,325.6,280.4,325.2,279.5z"/>
	<path d="M324.6,279.9l-0.2-0.2l-0.3-0.2c-3.4-0.2-6.5,0.3-9.3,1.6c-2.9,1.2-5.5,3.2-7.8,5.8v0.3c2.7-2.1,5.5-3.8,8.4-5.2
		c1.9-0.8,3.9-1.4,6-1.8l0.9-0.2L324.6,279.9z"/>
	<path d="M322.9,285.1h-0.1c0.6-0.5,1.2-0.9,2-1.2c0.7-0.3,1.1-0.9,1.3-1.7l-9.6,5.1v0.3C318.7,287,320.8,286.3,322.9,285.1z"/>
	<path class="st7" d="M330.3,286.9l-0.2,0.2l8.7,11.3l8.3,13.2c1.4,1,2.6,2.2,3.4,3.6c0.9,1.4,1.3,2.9,1.3,4.7l0.1,9.9l0.2,0.1h0.2
		l0.1-0.3c-0.2-1.9-0.2-3.8-0.1-5.8c0.1-2.2-0.1-4.2-0.5-6.2c-0.3-1.3-0.8-2.5-1.8-3.5c-0.9-1.1-1.9-2.1-3-2.9l-7.3-11.8
		L330.3,286.9z"/>
	<path d="M340.9,308c0.4-0.1,0.6-0.2,0.9-0.5c-2.3,0.3-4.4,1-6.4,2.1c-2.2,1.1-4.1,2.7-5.7,4.5c-1.6,1.9-2.8,3.9-3.5,6.2l4.1-4.8
		c1.6-2,3.5-3.6,5.6-4.7l4.1-2l-0.1-0.2C340.2,308.4,340.5,308.1,340.9,308z"/>
	<path d="M328.7,323.9h0.4c2-2.6,4.4-4.7,7.1-6c2.5-1.3,5-2.4,7.6-3.2l0.6-0.3l-0.1-0.1h-0.9c-2.8,0.5-5.5,1.3-8,2.5
		c-2.6,1.2-4.6,3.1-6,5.7l-0.4,0.7C328.8,323.4,328.7,323.6,328.7,323.9z"/>
	<path d="M329.5,324.5l-0.4,0.3l4.2-0.4c1.3-0.3,2.6-0.7,3.8-1.2l5.5-2.9c1.2-0.7,2.3-1.5,3.2-2.6l-0.2-0.3l0.8-0.9
		c-2.5,1.7-5.1,3.2-7.7,4.5C335.8,322.5,332.7,323.8,329.5,324.5z"/>
	<path class="st7" d="M353.3,327.5l-0.2,1.5l0.6,3.9c0.2,1.6,0.3,3.3,0.1,5l0.4,0.5c0.1-1.9,0.1-3.7-0.2-5.5L353.3,327.5z"/>
	<path class="st7" d="M271,229.9l-2.9,0.5c-0.2,1.2-0.2,2.3-0.2,3.5l-0.7,18.7c-0.2,4,0,7.7,0.5,11.3c0.6,3.7,1.2,7.3,1.9,10.9
		l0.3,0.2l0.2-0.2c-0.6-3.4-1.3-6.7-1.8-10.1c-0.6-3.4-0.8-6.9-0.6-10.5c0.2-0.6,0.6-1.2,1.2-1.6c0.6-0.5,1.2-0.8,1.8-1
		c1,0,2,0.3,2.8,0.7l4.5,5.2c0.8,0.8,1.8,1.3,2.9,1.5l0.9,0.2l0.9,0.1c0.1,0.1,0.2,0.2,0.4,0.1l0.5-0.4l-0.2-0.7
		c-1.9-2.4-3.4-4.9-4.5-7.5l-6.8-18.5C271.9,231.4,271.5,230.6,271,229.9z"/>
	<path class="st3" d="M261.8,255.6L261.8,255.6l-7.3,12.5l0.3,0.2l3.8-6.2C259.8,260,260.8,257.9,261.8,255.6z"/>
	<path class="st2" d="M268.6,274.8c-0.9-4.3-1.7-8.7-2.3-13.1c-0.7-4.4-0.8-9-0.5-13.7c-1.7,4.5-3.7,9-5.9,13.3
		c-2.2,4.4-4.9,8.5-8.2,12.4l-0.1,1.1l3,0.4c0.3,0.3,0.5,0.6,0.5,1.1l-0.1,1.2l-3.4,0.5v0.5c0.2,1.3,0.3,2.7,0.2,4.1
		c0,1.5,0.1,2.9,0.4,4.1c3.2-0.9,6.2-2.4,8.9-4.5C263.9,280,266.4,277.6,268.6,274.8z"/>
	<path class="st0" d="M274.2,301.1c-0.6-4.2-1.5-8.4-2.5-12.6l-3.1-12.3c-2.4,2.5-5,4.7-7.8,6.7c-2.8,2-5.8,3.5-8.9,4.5v1.2l0.1,1.1
		l-0.1,0.8c0,0.3-0.2,0.5-0.4,0.7h-3.2c-0.3-0.4-0.4-0.9-0.5-1.5v-1.6l-3.4-0.3c-1.7-0.4-3.2-1.1-4.5-2.2c-1.3-1-2.7-2.3-3.8-3.6
		l-3.2-4c-0.3,4.4-0.7,8.7-1.2,12.9c-0.6,4.3-1.3,8.4-2.2,12.5l1.3,4.1c0.4,1.4,0.7,2.8,0.7,4.3c0.1,1.4-0.3,2.8-1.1,4.1
		c1.1-0.1,2.1-0.3,3.2-0.7l3-1c1.9-0.9,3.8-1.6,5.8-2l6-1.5l0.2,0.1c-0.5,0.4-1,0.6-1.5,0.8l-1.7,0.7c-1.3,0.3-2.5,0.7-3.7,1.4
		l-3.4,1.9c-1.1,0.7-2.3,1.2-3.6,1.6l17.9,0.6l0.3,0.2l-0.3,0.3l-7.7,0.4l-10.7-0.5l-2.8-0.4l-2.8,0.5v0.3l9.3,2.4v0.1l-9.7-1.5v0.5
		c2.6,0.9,5.2,1.6,7.9,2.3c2.6,0.6,5.3,1.2,8,1.7l17.2,1.2l13.7-0.1l0.1-1.2l-6.7,0.7l-0.3-0.3l0.3-0.3l6.6-0.6
		c0.2-0.6,0.2-1.2,0-1.9l-6.2,0.3l-5.6-0.6l0.2-0.2l9.9-0.5l1-0.2c0.3,0,0.5-0.2,0.6-0.4l-3-1c-1-0.3-1.9-0.7-2.9-1.1
		c-1.8-0.8-3.6-1.6-5.3-2.5l-5.3-2.7l0.1-0.1c1.9,0.3,3.8,0.8,5.6,1.5l5.4,2.2c1.8,0.8,3.6,1.4,5.5,1.9c0.1-3,0.1-5.9-0.2-8.6
		L274.2,301.1z M264.2,324l-0.9,0.3c-3.8,0.2-7.6,0.1-11.2-0.3c-3.7-0.4-7.2-1-10.5-1.9l1.3-0.3l1.3,0.1l9.1,1.4L264.2,324z"/>
	<path d="M263.3,324.3l0.9-0.3l-10.9-0.7l-9.1-1.4l-1.3-0.1l-1.3,0.3c3.3,0.9,6.8,1.5,10.5,1.9C255.7,324.4,259.5,324.5,263.3,324.3
		z"/>
	<path class="st3" d="M302.5,310c0.4,0.9,0.5,1.8,0.4,2.7l-1.6,5.3c0.2,1.6,0.7,3.1,1.4,4.4l2,4.2c0.6,1.4,0.6,3,0.1,4.6
		c0.2,1,0.7,1.9,1.3,2.7c0.6,0.9,1.1,1.8,1.4,2.7c0.4,0.9,0.2,1.9-0.4,2.9c-1.4,1.8-2.9,3.3-4.6,4.6l-5.2,3.7l-3.9,1.6
		c0.5,1.4,1.2,2.6,2.1,3.8l7.4,2.2c1.3,0.6,2.5,1.4,3.6,2.3l3.4,2.9c1.1,0.9,2.3,1.7,3.6,2.3c0.1-0.7,0.5-1.4,1.2-1.8
		c0.6-0.4,1.2-0.8,1.9-0.9v-1.6c0.2-0.7,0.5-1.2,1-1.7c0.4-0.6,1.1-0.9,1.7-1c-0.3-0.6-0.4-1.3-0.4-2c0.2-1,0.7-1.9,1.5-2.6
		c0.8-0.8,1.6-1.4,2.5-1.8l3-13.4l-1.3-1.7c-0.5-0.9-0.7-1.8-0.7-2.7c0.1-0.9,0.3-1.8,0.8-2.7l1.2-2.6c-0.3-0.1-0.7-0.3-1-0.4
		c-0.4-0.1-0.7-0.2-1-0.5c-0.5-0.6-0.6-1.3-0.6-2l0.1-2.3c-0.8-0.9-1.3-1.9-1.7-2.9c-0.4-0.7-0.9-1-1.7-1.1c-0.7,0-1.4-0.2-2-0.4
		c-0.9-0.6-1.5-1.3-2-2.2c-0.3-0.8-0.5-1.8-0.5-2.8l-6-5.7c-1.9-2-3.7-4-5.5-6.1l-1.3,4.1c-0.6,1.4-1.1,2.7-1.4,4.1L302.5,310z"/>
	<path class="st2" d="M349.2,336.9l-1.1,0.1l-1.2-0.5c-2.4-2.5-5.2-4.3-8.5-5.3c-3.2-0.9-6.5-0.8-9.9,0.3l-4.5,18.1
		c1.7,0,3.2,0.3,4.7,0.8c1.4,0.4,2.8,1,4.2,1.6c1.3,0.5,2.4,1.3,3.3,2.3l2.6,3.2c2.5-3.4,4.8-6.9,6.8-10.5c2-3.6,3.6-7.4,4.6-11.4
		c-0.3,0.1-0.5,0.3-0.5,0.6L349.2,336.9z"/>
	<path class="st7" d="M353.4,339.3l-0.9-1.4l-1-1.3l-1.6,4.7C351.3,341,352.4,340.3,353.4,339.3z"/>
	<path class="st7" d="M325.8,332.9c-0.2,0.4-0.2,0.7,0,1.1l0.6,1l0.7-2.9C326.6,332.3,326.2,332.5,325.8,332.9z"/>
	<path class="st0" d="M321,353c-0.3,0.5-0.5,1-0.3,1.4c1-0.7,2-1,3.3-0.9l3.4,0.6c1.4,0.4,2.7,1.1,4,2.1c1.2,0.9,2.3,2,3.2,3.3
		c0.9,1.2,1.5,2.7,1.7,4.1l-0.3,1.1c-0.1,0.5-0.4,0.7-0.8,0.8v0.5l0.1,0.4l0.4-0.2c0.2-0.2,0.3-0.3,0.5-0.3c1-0.6,1.6-1.4,1.8-2.4
		l0.1-3.2c-0.5-1.9-1.4-3.4-2.7-4.6c-1.3-1.3-2.8-2.3-4.5-3c-1.7-0.8-3.4-1.3-5.1-1.6l-2.7,0.2C322.2,351.8,321.5,352.4,321,353z"/>
	<path class="st3" d="M316,361.5l-1,0.7c-0.4,0.3-0.6,0.7-0.6,1.1l2.5,0.2l2.3,0.7c2.1,1.5,3.8,3.2,5.3,5.2c1.4,2,2.6,4.1,3.6,6.3
		l0.2,1.1L328,378c-0.4,0-0.6-0.1-0.6-0.4l-0.3-0.7l-0.6,1l1,0.5l1.1-0.1l0.9-0.8l0.4-1c-0.3-1.9-0.9-3.7-1.9-5.2
		c-1-1.7-2.1-3.2-3.3-4.7C322.2,363.9,319.3,362.3,316,361.5z"/>
	<path class="st3" d="M318.8,357.6c-0.4,0.3-0.6,0.7-0.7,1.2c1.8-0.5,3.5-0.5,5.1,0c1.7,0.4,3.2,1,4.6,1.9c1.6,1,3,2.3,4.1,3.8
		c1.2,1.6,1.7,3.3,1.6,5.2c-0.3,0-0.4-0.2-0.4-0.5l-0.2-0.8l-1.3,2.2l1.5-0.2c0.5-0.1,0.8-0.4,1-1c0.3-1.2,0.3-2.2-0.1-3.2l-1.2-3
		c-1.5-2.2-3.3-3.8-5.5-4.9c-2.2-1-4.6-1.5-7.3-1.3L318.8,357.6z"/>
	<path class="st2" d="M319.9,359.6L319,360c-0.2,0.1-0.5,0.4-0.5,0.8c1.7,0.5,3.1,1.3,4.5,2.5c1.3,1.1,2.5,2.3,3.5,3.8
		c1.1,1.4,2,2.8,2.8,4.3l3.1-4c-0.3-0.7-0.6-1.4-1.2-2l-1.6-1.9c-1.3-1.4-2.8-2.2-4.4-2.8C323.5,360,321.8,359.8,319.9,359.6z"/>
	<path class="st2" d="M308.3,360.9c-2-1.7-4.1-3.1-6.3-4.2l-12-3.1c-1.4-0.1-2.7,0-4,0.5l0.3,0.4c0.2,0.6,0.1,1.2-0.4,1.6l-3,1
		l-3.1,0.4l1.3,1c0.5,0.1,1,0.3,1.5,0.6l3.4,0.1l3.2-0.8l3.3-0.1l11.8,3.1l-8-1.1l-7.7,1.8c-1.2,0.5-2.3,1.2-3.3,2.1
		c0.8,0.5,1.2,1.2,1.2,2.2c-0.5,1.1-1.2,1.8-2.3,2.2l-3,1.2l4.3-0.4l4-1.9c1.3-0.7,2.7-1.1,4.1-1.3l4.4-0.3c1.5,0.2,3,0.7,4.3,1.4
		l3.4,0.1c1.1,0,2.1,0.2,3.2,0.6l0.2,0.3l-0.2,0.2c-1.9-0.2-3.9-0.2-5.8-0.1l-5.8,0.5l-5.5,1.7c-1.8,0.5-3.5,1.5-5,2.7l0.7,0.8
		l0.4,0.9c-0.3,0.9-1,1.6-1.9,2.1l-2.7,1.4l0.4,0.3l0.4,0.1l0.4-0.2l0.4-0.4c3.9-1.6,7.9-3,11.9-4.2l5.9-0.2l5.7,0.5
		c0,0.3-0.1,0.4-0.3,0.6c-3.1-0.2-6.1-0.3-9.2-0.2c-3.1,0.2-5.9,1-8.3,2.3l0.5,0.3l0.5,0.5c0.2,0.2,0.2,0.5,0.1,0.9l-0.3,0.7
		c-0.7,0.4-1.4,0.6-2.2,0.7c-0.8,0.1-1.5,0.2-2.2,0.5l2.1,0.4l2.3,0.1c2-1.1,4.3-1.6,6.9-1.6c2.5-0.1,4.9,0.3,7,1.2
		c2.2,0.9,4.4,2,6.5,3.3c2,1.3,4.2,2.3,6.5,3.2l1.7-0.8l1.5-1.1c1-0.6,1.5-1.6,1.6-2.7l-0.1-3.3c-0.7-2.6-1.7-5.1-3-7.5
		s-3.2-4.6-5.5-6.5L308.3,360.9z M310,366l-2.2-3.8C308.9,363.4,309.7,364.5,310,366z"/>
	<path d="M307.8,362.3l2.2,3.8C309.7,364.5,308.9,363.4,307.8,362.3z"/>
	<path class="st3" d="M319.5,367.5c-1-1.2-2.1-2.1-3.5-2.7c4,3.5,6.5,7.6,7.5,12.5c0.5,1.2,0.7,2.6,0.8,4.3c0,1.5-0.3,2.9-1,4.2
		c0.4,0,0.7-0.1,0.9-0.4l0.5-0.9c0.3-1.7,0.3-3.2,0.1-4.9c-0.2-1.6-0.6-3.1-1.1-4.5l-1.9-3.9C321.1,369.8,320.4,368.5,319.5,367.5z"
		/>
	<path class="st2" d="M335.3,363.1c0-0.3-0.1-0.4-0.4-0.4l-0.6,0.1c-0.6-0.8-1.2-1.7-1.6-2.8c-0.4-1-1.1-1.9-1.9-2.6
		c-1.8-1.2-3.7-2.1-5.8-2.7h-1.9c-0.7,0.1-1.2,0.4-1.6,0.9h2.4c2.5,0.4,4.7,1.4,6.7,3.2c1.9,1.7,3.3,3.7,4.2,6.1l0.5-0.4l0.2-0.7
		L335.3,363.1z"/>
	<path class="st2" d="M320.9,367.5c1.1,1.6,2,3.3,2.8,5c0.7,1.8,1.3,3.6,1.7,5.5l0.8-1.1c0.3-0.4,0.5-0.8,0.6-1.2
		C325.3,372.6,323.4,370,320.9,367.5z"/>
	<path class="st2" d="M276.4,335.5c-0.1-2.8-0.4-5.6-0.8-8.3l-6.4,0.2l-19.3-1.2c-7.3-0.8-14.5-2.2-21.3-4.2L229,344
		c0.6,2.3,0.9,4.7,0.7,7.3c0.1,0.4,0,0.8-0.2,1.1l-0.8,0.9c-0.2,0.3-0.3,0.7-0.1,1.2l-2.8,0.7l-2.9,0.3l3.3,10l-0.3,0.3l-2.5-4.6
		c-0.4,2.7-0.9,5.3-1.5,8l-1.7,7.8c-0.1,0.9,0.2,1.7,0.7,2.4l1.9,1.8c0.8,0.5,1.4,1,2.1,1.5l6.9,3c2.4,1,4.8,1.7,7.3,2.3l8,0.4
		c0.7-0.5,1.4-0.8,2.2-1c7.9-0.3,15.5-1.2,22.9-2.8c1.1-0.3,2.2-0.2,3.1,0.4l10.2-4.3c-0.1-0.5-0.4-0.9-0.8-1.2l-2.2-0.3
		c-1.1-0.7-1.5-1.6-1.3-2.9c1-1.2,2.2-2.1,3.5-2.9l3.7-2.5l5-2c1.7-0.7,3.4-1.1,5.3-1.2l0.3-0.7l-3-0.3l-4.4,1
		c-1.5,0.3-2.9,1.1-4.1,2.1c-1,0.6-2.2,0.9-3.5,1c-1.4,0.2-2.6,0-3.7-0.6c-0.5-0.3-0.8-0.7-1.1-1.3c-0.2-0.5-0.3-1-0.2-1.6l1.9-1.5
		c0.6-0.5,1.2-0.9,1.9-1.3c1.3-1.3,2.6-2.3,4.1-2.9c1.5-0.7,3.1-1.2,4.7-1.5l1.2-0.1c0.4,0,0.7-0.1,1-0.4c-1.2-0.7-2.4-0.9-3.4-0.7
		c-1.1,0.2-2.2,0.5-3.3,0.9l-3.5,0.3c-1.1-0.2-2-0.5-3-1c-0.9-0.5-1.6-1.3-2.1-2.2c0-0.9,0.3-1.5,0.9-1.8c0.5-0.3,1.2-0.5,1.9-0.5
		l2-0.4c1.6-0.9,3.3-1.5,5.3-1.8c1.9-0.3,3.8-0.1,5.5,0.7c-0.6-1.2-1.4-2.2-2.4-3.1l-7.6,1.4c-1.3,0.1-2.5-0.1-3.6-0.7
		c-0.8-0.6-1.4-1.2-1.6-2.1l-0.6-2.5c-0.2-0.9-0.7-1.6-1.6-2.2C276.6,341.1,276.4,338.4,276.4,335.5z M256.7,353.4l1.1-0.1
		c0.4,0.1,0.5,0.4,0.6,0.9c0.4,0.8,0.7,1.7,0.9,2.7c0.2,1,0,1.9-0.6,2.7l0.9,2.7l-1.5-2.6c-0.4-1-1-1.9-1.8-2.6l-0.3-1.4l0.1-1.4
		C256.1,353.9,256.3,353.5,256.7,353.4z"/>
	<path d="M257.8,353.3l-1.1,0.1c-0.4,0.2-0.6,0.5-0.6,0.9l-0.1,1.4l0.3,1.4c0.8,0.7,1.4,1.6,1.8,2.6l1.5,2.6l-0.9-2.7
		c0.6-0.8,0.8-1.7,0.6-2.7c-0.2-1-0.5-1.9-0.9-2.7C258.3,353.6,258.2,353.4,257.8,353.3z M257.2,356.1c-0.3-0.7-0.3-1.3-0.2-1.9
		l0.2-0.3c0-0.2,0.1-0.2,0.3-0.1l0.7,2.1l0.2,1.7C257.8,357.3,257.4,356.8,257.2,356.1z"/>
	<path class="st2" d="M257,354.3c-0.1,0.6-0.1,1.2,0.2,1.9c0.2,0.6,0.6,1.1,1.2,1.5l-0.2-1.7l-0.7-2.1c-0.2-0.1-0.3-0.1-0.3,0.1
		L257,354.3z"/>
	<path class="st0" d="M280.4,355.5c-0.5,0.1-0.8,0.6-0.9,1.2l3.6-0.3l1.4-0.5c0.4-0.1,0.7-0.4,0.8-0.9c-0.2-0.4-0.4-0.5-0.7-0.4
		l-0.9,0.4L280.4,355.5z"/>
	<path class="st0" d="M279.8,368.4l0.2,0.6l2.8-0.7l2.5-1.5l0.3-0.6c0.1-0.3,0.1-0.4-0.1-0.7l-0.4-0.7c-0.2-0.2-0.5-0.3-0.7-0.1
		L282,366c-0.7,0.4-1.5,1-2.2,1.7V368.4z"/>
	<path class="st0" d="M287.1,375.4c-0.1-0.6-0.3-1.2-0.8-1.6c-1.4,0.8-2.7,1.7-4,2.9c-0.2,0.3-0.2,0.6,0,0.9l0.6,0.7L287.1,375.4z"
		/>
	<path class="st3" d="M297.5,380.5c-1,0.1-1.9,0.3-2.9,0.7l-2.8,0.7l-3.1,0.1l-4.8,2.5c-1.7,0.8-3.3,1.4-5.1,2
		c2.2,0.3,4.1,1.3,5.8,2.9c0-1.3,0.3-2.4,0.8-3.4c0.7-1,1.5-1.7,2.5-2c0.9-0.4,2-0.6,3.1-0.5c0.9,0.2,1.6,0.6,2.2,1.3
		c0.7,0.7,1.1,1.4,1.4,2.2c0.3,1.2,0.3,2.4,0.1,3.6c-0.2,1.1-0.8,2.2-1.9,3.1c-0.7,0.5-1.6,0.8-2.5,1l-2.7-0.4l-0.7-0.5
		c-0.2-0.3-0.4-0.4-0.7-0.5c0.3,1.3,0.3,2.6,0.2,3.9c-0.2,1.4-0.5,2.6-1,3.7c4-2.1,7.8-4.4,11.6-6.9s7.4-5.4,10.8-8.7v-0.2l-2.3-1.2
		l-2.6-0.2c-0.9,0-1.7-0.4-2.4-1c-0.6-0.6-1.1-1.3-1.5-2L297.5,380.5z"/>
	<path class="st3" d="M299.9,380.9c0.3,0.7,0.8,1.2,1.5,1.6l2,0.5C302.3,382,301.1,381.5,299.9,380.9z"/>
	<path class="st3" d="M293.2,386.8l-0.5-0.8c-1.3-1-2.7-1.4-4.3-1c-1,0.5-1.6,1.2-1.9,2.1c-0.4,0.9-0.5,1.8-0.6,2.8
		c0.2,0.8,0.5,1.5,0.9,2.1c0.4,0.7,0.9,1.2,1.7,1.6l2.5-0.1c0.7-0.3,1.4-0.8,1.9-1.4c0.6-0.7,0.9-1.6,0.9-2.6
		C293.7,388.4,293.5,387.5,293.2,386.8z M287.4,386.9c0.7-0.7,1.4-1,2.4-0.9c0.9,0,1.6,0.4,2.2,1.2l0.7,1.7l-0.1,2
		c-0.2,0.5-0.6,0.9-1,1.1l-1.5,0.4l-1.6-0.4c-0.5-0.2-0.9-0.6-1.2-1.1c-0.3-0.7-0.4-1.4-0.5-2C286.8,388.1,287,387.5,287.4,386.9z"
		/>
	<path d="M289.8,386c-1-0.1-1.7,0.2-2.4,0.9c-0.4,0.6-0.6,1.3-0.6,2c0.1,0.6,0.2,1.3,0.5,2c0.3,0.5,0.7,0.9,1.2,1.1l1.6,0.4l1.5-0.4
		c0.4-0.2,0.8-0.6,1-1.1l0.1-2l-0.7-1.7C291.4,386.4,290.7,386,289.8,386z M289.6,386.8c0.6,0,1.1,0.2,1.5,0.7
		c0.3,0.4,0.4,0.8,0.5,1.3v1.5l-0.7,0.8l-1.1,0.3c-0.8-0.1-1.4-0.5-1.9-1.3l-0.1-1.2c-0.1-0.4,0-0.8,0.3-1.2
		C288.4,387.1,288.9,386.9,289.6,386.8z"/>
	<path class="st3" d="M291.1,387.5c-0.4-0.5-0.9-0.7-1.5-0.7c-0.7,0.1-1.2,0.4-1.5,0.9c-0.3,0.4-0.4,0.8-0.3,1.2l0.1,1.2
		c0.5,0.8,1.1,1.2,1.9,1.3l1.1-0.3l0.7-0.8v-1.5C291.5,388.3,291.4,387.9,291.1,387.5z"/>
	<path class="st0" d="M291,378.3c-0.3-0.5-0.7-0.7-1.1-0.9c-1.4,0.5-2.7,1.1-4,1.9c0,0.1,0,0.3,0.2,0.5l0.3,0.5l3.6-0.8
		C290.5,379.3,290.9,378.9,291,378.3z"/>
	<path class="st3" d="M281.6,384.3l5.1-2.4l-0.6-0.3l-9.8,4.1v0.3C278.1,385.6,279.9,385,281.6,384.3z"/>
	<path class="st3" d="M284.3,400c0.8-1.3,1.2-2.8,1.1-4.4c-0.1-1.7-0.5-3.2-1.3-4.4c-0.8-1.4-1.8-2.4-3.1-3c-1.4-0.7-2.8-1-4.4-0.8
		c0.1,2.8,0.3,5.7,0.7,8.6l0.9,8.5c1.2-0.3,2.4-0.9,3.4-1.7C282.7,402,283.6,401.1,284.3,400z"/>
	<path class="st0" d="M290.3,400.1l0.1,0.1l-4.7,3.3c0.4,2.9,1,5.9,1.7,8.8l6.4,36.7c1,4.8,1.8,9.8,2.3,14.8l5.3-2.1
		c1.5-0.5,3-1.1,4.3-1.8l4.1-2.3l-1.9-2.9l-7-19.7l-5-17.7c-1.7-5.9-3.1-11.9-4.4-18L290.3,400.1z"/>
	<path class="st0" d="M300.7,393l-4.2,3.2c-1.5,0.9-2.9,1.9-4.3,2.9c1.1,5.7,2.5,11.3,4.2,16.8c1.6,5.5,3.4,10.9,5.3,16.3l6.6,16.9
		c1,2.6,2.1,5.3,3.3,7.9l0.4-0.3c0-0.2,0.2-0.2,0.4-0.3l-1.5-9.6c-1.4-5.9-2.4-11.9-3.2-18l-2.7-18.2
		C304,404.5,302.5,398.6,300.7,393z"/>
	<path class="st3" d="M274.8,386.4c-0.2-0.4-0.6-0.7-1.1-0.8c-7.9,1.6-15.9,2.6-24.2,3.1c-0.6,0.2-1.1,0.6-1.3,1.3l-0.5,1.9
		l2.2,16.1c0,0.7,0.3,1.4,0.9,1.9c1.4,0.6,2.9,1,4.4,1.2c7.4-0.1,14.4-1.1,21-3.1l0.8-0.5l0.5-0.8L274.8,386.4z M274.7,392.8
		c-0.3,0-0.3,0.1-0.3,0.3l0.9,7.5l0.8,1.1c0.1,0.4,0.1,0.9,0,1.4c-0.4,0.3-0.6,0.6-0.5,1.1l0.1,1.2l-0.3,1.2
		c-2.6,1.1-5.5,1.8-8.4,2.1l-11.2,0.7l-2-0.1c-0.6-0.2-1.1-0.6-1.5-1.2c-0.7-2.6-1.2-5.4-1.6-8.1l-0.8-8.5c0-0.4,0.3-0.6,0.6-0.8
		l11.1-0.8l10.5-2c0.6,0.1,1,0.3,1.4,0.8l0.4,1.7c0.1,0.5,0.4,1,0.9,1.5L274.7,392.8z"/>
	<path d="M274.4,393c0-0.2,0-0.3,0.3-0.3l0.1-0.9c-0.5-0.5-0.8-1-0.9-1.5l-0.4-1.7c-0.4-0.5-0.8-0.7-1.4-0.8l-10.5,2l-11.1,0.8
		c-0.3,0.2-0.6,0.4-0.6,0.8l0.8,8.5c0.4,2.7,0.9,5.5,1.6,8.1c0.4,0.6,0.9,1,1.5,1.2l2,0.1l11.2-0.7c2.9-0.3,5.8-1,8.4-2.1l0.3-1.2
		l-0.1-1.2c-0.1-0.5,0.1-0.8,0.5-1.1c0.1-0.5,0.1-1,0-1.4l-0.8-1.1L274.4,393z M270.4,392.3c-0.1,0.3-0.1,0.5,0.1,0.7l0.7,0.4h1.2
		c0.5,0,0.8,0.1,1,0.4l0.9,7.5l-1.5,0.9c-0.7,0.2-0.9,0.7-0.9,1.4c0.4,0.4,0.8,0.6,1.2,0.6l1.4-0.2c0.2,0.2,0.3,0.6,0.2,0.9
		c0,0.4,0,0.7,0.1,1c-1,0.5-2,0.9-3.2,1.2l-10.5,1.6c-2.5,0.2-4.9,0.2-7.4-0.1c-0.5-0.4-0.8-0.9-0.9-1.5l-0.5-1.7l-1.1-6.9
		c-0.4-2.3-0.6-4.7-0.8-7.1l11.1-0.6c3.6-0.3,7.1-1,10.5-1.8c0.4,0,0.6,0.1,0.8,0.4v1.2l-1.5,0.5
		C270.8,391.3,270.5,391.6,270.4,392.3z M273.1,392.6l-1.4,0.1h-0.2c-0.1-0.3,0-0.5,0.2-0.6c0.1-0.1,0.3-0.3,0.6-0.4l0.8-0.1
		c0.3-0.1,0.6,0,0.8,0.2C273.9,392.4,273.6,392.5,273.1,392.6z M275.3,401.8l0.2,0.4v0.4l-1.4,0.9c-0.5,0.2-1,0.2-1.5,0
		c0.1-0.6,0.5-1,1.1-1L275.3,401.8z"/>
	<path class="st3" d="M270.5,393c-0.2-0.2-0.2-0.4-0.1-0.7c0.1-0.6,0.4-1,0.9-1.2l1.5-0.5v-1.2c-0.2-0.3-0.4-0.4-0.8-0.4
		c-3.4,0.8-6.9,1.5-10.5,1.8l-11.1,0.6c0.2,2.4,0.4,4.8,0.8,7.1l1.1,6.9l0.5,1.7c0.1,0.6,0.4,1.1,0.9,1.5c2.5,0.3,4.9,0.3,7.4,0.1
		l10.5-1.6c1.2-0.3,2.2-0.7,3.2-1.2c-0.1-0.3-0.1-0.6-0.1-1c0.1-0.3,0-0.7-0.2-0.9l-1.4,0.2c-0.4,0-0.8-0.2-1.2-0.6
		c0-0.7,0.2-1.2,0.9-1.4l1.5-0.9l-0.9-7.5c-0.2-0.3-0.5-0.4-1-0.4h-1.2L270.5,393z"/>
	<path class="st3" d="M271.7,392.8l1.4-0.1c0.5-0.1,0.8-0.3,0.8-0.8c-0.2-0.2-0.5-0.3-0.8-0.2l-0.8,0.1c-0.3,0.1-0.5,0.3-0.6,0.4
		c-0.2,0.1-0.3,0.3-0.2,0.6H271.7z"/>
	<path class="st3" d="M275.5,402.1l-0.2-0.4l-1.6,0.7c-0.6,0-1,0.4-1.1,1c0.5,0.2,1,0.2,1.5,0l1.4-0.9V402.1z"/>
	<path class="st0" d="M275.4,410l-2.9,0.8l-0.8,0.3c0.9,6.8,2,13.5,3.3,20.1c1.2,6.6,2.4,13.4,3.3,20.1l1.2,8.2c0.4,2.7,1,5.4,1.6,8
		c0.5,0.5,1,0.7,1.7,0.8l9.1-1.9l-0.2-0.4c-1.1-3.1-2-6.3-2.8-9.5l-4.8-20.6c-0.8-3.6-1.8-7.3-2.8-10.8l-3.2-14.9l-0.5-1.3l-0.3,0.3
		L275.4,410z"/>
	<path class="st0" d="M268.8,411.1c-0.4,0.2-0.8,0.5-1.2,0.8v6c0.1,2,0.2,4,0.5,5.9l0.8,16.3c-0.1,2.3-0.1,4.6,0.1,6.9l0.2,7
		l-0.1,0.2c0.3,2.5,0.5,5,0.4,7.6c0,2.5-0.1,5.1,0,7.6l10.2-2.6l-0.1-0.7l-0.3-0.5l-1.8-8.6l-3.7-23.1c-1.3-7.6-2.5-15.3-3.5-23.1
		L268.8,411.1z"/>
	<path class="st0" d="M278.6,408.3l1.9,9.4l6.2,20.9c0.8,4.4,1.8,8.6,3.1,12.7c1.3,4.2,2.4,8.4,3.4,12.6c0.1,0.5,0.4,0.6,0.8,0.5
		l1.2-0.2c-0.6-2.6-1.1-5.3-1.6-7.9l-1.3-8c-0.9-4.4-1.7-8.7-2.3-13.2c-0.7-4.5-1.5-8.9-2.4-13.2l0.1-0.2l-2.9-17.5
		C282.7,405.3,280.6,406.6,278.6,408.3z"/>
	<path class="st0" d="M316.9,391.5l-0.5-0.6l-1.2-0.1c-0.5,0-0.8,0.1-1.1,0.4l5.8,24.8c1.3,5.2,2.7,10.4,4.3,15.5V431L324,430
		l-0.1-1.1c-0.9-4.2-1.6-8.3-2.3-12.5l-2-12.6C318.9,399.5,318,395.5,316.9,391.5z"/>
	<path class="st0" d="M308.9,386c-0.1,1.2,0,2.3,0.3,3.4l4.2,22.2c0.3,1.5,0.6,2.9,1.1,4.3c2.4,10.1,5.5,19.9,9.3,29.5l2.4-2.4
		L322,429c-1.5-4.6-2.7-9.3-3.7-14.1l-5.3-24.1c-0.2-1.2-0.7-2.2-1.2-3.1C311.2,386.8,310.2,386.3,308.9,386z"/>
	<path class="st0" d="M307.9,387l-4.4,3.7l3.3,26.2l6.4,39.3l3-1.9l2.7-2.5c0.6-0.7,1.2-1.3,1.9-1.8l1.8-1.8
		c-2.3-5.8-4.2-11.8-5.8-17.9c-1.5-4.6-2.7-9.4-3.6-14.2L307.9,387z"/>
	<path class="st3" d="M324.5,431.8h-0.2v0.4h0.2V431.8z"/>
	<path class="st9" d="M311.5,458.4l-1.5,1.2c-2.3,1.6-4.6,3.1-7.1,4.4l-7.1,3.6l2-0.5l0.4,0.4l-0.7,0.6c-0.2,0.1-0.5,0.3-0.7,0.5
		c-2.7,1.3-5.5,2.2-8.5,2.8l-8.8,2.1v0.1l6.1,0.9l0.2-0.1c0.3,0.1,0.7,0.1,1.1,0c3.6,0.2,7.1,0.2,10.5-0.2c3.5-0.4,6.8-1.1,10-2.1
		c0.7-0.3,1.5-0.6,2.2-0.8c0.8-0.2,1.4-0.6,2.1-1.1c0.4-2.1,0.7-4.1,0.9-6.3l0.7-6.3C312.7,457.6,312,458,311.5,458.4z"/>
	<path class="st0" d="M311.7,471.8c-2.2,1-4.5,1.8-6.8,2.3l-7.3,1l-10.7,0.4l-8.3-0.4l-8.1-1.4l0.7,12.6l-0.2,0.2
		c0.2,0.7,0.2,1.4,0.1,2.3c-0.1,0.8,0.2,1.5,0.7,2.1l6.5,2.2c2.1,0.7,4.4,1.2,6.7,1.5l8.5,0.6c2.4-0.3,4.7-0.8,6.8-1.5
		c1.6-0.8,3.2-1.5,5-2c1.7-0.7,3.3-1.6,4.7-2.7l1.2-6.6l0.1-5.3C311.3,475.3,311.5,473.5,311.7,471.8z"/>
	<path class="st0" d="M267.2,446.6l-0.1-17.5l0.1-0.2l-1-16.6l-7.1,1.9l0.2,3l-0.1,0.2l0.1,0.4c-0.2,0.1-0.2,0.2-0.1,0.3
		c0.2,0.2,0.1,0.3,0,0.4c0.1,1.3,0.1,2.7,0.1,4l0.1,4c0,7.1-0.4,14-1.4,20.8c-0.9,6.7-2,13.5-3.3,20.1l13,0.2l-0.3-3.2
		C267.2,458.5,267.1,452.6,267.2,446.6z"/>
	<path class="st1" d="M249.7,143.1L249.7,143.1l-2.3,3.1h-0.2l-0.5-4.7h-0.3l-0.1,4.7l-0.3,0.2l-0.2-0.2l-1-4.5l0.3,4.7l-0.1,0.2
		l0.1,0.1l-0.2,0.4l-3.6-5l1.7,4.3c-0.2,0.2-0.3,0.3-0.5,0.3l-3.3-4.2c0,0.5-0.2,0.7-0.6,0.6l-1-0.2l3.3,4.4l-0.2,0.3l-2.3-1.3
		c-0.7-0.5-1.5-0.8-2.4-0.9l0.5,0.2l3.4,2.4c1.2,0.7,2.3,1.5,3.5,2.4l-3.5-5.1l0.2-0.1l5.3,4.8h0.5c0.4-0.3,0.6-0.8,0.5-1.5l0.1-1.7
		h0.3l0.2,1.1v0.8l0.4-0.6c0.4,0.1,0.6,0.3,0.6,0.7l-0.3,0.9h0.1l2-4.8h-0.2v0.3l-0.5,0.4L249.7,143.1z"/>
	<path class="st1" d="M257.9,148.4c-1.2,0.5-2.1,1.3-2.9,2.3l-1.6,2.5C254.6,151.4,256.1,149.9,257.9,148.4z"/>
	<path class="st1" d="M255.2,148.6c-1.3,0.7-2.4,1.6-3.4,2.7c-0.9,1.2-1.7,2.4-2.2,3.7l0.8-0.4C251.6,152.4,253.2,150.4,255.2,148.6
		z"/>
	<path class="st1" d="M240.4,149.9l-3-2.4l-4.7-0.8L240.4,149.9z"/>
	<path class="st1" d="M234.7,164.4c1-1.4,2.3-2.4,3.8-3.2c1.1-0.5,2.3-0.7,3.6-0.7l3.7,0.4c0.4,0,0.8,0.2,1.1,0.5
		c0.2,0.3,0.3,0.8,0.4,1.2c0,0.5,0,0.9-0.3,1.3l1.7-2.2c0.1,0.3,0.1,0.6,0.1,0.8l-0.2,0.8l-1.2,1.2l0.6,0.2l1-1.4
		c0.2-0.6,0.4-1.1,0.5-1.7c-0.5-1.1-1.2-2-2.2-2.6c-1-0.6-2-1.1-3.1-1.5c-2.5-0.2-5-0.2-7.4,0.1c-2.4,0.3-4.6,1.3-6.4,2.9
		c-0.4,0.5-0.8,1-1.3,1.4l-1.4,1.4c-0.3,0.5-0.3,1.1,0,1.9l1,0.9l1.2,0.7l-4.6,8.5l4.7-7.5l0.8-0.7c0.2,0.1,0.3,0.4,0.2,0.6
		l-6.7,10.7l-2.7,5.6l-0.7,0.7c-0.2,0.2-0.3,0.6-0.2,1.1c3.1-2.3,5.4-4.9,7.1-8c1.7-3,3.1-6.1,4.2-9.3L234.7,164.4z M233.9,160.3
		c1-0.8,2.1-1.3,3.3-1.5l7.9,0.1l-0.2,0.3l1.2,0.2c0.4,0.1,0.6,0.4,0.8,0.8l-2.2-0.7l0.2-0.2h-4.4c-1.4-0.1-2.8,0.1-4,0.7
		c-1.3,0.6-2.4,1.3-3.6,2.1l-1.4,1.7l-1.1,1.9c-0.8-0.2-1.4-0.6-1.8-1.3l1.7-2.1l2.1-1.8l1.5-0.7l-0.1,0.3L233.9,160.3z"/>
	<path d="M237.2,158.8c-1.2,0.2-2.3,0.7-3.3,1.5l-0.1-0.2l0.1-0.3l-1.5,0.7l-2.1,1.8l-1.7,2.1c0.4,0.7,1,1.1,1.8,1.3l1.1-1.9
		l1.4-1.7c1.2-0.8,2.3-1.5,3.6-2.1c1.2-0.6,2.6-0.8,4-0.7h4.4l-0.2,0.2l2.2,0.7c-0.2-0.4-0.4-0.7-0.8-0.8l-1.2-0.2l0.2-0.3
		L237.2,158.8z"/>
	<path class="st0" d="M204.4,200.3l-3.8-3.9l-0.4-0.2L204.4,200.3z"/>
	<path class="st2" d="M202.8,199.6l-2.3-2.3l-0.7,1.6c-0.3,0.8-0.3,1.5,0,2.2l1,2l2.1,2.3c0.8,0.8,1.6,1.3,2.6,1.8l-0.3-1.7v-4
		C204.3,201.1,203.5,200.4,202.8,199.6z"/>
	<path class="st2" d="M199.1,201.4l-0.2,0.5c-0.1,0.2,0,0.4,0.1,0.6l0.4-0.4C199.4,201.9,199.3,201.6,199.1,201.4z"/>
	<path class="st2" d="M199.1,205.4l0.9,1.9l0.8-0.9c0.4-0.3,0.7-0.5,1.1-0.5l-2.2-3.3l-0.7,0.8C198.8,204.1,198.8,204.9,199.1,205.4
		z"/>
	<path class="st0" d="M196.3,214.1l-0.4,0.2l-0.1,0.3c0.2,0.5,0.5,0.7,1,0.8l-0.2-1.3H196.3z"/>
	<path class="st2" d="M197.3,214.1l0.1,0.2c0,0.1,0,0.2-0.1,0.3c0.1,0.4,0.3,0.8,0.6,1.2c0.6,0.4,1.3,0.6,2,0.5l2.1-0.6l-1.3-3.7
		L197.3,214.1z"/>
	<path class="st2" d="M213.3,206.9l-1.6-1.2l-0.2,5.1C211.6,209.1,212.2,207.9,213.3,206.9z"/>
	<path class="st2" d="M215.1,208.1l-1.1-0.7l-0.8,2.7l-0.2,3c0.2-1,0.5-1.8,0.9-2.6L215.1,208.1z"/>
	<path class="st2" d="M220.4,212.3c-1.3-1.6-2.9-2.9-4.9-3.6c-0.9,1.4-1.5,3-1.8,4.8c-0.3,1.7-0.3,3.5-0.1,5.4
		c0.1,0.6,0,1.2-0.2,1.8l-0.4,1.7c-0.1,0.5,0.2,1,0.9,1.5l-0.3,0.3l-1.9-2c-1-1.1-1.8-2.5-2.2-3.9l-1.1-4.5c-0.3-1.6-0.8-3-1.5-4.2
		c-0.7-1.3-1.9-2.3-3.4-3l1.2,3.6c0.2,0.6,0.2,1.3,0,2c-0.1,0.3-0.4,0.6-0.6,0.7l-1,0.2c-0.6-0.1-1.1-0.4-1.4-0.9l2.1,6.2
		c0.8,2,1.4,4.2,1.8,6.4c0.5,2.1,0.5,4.4,0.2,6.7c0.5,2.8,1.5,5.5,2.9,8c1.5,2.5,3.2,4.9,5.2,7.2l2.1,2.5c0.6,0.8,1.4,1.5,2.3,2
		l3.1,1c1.1,0.3,2.2,0.5,3.3,0.5c1.1,0,2.1-0.4,2.9-1.3l0.9-24.2c-0.5-2.1-1.2-4.2-1.9-6.2c-0.8-2-1.9-3.8-3.3-5.5l0.4,0.9
		c0.1,0.4,0.1,0.7,0.1,1C222.8,215.6,221.7,213.9,220.4,212.3z"/>
	<path class="st2" d="M208.4,207.3l-0.1-3.6l-1.5-1l0.6,2.4l0.7-0.8c0.2,0.5,0.3,0.9,0.2,1.5L208.4,207.3z"/>
	<path class="st0" d="M201.8,206.6c-0.5,0.1-0.8,0.4-1.2,0.8l0.9,3.8l0.8,1.1c0.3,0.4,0.7,0.4,1.3,0.3l0.4-0.8l0.2-0.8l-1.5-4.3
		L201.8,206.6z"/>
	<path class="st2" d="M200.7,224.3l0.6,0.5l1.8-0.1l1.4-1.2c0-1.2-0.3-2.3-0.7-3.3l-0.8,1c-0.1,0.6-0.4,1.1-0.8,1.6L200.7,224.3z"/>
	<path class="st2" d="M212.5,221.9l0.1-1.2c-0.5-0.6-1.1-1-1.8-1.4C211.3,220.3,211.8,221.1,212.5,221.9z"/>
	<path class="st2" d="M222.4,195.4c-0.2-0.5-0.7-0.7-1.5-0.5c-0.5,0.5-0.8,1.1-0.8,1.8c0.6,4.3,2.3,8.1,5.2,11.4
		c-0.2-0.5-0.1-0.9,0.3-1.2c0.5,0,0.9,0.3,1,0.9l0.3,1.5l0.6,0.4c-0.7-1.2-1.1-2.5-1.4-3.7c-1-0.9-1.8-1.8-2.5-2.9
		c-0.6-1-0.9-2.2-0.7-3.6l-2.2-1.5v-0.2c0.5,0,0.9,0.1,1.4,0.4l1.3,0.8l-0.4-1.9L222.4,195.4z"/>
	<path class="st2" d="M224,200.4l-0.5-0.4l0.4,2.2c0.2,0.7,0.5,1.3,0.9,1.6L224,200.4z"/>
	<path class="st3" d="M225.9,207.4l-0.2,0.2l3,10.2c1.1,3.3,2.7,6.5,4.8,9.5h0.2c0.1-0.1,0.2-0.2,0.2-0.4v-0.4l-0.4,0.1
		c-2.1-2.8-3.6-5.9-4.7-9.2L225.9,207.4z"/>
	<path class="st3" d="M233.5,225.9c-0.3-2.2-0.8-4.5-1.7-6.5l-2.5-6.2L233.5,225.9z"/>
	<path class="st8" d="M178.9,239.4l-2.2,5.9c0.3,1.6,0.8,3.3,1.3,4.9l3.1,9.4l-2.4,1.2l-2.2,1.5l0.1,0.1l2.4-1l2.5-0.6l6.9,19.9
		c0.5,1.3,1,2.7,1.4,4.1l1.2-0.4l-6.5-24.2h1.8l6.4,23.8l-0.1,0.1l3-0.2l4.6,1.3c1.5,0.3,3,0.8,4.4,1.5c0.7-1.2,1.2-2.5,1.6-3.8
		l1.2-4.1c-2.4-3.1-4.4-6.4-5.8-9.9l-0.5-1c-0.3-0.3-0.3-0.6-0.3-0.9l0.8,0.8l0.6,0.9l-5.8-15.1l-2.7-5.9c-0.9-2-1.9-3.9-3.1-5.8
		c-1.2-1.8-2.7-3.5-4.5-5.1c-0.7-1-1.6-1.7-2.5-2.4l-2.7-1.9c0.1,0.5,0.1,1-0.1,1.6l-0.7,1.5l0.3,1.2v1.3l5.6,20.7h-1.9l-4.1-15.7
		C179.7,241.9,179.3,240.6,178.9,239.4z M196.8,262.8l0.8,0.6c-3.7-1.5-7.4-2.6-11.4-3.4h-1.5l-4.1,1c-1.4,0.3-2.8,0.8-4.1,1.4
		c2.4-1.7,4.9-2.9,7.7-3.4c2.4-0.1,4.6,0.3,6.6,1.2L196.8,262.8z M205,283.5c-0.3,0.3-0.5,0.3-0.7,0.2l-0.8-0.2
		c-1.3-0.3-2.5-0.9-3.7-1.6l-3.4-2.3c-1.1-0.7-2.4-1.3-3.6-1.7l1.1,0.1l5.9,2.3c1.7,0.7,3.3,1.4,4.8,2.2
		C204.9,282.9,205,283.1,205,283.5z"/>
	<path d="M197.6,263.4l-0.8-0.6l-6-2.6c-2-0.9-4.2-1.3-6.6-1.2c-2.8,0.5-5.3,1.7-7.7,3.4c1.3-0.6,2.7-1.1,4.1-1.4l4.1-1h1.5
		C190.2,260.8,193.9,261.9,197.6,263.4z"/>
	<path d="M204.3,283.8c0.2,0.1,0.4,0.1,0.7-0.2c0-0.4-0.1-0.7-0.4-1c-1.5-0.8-3.1-1.5-4.8-2.2l-5.9-2.3l-1.1-0.1
		c1.2,0.4,2.5,1,3.6,1.7l3.4,2.3c1.2,0.7,2.4,1.3,3.7,1.6L204.3,283.8z"/>
	<path class="st8" d="M175.6,269.9l-0.1-0.1l0.1,1.7V269.9z"/>
	<path class="st8" d="M175.4,269.6l-0.4,0.6l0.5-0.5L175.4,269.6z"/>
	<path class="st8" d="M174,270.8l0.5,0.8v-0.1L174,270.8z"/>
	<path class="st8" d="M177.8,276h-0.1l-0.2,0.9l0.2-0.6l0.1,1.5V276z"/>
	<path class="st8" d="M177.3,277.8l-0.3,0.6l-0.3,1.8L177.3,277.8z"/>
	<path class="st7" d="M176.6,280.6v0.2c-0.2-0.1-0.5-0.3-0.7-0.5l0.8,0.7L176.6,280.6z"/>
	<path class="st8" d="M232.1,227.9l0.1-0.4l-0.2-0.2l-2.8,1.1v1.8c0,0.6,0,1.2-0.1,1.8l-0.6,16.2c-0.3,0.7-0.2,1.3,0.2,1.6
		c0.5,0.3,1,0.5,1.6,0.7c0.6,0.3,1,0.7,1.2,1.3c0.2,0.7,0.2,1.4,0,2.1c-0.2,0.8-0.6,1.3-1.1,1.8l1.6,0.7c-0.1-3-0.3-5.8-0.7-8.6
		l-1.9-13.1c-0.1-1.7-0.1-3.4,0.2-5c0.2-0.5,0.6-0.9,1-1.2C231.1,228.1,231.6,227.9,232.1,227.9z"/>
	<path class="st3" d="M229.8,251.3l-0.9-0.5c0.2,0.6,0.1,1-0.2,1.4c-0.8,1-1.7,1.5-2.8,1.7l-3.4-0.1l-3.2-0.8
		c-1.1-0.3-2.2-0.8-3.3-1.5c-1-0.6-1.9-1.5-2.4-2.6c-0.3,0.5-0.3,1-0.2,1.5l0.3,1.5c1.1,1.1,2.4,2,3.8,2.6c1.4,0.5,2.8,1,4.3,1.4
		l4.4-0.2c1.4-0.5,2.7-1.2,3.9-2c0.4-0.5,0.5-1,0.4-1.5L229.8,251.3z"/>
	<path class="st2" d="M233.2,242.6l-1.6-0.5c0.7,3.9,1.2,8,1.5,12.1l0.6,12.6c0.1,1.7,0.1,3.4,0,5.1c-0.1,1.7-0.1,3.4,0,5.1
		c1.2,1.6,2.5,3.3,4,4.9c1.4,1.5,3,2.8,4.7,3.9c1.8,1,3.7,1.5,5.9,1.5l0.6-8.9l-0.2-0.4l-3.5-0.4c-0.3-0.2-0.4-0.6-0.3-1l0.2-1
		l2.5-0.4c0.7,0.2,1,0,1-0.5l0.1-1.4c-1-1-1.9-2.1-2.7-3.2l-2.3-3.3l-6-11.8C235.8,251.1,234.3,246.9,233.2,242.6z"/>
	<path class="st2" d="M232.3,241.6l0.8,0.1c-1-3-1.8-6-2.3-9.1l-0.3,0.5l1.1,8.3L232.3,241.6z"/>
	<path class="st3" d="M230.8,259.9c0.6-0.7,0.9-1.5,0.9-2.5l-0.6-0.5l-0.8-0.1c0.1,0.5-0.1,1-0.5,1.4l-1,1.2c-1.4,0.9-3,1.6-4.7,2.1
		c-1.7,0.4-3.4,0.3-5-0.4c-1.3-0.6-2.5-1.2-3.7-1.9c-1.2-0.7-2.1-1.8-2.8-3l-0.1,0.7c0.7,1.8,1.9,3.2,3.5,4.2s3.3,1.7,5,2.2l4-0.2
		c1.3-0.3,2.6-0.8,3.8-1.4C229.5,261.1,230.2,260.5,230.8,259.9z"/>
	<path class="st7" d="M230.7,261.9v-0.3l-0.9,0.7l0.6,1.1c0.2,0.3,0.3,0.7,0.3,1.2c-0.1,0.4-0.2,0.9-0.6,1.3l-1.1,0.9
		c0.4,0.3,0.6,0.8,0.7,1.3l0.1,1.6c-0.6,0.7-0.8,1.4-0.7,2.4c0,0.9,0.1,1.8,0,2.7c0.8,0.6,1.2,1.4,1.2,2.4c-0.1,0.9-0.2,1.8-0.5,2.7
		c-0.6,0.7-0.9,1.6-0.9,2.7c0.1,1,0,2-0.2,3l-0.8,11.9l0.1,0.1l0.1-0.1l0.1-0.5c1-5.8,1.9-11.8,2.6-17.7l0.1-14.2v-0.9v-1.7
		L230.7,261.9z"/>
	<path class="st8" d="M230.9,261.6l-0.2,0.2l0.2,0.6v1.7v0.3v0.6l-0.1,14.2c-0.7,5.9-1.6,11.9-2.6,17.7l-0.1,1.3l1.7-10.3
		c0.5-3.4,0.9-6.9,1.3-10.4L230.9,261.6z"/>
	<path d="M230.9,264.5v-0.3v0.9V264.5z"/>
	<path class="st2" d="M221.2,257.4c1.2,0.5,2.5,0.5,3.9,0l-3.9-0.4l-3.6-1.2C218.7,256.4,219.9,257,221.2,257.4z"/>
	<path class="st3" d="M228.4,257.8c-1.7,0.9-3.4,1.3-5.1,1.1c-1.7-0.1-3.4-0.6-4.9-1.5c-1.6-0.8-3.1-1.9-4.3-3l-1.1-1.6l0.1,1
		l0.3,0.9c1,1,2.1,1.8,3.2,2.5c1.2,0.6,2.3,1.2,3.6,1.7l4.3,0.4C225.9,259.1,227.2,258.6,228.4,257.8z"/>
	<path class="st0" d="M228.2,265.8c0.6,0,1-0.2,1.5-0.6c0.1-0.3,0.1-0.6,0-1c0-0.3-0.2-0.6-0.4-0.8c-1.1,1-2.4,1.5-3.7,1.5l-4.3-0.1
		c-1.8-0.5-3.5-1.3-5.2-2.3c-1.6-1-3-2.2-4.2-3.8l-0.1,1l0.3,0.9c1.8,2,3.8,3.4,6.2,4.1c2.3,0.8,4.8,1.2,7.4,1.3l0.2-0.1l0.1,0.1
		h0.3l0.3-0.1L228.2,265.8z"/>
	<path class="st3" d="M229.2,268.8l-0.8,1.2l-1.2,1c-1.4,0.5-3,0.9-4.6,1l-4.7-0.4c-0.9-0.4-1.9-1-2.9-1.6c-1-0.7-1.9-1.5-2.6-2.4
		c-0.7-0.9-1-1.9-1.1-3.1c-0.3,0.3-0.4,0.7-0.4,1.3c0.3,1.1,0.9,2.2,1.7,3.2c0.8,1,1.7,1.9,2.8,2.6c1.1,0.7,2.3,1.2,3.8,1.4
		c1.4,0.2,2.8,0.2,4.2,0c1.4-0.2,2.7-0.7,3.8-1.4l1.5-1.1C229.3,270,229.4,269.5,229.2,268.8z"/>
	<path class="st2" d="M228.2,268.1c0.1-0.4,0.1-0.7-0.2-1c-2.9,0.4-5.7,0.2-8.3-0.6c-2.6-0.8-4.9-2.1-7.1-3.9l-0.2,2.7
		c0.8,1.9,2.1,3.2,3.8,4c1.8,0.8,3.6,1.3,5.5,1.5l3.3-0.2c1.2-0.1,2.2-0.6,3-1.5L228.2,268.1z"/>
	<path class="st2" d="M225.5,273.4l-2.8,1c-2.4,0.3-4.6,0-6.5-0.9c-2.1-0.9-3.8-2.4-5.2-4.3c-0.2,0.7-0.2,1.5,0,2.3
		c0.4,1.8,1.3,3.5,2.7,5c1.4,1.5,3.1,2.5,5,2.9l5.1,0.2c1.8-0.3,3.3-1.2,4.4-2.5l-0.1-5.2C227.3,272.5,226.4,273,225.5,273.4z"/>
	<path class="st8" d="M232.2,264.4v5.9c0,2.1,0,4.2-0.1,6.2c-0.2,3.7-0.6,7.4-1,11c-0.5,3.7-1,7.3-1.8,10.8c0.6-1.4,1-3,1.3-4.6
		l0.8-4.8c0.4-4,0.8-8,1.1-12.1C232.7,272.5,232.7,268.5,232.2,264.4z"/>
	<path class="st3" d="M244.5,265.8l0.5,0.9c1,1.7,2.2,3.2,3.6,4.8C247.1,269.5,245.7,267.8,244.5,265.8z"/>
	<path class="st3" d="M249.5,270.8l-0.1,4.6c-0.4,0.3-0.8,0.5-1.3,0.5h-1.6c-0.4,0-0.8,0.3-0.9,0.9c0.3,0.3,0.7,0.5,1.2,0.5h1.6
		c0.5,0,0.9,0.2,1.3,0.5l-0.4,12.2c0,0.4,0.2,0.6,0.5,0.6h1l0.5-0.7l-0.4-12.3l0.3-0.3l2.7-0.1c0.4-0.1,0.6-0.5,0.6-1
		c-0.5-0.4-1-0.5-1.5-0.4l-1.7-0.2c-0.3-0.7-0.4-1.5-0.4-2.3l-0.1-2.5c-0.1-0.3-0.3-0.4-0.6-0.4L249.5,270.8z"/>
	<path class="st8" d="M212.3,251.4c0-0.3-0.1-0.6-0.3-1l-3.5,5l3.7-0.3l-0.4-1.7l0.2-1.1L212.3,251.4z"/>
	<path class="st8" d="M203.4,261.8c-0.1-1,0.1-2,0.4-2.8v-0.3h-0.1c-0.3,1.5-0.4,3.1-0.3,4.7l0.1,1.1L203.4,261.8z"/>
	<path class="st8" d="M207.4,263.1l0.1-0.2v-0.3L207.4,263.1z"/>
	<path class="st8" d="M209.9,266.5c-0.3-0.4-0.4-0.9-0.3-1.4c0.3-1.1,1-2,2-2.8l-1.5,1.3c-0.3,0.5-0.5,1.1-0.6,1.8
		c0.2,0.8,0.4,1.6,0.8,2.3l-0.5,0.6l0.5-0.4L209.9,266.5z"/>
	<path class="st8" d="M208.3,270l0.8-0.9c-0.5,0.3-0.8,0.7-1.1,1.3c-0.5,0.8-0.6,1.7-0.3,2.5l0.7,2.4c0,0.3,0.1,0.6,0,1l0.2-0.8
		l-0.9-2.8C207.6,271.6,207.8,270.8,208.3,270z"/>
	<path class="st8" d="M203.6,268l0.1,0.4l-0.2-2.5L203.6,268z"/>
	<path class="st3" d="M209.1,270.4l-0.3,0.9c0.1,2.3,0.8,4.3,2.1,6.2c1.3,1.8,3,3.2,5,4.2c1.3,0.5,2.8,0.9,4.3,1l4.6-0.2
		c1.4-0.4,2.7-1,3.8-2l0.7-1.5c0.1-0.6,0.1-1.1-0.2-1.6l-0.1,0.4c-1,1.1-2.1,1.9-3.5,2.4c-1.3,0.5-2.8,0.7-4.2,0.6
		c-1.5,0-2.9-0.3-4.3-0.7c-1-0.3-2-0.9-2.8-1.8l-2.5-2.5l-1.3-2.8c-0.4-0.9-0.6-1.9-0.6-3C209.5,270,209.2,270.1,209.1,270.4z"/>
	<path class="st8" d="M205.5,273.4l0.1,0.2l0.9-4.9c0.3-1.5,0.5-3.1,0.7-4.8L205.5,273.4z"/>
	<path class="st8" d="M207.9,277.5l-0.2,0.2l-1.1-1.7c0,0.6,0.4,1.2,1.2,1.8L207.9,277.5z"/>
	<path class="st2" d="M209,277v0.2c-1.3,4.8-2.8,9.5-4.4,14.1l-5,13.9l4.3,6.2c1.6,2,3.3,4,5.3,5.7c1.9,1.8,3.9,3.3,6.1,4.5l2.9,0.1
		c1-0.3,1.9-0.7,2.7-1.3l2.6-1.5l3.9-27.9c0.4-2.8,0.6-5.7,0.6-8.7c-0.5,0.4-1.1,0.7-1.6,0.9l-1.7,0.5c-3.3,0.8-6.2,0.5-8.9-0.8
		C213.1,281.5,210.9,279.5,209,277z"/>
	<path class="st8" d="M200.7,296c0.5-0.3,0.8-0.8,0.9-1.6l-2.2,1.4c-1,0.5-1.7,1.1-2,1.9c-0.4,0.7-0.6,1.6-0.7,2.6l-0.2,2.8l0.6,3.7
		c0.3,1.2,0.5,2.5,0.7,3.8l0.3,7.5H198c-0.5-1.8-0.9-3.6-1.2-5.5l-0.6-2.9l0.1,0.1l0.5,2.9l-0.3,7.7c-0.1,1.4,0.1,2.7,0.6,3.9
		l0.1,0.7l8.3,10.8v0.7c-1-0.4-2-0.8-2.9-1.5l-2.3-1.6l0.8,0.6c1.7,1.4,3.6,2.5,5.7,3.3l3,0.1c0.9-0.3,1.8-0.7,2.6-1.2l2.5-1.5
		c1.6-1.3,2.9-2.8,3.8-4.5c1-1.8,2-3.4,3.2-5c1.6-1.9,3.2-3.8,4.7-5.7c1.4-2,2.8-3.9,3.9-6l-1.4,2.3c-1.4,1.4-2.9,2.8-4.5,4
		c-1.7,1.3-3.4,2.2-5.2,2.7c-1.9,0.6-3.8,0.6-5.9,0c-2.8-1.9-5.4-4.2-7.7-6.8c-2.4-2.7-4.5-5.4-6.4-8c-1-1.5-1.7-3-2.2-4.8
		c-0.4-1.8-0.3-3.5,0.6-5c0.2-0.7,0.7-1.1,1.3-1.3L200.7,296z"/>
	<path class="st8" d="M191.6,286.3l-1.1,0.3l3.2,8.2l0.1-0.1L191.6,286.3z"/>
	<path class="st7" d="M185.3,287l-0.2,0.1c-1.6,0.8-3.1,1.8-4.6,2.9h0.1C182.1,289,183.7,288,185.3,287z"/>
	<path class="st7" d="M184,297.5l1,0.3l1.1,0.7l3.8,1.2c1.2,0.3,2.6,0.6,4,0.7l-3.8-0.6l-4.2-1.3l-1.1-0.7L184,297.5z"/>
	<path class="st8" d="M194.2,300.4h0.4v-0.2C194.5,300.3,194.4,300.4,194.2,300.4z"/>
	<path class="st8" d="M194.4,302.1l0.1-0.3h-0.1V302.1z"/>
	<path class="st8" d="M194.4,302.5v1.1c-2.3,1-4.4,2.6-6.3,4.7c-1.8,2.1-3,4.4-3.5,7v0.8c0.3-2.6,1.3-4.9,3-7c1.7-2.2,3.7-3.9,6-5.1
		c0.6,0.1,0.9-0.1,0.9-0.7L194.4,302.5z"/>
	<path class="st8" d="M194.9,305.6l-0.1,0.3l-1.2,1l-0.9,1.2l-0.4,0.7c0.7-1.2,1.5-2.1,2.7-2.9L194.9,305.6z"/>
	<path class="st8" d="M186.1,317.3l0.7,0.1c0.3,0,0.6-0.2,0.9-0.4l0.1-0.1C187.3,317.1,186.8,317.3,186.1,317.3z"/>
	<path class="st8" d="M188.3,316.9l-0.1-0.3l-0.3,0.3C188,316.6,188.2,316.6,188.3,316.9z"/>
	<path class="st8" d="M184.8,318.5l0.3,0.3l4.7,3.6l-0.9-0.8L184.8,318.5z"/>
	<path class="st8" d="M190.8,324L190.8,324L190.8,324L190.8,324z"/>
	<path class="st7" d="M229.4,305.6l-1.6-4.3l-1.1,8.3c-0.5,2.7-1,5.4-1.7,8.1l1.9-1.4l1.6-1.8c1-1.3,1.6-2.7,1.6-4.3
		C230.1,308.8,229.9,307.3,229.4,305.6z"/>
	<path class="st8" d="M227.6,334.6c0.2-0.1,0.2-0.2,0.1-0.3c-0.2-0.1-0.1-0.2,0.1-0.3l-0.4-13.1l-0.2,21.7l0.2,2.3l-0.3,0.3
		l-12.2-1.5l-1-0.2c-0.5,2.1-1.3,4-2.5,5.8l-1-0.1l7.4,1.6l9.7,0.5l0.5-0.3l0.3-5.1c-0.4-1.8-0.6-3.7-0.6-5.6L227.6,334.6z"/>
	<path class="st7" d="M213.9,343.5l0.1-0.2c-4.6-0.7-8.8-2.3-12.7-4.8l-1.5-1l-1-0.3c-0.4-0.1-0.7,0-0.9,0.5c-0.6,0-1-0.2-1.4-0.5
		h-0.1l-0.6-0.5l-0.1-0.1l-0.5-0.4H195c-0.3,0.4-0.4,1-0.4,1.6c-0.1,0.5-0.1,1.1-0.3,1.6l0,0l1.5,1.7c1,1,2,1.7,3.1,2.4l8.7,4.7
		c0.9,0.5,1.8,0.9,2.8,1l1,0.1C212.6,347.5,213.4,345.6,213.9,343.5z"/>
	<path class="st8" d="M193.1,335l-0.4,1.2c0.4,1.2,1,2.3,1.6,3.3c0.2-0.5,0.2-1.1,0.3-1.6c0-0.6,0.1-1.2,0.4-1.6h0.2l-0.1-0.1
		C194.5,335.6,193.8,335.3,193.1,335z"/>
	<path class="st8" d="M226.5,344.3c0.1-0.3,0-0.5,0-0.6l-0.2-0.6L226,322c-3,3.2-5.3,6.7-7,10.5c-0.5,1-1.2,1.9-2,2.6l-2.4,7l-5-1.5
		l-4.4-1.9l-0.2,0.1c3.4,1.5,6.8,2.8,10.4,3.7C218.9,343.5,222.6,344,226.5,344.3z"/>
	<path class="st7" d="M214.1,336.9c-1,0.6-2.1,1.1-3.2,1.4l-2,0.3l-2-0.3l-2.1,0.2l0.4,0.2l4.4,1.9l5,1.5l2.4-7l0.1-0.1L214.1,336.9
		z"/>
	<path class="st3" d="M217.8,378.3l-0.7,1.2c-0.1,2.3-0.4,4.5-1,6.6l-1.5,6.3c0,1.8,0.5,3.3,1.5,4.5c1.1,1.2,2.3,2.3,3.8,3.2
		l4.1,2.4c2.8,1.3,5.7,2.4,8.7,3.3c3,1,6.2,1.6,9.5,2l6.6,0.3c-0.8-5.5-1.6-11-2.6-16.4l-9.5-1.5l-7.2-2.5c-2.5-0.9-4.8-2.1-6.8-3.5
		C220.6,382.8,219,380.8,217.8,378.3z M217.3,386.5c0.6-0.8,1.4-1.3,2.4-1.5c1.2,0,2.1,0.4,2.9,1.1c0.7,0.8,1.3,1.6,1.7,2.6
		c0.2,1.5,0,2.8-0.5,4.1s-1.4,2.4-2.5,3.3l-1.9,0.2l-1.7-0.7c-1.4-1.2-2.1-2.7-1.9-4.3v-1.1l0.2-1.1
		C216.3,388.1,216.8,387.3,217.3,386.5z M232.4,392.6l1.4-0.8c1.2-0.2,2.2,0,3.1,0.5c0.9,0.4,1.7,1.1,2.3,2c0.7,1,1,2.2,0.9,3.6
		c-0.1,1.3-0.4,2.5-0.9,3.6c-1.1,1.2-2.5,1.8-4.1,1.9c-1.6-0.2-3-1-3.9-2.5c-0.8-1-1.1-2.2-1-3.5c0.1-1.4,0.4-2.6,1.1-3.6
		C231.5,393.4,231.9,393,232.4,392.6z"/>
	<path d="M219.7,385c-1,0.2-1.8,0.7-2.4,1.5c-0.5,0.8-1,1.7-1.3,2.6l-0.2,1.1v1.1c-0.2,1.6,0.5,3.1,1.9,4.3l1.7,0.7l1.9-0.2
		c1.1-0.9,2-2,2.5-3.3s0.7-2.6,0.5-4.1c-0.4-1-1-1.8-1.7-2.6C221.8,385.4,220.9,385,219.7,385z M217.3,387.6
		c0.4-0.8,1.1-1.4,1.9-1.8c1-0.1,1.7,0.2,2.4,0.7c0.6,0.6,1.1,1.3,1.6,2c0.3,1.3,0.2,2.5-0.2,3.6c-0.5,1.2-1.2,2.1-2.1,2.9l-1.7,0.1
		c-0.6-0.1-1.1-0.4-1.5-0.7c-0.5-0.6-0.8-1.3-1-2l-0.1-2.2C216.6,389.4,216.9,388.5,217.3,387.6z"/>
	<path class="st3" d="M219.2,385.9c-0.8,0.4-1.5,1-1.9,1.8c-0.4,0.8-0.7,1.7-0.7,2.6l0.1,2.2c0.2,0.7,0.5,1.4,1,2
		c0.4,0.3,0.9,0.6,1.5,0.7l1.7-0.1c0.9-0.8,1.6-1.7,2.1-2.9c0.4-1.1,0.5-2.3,0.2-3.6c-0.5-0.7-1-1.4-1.6-2
		C220.9,386,220.2,385.8,219.2,385.9z M217.4,393c-0.3-1.1-0.2-2.2,0.2-3.2c0.3-1.1,1-1.9,1.8-2.6c0.6,0,1.1,0.1,1.6,0.5l1,1.3
		c0.2,0.7,0.3,1.4,0.2,2.1c0,0.8-0.3,1.4-0.7,2c-0.6,0.7-1.3,1.1-2.2,1.1C218.5,394,217.9,393.6,217.4,393z"/>
	<path d="M217.6,389.8c-0.4,1-0.5,2.1-0.2,3.2c0.5,0.7,1.1,1.1,1.9,1.2c0.9,0,1.6-0.4,2.2-1.1c0.4-0.6,0.7-1.2,0.7-2
		c0.1-0.7,0-1.4-0.2-2.1l-1-1.3c-0.5-0.4-1-0.5-1.6-0.5C218.6,387.9,217.9,388.6,217.6,389.8z M218,392.5c-0.1-0.9,0.1-1.7,0.3-2.5
		c0.3-0.8,0.7-1.4,1.3-2c0.4,0,0.7,0.1,0.9,0.3c0.3,0.2,0.5,0.5,0.7,0.8c0.4,1.1,0.4,2.3-0.2,3.4c-0.4,0.6-1,0.9-1.7,1l-0.8-0.3
		L218,392.5z"/>
	<path class="st3" d="M218.3,390c-0.2,0.8-0.4,1.6-0.3,2.5l0.5,0.7l0.8,0.3c0.7-0.1,1.3-0.4,1.7-1c0.6-1.1,0.6-2.3,0.2-3.4
		c-0.2-0.3-0.4-0.6-0.7-0.8c-0.2-0.2-0.5-0.3-0.9-0.3C219,388.5,218.6,389.1,218.3,390z"/>
	<path d="M233.8,391.9l-1.4,0.8c-0.5,0.3-0.9,0.7-1.1,1.2c-0.7,1-1,2.2-1.1,3.6c-0.1,1.3,0.2,2.5,1,3.5c0.9,1.5,2.3,2.3,3.9,2.5
		c1.6-0.1,3-0.7,4.1-1.9c0.5-1.1,0.8-2.3,0.9-3.6c0.1-1.4-0.2-2.6-0.9-3.6c-0.6-0.9-1.4-1.6-2.3-2C236,391.9,235,391.6,233.8,391.9z
		 M230.9,398c0-1.2,0.2-2.2,0.7-3.2c0.4-0.9,1.2-1.7,2.3-2.2c0.9,0,1.8,0.1,2.8,0.4c0.8,0.3,1.5,1,2,1.9c0.4,1.1,0.5,2.2,0.5,3.3
		c0,1-0.4,2.1-1,3.1c-0.5,0.6-1.1,1-1.9,1.1l-2.2-0.1c-0.9-0.4-1.7-0.9-2.2-1.7C231.4,399.8,231.1,398.9,230.9,398z"/>
	<path class="st3" d="M231.6,394.8c-0.5,1-0.7,2-0.7,3.2c0.2,0.9,0.5,1.8,1,2.6c0.5,0.8,1.3,1.3,2.2,1.7l2.2,0.1
		c0.8-0.1,1.4-0.5,1.9-1.1c0.6-1,1-2.1,1-3.1c0-1.1-0.1-2.2-0.5-3.3c-0.5-0.9-1.2-1.6-2-1.9c-1-0.3-1.9-0.4-2.8-0.4
		C232.8,393,232,393.9,231.6,394.8z M234.1,393.8l1.6,0.2l1.3,0.9c0.4,0.7,0.7,1.4,0.8,2.1c0.1,0.8,0.1,1.6-0.1,2.4
		c-0.2,0.7-0.7,1.3-1.3,1.8l-1.7,0.2c-0.5,0-1-0.3-1.4-0.6c-0.6-0.7-1-1.4-1.1-2.3c-0.2-0.8-0.2-1.7,0-2.5c0.2-0.5,0.4-0.9,0.7-1.3
		C233.2,394.3,233.6,394,234.1,393.8z"/>
	<path d="M235.7,394l-1.6-0.2c-0.5,0.2-0.9,0.5-1.2,0.9c-0.3,0.4-0.5,0.8-0.7,1.3c-0.2,0.8-0.2,1.7,0,2.5c0.1,0.9,0.5,1.6,1.1,2.3
		c0.4,0.3,0.9,0.6,1.4,0.6l1.7-0.2c0.6-0.5,1.1-1.1,1.3-1.8c0.2-0.8,0.2-1.6,0.1-2.4c-0.1-0.7-0.4-1.4-0.8-2.1L235.7,394z M234,400
		c-0.8-0.4-1.1-1-1.2-1.9l0.2-1.3c0.1-0.5,0.2-0.9,0.5-1.2l1.2-0.7l1.5,0.9c0.4,0.5,0.6,1,0.7,1.6c0.1,1-0.2,1.9-1,2.6l-0.9,0.2
		L234,400z"/>
	<path class="st3" d="M232.8,398c0.1,0.9,0.4,1.5,1.2,1.9l1,0.2l0.9-0.2c0.8-0.7,1.1-1.6,1-2.6c-0.1-0.6-0.3-1.1-0.7-1.6l-1.5-0.9
		l-1.2,0.7c-0.3,0.3-0.4,0.7-0.5,1.2L232.8,398z"/>
	<path class="st0" d="M217.8,412.4c-1,2-1.7,4.1-2.3,6.3c1.7-2.3,3.1-4.7,4.4-7.2c1.3-2.5,2.8-4.9,4.5-7.2c-0.6-0.6-1.4-1-2.1-1.3
		l-1.8,3.2L217.8,412.4z"/>
	<path class="st0" d="M217.1,399.3l-6,20.6c-1.1,3.4-2.4,6.8-3.8,10l-6.7,13.5l-0.8,1.2c-0.3,0.4-0.5,0.8-0.5,1.3l0.2,0.2
		c1.5-2.9,3.2-5.8,4.9-8.5l5.2-8.4c1.6-4.7,3.5-9.3,5.5-13.7l6.4-13.4L217.1,399.3z"/>
	<path class="st3" d="M229.6,386.1c-2.5-0.9-4.8-2.2-6.9-3.8l2.6,2l3.3,1.8l8.6,3c2.8,0.9,5.8,1.3,9,1.2l-8.8-1.4L229.6,386.1z"/>
	<path class="st0" d="M240.2,410.5h-0.3l-4.8,13c-1.6,4.4-3.1,8.8-4.3,13.2c-1.2,3.9-2.3,7.9-3.1,12c-0.9,4-2,8-3.2,11.9l4.5,1.7
		l0.7-3.4l6.1-18.9l2.1-14.8C238.6,420.4,239.4,415.5,240.2,410.5z"/>
	<path class="st0" d="M238.7,410.1c-1.6-0.7-3.3-1.4-5-2l-5.2-1.9l-5.7,22.2l-0.3-0.1l4.6-22.7c-0.1-0.2-0.2-0.2-0.4-0.2l-5.6,27.7
		l-6,23.8l3.1,1.8l3.3,1.4l0.7,0.2l0.6-0.1l2.6-10.7l4.5-14.6L238.7,410.1z"/>
	<path class="st0" d="M226,405.5c-2,2.7-3.9,5.5-5.4,8.4l-8.9,17.6l-8.2,13.9c-0.8,1.1-1.3,2.2-1.7,3.5l4.8,3.3
		c1.2,0.5,2.5,1.1,3.6,1.8l3.6,1.9l0.3-1.3c2.2-8.4,4.3-16.8,6.3-25.3L226,405.5z"/>
	<path class="st0" d="M250.2,411.8l-0.5,0.1l-0.3,0.2l-6.7-0.9l-1.8,14.5c-0.5,3.4-1.2,6.8-2,10.1c-1,4.2-2.2,8.3-3.5,12.2l-3.8,12
		c-0.5,0.9-0.9,1.9-1.3,2.9c1.1,0.5,2.2,0.8,3.4,1l3.7,0.6c1.2,0.2,2.3,0.5,3.3,1.1l0.9-5.2l7.2-25.4c1.9-6.9,3.2-14,4-21.3
		L250.2,411.8z"/>
	<path class="st0" d="M258,423.3V419c-0.1-1.5-0.2-3-0.5-4.5l-3.7,0.4l-1.9,13c-0.8,4.3-1.8,8.6-3,12.8l-3.8,12.5
		c-1.3,4.2-2.4,8.4-3.5,12.7l12.1,1.4l2.6-18.8c0.6-4.1,1.1-8.2,1.5-12.5C258.1,431.8,258.2,427.5,258,423.3z"/>
	<path class="st9" d="M228.1,466.4l0.5-0.4l0.6-0.1c-2.1-0.6-4.1-1.4-6-2.3c-4.2-1.9-8.2-4.1-12-6.7l-11.6-7.6
		c-0.2,0.7-0.5,1.4-0.8,2.2l-0.8,2.1c-0.1,0.7,0,1.4,0.5,2.1l7.3,5.5c3,1.5,6.2,2.8,9.4,4c3.3,1.1,6.5,2.1,9.9,2.9l9.6,1.7
		c1.6,0.2,3.3,0.2,5-0.1c-2.1,0-4.2-0.3-6.1-0.9C231.7,468.1,229.9,467.4,228.1,466.4z"/>
	<path class="st0" d="M240.1,470.5l-1,0.6c-2.6,0.4-5.2,0.4-7.7-0.1l-7.5-1.5c-4.9-1.3-9.5-3.1-14.1-5.1c-4.5-2.1-8.8-4.8-12.8-8.2
		c-2.4,6-4.4,12.2-6.1,18.5c0.4,1.3,1.1,2.5,2,3.5l3.1,2.9l7.4,4c2.4,1.3,5.1,2.4,7.7,3.2l6.1,1.7l6.4,1c2.2,0.2,4.3-0.1,6.5-0.8
		L240.1,470.5z"/>
	<path class="st0" d="M200.6,440.1c0.4-0.7,0.7-1.5,0.9-2.4c0.9-4,2.1-7.9,3.6-11.6c1.5-3.8,2.8-7.6,4-11.5l-9.9,25.3l-0.2,1.3
		c0,0.5,0.2,0.9,0.4,1.3L200.6,440.1z"/>
	<path class="st9" d="M208.5,488.8c-2.2-1.1-4.4-2.1-6.7-3.1c-2.2-1.1-4.3-2.3-6.3-3.6c-2.1-1.4-3.8-3.2-5.3-5.5
		c-1.4,3.9-2.5,7.7-3.4,11.7l-0.9,3.6c-0.4,1.3-0.6,2.5-0.5,3.6c0,1.2,0.6,2.3,1.7,3.2c5.6,4.8,11.8,8.1,18.6,9.8l4.9,1l5,0.2
		l2.2-0.3l2.1-0.5c0.6-0.3,1-0.8,1.2-1.6l7.6-14.5l-10.5-1C214.8,491,211.6,490,208.5,488.8z"/>
</g>
</svg>
