<?xml version="1.0" encoding="utf-8"?>
<!-- Generator: Adobe Illustrator 21.1.0, SVG Export Plug-In . SVG Version: 6.00 Build 0)  -->
<svg version="1.1" id="Слой_1" xmlns="http://www.w3.org/2000/svg" xmlns:xlink="http://www.w3.org/1999/xlink" x="0px" y="0px"
	 viewBox="0 0 512 512" style="enable-background:new 0 0 512 512;" xml:space="preserve">
<style type="text/css">
	.st0{fill:#918294;}
	.st1{fill:#A393A4;}
	.st2{fill:#B5A5B2;}
	.st3{fill:#B5A5B1;}
	.st4{fill:#655342;}
	.st5{fill:#91765E;}
	.st6{fill:#715A46;}
	.st7{fill:#8D7159;}
	.st8{fill:#987A60;}
	.st9{fill:#745C47;}
	.st10{fill:#8D6A50;}
	.st11{fill:#FFFFFF;}
	.st12{fill:#665443;}
	.st13{fill:#665442;}
	.st14{fill:#7B6450;}
	.st15{fill:#93785F;}
	.st16{fill:#846A53;}
	.st17{fill:#665342;}
	.st18{fill:#6C5744;}
	.st19{fill:#93775E;}
	.st20{fill:#856C56;}
	.st21{fill:#6B5D4D;}
	.st22{fill:#5F4F3F;}
	.st23{fill:#81644D;}
	.st24{fill:#6C5745;}
	.st25{fill:#35312B;}
	.st26{fill:#92775E;}
	.st27{fill:#695544;}
	.st28{fill:#322F2A;}
	.st29{fill:#987B60;}
	.st30{fill:#6F5946;}
	.st31{fill:#995643;}
	.st32{fill:#995743;}
	.st33{fill:#975643;}
	.st34{fill:#E8CD9F;}
	.st35{fill:#9F5743;}
	.st36{fill:#8C614B;}
	.st37{fill:#6E503D;}
	.st38{fill:#6B4E3C;}
	.st39{fill:#8F624B;}
	.st40{fill:#95634B;}
	.st41{fill:#685141;}
	.st42{fill:#A8827A;}
	.st43{fill:#71503C;}
	.st44{fill:#6E513E;}
	.st45{fill:#0D0D0C;}
	.st46{fill:#624B3B;}
	.st47{fill:#654D3C;}
	.st48{fill:#70503D;}
	.st49{fill:#A8837B;}
	.st50{fill:#DBA87E;}
	.st51{fill:#E6C698;}
	.st52{fill:#A1654C;}
	.st53{fill:#A77559;}
	.st54{fill:#A7765A;}
</style>
<g>
	<path d="M221,139.4l-3.7,0.8c-1.9,0.6-2.9,2.4-3,5.2l-1.3,34.5c-0.7,1.9-0.9,3.3-0.6,4.1c0.1,0.6,0.2,1,0.3,1.1l-1-0.3
		c-0.7-0.1-1.2,0-1.6,0.4l-1.8,2.5c-0.6,0.9-0.6,1.6-0.1,2.2c1.9,2.4,2.9,4.9,2.8,7.4v7.3c0,2.3,1.1,4.2,3.2,5.9
		c-1.3,6.2-1.1,10.8,0.5,13.8c1.7,2.9,3.5,4.8,5.7,5.6c2.1,0.8,3.2,1.1,3.4,1.1s0.2,0.4,0.1,1c-0.1,0.7-0.9,1.2-2.5,1.5
		c-1.2,0.8-2.1,1.6-2.9,2.5c-0.7,0.8-1.5,2-2.5,3.5l-2,3.7l-2.2,2.1c-0.4,0.7-0.9,2.1-1.5,4.4l-1.2,4.3c-12.8,3.7-22.5,7-29.3,9.7
		s-11.5,4.9-14.1,6.6c-2.7,1.7-4.1,3-4.5,3.8c-0.3,0.8-0.4,1.2-0.2,1.2l-2,17.9c0.5,3,0.5,5.4,0.1,7.3c-0.4,1.9-1.1,4.2-2.3,7
		c-1.1,2.7-2.5,6.7-4.1,12c-0.4,0.3-0.9,2.4-1.6,6.5l-3.8,28.1c-0.5,4.1-0.8,6.2-0.9,6.3c-2.5,7-4.2,12.9-5,17.7l-1.5,7.9l-1.5,2.5
		c-0.6,0.9-1.1,2-1.4,3.4l-0.9,8.6c-0.4,4.6-0.6,9.4-0.6,14.4s0.5,8.7,1.5,11.1c0.3,0.7,2.6,3.1,6.8,7.1l30.5,28.4l9.9,8.7
		l-7.3,11.6c-0.7,1.3-0.7,2.2,0.1,2.6c0.7,0.5,1.6,0.8,2.7,0.8l1.7,0.1l-6.2,27.5H375l0.1-78.8c-0.4-2.8-0.8-8.2-1.1-16.1l-1.7-27.6
		c-0.7-10.6-1.7-21.2-3-31.9c-1.4-10.6-3.2-20.2-5.5-28.5l-0.7-14.6c-0.3-4.6-0.5-7.2-0.7-8l-7.3-25.3c0.3-3.5-0.2-6.7-1.5-9.8
		c-1.3-3.1-2.4-5-3.2-5.8c-0.1-1.3-2.8-2.9-8.1-4.9c-5.4-1.9-11.8-3.9-19.1-6l-20.3-5.5c-6.2-1.7-10.2-2.9-12-3.7
		c-3.4-5-6.3-8.3-8.9-10c-2.7-1.6-4-2.4-4.2-2.3l-0.1-2.3c0-1.3,0.4-2.2,1.3-2.5c2.7-0.7,4.3-2.3,4.9-4.7c0.6-2.4,0.7-4.8,0.5-7.2
		l-0.4-4.6c1.6-0.7,2.5-1.4,2.8-2c0.4-0.6,0.5-1.7,0.6-3.4c0-1.7,0.3-4.6,0.9-8.5c0-1.8,0.5-3.5,1.5-5.3c1.1-1.8,1.4-3.4,1.1-5
		c-1.3-3.2-2.6-4.8-3.9-4.6c-1.2,0.3-1.9,0.5-2,0.8l-0.3-5.8c-0.3-3.6-0.7-8-1.5-12.9c-0.7-5-1.8-9.5-3.3-13.6
		c0-0.8-0.8-2.1-2.4-3.9s-5.6-5-12.1-9.8c-0.9-0.8-2.1-1.3-3.3-1.5l-19.8-1.3l-19.7,3.3l0.9,5.1l-1.2,1.4l-0.5-3.2
		C221.6,140.6,221.3,139.6,221,139.4z"/>
</g>
<g>
	<path class="st0" d="M257.1,457.8c0.1-0.7,0-1.1-0.3-0.9l-18.9,9.1c-0.7,0.4-1.8,0.3-3.4-0.3l-20.8-4.9c-0.7,0-1.1,0.1-1.3,0.5
		l-4.9,15.7c-4.7,2.5-9.3,3.8-13.7,3.9c-4.4,0.1-6.7,0-7-0.1l-0.8,0.1c-0.4,0.1-0.8,0.7-1.1,1.7l-8.1,30.1h46.8l26.2-29.4
		c0.3-0.5,0.5-0.7,0.6-0.5l0.7,0.2L257.1,457.8z"/>
</g>
<g>
	<path class="st0" d="M212,460.4l-7.8-1.4c-0.1-0.2-0.5-0.1-1,0.3l-7.6,12.1c0.1,0.2-0.6,0.6-1.9,1.2c-1.4,0.5-3.7-0.1-7.2-2.1
		c-0.7,0-1.1,0.1-1.1,0.3l-7.5,11.6c-0.5,1-0.3,1.5,0.5,1.3l4.9-3.7c0.7-0.4,2-0.6,3.8-0.6l4.5-0.1c1.3,0.1,3.4-0.3,6.3-1.1l6.7-2
		c0.7-0.3,1.2-0.6,1.6-0.9l0.4-0.8L212,460.4z"/>
</g>
<g>
	<path class="st0" d="M264,479.8l0.1-3.7l-8.1,9.1c-0.3,0.3-1,0.3-1.8,0l-2.5-0.9l-7.8,28.4h4.9l7.1-23.5L264,479.8z"/>
</g>
<g>
	<path class="st0" d="M272,467.3l-1.8,2l17.4,15.4l0.5,0.3c0.3,0.1,0.6,0.1,0.9-0.3l8-4.2c0.1-0.2,0.4,0,1.1,0.7l17.8,31.6h2.1
		l-18.5-38.1l-7.3,4.8l-0.5,0.4l-1.2-0.1c-4.1-2-8-4.5-11.8-7.5l-6.2-4.9C272.5,467.2,272.4,467.1,272,467.3z"/>
</g>
<g>
	<path class="st0" d="M259,431.6l3.5,6c0.1,0.2,0.3,1,0.5,2.5c0.3,1.5-0.6,2.9-2.5,4.3c-0.7,0.1-0.7,0.6-0.1,1.3
		c0.3,0.6,0.7,1.7,1.1,3.2c0.4,1.6-0.1,2.9-1.3,3.8v1.4c0,0.6-0.3,1.2-0.9,1.7l-0.3,0.7l-3.9,16.2l1.2,1l1.2-0.1l7.6-8.4l0.3-0.2
		c0.2-0.1,0.6,0,1,0.4l2.8,2.9l1.8-1.9l-4.2-4.2c-0.4-0.5-0.6-1-0.5-1.7l-3-36L259,431.6z"/>
</g>
<g>
	<path class="st0" d="M202.9,458.6l-1.2,0.1l-6.1,9.1c-0.1,0.2-0.4,0.5-1,0.7l-0.8-0.3l-0.5,2.4h1.5L202.9,458.6z"/>
</g>
<g>
	<path class="st0" d="M347.9,473l0.2-0.7l-4.8-15.4l2.6,16.6l0.9,0.1C347.3,473.5,347.6,473.3,347.9,473z"/>
</g>
<g>
	<path class="st0" d="M340,453.4l-6.1,0.7l7.4,16.7L340,453.4z"/>
</g>
<g>
	<path class="st0" d="M324.6,350l3.6-2.7c1.1-0.8,1.7-1.3,1.9-1.4v-8.3c-0.3,0.1-1.2,0.4-2.8,1.2c-1.7,0.7-2.8,1.6-3.4,2.6
		c-0.5,0.6-1.6,1.3-3.3,2.1l-8,2.8l-1.5,9.9L324.6,350z"/>
</g>
<g>
	<path class="st0" d="M317,305l-0.2-9.5c-0.1,0.3-3,2.2-8.6,5.7c-5.6,3.5-13.3,6.8-23,9.9l1,69.5l1.3,42.6c0.2,1.7,0.4,2.9,0.6,3.6
		c3.6-7.6,6.7-14.6,9.2-21.2c2.5-6.5,4.7-13.6,6.7-21.5c1.9-7.8,3.9-17.5,5.8-29.1c2-11.5,4.3-26.2,6.8-43.9L317,305z"/>
</g>
<g>
	<path class="st0" d="M284.2,311.4l-3.1,1l-2.2,15.8c-0.7,4.3-1.6,8.4-2.8,12.3c-0.9,4-2.4,9.3-4.4,16l-9.3,30.1
		c-0.4,2.9-0.6,4.6-0.4,4.9l1.8,23.2c0.1,0.5,0.4,0.8,0.8,0.9c0.9,0.4,1.5,1.1,1.9,2.2c0.4,1-0.3,2.7-2.2,5.2l3,36.9
		c0.1,0.6,0.6,1.3,1.3,2l1.3,1l20.3-17.3l-1.5-6.2c-1-4-1.7-8-2.2-12c-0.5-5.6-0.9-13-1.2-22.4l-0.7-30L284.2,311.4z"/>
</g>
<g>
	<path class="st0" d="M257.8,378.4c0.3-0.8,1.1-0.9,2.3-0.5c0.9,0.6,1.3,1.3,1.3,2.1l-0.1,1.2l-8,22.8c-0.2,0.5-0.2,1-0.1,1.2
		l0.4,0.4l8.7,7.9l-1.5-22.8c-0.1,0,0-0.7,0.3-2.2l3.3-13.1c-0.3-0.1-0.7-0.8-1.2-1.8l-22.5-49l-6.5,3.3l16.5,66.6L257.8,378.4z"/>
</g>
<g>
	<path class="st0" d="M232.5,328.2c-0.6-0.1-1.5-0.5-2.9-1.4l-28.4-16.6l16.8,54c2.9,8.5,5.5,16,8,22.4c2.5,6.5,4.5,10.6,6,12.5
		l7.4,10.3c0-0.1,0.1-0.6,0.3-1.5c0.3-1,1.2-1.9,2.8-2.8c2-0.8,3.4-1.3,4.1-1.8c0.8-0.4,1.6-1.6,2.3-3.3l1-3l-16.7-68.8H232.5z"/>
</g>
<g>
	<path class="st0" d="M182.2,294.2c-0.5-1-1.4-1.6-2.7-1.8l-6.8-0.8L176,302c2.1,6.5,4.7,15.2,7.6,26c3,10.9,5.9,23.1,8.7,36.7
		s5,27.7,6.6,42.4l-2.7-0.1c-0.3,0.8-0.2,1.4,0.2,1.8l16.6,17.6c0.4,0.3,0.7,0.4,1,0.2l10.3-10c0.4-0.5,1.1-0.8,2.2-0.7l7.6-0.1
		l2.4,0.4l2-4.6c-3.4-3.1-7-8.4-10.6-16.1c-3.5-7.6-7-16.3-10.3-25.9c-3.3-9.7-6.2-19.1-8.8-28.2l-8.6-31.8
		c-7-4.1-12.2-7.2-15.7-9.4C183.5,297.2,182.8,295.2,182.2,294.2z"/>
</g>
<g>
	<path class="st0" d="M336.6,300l5.8-19.1c0.1-0.3-1.6,0.2-5.2,1.5c-3.5,1.4-9.8,5.4-18.7,12l-0.2,7.6c-0.1,4.8-0.6,11.1-1.4,18.7
		c-0.8,7.7-2.2,15.9-4.1,24.6l6.2-2.1c2.2-0.8,3.6-1.5,4.2-2c0.6-1.3,1.9-2.5,4-3.4c2-1,3.1-1.4,3.3-1.5v9.5
		c0.1,0.7-0.5,1.5-1.7,2.4l-3,2.2l-13.7,6.2c-0.2,0-0.6,0.1-0.9,0.4c-0.5,0.2-0.7,0.9-0.9,2.1c-2.2,15.3-5,28-8.5,38.1
		c-3.5,10.2-6.6,18.1-9.3,23.7c-2.7,5.7-3.9,9.3-3.7,11c0.4,2,1.2,5.1,2.5,9.6c1.2,4.4,2.7,9.2,4.3,14.4c1.7,5.1,3.3,9.7,4.8,13.8
		c1.4,5,3.6,10.7,6.6,17.4c2.9,6.6,5.7,12.5,8.2,17.6l4.1,8.1h3l19.3-34.1v-5.1l-0.8-1.1l-7.5-19l6.4-1l-2.9-51.1l-2-51.1
		c-0.3-9.8-0.4-18.5-0.4-26.3c-0.1-7.7,0.1-13.1,0.6-16.3C334.9,306.8,335.5,304.2,336.6,300z"/>
</g>
<g>
	<path class="st0" d="M342.1,284.7c-1.3,4.6-2.6,9.5-4,14.7c-1.3,5.2-2.1,9-2.3,11.2l-0.3,3.9v-0.4l0.6,30.7l4,72.1l12.9,54.5v41.4
		h20.4l-0.3-77.3l-4.2-40.4l-23.4-117.3l-1.2-0.5L342.1,284.7z"/>
</g>
<g>
	<path class="st0" d="M176.6,306.5l-11.4-8.7l-13.3,39.7l-3,20l-0.1,1.5c-0.1,1.1-0.7,2.6-1.7,4.6l-4.8,18.9l0.3,2.3
		c0,0.9-0.5,2-1.4,3.3l-2.2,2.7c-0.7,1-0.9,1.7-0.7,1.8l-1,29l0.4,2.1c0.3,1.4,1,2.6,2,3.8l41.4,38.3c0.9,0.9,1.6,1.3,1.9,1.2
		l6.3,2.8c1.4,0.6,2.3,0.8,2.8,0.7c0.6-13.3,2.6-23.1,5.8-29.2c3.2-6.2,6.4-10.2,9.5-11.8c3-1.7,4.7-2.4,4.9-2.2l-26.9-26.5
		c-3.3-3.3-5.1-5.3-5.5-5.9c-3.8-3.6-8.3-5.6-13.4-6.1c-5.1-0.4-9.7-0.2-13.7,0.7l-6.7,1.6c-0.4,0.3-0.9,0.2-1.4-0.3s-0.4-1,0.3-1.6
		c0.7-0.8,3.8-1.7,9.3-2.8c5.6-1,11.8-0.5,18.7,1.6c6.8,2,12.5,7.3,17,15.9c-0.5-1.4-0.7-2.7-0.9-3.9c-0.1-1.3,0.2-2.1,1.1-2.6
		c0.3-0.8,0.4-1.2,0.3-1.4l-0.2-32.6L176.6,306.5z M140.4,396.3l5.3-3.6l3.8-1.5l-4.2,3.2l-4.9,5V396.3z"/>
</g>
<g>
	<path class="st1" d="M162,282.7l-0.7,3.9c-0.4,2.4-0.6,4.3-0.7,5.8c0,1.2,0.2,2.6,0.5,3.9l0.6,2.2l-7.8,23.9l-1.7,14.2l13-38.8
		l11.4,8.7l-9.1-27.1L162,282.7z"/>
</g>
<g>
	<path class="st1" d="M162,282.7l-0.7,3.9c-0.4,2.4-0.6,4.3-0.7,5.8c0,1.2,0.2,2.6,0.5,3.9l0.6,2.2l-7.8,23.9l-1.7,14.2l13-38.8
		l11.4,8.7l-9.1-27.1L162,282.7z"/>
</g>
<g>
	<path class="st1" d="M193.4,283c-0.8-0.1-1-0.5-0.6-1c0-2.3,0.7-4.7,2.2-7.2c1.4-2.5,2.9-4.6,4.4-6.3l2.4-2.7l-33.2,13.3l4.1,12.5
		l7,0.9c1.3,0.2,2.1,0.8,2.6,1.8l2.1,5.9l11.9,7.1c2.5,1.4,3.8,2.2,3.9,2.3l-4.2-14.5l11-8.1l-2.5-1.2c-1.6-0.7-3-1.5-4.3-2.4
		c-1.4-0.9-1.9-1.6-1.5-2.1L193.4,283z"/>
</g>
<g>
	<path class="st1" d="M223.6,286c-1.1-5.5-1.5-9.1-1.3-10.7c-0.4-1-1.5-2-3.2-3c-1.7-0.9-2.7-1.5-2.9-1.5l-4.7,2.5
		c-3,1.7-5.7,3.3-8.3,5.1c-2.7,1.7-3.7,2.8-3,3.4l8.4,4.5l0.3,0.5c0.1,0.2-0.2,0.5-0.8,0.9l-10.9,8.3l4.1,14.1l28.8,17
		c1.9,0.9,3,1.2,3.2,1l-5.9-24.3C225.9,297.4,224.6,291.4,223.6,286z"/>
</g>
<g>
	<path class="st1" d="M240.7,324.6L227,296.5l7.2,31.3L240.7,324.6z"/>
</g>
<g>
	<path class="st1" d="M281.1,312.5l3.1-1.1v-38.9l-0.8-0.1L281.1,312.5z"/>
</g>
<g>
	<path class="st1" d="M296.7,255.7l-7.2-3.9c-1.6-0.8-2.7-1.4-3.3-1.6c1.9,2.4,4.4,5.1,7.8,8.2c3.3,3,6.2,6.1,8.5,9.3
		c2.4,3.1,3,6.2,1.8,9.1c-6.8-0.5-11.7-1.3-14.6-2.4l-4.3-1.7l-0.2,38.4c10-3.3,17.8-6.7,23.3-10.1c5.5-3.4,8.2-5.3,8.3-5.5
		l-0.7-13.3l-9.9-4.1l5.7-4.8c0.4-0.4,0.5-0.7,0.5-1l-0.2-0.3L296.7,255.7z"/>
</g>
<g>
	<path class="st1" d="M318.2,285.2l0.4,9.3c9-6.7,15.2-10.6,18.8-12c3.3-1.3,5-1.8,5-1.6l3.4-11.3l-46.9-13.4l14.5,15.1l0.4,0.8
		c0.2,0.6,0,1.1-0.6,1.7l-4.7,4l9.2,4.1C317.9,282.1,318.1,283.2,318.2,285.2z"/>
</g>
<g>
	<path class="st1" d="M339.7,452.5l2.2-0.1l-4.6-41.8L339.7,452.5z"/>
</g>
<g>
	<path class="st1" d="M346.9,475c-1.3,0.1-2.4-0.1-3.4-0.5l-1.8-0.8l-0.1,5.1l-19.2,34l24.6,0.1L346.9,475z"/>
</g>
<g>
	<path class="st1" d="M270.2,469.3l-4.8,5.5l-0.3,37.9h50.8l-17.8-31.5c-0.7-0.7-1.1-0.9-1.1-0.7l-8,4.2c-0.3,0.3-0.6,0.4-0.9,0.3
		l-0.5-0.3L270.2,469.3z"/>
</g>
<g>
	<path class="st1" d="M343.3,456.9l-1.2-3.7l-2,0.2l1.3,17.4l0.4,0.8c0.3,0.5,0.7,0.9,1.3,1.2l2.8,0.7L343.3,456.9z"/>
</g>
<g>
	<path class="st1" d="M264.1,479.8l-8.2,9.4l-7.1,23.5l15.2,0.1L264.1,479.8z"/>
</g>
<g>
	<path class="st1" d="M251.1,483l-0.7-0.2c-0.1-0.2-0.4,0-0.6,0.6l-26.2,29.3l19.8,0.1L251.1,483z"/>
</g>
<g>
	<path class="st1" d="M265.4,464.9l-0.3,0.3l-7.5,8.4h-1.2l-1.3-0.9l-2.5,9.6l1,0.5l1.5,0.6l0.8-0.1l13.4-15l-2.9-2.9
		C266,465,265.6,464.8,265.4,464.9z"/>
</g>
<g>
	<path class="st1" d="M282.2,473.1c3,2.3,5.1,3.8,6.4,4.4c1.9,1.2,2.9,1.7,2.8,1.5l7.7-5.4l-8.9-27.9L270,463L282.2,473.1z"/>
</g>
<g>
	<path class="st1" d="M352.5,276.3l-1.1-3.3l-4.8-3l-2.3,7.2c0.8,0.3,1.2,0.4,1.1,0.5L368.9,395l4.2,40.5l-3.8-57.7
		c-0.9-9.7-1.9-19-3.1-27.7c-1.1-8.7-2.5-15.8-3.9-21.4c-0.3-10.1-1.2-18.7-2.8-25.6c-1.5-7-3-12.3-4.5-15.9l-2.4-5.4L352.5,276.3z"
		/>
</g>
<g>
	<path class="st2" d="M167.6,279.4l-2.3-6.7c-0.2,0.1-0.7,0.3-1.4,0.5c-0.4,0.4-0.5,0.6-0.5,0.7l-1.4,8.8L167.6,279.4z"/>
</g>
<g>
	<path class="st2" d="M201.8,265.8l5.1-6.2l1.5-3.8c-6.3,1.7-12.3,3.6-18.2,5.8c-5.8,2.1-10.9,4.1-15,6c-4.2,1.8-6.9,3.2-8.1,4
		c-0.4,0.2-0.7,0.5-0.6,0.8l2.2,6.7L201.8,265.8z"/>
</g>
<g>
	<path class="st2" d="M348.3,265.9l-0.4,0.2l-1.3,4l4.8,2.9l-2.5-6.5C348.6,266,348.5,265.8,348.3,265.9z"/>
</g>
<g>
	<path class="st3" d="M347.3,264.7c-1-0.5-3.9-1.4-8.7-2.8l-43.5-11.4h-1.7l5.5,5.7l46.9,13.3L347.3,264.7z"/>
</g>
<g>
	<path class="st2" d="M286.2,250.2l10.5,5.5l-3.3-3.6c-2.1-2.1-4.1-4-6.2-5.6c-0.9-0.3-1.8-1.1-2.8-2.3l-1.6-2.1
		c0.4,2.9,1,5,1.9,6.3L286.2,250.2z"/>
</g>
<g>
	<path class="st4" d="M261.9,441l0.1-0.7l-4-6.8l-3.5,5.1c-0.9,0.6-1.5,0.8-1.7,0.5l-5.3,0.2c-3.2,0-6.7-0.7-10.5-1.9
		c-3.8-1.4-6.5-3.9-8.3-7.8l-1.2-3.8h0.9c0.6,0,1-0.1,1.3-0.4l1.7-2l1.2-2c0.1-0.3,0-0.5-0.5-0.5l-2.4,0.1c-1.3,0.1-2.1,0.3-2.4,0.5
		l-2.6,1.9c0.2-0.3-0.1-0.5-0.9-0.6L205,434.7l-2.3,3.5c-1.3,2.2-2.4,4.9-3.1,8.2c-0.6,3.3,0,6.6,2,10l33.9,8.3c1.9,0.4,3,0.4,3.1,0
		c0.2-0.1,1.9-0.9,5.2-2.3l14.8-6.9l0.3-0.9l0.1-1.5l-14.5,6.7c-3.2,1.4-5,2.1-5.4,2c0.1-0.2,1.7-1.1,5-2.7l15.3-6.8
		c0.4-1.1,0.4-2.4,0-3.9l-0.6-2.4l-1.9,1.5c-0.4,0.4-1.5,0.8-3.2,1.4l-7.8,2.4l-2.9,0.4l3.3-1.1c2.1-0.7,4.7-1.7,7.5-3.2
		c2.9-1.4,5.4-3.1,7.6-5.2C261.7,441.9,261.9,441.5,261.9,441z M241.7,456.8l-0.1,0.3l-1.7,0.7c-0.2-0.5,0-0.9,0.7-0.9L241.7,456.8z
		 M237.3,457.8c0.9,0.2,1.4,0.3,1.6,0.5l-1,0.9l-1.7,0.1L237.3,457.8z M203,451.4l-0.5-2.1l1.6,1l-0.2,0.4
		C203.5,450.8,203.2,451,203,451.4z M213.7,455.6l-1.4-0.2l-0.7-0.5l1.3,0.2l0.8,0.3V455.6z M230.5,445.4l-0.1,0.8l-9.9-1.5l-3-1.3
		l-1.3-0.4l-0.8-0.6L230.5,445.4z M226.8,459.7v-0.1l2.8,0.2l4.9,1.2l-0.1,0.4L226.8,459.7z"/>
</g>
<g>
	<path class="st5" d="M247.7,437.9c-3.2-0.7-6.5-2-9.8-3.7c-3.4-1.8-5.4-4.1-6.2-7l4.3-10l-1.8-0.4l-6.6,0.4l-1.9,0.3l-0.8,0.5
		l-6.8,7c-1.8,1.6-3.2,2.6-4.4,3.1c-2.2,0.9-4.1,2.2-5.9,3.8l-2.7,2.8l18.8-11.9c0.7,0.1,1,0.3,0.9,0.6l2.5-1.9
		c0.4-0.3,1.2-0.5,2.4-0.6h2.5c0.4,0,0.6,0.2,0.4,0.5l-1.2,2l-1.7,2c-0.3,0.3-0.7,0.4-1.2,0.4h-1l1.2,3.9c1.7,3.8,4.5,6.3,8.2,7.6
		c3.8,1.3,7.4,2,10.6,2l5.3-0.2L247.7,437.9z"/>
</g>
<g>
	<path class="st5" d="M240.8,450.4l-0.4-0.2l-2.5-0.6l-4.6-0.7c-1.5,0-2.3,0.3-2.4,1.2c-0.1,1.2,0.1,1.9,0.7,1.8
		c0,0.5,0.2,0.8,0.5,1.2l0.6,0.5l8.2-1.8C241,451,241,450.6,240.8,450.4z"/>
</g>
<g>
	<path class="st5" d="M262.1,440.2l-0.2-1.7c-0.3-1.1-1.4-3.1-3.3-5.9l-0.6,0.8L262.1,440.2z"/>
</g>
<g>
	<path class="st5" d="M259.1,453.1l-0.2,1.5c-0.2,0.3-0.2,0.5-0.3,0.8l0.7-0.5c0.4-0.3,0.5-1,0.4-2L259.1,453.1z"/>
</g>
<g>
	<path class="st5" d="M259.4,452.2c0.1,0.1,0.5-0.2,1.1-1.1c0.5-0.8,0.2-2.7-0.9-5.7l-0.8,0.6l0.6,2.3
		C259.8,449.6,259.8,451,259.4,452.2z"/>
</g>
<g>
	<path class="st6" d="M273.2,233l-16.7,19.6l-3.9-0.1c-1.7-0.7-4.6-2.6-8.6-5.8l-16.6-14l1.3,21.2l22.3,30.6c2.2-1.7,4.9-5,8.3-9.8
		l13.5-20.5L273.2,233z"/>
</g>
<g>
	<path class="st7" d="M272.8,254.3l1.1-1.6l0.6-20.9l-1.2,1.3L272.8,254.3z"/>
</g>
<g>
	<path class="st8" d="M273.9,252.7l2.1-4.5l1.1-19.1l-2.6,2.7L273.9,252.7z"/>
</g>
<g>
	<path class="st7" d="M227.5,232.7l-1.2-0.9l1.2,21l1.2,1.1L227.5,232.7z"/>
</g>
<g>
	<path class="st8" d="M224.7,230.6l1.7,20.1c0.5,1.7,0.9,2.4,1.1,2.2l-1.2-21L224.7,230.6z"/>
</g>
<g>
	<path class="st9" d="M209.8,190l8,6.9c-0.7-2.9-1.1-5.1-1.3-6.7c-0.1-1.6-1.3-3-3.5-4.2c-0.4,0.1-1,0.8-1.8,2L209.8,190z"/>
</g>
<g>
	<path class="st10" d="M208.8,189.3l1.1,0.7l1.3-2l1.8-2c-0.1-0.2-0.6-0.4-1.5-0.6c-0.8,0.1-1.1,0.2-1,0.4l-1.6,2.4
		C208.6,188.9,208.5,189.3,208.8,189.3z"/>
</g>
<g>
	<path class="st10" d="M209.5,190.3l1.2,2.6c0.7,1.2,1,2.4,1,3.6c-0.4,6.2,0.1,10.1,1.4,11.6c1.4,1.6,2.1,2.2,2.4,2
		c-0.1,0-0.5-0.5-1.2-1.5c-0.8-1-1.3-2.6-1.6-4.8l-0.3-7.3l-0.4-1.8C211.7,193.6,210.8,192.1,209.5,190.3z"/>
</g>
<g>
	<path class="st6" d="M212.5,202.4l0.1,1.5c0.4,2.2,0.9,3.8,1.6,4.8s1.1,1.5,1.2,1.4l2.8,1.1v-6.3c-0.1,0-0.6-0.2-1.6-0.5
		c-1-0.4-2-1-3.1-1.8c-0.2-0.1-0.3,0-0.3,0.1v0.8c-0.1,0.3-0.3,0.4-0.4,0.1L212.5,202.4z M216.9,208.7c0,0.5-0.3,0.8-0.7,0.8
		c-0.5,0-0.7-0.3-0.8-0.8c0.1-0.4,0.3-0.7,0.8-0.7C216.6,208,216.9,208.3,216.9,208.7z"/>
</g>
<g>
	<path class="st11" d="M215.4,208.7c0.1,0.5,0.3,0.8,0.8,0.8c0.4,0,0.7-0.3,0.7-0.8c0-0.4-0.3-0.7-0.7-0.7
		C215.7,208,215.5,208.3,215.4,208.7z"/>
</g>
<g>
	<path class="st6" d="M213.9,194.5c-0.5-0.3-0.8,0.2-1.1,1.6c-0.2,1.5,0.1,3.1,0.8,4.8c0.7,1.8,2.3,3,4.7,3.7l-0.1-2l-0.8-0.6
		l-0.8-0.4c-0.6,0.2-1.2-0.1-2.1-1.1c-0.8-0.9-0.5-2.6,0.8-5.1L213.9,194.5z"/>
</g>
<g>
	<path class="st6" d="M217,201.1l-0.6-2.1c-0.6-1.8-1-2.2-1.3-1.4c-0.4,0.9-0.5,1.5-0.4,1.9c0.2,0.5,0.6,0.9,1.2,1.2
		C216.5,201,216.9,201.1,217,201.1z"/>
</g>
<g>
	<path class="st6" d="M218,201.6l-0.2-3.6l-0.5,0.1l-0.1,3L218,201.6z"/>
</g>
<g>
	<path class="st12" d="M281.8,197.3v4.8c0.1,0,0.5-0.3,1-0.9c0.6-0.7,0.8-2.3,0.7-4.7C283.4,196.7,282.8,197,281.8,197.3z"/>
</g>
<g>
	<path class="st13" d="M281.8,202.9l0.2,1.7c1.9-0.7,3-1.8,3.5-3.6c0.4-1.7,0.6-3.4,0.4-5l-0.3-2.5l-1,1.4l0.1,3.7
		C284.7,200.8,283.7,202.3,281.8,202.9z"/>
</g>
<g>
	<path class="st6" d="M286.6,200.5l2.3-9.7l-2.5,1.7L286.6,200.5z"/>
</g>
<g>
	<path class="st6" d="M286.3,201.5l-0.6,1.1c-0.6,1.3-1.8,2.1-3.7,2.4l0.4,5.6l0.1,0.3c0.1,0.1,0.2,0.1,0.4-0.2L286.3,201.5z"/>
</g>
<g>
	<path class="st12" d="M282.9,210.7c-0.2,0.3-0.3,0.3-0.4,0.2l-0.1-0.3c0,0.2,0,0.5,0.3,0.9c0.2,0.1,0.6,0,1-0.3
		c0.4-0.3,0.7-0.7,0.9-1.2l2-9.6L282.9,210.7z"/>
</g>
<g>
	<path class="st14" d="M284.6,210l-0.7,1l0.9-1.1l2.2-7.4l0.1-4.5L284.6,210z"/>
</g>
<g>
	<path class="st15" d="M289.4,192.6c0.8-1.9,1.1-2.8,0.9-2.9l-1.4,1.1l-1.7,7.2l-0.2,4.5l-2.1,7.3c-0.3,0.5-0.6,0.9-1.1,1.4l0.7-0.2
		l1.2-0.8c0.3-0.5,0.5-1,0.5-1.7l0.1-1.2l1-4.4l0.6-6.5L289.4,192.6z"/>
</g>
<g>
	<path class="st16" d="M286.4,185.6c0.7,0.5,1,1.1,1.1,2c0.1,0.8,0.6,1.6,1.5,2.4l0.5-0.4c-0.9-1.8-1.4-2.9-1.4-3.1
		s-0.5-0.7-1.5-1.4l-0.7,0.4L286.4,185.6z"/>
</g>
<g>
	<path class="st11" d="M283.3,208.5c0,0.5,0.3,0.7,0.7,0.7c0.5,0,0.7-0.2,0.8-0.7c-0.1-0.5-0.3-0.7-0.8-0.8
		C283.6,207.8,283.3,208,283.3,208.5z"/>
</g>
<g>
	<path class="st17" d="M285.4,185.9c-0.1,0.6-0.4,0.9-0.7,1c-0.2,0.2-0.2,0.4-0.1,0.4c0.2,0.2,0.2,0.5,0.1,1l-0.5,0.6l-1.3,6.9
		l2-2.6c1.3-1.6,2.7-2.6,4.2-3.2c-1-0.9-1.5-1.7-1.5-2.4c-0.1-0.8-0.4-1.4-1.1-1.9C286.1,185.4,285.8,185.5,285.4,185.9z"/>
</g>
<g>
	<path class="st18" d="M282.1,191.1l-0.3,5.2c0.6-0.1,1-0.3,1.1-0.5l1.2-6.9L282.1,191.1z"/>
</g>
<g>
	<path class="st15" d="M290.2,189.2l-2.4-3.9l-1.1-0.2c0.9,0.7,1.4,1.2,1.4,1.4s0.5,1.3,1.4,3.1L290.2,189.2z"/>
</g>
<g>
	<path class="st19" d="M218.9,200.9l0.1,16.7c0,1.7,0.2,3.1,0.8,4.3l1.5,3.1c1.2,1.5,2.2,2.6,3.2,3.5l1.6,1.4l-1.1-3.2l-0.6-3.2
		l-0.9-20.2c-1.6-0.3-2.7-0.7-3.5-1.3L218.9,200.9z"/>
</g>
<g>
	<path class="st20" d="M223.6,203.4l-1.3-0.4v6.5c0.1,3.9,0.3,7.9,0.7,12c0.3,4.2,1,6.6,1.9,7.4l1.2,1.1l-1-3.2
		c-0.5-2-0.7-3.1-0.6-3.3L223.6,203.4z"/>
</g>
<g>
	<path class="st5" d="M274.2,202.4l-0.8,0.2l1.3,27.2l3-3c1-1,2.1-2.6,3.4-4.8c0.7-1.7,1.1-3,1.1-4.1v-1.7l-0.9-10.7l-0.5,0.1
		l-0.3,4.3l-0.3-0.3l0.3-10c-0.1,0.2-0.8,0.7-2.1,1.4C276.9,201.7,275.5,202.1,274.2,202.4z"/>
</g>
<g>
	<path class="st21" d="M280.2,209.6l0.3,0.3l0.3-4.3l0.5-0.1l-0.8-6L280.2,209.6z"/>
</g>
<g>
	<path class="st20" d="M275.6,206c-0.6-2.2-1.1-3.4-1.4-3.6l-0.8,0.2l1.3,27.2l3-3L275.6,206z"/>
</g>
<g>
	<path class="st22" d="M261.9,218h-16c-1.4,0.1-2.3,0.4-2.8,0.8l-2.7,2.9c-0.2,0-0.2,0.3-0.1,0.7l3.2,3.7c0.2,0.2,0.7,0.6,1.5,0.9
		l14.8-2l0.9-0.3v-0.6l-4.5,1l-9.8,1.4c-0.6,0-0.8-0.1-0.8-0.4l-1.8-1.2c-0.5-0.4-0.7-0.7-0.6-1.2l0.1-0.7l0.3-0.6
		c0.3-0.4,0.6-0.7,0.9-0.8c0.9-0.5,1.4-0.8,1.4-0.8l1.2-0.6c0.8-0.4,1.3-0.6,1.8-0.7l7.2-0.5c1.5-0.1,2.6,0,3.3,0
		c0.7,0,1.2,0.3,1.5,0.7c0.3,0.2,0.7,0.4,0.9,0.7l0.5,1.2l0.8-0.1l0.3-0.8c0.1-0.5,0.2-0.7,0.4-0.9v-1.1l-0.1-0.6l-0.6-0.6l-0.3,0.1
		C262.9,217.8,262.6,217.9,261.9,218z"/>
</g>
<g>
	<path class="st23" d="M261.7,223.1l0.6-1.5l-0.5-1.2l-1-0.8c-0.2-0.3-0.7-0.5-1.4-0.6c-0.7,0-2.3-0.1-4.8,0l-5.7,0.5l-4.4,2.1
		c-0.3,0.1-0.6,0.4-0.9,0.7l-0.3,0.7l-0.2,0.7c0,0.4,0.2,0.8,0.6,1.2c1.1,0.7,1.7,1.1,1.8,1.3c0,0.3,0.3,0.3,0.9,0.3l9.7-1.4
		c2.2-0.2,3.7-0.6,4.6-1L261.7,223.1z"/>
</g>
<g>
	<path class="st24" d="M259.4,219l-0.1,2.6c-0.1,1.6-1.2,2.4-3.3,2.4l-9.1,1.7c-0.5,0-1.2-0.5-2.3-1.4c-0.3-0.2-0.5-0.7-0.3-1.5
		c0.1-0.7,0.2-1.1,0.2-1.2c-0.3,0.1-0.6,0.4-0.9,0.7l-0.3,0.7l-0.2,0.7c0,0.4,0.2,0.8,0.6,1.2c1.1,0.7,1.7,1.1,1.8,1.3
		c0,0.3,0.3,0.3,0.9,0.3l9.5-1.3c2.2-0.3,3.8-0.7,4.8-1.1l1-1l0.6-1.5l-0.5-1.2l-1-0.8C260.6,219.3,260.1,219.1,259.4,219z"/>
</g>
<g>
	<path class="st25" d="M257.6,209.8l-4.9,1.3c-3.2,0.6-7.9-0.5-13.9-3.2c0.5,1.5,1.5,2.6,3,3.4l2.6,1.2l12.1-1.4L257.6,209.8z"/>
</g>
<g>
	<path class="st19" d="M226.7,167.7l1-3.4l1.5-2.7l-3.3,1.9c-1.9,1.3-3.3,2.8-4.2,4.6l-1.5,6.7l-1.1,7.2l0.5-0.1l2.7-1.8
		c0.9-0.4,1.7-0.7,2.6-0.8l1.3-0.3l0.2-7.5C226.4,169.7,226.5,168.4,226.7,167.7z"/>
</g>
<g>
	<path class="st20" d="M226.7,167.7l1-3.4l1.5-2.7c-1.6,1.6-2.8,3.6-3.6,6c-0.7,2.4-1.2,4.6-1.4,6.5l-0.2,3l-1.7,0.5l-2.9,1.5
		l-0.3,2.9l0.5-0.1l2.7-1.8c0.9-0.4,1.7-0.7,2.6-0.8l1.3-0.3l0.2-7.5C226.4,169.7,226.5,168.4,226.7,167.7z"/>
</g>
<g>
	<path class="st20" d="M263.3,159.5l1.7,0.9l2.7,2.1c0.6,0.7,1,1.5,1.2,2.1l1.2,13l4.3,0.7c2.8,0.9,4.3,1.4,4.4,1.7l-2.6-11.6
		c-0.5-1.6-0.9-2.9-1.3-3.7c-0.3-1-0.7-1.8-1.2-2.4l-0.8-0.6l-1.2-0.6c-1.6-0.9-2.7-1.3-3.3-1.4L263.3,159.5z"/>
</g>
<g>
	<path class="st4" d="M229.3,161.7l-1.5,2.7l-1.1,3.3c-0.1,0.8-0.2,2-0.3,3.8l-0.1,7.5l5.3-0.8l27.4-0.8l11.1,0.2l-1.3-13
		c-0.1-0.6-0.5-1.4-1.1-2.1l-2.7-2.1l-1.7-0.9l-13.1,1.8l-16-0.5C231,161.1,229.4,161.4,229.3,161.7z"/>
</g>
<g>
	<path class="st26" d="M267.7,161.4c1.7,1.2,3.2,3.5,4.4,6.8c0.5,1.4,0.9,2.9,1.1,4.8l0.4,3l4.6,1l-3.1-12.1
		c-0.6-1.4-1.1-2.3-1.4-2.5l-0.8-0.6l-1.2-0.6c-1.6-0.9-2.7-1.4-3.3-1.5l-3.4-0.1C265.3,159.6,266.2,160.2,267.7,161.4z"/>
</g>
<g>
	<path class="st4" d="M228.4,204.1l-5-0.8l0.9,20.2c0,0.1,0.2,1.2,0.7,3.2l1,3.2l2.4,2.3c1.7,1.6,4.1,3.5,7.2,5.9
		c2.9,2.9,6.6,4.9,11.3,6.1c4.8,1.3,10.5,0.1,17.2-3.4c-5.2,2.2-9.6,3.2-13.2,3c-3.6-0.1-6.4-0.7-8.4-1.7l-3.6-2.1
		c-0.4-1.8-0.6-4-0.3-7l0.5-4.8l0.1,7.2c0,1.7,0.1,2.7,0.2,3.2c0.1,0.6,1.2,1.4,3.1,2.4s4.6,1.5,8.1,1.3l9.5-1
		c2.7-0.9,4.7-2.3,6.2-4.4c1.4-2.1,2.2-3.3,2.3-3.9l-0.8-7.9l1.3,6.4c0.3,1.5,0.3,2.5,0.1,2.8l-3.8,5.4l9.2-9.8l-1.3-27.3l-9.3,0.5
		l-3.4-0.9l0.6,2.5c0.3,1.6-0.9,3.3-3.5,5l-0.8,0.9l-0.4,0.6c4.7-0.7,7.8-0.1,9.3,1.5c1.6,1.7,2.3,3.4,2.2,5.3
		c0,1.8-0.2,2.8-0.4,2.8c0-0.8-0.4-1.5-1-2c-0.7-0.4-1.2-0.9-1.4-1.3c-0.7-0.9-1.1-1.2-1.3-1l-0.2,0.4l0.4,0.8l0.1,1.8
		c0,0.2-0.2,0.3-0.5,0.3c-0.2,0.1-0.3,0.4-0.4,0.9l-0.3,0.7l-0.8,0.2l-0.4,1.2c-0.2,0.7-0.6,1.1-1.2,1.3c-0.1,0.1-0.1,0.4,0,0.6
		l1-0.4l1.3-1c0.3-0.1,0.4,0,0.3,0.2c-0.5,1-1.7,2.1-3.4,3.5l-3,2.4h-1.2l-1.8,0.3c-4.1,0.3-7.2-0.2-9.4-1.6
		c-2.3-1.4-3.8-2.8-4.6-4.4c-0.9-1.5-1.2-2.3-1.2-2.5l-0.7,1.3c-0.3,0.7-0.4,1.4-0.1,2.1c-2.7-3-3.5-5.4-2.3-7.1
		c1.2-1.8,2.9-3,5.1-3.8c2.2-0.7,3.4-1.2,3.7-1.2c-0.2,0-0.9-0.3-2.2-1c-1.4-0.8-2.5-2-3.4-3.6c-0.1-0.1-0.3-0.7-0.5-1.6
		c-0.3-1,0.1-2,1.1-3l3.1-2.1l-3.5,3.8c-0.4,0.8,0.3,1.5,2.2,2.2l2.4,0.4l5.1,0.3l2.6-0.2c1.2-0.1,2.8-0.5,4.7-1.2l4.1-1.2
		c0.4-0.3,0.7-0.7,0.7-1.3c0.2-0.4-0.1-1.1-0.7-1.9c-1.9-0.6-3.4-2.1-4.4-4.4c-1.1-2.4-2-4.7-2.8-6.9c-0.7-2.2-1.7-3.3-2.7-3.4
		c-1.8,0.2-3,1.5-3.6,3.7c-0.7,2.3-1.6,4.7-2.8,7.2c-1.3,2.6-3.6,4.4-6.9,5.5L228.4,204.1z"/>
</g>
<g>
	<path class="st6" d="M253.2,180.7l0.5-1l-7.8,0.2l0,0l0.4,0.8H253.2z"/>
</g>
<g>
	<path class="st27" d="M246.4,180.7l0.5,1h5.7l0.6-1H246.4z"/>
</g>
<g>
	<path class="st6" d="M246.8,181.7c0.3,0.2,0.7,1.2,1.1,2.8l1.7-0.5h0.8c0.4,0,0.9,0.2,1.3,0.5c0.4-1.8,0.6-2.8,0.8-2.9L246.8,181.7
		z"/>
</g>
<g>
	<path class="st28" d="M239,205.8v-0.9c-0.6,0.5-0.4,1.4,0.5,2.7c1,1.4,4.5,2.4,10.7,3.2l3-0.2c1.7-0.3,3.3-0.9,5-1.8
		c1.6-0.9,2.6-2.3,2.8-4.3l-0.2-0.6v0.1c-0.1,0.5-0.4,0.9-0.8,1.3l-4.1,1.2c-1.9,0.6-3.5,1-4.7,1.2l-9.5-0.4
		C240,206.8,239.1,206.4,239,205.8z M244.6,208.8l-0.8,0.1l-0.9-0.1c-0.4-0.2-0.5-0.3-0.4-0.4c-0.3-0.3,0-0.4,1-0.4l2.7,0.4l1,0.3
		l1.2,0.8l-1.8-0.5L244.6,208.8z M255.4,208.7l-3.2,1.3l4.6-2.9l0.9-0.3l0.6,0.2c0.2,0.1,0.1,0.5-0.3,1l-0.8,0.2l-1.2,0.6
		L255.4,208.7z"/>
</g>
<g>
	<path class="st12" d="M245.5,215.8c-2.5,0.4-4.3,1.2-5.1,2.5c-0.9,1.2-1.3,2-1.4,2.3c0.1,0.4,0.2,0.6,0.5,0.6l0.6,0.1
		c-0.2-0.3,0.5-1.2,1.9-2.6c1.4-1.5,4.4-2,9-1.6h9.9l1.3-0.1c0.7-0.1,1.3-0.4,1.6-0.9l-0.9-0.9c-0.5-0.6-1.1-0.9-1.6-0.9l-8,0.9
		c-0.9-0.2-1.5-0.6-1.7-0.9V212h-0.7l-0.3,2.2c-0.2,0.6-0.9,0.9-1.9,1l-2.1,0.2L245.5,215.8z"/>
</g>
<g>
	<path class="st23" d="M260.2,220.5c0.1,0.3,0.2,0.5,0.5,0.6c0.3-0.1,0.5-0.3,0.5-0.6c0-0.4-0.2-0.5-0.5-0.5
		C260.4,220,260.3,220.1,260.2,220.5z"/>
</g>
<g>
	<path class="st29" d="M260.7,220.4l0.2,0.2l0.2-0.2l-0.2-0.2C260.8,220.2,260.7,220.3,260.7,220.4z"/>
</g>
<g>
	<path class="st23" d="M251.8,203.5l-4.8-0.9c-0.4,0.1-0.8,0.4-1.2,1c-0.5,0.7-0.7,1.1-0.5,1.4l0.1,0.9c0,0.3,0.1,0.6,0.5,0.8
		l5.8,0.3c0.5,0.1,1,0,1.4-0.4l0.7-0.4l0.3-1.5C254.2,203.9,253.5,203.5,251.8,203.5z"/>
</g>
<g>
	<path class="st30" d="M278.8,200.8c1.3-0.9,1.8-1.3,1.7-1.3v-2.8l-1,1.9c-0.6,1.2-1.3,2.1-2.2,2.9L278.8,200.8z"/>
</g>
<g>
	<path class="st31" d="M223.8,180c-2.1,0.9-3.6,1.7-4.3,2.6l-1.5,2.1c-0.5,0.9-0.7,2.2-0.6,3.9l0.9,5.6c0.3,1.7,0.9,3.4,1.7,5.1
		c0.8,1.7,1.8,2.6,2.9,2.9c4,0.9,6.9,1.4,8.9,1.3l4.8-0.4c2.4-0.7,4.3-2.1,5.9-4.2c1.5-2.2,2.6-4.3,3.3-6.4l1.1-3.2l0.6-1.2
		c0.4-0.7,1.3-1.1,2.7-1.2c0.8,0.2,1.4,0.5,1.7,1l0.6,0.8c2,6.5,4,10.5,6,12c2.1,1.6,5.2,2.3,9.4,2.1c4.1,0,7-0.8,8.9-2.1
		c1.8-1.4,2.9-2.8,3.4-4.1l1.1-5.3c0.4-2,0.6-3.8,0.5-5.5c0.2-2.3-1.2-4.2-4.3-5.9c-3.1-1.6-8.8-2.3-17-2l-23.7,0.4L223.8,180z
		 M219.2,189.9c-0.2-3.7,0.9-6.3,3.4-7.8c2.4-1.4,5.3-2.2,8.5-2.5l31.3-0.9c3.6-0.1,7.4,0.3,11.1,1.3c3.8,0.9,6,2.9,6.5,6
		c0.1,6.8-0.7,11-2.2,12.5c-1.6,1.6-2.5,2.3-2.8,2l-12.2,0.6c-2.5-0.4-4.4-1.8-5.6-4.1c-1.1-2.2-2.6-5.8-4.4-10.5l-1.2-1.7l-1.5-0.3
		l-2.1,0.3c-1.9,1.9-3.2,4.6-3.9,7.9c-0.8,3.4-2.4,6.1-5,8.3c-2.5,2.1-7.5,2.3-14.9,0.5c-0.8,0.1-1.7-0.5-2.8-1.8
		C220.2,198.3,219.5,195,219.2,189.9z"/>
</g>
<g>
	<path class="st32" d="M245.3,179.5l-2.2,0.1c1.1,0.4,2,1.3,2.8,2.9l1.2,2.5l0.4-0.4l-0.6-1.6L245.3,179.5z"/>
</g>
<g>
	<path class="st32" d="M246.6,184.6l-0.7-1.6l-0.2,0.1l0.6,3l0.4-0.4L246.6,184.6z"/>
</g>
<g>
	<path class="st32" d="M256.1,179.7l-1.5-0.1c-0.7,0.7-1.3,1.7-1.7,3.1l-0.7,2.4l0.7,0.9l0.7-2.7C254,181.7,254.9,180.5,256.1,179.7
		z"/>
</g>
<g>
	<path class="st33" d="M218.6,182.9l-1.9,1.1c-1.1,0.7-1,1.7,0.4,2.9c0.3-1.9,0.8-3.2,1.6-3.7L218.6,182.9z"/>
</g>
<g>
	<path class="st34" d="M217,186.1l0.1-1.2l-0.3-0.1v1.2L217,186.1z"/>
</g>
<g>
	<path class="st35" d="M282.4,185.2c0,0.4,0,0.6,0.1,0.7l0.3-0.1l0.1-0.3v-1.7l-0.3-0.7l-0.6-0.5c-0.2,0.2-0.3,0.3-0.2,0.5l0.3,0.3
		l0.3,1.2V185.2z"/>
</g>
<g>
	<path class="st36" d="M222.9,182.2l-1.3,1.1l-0.6,0.6c-0.2,0.3-0.7,1-1.2,2.3c-0.2,0.7-0.2,1.8-0.2,3.2l0.9,7.7
		c0.4,1.2,0.8,2.1,1.3,2.8c0.9,0.6,1.5,1,1.7,1.1v-7.8c-0.1-0.1-0.4-0.5-0.7-1.4c-0.4-0.8-0.1-1.9,1-3.2l0.3-4.5l0.8-2.7
		L222.9,182.2z"/>
</g>
<g>
	<path class="st37" d="M266.7,179.5l-8.1,0.2l-1.1,0.2c-0.7,0.1-1.4,0.5-2.1,1.1c-0.6,0.6-1,1.4-1.4,2.4l-0.5,1.8l0.1,1.1l0.4,1.7
		l1.5,4.2c0.6,1.7,1.2,3,1.8,4l0.9,1.4l0.8,1c1,1,1.9,1.6,2.7,1.9c0.9,0.3,1.3,0.5,1.4,0.4l3.8,0.3l6.1-0.6l0.5-0.1l-1-8.2
		c0.1,0.1,0.3,0.1,0.5,0v-0.6l-0.1-0.5l-0.4-0.8l-0.9-5.2h0.9c0.6-0.3,0.9-0.6,0.8-0.9l0.1-0.5c0-0.4-0.2-0.8-0.7-1.5l-1.7-1
		l-0.2-1.5L266.7,179.5z"/>
</g>
<g>
	<path class="st38" d="M224.1,184l-0.2,4.5l-1,1.5c-0.5,0.8-0.3,1.9,0.6,3.1v7.9l7.4,1.3l3.6-0.1l1.5-0.3c0.9-0.2,1.7-0.6,2.5-1
		c0.9-0.5,1.6-1,2-1.6l0.6-1l4.1-10c0.4-1.3,0.6-2,0.4-2.2v-1.2l-0.4-2.2c-0.4-0.6-0.8-1.1-1.4-1.6l-0.9-0.7l-2.1-0.5l-8,0.3
		l-7.9,1.1L224.1,184z"/>
</g>
<g>
	<path class="st39" d="M274.4,180.8l-3.6-1.1l0.2,1.5l1.7,1c0.5,0.7,0.7,1.2,0.7,1.5l-0.1,0.6c0.1,0.2-0.1,0.5-0.9,0.9h-0.8l0.9,5.1
		l0.4,0.8l0.1,0.5v0.6c-0.2,0.2-0.4,0.2-0.6,0l1.2,8.2l1.1-0.3c0.8-0.1,1.6-0.5,2.3-1l0.7-0.7l1.2-3.1l0.6-2.8l0.2-5
		c0.1-0.3-0.1-1.2-0.4-2.6l-0.3-0.7l-1.7-1.7L274.4,180.8z"/>
</g>
<g>
	<path class="st40" d="M273.4,200l3.1-0.6l0.5-0.3l0.7-0.7c0.4-0.9,0.8-1.9,1.2-3.1l0.6-2.8l0.2-4.9l-0.2-1.7v0.1l-0.7,1.5l-0.3,1
		l-0.1,2.1l0.4,0.8L273.4,200z"/>
</g>
<g>
	<path class="st41" d="M272.7,182.3l-1.6-1l0.6,3.8l0.8,0.1c0.7-0.4,1-0.7,0.8-0.9l0.1-0.5C273.5,183.4,273.2,182.9,272.7,182.3z"/>
</g>
<g>
	<path d="M225.9,183c-0.4-0.5-0.6-0.1-0.6,1.1l-0.1,2.4c0.3,0,0.7-0.2,1.1-0.6l1-0.8l8.1-0.2l3,0.5l1.7,0.5c0.9,0.1,1.4,0.1,1.6-0.3
		l0.1,0.7c0.1,0.2,0.3,0.3,0.3,0.1l-0.4-3.7c-0.2-0.4-0.4-0.4-0.5-0.3l-0.1,0.3l0.4,2.1l-0.6-1.5l-0.8-1.6c-0.1,0.2-0.2,0.5-0.1,0.7
		c-0.6-0.4-1.1-0.6-1.3-0.5l-0.3-0.3v0.3c-0.1,0.1-0.2,0.1-0.3-0.1c-0.4-0.6-1.6-0.9-3.7-0.7l-7,0.7
		C226.4,181.8,225.9,182.2,225.9,183z"/>
</g>
<g>
	<path d="M224.3,193.3l1.3,0.2l2.2-0.8c0.1-0.1,0.4,0,0.7,0.3c0.2,0.3,0.8,0.7,1.9,1.2c1,0.6,2.3,0.9,3.7,1c1.2,0.1,2.4-0.2,3.7-0.8
		c1.2-0.6,1.9-1,2.1-1.2l0.1-1.3c0.2,0,0.3-0.1,0.4-0.4c0-0.3-1.1-0.6-3.3-1l-5.8-0.3c-0.6-0.1-1.1,0-1.5,0.3l-0.7,0.6
		c0.3-1.8,1.2-3,2.7-3.3l4.7,0.2c1.6,0.6,2.6,1.3,2.9,2.2c0.2,0.2,0.3,0.1,0.4-0.1c-1.9-2.6-4.2-3.7-7.1-3.1c-2.8,0.5-4.5,2-5,4.4
		c-0.1,0.2-0.8,0.6-1.8,1C224.8,192.9,224.2,193.1,224.3,193.3z"/>
</g>
<g>
	<path class="st42" d="M231.8,191.9l-1.3,0.1c-0.7,0.1-0.9,0.3-0.8,0.6c0.2,0.2,1.1,0.6,2.8,1.2c1.8,0.5,3.7,0.1,5.8-1.4
		c0.3-0.2,0.2-0.5-0.3-0.6c-0.5-0.2-1-0.1-1.4,0.2c-1.8,1.2-3.1,1.5-3.8,1C232.1,192.4,231.8,192.1,231.8,191.9z"/>
</g>
<g>
	<path class="st43" d="M232.7,191.2h-0.8c0.9,1.5,1.9,1.9,3,1.2c1.1-0.6,1.7-1,1.6-1.4h-0.7c-0.5,1-1.2,1.4-2,1.2
		C233,191.9,232.6,191.6,232.7,191.2z"/>
</g>
<g>
	<path class="st44" d="M234.8,194.2l-3.3-0.1c0.7,0.6,1.9,0.8,3.5,0.7c1.5-0.1,3-0.8,4.4-1.9c0-0.3-0.1-0.5-0.3-0.4
		C237.5,193.6,236.1,194.2,234.8,194.2z"/>
</g>
<g>
	<path d="M257.9,183.3l-0.5,2.6l0.2,0.3c0.1,0.2,0.5,0.1,1-0.2c0.8-0.8,2.2-1.2,4.2-1.3l8.8,0.5l-0.6-3.9c-1.3-0.3-3.1-0.3-5.3,0
		l-3.8,0.6h-1.1c-0.7,0.1-1.3,0.4-1.9,0.9C258.6,181.7,258.3,181.9,257.9,183.3z"/>
</g>
<g>
	<path class="st45" d="M257.1,185.4l0.7-2.9c0.1-0.2-0.1-0.3-0.5-0.1l-0.5,2.9C256.7,185.5,256.9,185.5,257.1,185.4z"/>
</g>
<g>
	<path d="M262.1,186.9c-0.4-0.2-1.1,0.2-1.9,1.2c-0.8,1-1.1,1.7-0.8,2l-0.1,0.6l-0.6,0.2c-0.4,0.1-0.2,0.3,0.5,0.4
		c2,2.2,5.2,2.9,9.5,2.2l0.7,0.2c-0.9,0.9-0.8,1.1,0,0.6c0.9-0.5,1.6-1.1,2.2-2h1.2c0.2-0.3,0.2-0.5,0-0.8c-0.3,0.2-0.7,0-1.3-0.4
		c-0.8-2.6-2.3-4.1-4.4-4.5l-3.8-0.4L262.1,186.9z"/>
</g>
<g>
	<path class="st46" d="M263.3,193.5l-1.4-0.4c-0.8-0.3-1.5-0.7-2.3-1.4l-0.4-0.4l-0.7,0.1l0.4,0.7l0.5,0.6c0.3,0.4,0.7,0.7,1,0.9
		c0.7,0.3,1.3,0.6,2.1,0.9l1.4,0.3l2,0.2l1.4-0.5l0.2-0.8L263.3,193.5z"/>
</g>
<g>
	<path class="st47" d="M262.9,187.2c-1.2,0.6-2.1,1.4-2.6,2.2c-0.4,0.6-0.5,1-0.4,1c0.1-0.1,0.7-0.3,1.9-0.6l5.7,0.2
		c2,0.4,3.2,0.7,3.5,0.9l-1.1-1.5c-0.6-0.9-1.4-1.5-2.3-1.8L262.9,187.2z"/>
</g>
<g>
	<path class="st48" d="M264.1,191.3l-1.2-1.1l-0.6,0.1c1.4,1.8,2.6,2.3,3.6,1.5c1-0.7,1.6-1.2,1.6-1.4h-0.7
		C265.8,191.5,264.9,191.8,264.1,191.3z"/>
</g>
<g>
	<path class="st49" d="M260.6,191.6c0.6,0.7,1.9,1.2,3.9,1.6c2.1,0.3,3.8,0.1,5.1-0.6c0.1-0.3,0.1-0.4,0-0.5l-1.1-0.5l-1.3-0.2
		c-0.5,0.7-1.3,1.1-2.3,1.2c-1.1,0-2-0.5-3-1.6C261.4,191.1,260.9,191.3,260.6,191.6z"/>
</g>
<g>
	<path class="st50" d="M236.1,178.2v0.3l24.2-0.3v-0.4L236.1,178.2z"/>
</g>
<g>
	<path class="st51" d="M222.4,201.2c0.2,0.1,0.4,0.2,0.6,0.1l-0.4-0.3l-0.4-0.3L222.4,201.2z"/>
</g>
<g>
	<path class="st51" d="M276.4,200.3c-0.1,0.1,0,0.2,0.1,0.2l0.5-0.2v-0.4L276.4,200.3z"/>
</g>
<g>
	<path class="st52" d="M280.9,187.7l-1.4,6.6c-0.9,2.5-1.4,4-1.7,4.5l1.3-0.7l1.3-3.2l0.9-3.9L280.9,187.7z"/>
</g>
<g>
	<path class="st53" d="M274.2,178.9l2.4,1.1l-0.4,0.9l2.3,2c0.6,0.4,1,1,1.2,1.7l0.4,1.3l-0.1,5.5l0.9-3.6l-0.4-5.3l-0.5-0.8
		l-2.3-1.5l-2.3-1L274.2,178.9z"/>
</g>
<g>
	<path class="st51" d="M277.4,180.9l1.6,0.7c0.1,0.1,0.4,0.3,0.8,0.5l0.7,0.4l0.4,0.1l-1.5-1.4c-1.5-0.8-2.2-1.1-2.1-0.9
		L277.4,180.9z"/>
</g>
<g>
	<path class="st52" d="M218.4,193.6c0.1,0.6,0.4,1.7,1,3.2c0.6,1.6,1.3,2.5,2,2.9c-0.7-1.1-1.2-2.4-1.5-3.9l-0.4-2.4l-1-1.8
		C218.4,191.9,218.4,192.6,218.4,193.6z"/>
</g>
<g>
	<path class="st54" d="M218.4,188.4l0.1,3.3l1,1.7l-0.6-5.1L218.4,188.4z"/>
</g>
<g>
	<path class="st52" d="M220.6,181.6l-1.6,1.5l-0.6,5.2l0.5-0.1l0.2,1.3c0-0.6,0.1-1.6,0.3-3c0.4-2.3,2.2-4.1,5.6-5.6l0.3-1.3
		C223.3,180.1,221.7,180.8,220.6,181.6z"/>
</g>
<g>
	<path class="st51" d="M250.1,185.3l0.1-0.7l-1.8,0.1c-0.1-0.1-0.4,0.1-0.6,0.3l-0.5,0.5c0.1,0.2,0.3,0.3,0.6,0.4l0.9-0.6H250.1z"/>
</g>
</svg>
