<?xml version="1.0" encoding="utf-8"?>
<!-- Generator: Adobe Illustrator 21.1.0, SVG Export Plug-In . SVG Version: 6.00 Build 0)  -->
<svg version="1.1" id="Слой_1" xmlns="http://www.w3.org/2000/svg" xmlns:xlink="http://www.w3.org/1999/xlink" x="0px" y="0px"
	 viewBox="0 0 512 512" style="enable-background:new 0 0 512 512;" xml:space="preserve">
<style type="text/css">
	.st0{fill:#DBA778;}
	.st1{fill:#C66D4F;}
	.st2{fill:#FFFFFF;}
	.st3{fill:#E5BAAF;}
	.st4{fill:#858562;}
	.st5{fill:#CF4B47;}
</style>
<g>
	<path d="M304.4,87.6c-4.8-3.5-10.1-6.6-15.9-9.2l-5.7-2.6c-2.2-1-4.3-1.7-6-2c-2.6-1.2-6.7-2.1-12.3-2.5c-5.7-0.5-11,0.1-15.8,1.8
		c-0.7,0.2-3.8,1.8-9.3,4.8c-5.5,2.8-11.5,6.8-17.9,11.8c-6.5,4.9-11.5,10.6-15,17.1l-7.6,15.8l-5.7,10.9l-1.8,4.5
		c-0.4,1.1-0.8,4.2-1.1,9.3c-0.4,5,0,9.9,1.3,14.7v2.6l0.8,5.3c0.4,2.4,0.8,4.3,1.4,5.8l-0.3,3.1c0.5,2.1,0.4,3.6-0.1,4.5l-3.1,5.6
		c-0.4,1.3-0.9,4.3-1.5,8.8l-1.9,13.8c-0.7,4.7-1.3,8.1-1.8,10.2l0.7,6.4c-1.3,7.4-2.9,14.8-4.7,22.1c-0.5,1.9-1,4.3-1.3,7.2
		c-0.5,2.9-0.3,5.4,0.4,7.5c1.1,2.2,2.6,3.9,4.5,5.4c-0.7,6.9,0.3,14.1,3,21.5l2.8,3.7c1,1.3,1.8,2.8,2.5,4.3c1,1.9,1.9,4.2,2.9,6.8
		l1.8,4.9l4.6-0.4l4.8-1.2c0.4,0.6,0.7,1.2,1,1.9c0.9,2.2,1.6,4.5,2.1,6.9c-2.5,0-3.9,0.5-4.2,1.4c-0.4,1-0.5,1.6-0.4,1.8l0.1,4.1
		l-1.6,1.5c-1.1,0.8-1.9,2-2.3,3.3c-0.3,1.2-0.3,2.5-0.3,3.8c-0.1,5,1.3,8.1,4.2,9.4l4.6,0.3l-1.5,10.5c-0.7,4.9-0.9,8-0.8,9.3
		c-0.1,0.3,0.9,1.8,3.2,4.5c2.2,2.7,7.9,8.1,16.9,16.2c-0.3,0.9-1.6,3.4-3.8,7.6l-12.4,22.8c-2.9,6.1-5.7,12-8.6,17.8
		c-5.1,12.6-8.2,23.4-9.2,32.4c-1,9.1-1.4,14-1.2,15c-0.4,1.8-0.2,5.4,0.4,10.6l2.7,20.9h2.2l-1.8-11.1c-1.6-9.8-2-18.8-1.4-27
		c0.6-8.3,1-12.7,1.2-13.2l1.2,5.8c0.7,3.4,1.7,6.3,2.9,8.6c0.7,1.9,2.5,4.6,5.2,8.2c2.8,3.5,8.8,7.8,18.2,12.9
		c6,3.1,11.4,5.2,16,6.2c4.1,1.2,9,2.4,14.9,3.6l9.7,2l0.8,4h1.8l-0.2-1.8l-0.5-1.9c-0.3-1.3-0.5-2.4-0.6-3.5
		c-0.1-1.4,0.2-3.1,1-5.2l1.9-5.4c3.1-9,5.2-17.6,6.3-25.7c1.1-8.2,1.6-12.5,1.6-13l2.6-35.1l19.2,11.4c0.6,0.2,2,1.5,4.3,3.9
		c1.1,1,1.9,2.4,2.3,4.1l0.7,2.9l4.2,9.9l8.9,16.1l3.7,8.9l1.5,6.4c1,2.6,2,4.2,2.9,4.8l2.5,0.9l1.3-0.2c0.5-0.5,0.7-1,0.6-1.3
		l0.1-3.7l-0.7-7.1l0.7,1.5l1.8,6.7l1.9,4.6c1.3,0.8,2.3,1.2,2.8,1.2l1.5-0.3l0.5-1.4c0.2-0.4,0.3-1.1,0.3-2
		c-0.1-0.9-0.1-1.5,0.1-1.7c-0.2,0.5,1,1.4,3.7,2.7l1.4-0.9v-3.4l0.2-1.1c0.5,0.1,1-0.5,1.6-1.8l-1.2,30.5h1.3l0.4-5.2
		c0.6-11,0.8-19.3,0.7-24.8c0.7,0.5,1.4,0.3,2-0.5c0.1-2.1,0.2-3.6,0.4-4.6l0.2-6.8c0-5.1-0.5-9.6-1.4-13.6c-0.3-2.3-0.3-4-0.1-5
		l-0.3-5c-0.1-1-0.5-2.4-1.2-4c-0.8-1.7-2.7-4.7-5.7-8.9c-0.8-0.8-1.9-2.2-3.2-4.2l-0.5-1.2l-1-4l1.6,1.7c0.8,0.9,2,1.3,3.8,1.2
		l3.5-0.4c2-0.3,3.3-0.8,4-1.4c0.7-2.7,1-5.9,0.9-9.7l0.1-1.3c-0.7-1.6-1.7-3-2.9-4.2c-0.2-1.4,0.3-2.8,1.7-4.2
		c0.3-1.8-0.4-3.7-2.2-5.7l-2.4-4c-0.7-1.2-2.2-2.4-4.4-3.8c-4-2.3-6-3.5-5.9-3.7c-0.5-2,0-3.4,1.5-4.1c1.3-0.3,3.4,0.2,6.3,1.6
		c2.9,1.4,4.7,2.4,5.5,3c0.7,0,1.2-0.2,1.5-0.7l-11-10.1c-1.7-0.6-3.2-0.4-4.5,0.7l-5.7,4.1l-11.5-19l-2.6-6c-0.2-1.4-0.5-2.6-1-3.7
		l23-25c4.9-5.2,7.8-8.2,8.7-8.9c2.5-1.5,5.2-2.8,8-4.2l11.6-8.4l10.2-0.4c0.5-0.6,0.6-1.3,0.2-2c-1.6-1.3-3.8-2.3-6.7-3l-0.4-0.4
		l1.3-0.9c0.9-1.2,1.6-2.4,2.1-3.7c0.1-1.4-0.5-2.6-1.7-3.6c-1.3-1.1-2.5-1.2-3.9-0.3c-0.1-0.2-0.1-0.6,0-1.2l3.2-1.3
		c1.5-0.8,2.4-1.3,2.7-1.8c0.3-0.5,0.5-1.6,0.5-3.2c0.1-1.7-0.4-2.8-1.3-3.3l-2-0.3h-1.8l-0.1-0.5c1.1-0.2,2.4-1.1,3.8-2.7
		c1.3-1.6,1.9-3.1,1.8-4.6c-1.1-3.8-2.7-5.4-4.9-4.9l8.6-16.7c2-3.6,3.2-5.8,3.7-6.4c0.3-1.1,0.3-1.6-0.2-1.6l1.9-1.8
		c0-1.3-0.5-1.9-1.4-1.8l-4,3.5l-35.1,0.1c-1.9,0-3,0.3-3.2,0.9c-0.2,0.7-0.2,1.1,0,1.5l7.2,12.1c3,5.1,4.9,8.4,5.9,9.7
		c-1.7,1.3-5.6,6-11.6,14.2c-2.6,4.5-5.1,9.6-7.5,15.1c-2.5,5.6-4.5,9.1-6,10.4l-4.2,3.8c-2.6,2.2-6.6,4.6-11.9,7.3h-0.1l-2.8-8.3
		l3.7-1c2-0.5,4.8-2.2,8.6-5.1c4.5-3.7,8.1-8.4,10.7-14l2.3-5.6c0.9-2.9,1.2-5.9,0.8-8.9c-1.2-4.1-3.4-7.3-6.6-9.6
		c-3.3-2.4-6.6-4.5-10-6.4c-6.2-4.2-12.3-8.6-18.1-13.2c-2-1.7-3.9-3.3-5.9-5l-2.5-2.3l-10.5-11.2c0-1.4-0.2-3-0.4-4.8
		c-0.3-1.8-0.7-3.1-1.3-4l7.6-2.4c4.2-1.3,7.4-3.2,9.6-5.4c3.5-0.5,6-1.1,7.5-1.7c0.4-1.1,0.6-4.4,0.8-9.8l0.2-9.9
		c-0.1-1.9,0.2-3.2,1-4.1l1.4-1.4l3.4-4.6c1.7-2.4,2.9-4.4,3.6-6.2c0.4-2.3,0.5-4.5,0.3-6.6l-2.3-26.3l2.8-6.3c1.5-3.4,2.7-9,3.7-17
		c-0.1-2.1-0.9-5.8-2.2-11.1c-1.3-5.3-2.5-8.9-3.6-10.9C308,91.4,305.5,88.2,304.4,87.6z M294,133.8l2.2-13l3.7,4.5
		c0.6,1.7,1.1,4.2,1.5,7.3c0.5,3.2,1.1,6.5,1.9,9.8c0.3,2.7,0,4.3-0.7,4.8c-0.8,0.5-1.7,1-2.7,1.4h-0.6c-0.2-0.5-1.6,0-4.3,1.6
		c-2.7,3.3-4,5.8-3.9,7.6c0.2,1.8,0.3,2.7,0.6,2.7v-1.8l5.2,1.4c2,0.4,3,0.1,3.3-0.8c0.1-0.8,0.2-1.3,0.1-1.5c0.2,0,0.4,1.3,0.5,4.1
		c0.2,2.8-0.8,7.1-2.8,12.9l-3.5,9.5c-1.7,4.7-3.6,9.2-5.6,13.5c-1.6,4.9-3.3,7.8-5.1,8.9c-1.9,1.1-2.9,1.5-3.1,1.3
		c0.2,0.5-2.5,0.4-7.9-0.5c-2.8-0.5-5.5-1.3-8.2-2.3c-2.8-0.9-4.8-1.8-6.3-2.7c-1.6-1.1-3.5-2.7-5.8-4.9l-3.6-3.6l3.5-2.9l-0.4-15.3
		l5.3-3.4c-0.4,0.3-0.7,2.5-0.9,6.4c-0.2,3.9,1.7,7.9,5.6,12l-2.4-4c-1.1-2.3-1.1-5.9,0-10.8l2.2-4.1c1-1.8,3.1-3.2,6.3-4.3
		c-0.6,1.8-1.4,3.3-2.4,4.4c-3.5,4.7-5,8.2-4.3,10.5c0.5,2.2,1,3.4,1.3,3.3c-0.2,0-0.4-1-0.6-2.8c-0.4-1.8,0.3-4.3,2-7.4l2.9-4
		c1.4-2,2.5-3.4,3.4-4.1l8.3-1.8c0.5-0.2,1.8-1.4,4.1-3.7c2.3-2.4,4.1-5.3,5.4-8.9c1.1,0,1.7-0.4,1.7-1.2
		C291.5,147.9,292.9,141.9,294,133.8z M296.7,154.4l2.2,0.5l0.2,1.8l-0.1,2c0.1,0.4-0.5,0.7-1.8,0.9c-1.7-0.1-2.8-0.3-3-0.5
		l-1.9-0.6c-0.6-0.4-0.8-1.1-0.3-1.9l1.2,1l1.7-0.2c1.6-1.2,2.1-2,1.6-2.4v-0.2L296.7,154.4z M295.3,154.9l0.7-0.2v0.7l-0.5,1
		c-0.3,0.5-1.1,0.6-2.4,0.3c-0.4-0.3-0.6-0.6-0.6-0.8c-0.1-0.2,0-0.4,0.3-0.6l0.7,0.7l1.1,0.1C295.1,155.6,295.3,155.2,295.3,154.9z
		 M295.9,151.4l2.7-0.2c1.5-0.1,2.4-0.3,2.6-0.7l-0.1,1.8c-1.3,1.6-2.3,2-2.8,1.4l-2.2-0.5l-2.1,0.1
		C294.1,152.9,294.7,152.2,295.9,151.4z M296,184.2c0.2,0.6,0.3,2.5,0.4,5.6c0.1,3.2,0.1,5.2-0.1,6.2l-7.4,6.4
		c-0.2,0.1-0.3-0.3-0.1-1.1l0.3-1.8c0.3-1,1.4-3.7,3.4-8C294.4,187.1,295.5,184.7,296,184.2z M286.6,240.5l-6.6-7.6v-1.6
		c0,0.5,5.8,6.2,17.2,17c7.5,5.9,17.3,12.9,29.5,20.8c1.4,0.8,3,2.5,4.6,5.1c1.7,2.6,1.2,7.8-1.5,15.5c-1.9,4-4.3,7.6-7.1,10.6
		c-2.9,3.1-7.2,5.7-13,8.1l-4.3-0.3l-9-2.4l-3.8-0.4c-4.2,0.7-8.9,1.7-14.4,3l-20.9,5.4l0.6-2.7l36.4-8.7c0.2,0.6,1.8-1.2,4.8-5.5
		c3.3-5.8,5.3-10.4,5.8-13.8c0.6-3.5,0.8-5.6,0.7-6.3c-0.1-2.1-0.9-5.4-2.6-9.8l-2.1-4.8l-4.4-8.1
		C293.9,249.7,290.6,245.1,286.6,240.5z M278.1,240.6c1-1.9,1.5-4.1,1.5-6.6l11.4,13.7c5.7,7.3,9.8,15.6,12.2,25.1
		c2.4,9.5-0.6,18.7-8.9,27.8c-2.2,0.3-6.1,1.2-11.8,2.6l-24.1,6.4l2.4-10.3c1.5-6.3,3.3-11.6,5.4-16l1.6-6l0.4-0.9l7.2-2.6l2-1.4
		c0.4,0,1-0.4,1.7-1.1c-0.2-0.5-0.4-0.7-0.7-0.7l-1.7-0.1c-0.6-0.8-1.3-1.1-2.1-1.1c-1.2,1.3-2.5,2.4-3.9,3.4l-2.3,1.6l1-3.5
		c1.3-1.1,2.7-2.7,4.2-4.6c0.5-1.9,0.6-3,0.3-3.2c-2.9,4.2-4.6,6.5-5.2,6.9l0.3-2.4l1.1-1.4c0.5-0.2,1.3-2,2.3-5.5
		c0.8-1.1,1.3-2.3,1.6-3.3l0.8-3.6l-7.4,13.5l-0.3,4l-20.9,68.8l-0.4,2.9c-0.1,1.8,0,3.2,0.5,4.2c0.5,1.2,2,3.5,4.7,6.9l12.6,15
		l17.3,16.1l8.3,6.4c5.6,4.2,13.8,9.9,24.4,16.9c1,0.6,3.6,2.8,7.9,6.5l17.1,15.5c1.2,1.9,2.3,4,3.4,6.4l1.8,4l3.6,11.1l2.2,10.5
		c0.3,1.6,0.4,2.8,0.2,3.7c-1.6,0.8-1.8,1.6-0.7,2.4l0.9-0.1v7.7c-1.4,0.1-2.2,0.6-2.3,1.6c0,1.1,0,1.7,0.1,1.8
		c-0.5,0.1-1.1-0.6-1.9-1.9c0.4-3.4,0.6-6.2,0.6-8.3l-2-7.1c-0.7-2.6-1.1-4.5-1.1-5.8c-0.6-0.9-0.9-1.2-1.1-0.7
		c-0.2-0.2-0.3,0.3-0.3,1.3c0.2,1,0.8,3,1.8,6.2l1.6,5.3c0.2,0.3,0.3,1.1,0.2,2.4l-1.8,1.2l-1.3,0.7l2.9-0.9
		c0.3,0.2,0.4,0.5,0.2,0.8c0.1,0.1-0.2,0.2-1.1,0.3c-1.2,0.4-1.9,0.7-2.1,0.8c-0.3,0.1-0.2,0.3,0.4,0.6c1.4-0.1,2.3-0.4,2.6-0.9
		c0.1,0.4,0.1,1.6-0.1,3.7l-0.3,3.5c0.3,0.4-0.1,0.8-1.3,1c-1.7,0.3-2.4,0.6-2.1,1c0,0.7,0.2,1.6,0.6,2.7c0.5,1.1,0.6,1.7,0.5,2
		c-0.3-0.1-0.8-0.7-1.4-2l-1.1-2.1l-1.1-9.8l-2.3-9.6c-0.8-3-1.4-4.7-1.8-5.1c-0.5,0.4-0.6,0.6-0.3,0.8l3.7,13.9
		c-0.1,0.4-0.8,0.7-2,1.2c-1.4,0.3-2.1,0.6-2.2,0.8l1.2-0.1l1.1-0.3l2.1,0.2l0.5,6c0.2,3.3,0.2,5.2,0,5.6l-0.3-1.4
		c-0.2-0.8-1.4-0.7-3.7,0.3c0,0.3,0.2,1.1,0.6,2.4l0.8,2.1c-0.1,0.3-0.5-0.1-1.4-1.1c-0.8-1.1-1.8-4.6-3-10.5l-4.9-16.6
		c0-0.3-0.2-0.4-0.7-0.5c-0.3,0.3-0.4,0.6-0.2,0.7l1.2,3.7c0.8,2.2,1.4,5,2,8.2l1,8.9c-2.9,0-4.4,0.3-4.3,0.7c0,0.4,0.1,0.6,0.4,0.6
		l1.6,3.8c-0.1,0.3-0.7-0.1-1.9-1c-1-1-2.1-4.5-3.1-10.3l-2.1-5.4c-1.3-3.2-2.9-6.3-4.9-9.6c-2.1-3.3-4.1-7.1-5.9-11.2
		c-1.8-4.2-3-6.9-3.3-8.2l-1.2-4.2c-0.6-1.9-2.6-4.3-5.8-7.2l-30.3-18c-8.5-5.2-17-11-25.3-17.5c-8.5-6.5-18.3-15.1-29.7-25.8
		c-0.9-0.7-2.1-2.2-3.6-4.5c-0.8-1.6-1.2-3.2-1.2-4.8v-2.5l15.5-109.9c-0.2-0.2-0.7-0.4-1.6-0.6c-0.8-0.2-0.9,0.9-0.2,3.1l-4.9,19.8
		c-0.4-0.3-0.9-2.9-1.7-8.1c-0.7-5.1,0.4-11.4,3.4-18.9c-4.5,6.3-6.1,12.9-4.9,19.8c1.2,6.9,2.1,10.5,2.6,11.1l-0.8,6.8
		c-0.7-0.4-1.8-4.8-3.4-13.1c-1.8-8.3-0.3-18.3,4.5-29.9c1.2-2,3.1-5.1,5.9-9l6.2-9.5c2.8-5.3,4.1-8.2,3.9-8.9
		c0.2-0.2,0.3-1.2,0.3-3.1c0.1-2-1-3.8-3.3-5.5c0.6-1.4,1.3-2.1,2.2-2l2.2,0.3l-1.2,2.8l-0.1,1c0,0.6,0.3,0.7,1,0.6l4.1-3.4
		c0.6,0.1,2.5,0.9,5.6,2.3l5.3,2.5c-0.4,0.2-0.5,0.4-0.5,0.8c-0.1,0.4,2-0.3,6.1-2.1c8.7,0.5,14.5,3.9,17.3,10
		c2.7,6.2,3.9,12.4,3.8,18.6c-0.3,6.1-0.5,9.4-0.7,10L278.1,240.6z M340.5,249.2l-1.4-2.7l36-0.1l-0.1,0.1h0.1l-2.2,1.8L372,248
		c0.2,0.1,0.3,0.2,0.4,0.3c0,0.6-0.1,0.9-0.4,1.2h-1.6l0,0l-0.2,0.3l0.2-0.3h1.9l0,0l3.5-3.2h1.3l-4.1,4.2h-0.4l-0.3-1l0.2,0.9
		c-0.2,0.1,0,0.1,0.4,0.1l-0.1,1.4c0.3,0.4,0.4,0.6,0.5,0.6c0.5,0.4-0.5,0.8-3,1.4c-2.2-0.4-3.4-1.2-3.8-2.3
		c-0.3-1.2-0.4-1.9-0.3-2.1h1.9l0,0h-1.9c-0.4-0.7,0.4-1.4,2.6-2.3c1.3,0.2,2.2,0.3,2.9,0.6l-1-0.5c-1.4-0.6-2.7-0.4-3.9,0.4l-1,1.4
		h-0.1h-25.2V249.2z M353.2,270.2l-1.1-2L341,250h24.4h0.1c-0.2,0.5-0.2,1-0.1,1.5l0.4,0.7c0.8,1.3,1.4,1.9,1.9,2.1h-0.1l0.1,0.1
		c-0.4,0.6-2.8,2.8-7.1,6.7l-7.6,6.8v0.1c0,0.2,0.1,0.2,0.4,0.2l15-13.5c0.3,0.6,1.6,0.4,4.1-0.4c1.1-1.4,1.7-2.5,1.7-3.2l-0.2-0.6
		l0,0l0,0l4.6-4.3l-0.1,0.3l0.1-0.2l-1.5,2.9l-9.4,18.6l-1.1,2L353.2,270.2z M355.2,270.9L355.2,270.9c-0.1,0.1-0.1,0.3,0,0.5
		C355.1,271.2,355.1,271,355.2,270.9z M348.4,275.4c1.4-0.4,2.1-0.2,1.9,0.5c0.1,0.3,0.6,1.2,1.7,2.6c1,1.5,1.9,1.7,2.7,0.7
		c0.4-0.1,0.7,0,0.8,0.3l0.3,1.2c-3.8,1.3-7.2,2.9-10.2,5c-3,2-4.4,3.2-4.2,3.7c0.5,0,1.8-0.8,3.8-2.3l3.8-2.7l2.1-1.1
		c1-0.4,1.5-0.6,1.6-0.5l-2.2,1.7c-0.5,0.2-0.3,0.9,0.3,2.3c0.5,0.6,1,0.9,1.7,0.9c0.6-0.4,1.5-1.1,2.6-2.2l2.1-2.1
		c0.4,0,0.4,0.8,0,2.5c-0.5,1.8-2.1,3.5-4.7,5.3c-1.3,0.7-2.6,1.4-3.8,2.2l-2,1.2L344,297c-1.5,1.3-2.1,2-1.5,2
		c1.1-0.5,2.6-1.5,4.4-3.1c1.7-1.4,2.8-2.3,3.1-2.4l-0.8,1.8l-0.2,3.5c0,1.4-0.2,2.6-0.7,3.4l-2,2.7c-1,1.3-1.5,2.1-1.5,2.2l1.8-1.3
		l-0.1,1.5h3.9c0.7-0.6,1.1,0.3,1.1,2.8c-0.4,0.8-0.3,1.6,0.4,2.3c1,0.3,2.8-0.3,5.5-1.8l4.5-2.7l-4.3,3.4c-2.8,2.1-5.7,3.9-9,5.5
		c-1.8,1.1-2.9,1.7-3.3,1.6c-0.1-0.5-0.8,0.3-2.3,2.5l-30,31.3c-0.7-10.6-1.3-18.2-1.7-22.6l-0.7-6.5c-0.4-0.4,0-1.1,1.2-2.3
		c6.3-3.1,11-6.5,14.3-10.2l4.9-6.1l3-7c1.9-4.1,3.2-6.7,4-7.8C343.4,280.5,346.9,275.7,348.4,275.4z M350.9,284.8l0.5-0.5l5.1-3.4
		c0.7,0,1,0.5,0.9,1.5l-4.5,4.4l-1,0.1c-0.5-0.4-0.8-0.7-1-1.1C350.7,285.6,350.7,285.3,350.9,284.8z M378.6,245h-1.4l3.2-2.8
		c0.1-0.3,0.4-0.1,0.8,0.6L378.6,245z M366.5,271.4v0.1l-0.2,0.7c-0.2,0.2-0.3,0.4-0.5,0.6h-0.1l-0.4-0.2l-0.1-0.1h-0.6
		c-0.3,0.1-0.4,0.3-0.4,0.5c-0.4,0.5-1,0.6-1.5,0.4l-0.2-0.7v-0.2h-5.1c-0.9-0.3-1.5-0.7-1.6-1.1c-0.2-0.3-0.1-0.6,0-0.8l10.5-0.3
		v0.1v0.5l-9.7,0.1v0.2l0.2,0.3L366.5,271.4z M367.3,271.7l2.7-0.2c2,2,2.6,3.7,1.6,5.1l-2,2.5c-1,0.4-1.7,0.5-2,0.2
		c-0.5-0.2-1.3-0.7-2.4-1.6c-0.4-0.6-0.5-1.3-0.3-2.1C365.5,274.1,366.3,272.8,367.3,271.7z M359.2,273.3L359.2,273.3L359.2,273.3
		l2.5-0.2h0.1v0.6l-1.4-0.1c-0.2,0.3-0.2,0.6,0,0.8l0.6,0.1l1.8,0.2h0.1l0.3,10.2l-1.2,0.9l0,0c-0.6,0.4-1,1.2-1.2,2.2l-0.1,0.9v0.1
		c-0.8,0.6-1.1,1.2-1,1.7c0,0.2,0.1,0.4,0.3,0.6l0.9,0.8l0.1,0.1l1.7,1v0.1l0,0l0.1,7.5l-0.2,0.4l-0.1,0.1l-1.5,0.3l-2,0.1l0.5,0.6
		l0.1,0.1c0.5,0.4,1.1,0.6,1.9,0.7l0.8,0.1l0,0l0.5-0.1l1.2-0.7l0.5-0.8l-0.1-0.8l-0.1-0.3H364v-0.1h-0.1l-0.3-6.9h0.1l0,0l0.9-0.3
		l0.1,3.2c-0.6,1.8-0.4,3.1,0.8,4.1l0.4,0.9v0.1v0.1c-0.7,0.6,1.8,1.7,7.3,3.4c1,0.6,1.6,1.1,1.7,1.3v0.1l-26.4,0.3l-0.3-0.2
		l0.1-0.4c0-0.3,0.2-0.5,0.5-0.8c2.7-0.2,4.8-1.1,6-2.7l0.7-0.7l0.1-0.2l1.5-1.9h0.1v-0.1l1.3-0.1h0.1l-0.2-18.1c0-2.8,0-4.7,0-5.8
		v-1L359.2,273.3z M360.2,290.7c0-0.4,0.1-0.7,0.3-0.8l3.1-2.4c0.2-0.3,0.6-0.3,1.4-0.2l0.7,1.1v0.8c-0.3,0.3-1,0.7-2.1,1.3
		l-1.9,0.9l-0.7,0.2C360.6,291.5,360.4,291.2,360.2,290.7z M356.8,290.4c0.1-1.1,0.4-1.9,0.7-2.1l0.1,10.2c-0.1,0.3-0.3,0.4-0.7,0.4
		l-2.6,3c-1.3,1.5-3,2.2-5.2,2c1.5-1.7,2.5-3.5,3-5.3c0.6-1.8,1-3,1.3-3.4l2.7-2.2L356.8,290.4z M365.4,286.7
		c-0.7-0.3-1.2-0.3-1.6,0c-0.5,0.4-0.9,0.6-0.9,0.7l-1.3,1c-0.2,0-0.1-0.4,0.2-1.2c0.4-0.9,2.2-2,5.3-3.5h0.1c1.3-0.4,2.4-0.4,3.2,0
		c1,0.4,1.5,1.3,1.4,2.5l-0.2,2c0.2,0.2-0.2,0.6-1.2,1.4l-6.5,2.8c-1.2,0.1-1.8-0.1-1.7-0.5l2.1-1.2c1.1-0.5,1.8-0.9,2.1-1.2
		l0.2-0.8C366.2,287.7,365.8,287,365.4,286.7z M370.5,295.7c0.5,0,0.6,0.6,0.2,1.9l-1.4,2.2c-0.2,0.5-0.9,0.8-2.2,0.9
		c-0.3-0.1-0.9-0.6-1.8-1.4c-0.6-1.2-0.7-2-0.4-2.2l2-2.6c0.1-0.4,0.6-0.5,1.7-0.3C369.8,294.9,370.5,295.4,370.5,295.7z M298,307.4
		l7.7,3.6c2.4,4.6,3.8,10.8,4.3,18.3l1.1,20.3c0.5,5.6,2.7,11.7,6.9,18.5c4.1,6.7,6.4,10.3,7.1,11c0.3,0.3,1.1,1.7,2.2,4.1
		c0.3,0.9,0.2,1.4-0.2,1.5l-0.9-0.1c-0.3-0.4-4.5-1.4-12.6-2.9c-8.1-1.4-18.3-0.5-30.8,2.8c-7.4-6.1-14.4-12.9-21-20.4l-10.6-12.2
		c-0.3,0.3-0.4-0.5-0.2-2.4l4.4-26.2c0.9-5.1,1.5-7.9,1.8-8.3l34.3-8.4l4.3,0.1L298,307.4z M289.3,390.3c0-0.4,0.9-1.3,2.8-2.6
		c1.5-0.4,5-0.9,10.6-1.4l14,0.4c1.5,0.3,3,0.7,4.6,1.4l3,1.3c4.4,15,7.6,25,9.6,29.9c1.6,3.9,2.6,6.1,2.9,6.7l-15.7-13
		c-1.7-1.5-5-4-10.1-7.5L289.3,390.3z M293.2,386.3c-3.5,1.6-5.2,2.7-5,3.2l-4.7-4.1c0-0.2,2.1-0.7,6.3-1.6c4.3-0.9,11.3-1.3,21-1.2
		l6.6,1l9.5,2.1c0.9,0.3,1.6,0.3,1.8-0.2l1.3,0.3l11.7,8.4c0.4,0.3,1.1,0.9,2.2,2l4.4,6.7c0.2,0.4,0.2,1.3-0.1,2.9
		c-0.4,0.5-0.9,0.9-1.3,1.1c-0.6,0.1-0.9-0.1-1.1-0.3l-6.3-10.4c-1.9-2.3-4-4.2-6.4-5.4c-1-0.3-1.5-0.1-1.5,0.5l0.1,0.9l17.3,21.7
		l-0.1,9.1c-0.5,1.5-1.1,2.1-1.7,1.8l-5.2,0.5c-1.7-0.4-2.4-0.8-2.3-1.1l-9.7-19l-3.5-10.7l-0.8-4.9l-0.6-1.1l-4.8-1.9l-8.5-1.5
		c-2.6-0.3-5.4-0.3-8.7,0L293.2,386.3z M332.5,386.6l-3-1.8l1.8-2.4c1.2-1.3,2.9-2.3,5-2.9c2.3,0.1,3.6,0.4,3.6,0.9l8.6,7.2
		l-9.3-5.1l-3.5,0.2L332.5,386.6z M337.8,396.8c0.5,1.2,0.7,2,0.5,2.4l-3.1-3.5c-1.9-2.1-2.8-3.2-2.8-3.4c0-0.4,0.8,0.1,2.3,1.5
		L337.8,396.8z M345.5,408.5l-3.9-5.1l-1.8-5.1l5.9,8.6C345.9,407.7,345.9,408.2,345.5,408.5z M347.3,443l1.4,8.4l-6.3-16.3
		L347.3,443z M329.8,483.7c0.3-0.2,0.5,0.1,0.5,0.7l0.3,3.9c0.2,0.1,0,0.4-0.8,0.8c-0.8,0-1.1-0.1-1-0.3l-1.3-4.3
		C326.8,484.1,327.6,483.9,329.8,483.7z M343.8,482.3h0.4v5.4l-0.8,0.1c-0.2-0.3-0.5-1-0.6-2.3c-0.2-1.3-0.3-2.1-0.3-2.4
		C342.8,482.8,343.2,482.5,343.8,482.3z M344.2,482.3h0.6v4.5l-0.1,0.7l-0.5,0.2V482.3z M336.1,486.3c0.5-0.4,1.2-0.6,1.9-0.6h0.5
		l0.5,4.6l-0.6,0.1h-1.3l-0.7-2.1C336.1,487.3,336,486.6,336.1,486.3z M348.5,477.8l0.1-0.4c0-0.1,0.3-0.3,0.8-0.4l0.1,2.5V477
		c0,0,0.2,0.1,0.3,0.3l0.1,3.7l-0.4,0.4c-0.3,0.2-0.6,0.2-1,0V477.8z M195.8,150.6l-1.5,17.6c-0.2-0.4-0.5-2.8-0.9-7.5
		c-0.1-2.6,0.1-6,0.6-10.2l0.7-7.1c0.4-0.5,0.9-0.4,1.5,0.3C196.3,144.4,196.1,146.7,195.8,150.6z M250.5,169l0.5,21.2l-13.9,11.4
		L250.5,169z M184.6,256.7V269c-0.4-0.2-1.4-1.4-2.8-3.7C180.4,262.9,181.4,260,184.6,256.7z M234.3,198.7l2.9-1.7l-0.7,2.2
		C235.1,199,234.4,198.9,234.3,198.7z M240.9,200.5l1.9-1.6l9.9,6.3l-1.4,0.9L240.9,200.5z M253.2,205l-9.5-6.9l3.7-3l8.1,8.9
		L253.2,205z M210.8,251.7c1.3-3.2,2.2-4.7,2.4-4.7c-0.4,0.5-1.1,4.6-1.8,12.4c-0.8,7.8,1.1,16.3,5.5,25.4v2.7
		c-4.8-8.6-7.3-16-7.7-22C208.9,259.4,209.4,254.8,210.8,251.7z M208.4,309.2l1.6-3.9c-0.1-0.1,0.2-0.1,0.7,0.2
		c2.4,2.2,3.8,3.1,4,2.5l-1.3,10.5h-2.3L208.4,309.2z M213.1,320.6l-3.3,0.5c-0.5,0-1,0.5-1.6,1.4l-0.2,1.9l-1.6,0.9l0.1-4.2
		c-0.3-0.6,0.4-1.1,2.1-1.6h4.7L213.1,320.6z M211.9,321.4h1.2v0.6l-0.8,0.6h-0.2l-0.2-1V321.4z M211.1,323.1l-1.9,1.2l0.1-1.2
		c0.2-0.7,0.8-1.1,1.7-1.1C211.2,322.5,211.2,322.8,211.1,323.1z M212.6,324.7l-3.1,2.6c-3.4,2.4-5.3,4.6-5.5,6.5
		c-0.3,2,0.2,3.6,1.4,5c1.4,1.3,2.6,1.7,3.7,1.2l1.7-0.9l-0.3,3.2l-4.1,0.3c-2.2-1.1-3.5-2.7-3.8-4.5l-0.4-4.9c0-1,0.2-1.9,0.6-2.8
		c1.2-1.4,1.9-2.1,2.1-2l7.9-5.4C212.8,323.2,212.8,323.8,212.6,324.7z M211.3,337.5c-1.8,1.5-2.7,2-3,1.7c0,0.5-1.1-0.4-3.1-2.6
		c-0.4-2.8,0.6-5.3,3.1-7.5c2.5-2.2,3.9-3.3,4.3-3.4L211.3,337.5z M236.9,400.9l5.8-2.3l11.7,7.6l23.3,13.6
		c-1.8,30.9-4.2,52-7.2,63.2c-2.9,11.3-4.6,16.6-4.9,16.2c-0.7,1.3-1.1,3.7-1.4,7c-0.7,0.2-1.7-0.1-3-0.8
		c-6.7-4.5-11.7-7.2-14.7-8.2l-5.8-2c-0.6,0,0.3,0.8,2.5,2.2c2.2,1.5,6.1,3.1,11.6,4.6c0.7,0.3,1.1,0.9,0.9,1.9
		c-12.5-1.5-22.7-4.5-30.4-8.8c-7.8-4.4-13.5-8.5-17.1-12.5c-3.6-3.9-5.3-6.1-5.3-6.3c-0.3,0-1.3-2.2-3-6.5
		c-1.6-4.3-1.8-11.1-0.4-20.2c1.4-9.2,6.4-20.9,15-35.3c2.6-2.8,6-5.3,10.4-7.7C229.3,404.3,233.3,402.3,236.9,400.9z M234.1,400.8
		c-4.9,1.9-11.3,5.6-19,11l13.9-25.4l12.7,11.6C241.6,397.9,239,398.8,234.1,400.8z"/>
	<path class="st0" d="M296.2,120.8l-2.2,13c-1.1,8.1-2.5,14.1-4.1,18.1c0,0.8-0.6,1.2-1.7,1.2c-1.3,3.6-3.1,6.5-5.4,8.9
		c-2.3,2.3-3.6,3.5-4.1,3.7l-8.3,1.8c-0.9,0.7-2,2.1-3.4,4.1l-2.9,4c-1.7,3.1-2.4,5.6-2,7.4c0.2,1.8,0.4,2.8,0.6,2.8
		c-0.3,0.1-0.8-1.1-1.3-3.3c-0.7-2.3,0.8-5.8,4.3-10.5c1-1.1,1.8-2.6,2.4-4.4c-3.2,1.1-5.3,2.5-6.3,4.3l-2.2,4.1
		c-1.1,4.9-1.1,8.5,0,10.8l2.4,4c-3.9-4.1-5.8-8.1-5.6-12c0.2-3.9,0.5-6.1,0.9-6.4l-5.3,3.4l0.4,15.3l-3.5,2.9l3.6,3.6
		c2.3,2.2,4.2,3.8,5.8,4.9c1.5,0.9,3.5,1.8,6.3,2.7c2.7,1,5.4,1.8,8.2,2.3c5.4,0.9,8.1,1,7.9,0.5c0.2,0.2,1.2-0.2,3.1-1.3
		c1.8-1.1,3.5-4,5.1-8.9c2-4.3,3.9-8.8,5.6-13.5l3.5-9.5c2-5.8,3-10.1,2.8-12.9c-0.1-2.8-0.3-4.1-0.5-4.1c0.1,0.2,0,0.7-0.1,1.5
		c-0.3,0.9-1.3,1.2-3.3,0.8l-5.2-1.4v1.8c-0.3,0-0.4-0.9-0.6-2.7c-0.1-1.8,1.2-4.3,3.9-7.6c2.7-1.6,4.1-2.1,4.3-1.6h0.6
		c1-0.4,1.9-0.9,2.7-1.4c0.7-0.5,1-2.1,0.7-4.8c-0.8-3.3-1.4-6.6-1.9-9.8c-0.4-3.1-0.9-5.6-1.5-7.3L296.2,120.8z M289.1,180
		c-1.7-0.6-2.4-0.9-2.2-0.9l-0.1-0.2l0.2,0.1c0.4,0.3,1.8,0.1,4.1-0.6l0.8-0.1c0.3,0.2,0.3,0.5,0.1,0.9v-0.1
		c-0.3,0.3-0.9,0.6-1.7,0.8L289.1,180z M287.7,176.8v0.4c0,0.4-0.4,0.5-1.1,0.3l-2.2,0.6l-0.4,0.2l-1.6-0.1c-0.6-0.7-1-1.4-1-1.9
		l0.2-0.1c0.1,0.4,0.5,0.9,1.3,1.4c0.7,0,1.2-0.2,1.3-0.4h0.1l1.2-0.5l1.5-0.2L287.7,176.8z M277.3,187.6l7.2-2.2l2.2,0.7l1.8,0.2
		l2.1-0.5l1,1.6l-0.3,1.2l-0.9,1.6l-0.6,3.8c-0.2,0.8-0.8,1.5-1.6,2.2l-1.5,0.9l-3.4,0.3c-2.1,0-4.3-1-6.6-3.2
		c-1.3-2.2-2.6-3.6-4.1-4C273.1,189.4,274.6,188.5,277.3,187.6z"/>
	<path d="M286.9,179.1c-0.2,0,0.5,0.3,2.2,0.9l1.2-0.1c0.8-0.2,1.4-0.5,1.7-0.8v0.1c0.2-0.4,0.2-0.7-0.1-0.9l-0.8,0.1
		c-2.3,0.7-3.7,0.9-4.1,0.6l-0.2-0.1L286.9,179.1z"/>
	<path d="M287.7,177.2v-0.4l-0.7-0.3l-1.5,0.2l-1.2,0.5h-0.1c-0.1,0.2-0.6,0.4-1.3,0.4c-0.8-0.5-1.2-1-1.3-1.4l-0.2,0.1
		c0,0.5,0.4,1.2,1,1.9l1.6,0.1l0.4-0.2l2.2-0.6C287.3,177.7,287.7,177.6,287.7,177.2z"/>
	<path d="M284.5,185.4l-7.2,2.2c-2.7,0.9-4.2,1.8-4.7,2.6c1.5,0.4,2.8,1.8,4.1,4c2.3,2.2,4.5,3.2,6.6,3.2l3.4-0.3l1.5-0.9
		c0.8-0.7,1.4-1.4,1.6-2.2l0.6-3.8l0.9-1.6l0.3-1.2l-1-1.6l-2.1,0.5l-1.8-0.2L284.5,185.4z M283.8,190.5l-1.5-0.6l-8.2-0.3l9.8-3.5
		h1.6l1.2,0.4l1.3,0.2l1.7-0.4c0.8,0.1,1.2,0.3,1.2,0.7c0.2,0,0.3,0.5,0.2,1.3c-0.2,0.8-0.6,1.4-1.3,1.7c-0.8,0.2-1.1,0.2-1.1,0
		h-2.1l-1.1,0.5H283.8z M282.1,190.5l2.4,0.6l3.9-0.5c1.2,0.3,1.6,0.6,1.4,1l-0.3,2.1c0.2,0.5-0.7,1.3-2.7,2.5l-3.4,0.4
		c-4.4-1.3-7.2-3.1-8.3-5.3l-0.7-1L282.1,190.5z"/>
	<path class="st1" d="M282.3,189.9l1.5,0.6h1.7l1.1-0.5h2.1c0,0.2,0.3,0.2,1.1,0c0.7-0.3,1.1-0.9,1.3-1.7c0.1-0.8,0-1.3-0.2-1.3
		c0-0.4-0.4-0.6-1.2-0.7l-1.7,0.4l-1.3-0.2l-1.2-0.4h-1.6l-9.8,3.5L282.3,189.9z"/>
	<path class="st1" d="M284.5,191.1l-2.4-0.6l-7.7-0.2l0.7,1c1.1,2.2,3.9,4,8.3,5.3l3.4-0.4c2-1.2,2.9-2,2.7-2.5l0.3-2.1
		c0.2-0.4-0.2-0.7-1.4-1L284.5,191.1z M277.2,191.2l-0.2-0.3l1.8,1.3c0.9,0.6,1.6,1,2.2,1.3l1.2,0.3h0.1l0.4,0.7l-0.6,0.6l-0.6-0.1
		l-0.7-0.2c-1.2-0.5-2.1-1.3-2.7-2.1L277.2,191.2z M288.9,192.2l0.1-0.3l0.1,0.3c0.2,0.2,0.1,0.9-0.2,2c-0.7,0.5-1.2,0.8-1.7,0.6
		v-0.1c0-0.1,0.1-0.1,0.2-0.1C288,194,288.5,193.2,288.9,192.2z"/>
	<path class="st2" d="M277,190.9l0.2,0.3l0.9,1.5c0.6,0.8,1.5,1.6,2.7,2.1l0.7,0.2l0.6,0.1l0.6-0.6l-0.4-0.7h-0.1l-1.2-0.3
		c-0.6-0.3-1.3-0.7-2.2-1.3L277,190.9z M281.2,193.7l-0.2-0.1l-1.5-0.8L281.2,193.7z"/>
	<path class="st1" d="M281,193.6l0.2,0.1l-1.7-0.9L281,193.6z"/>
	<path class="st2" d="M289,191.9l-0.1,0.3c-0.4,1-0.9,1.8-1.5,2.4c-0.1,0-0.2,0-0.2,0.1v0.1c0.5,0.2,1-0.1,1.7-0.6
		c0.3-1.1,0.4-1.8,0.2-2L289,191.9z"/>
	<path class="st2" d="M298.9,154.9l-2.2-0.5l-0.2,0.4v0.2c0.5,0.4,0,1.2-1.6,2.4l-1.7,0.2l-1.2-1c-0.5,0.8-0.3,1.5,0.3,1.9l1.9,0.6
		c0.2,0.2,1.3,0.4,3,0.5c1.3-0.2,1.9-0.5,1.8-0.9l0.1-2L298.9,154.9z"/>
	<path class="st2" d="M296,154.7l-0.7,0.2c0,0.3-0.2,0.7-0.7,1.2l-1.1-0.1l-0.7-0.7c-0.3,0.2-0.4,0.4-0.3,0.6c0,0.2,0.2,0.5,0.6,0.8
		c1.3,0.3,2.1,0.2,2.4-0.3l0.5-1V154.7z"/>
	<path class="st0" d="M298.6,151.2l-2.7,0.2c-1.2,0.8-1.8,1.5-1.9,1.9l2.1-0.1l2.2,0.5c0.5,0.6,1.5,0.2,2.8-1.4l0.1-1.8
		C301,150.9,300.1,151.1,298.6,151.2z"/>
	<path class="st2" d="M296.4,189.8c-0.1-3.1-0.2-5-0.4-5.6c-0.5,0.5-1.6,2.9-3.5,7.3c-2,4.3-3.1,7-3.4,8l-0.3,1.8
		c-0.2,0.8-0.1,1.2,0.1,1.1l7.4-6.4C296.5,195,296.5,193,296.4,189.8z"/>
	<path class="st3" d="M280,232.9l6.6,7.6c4,4.6,7.3,9.2,9.9,13.5l4.4,8.1l2.1,4.8c1.7,4.4,2.5,7.7,2.6,9.8c0.1,0.7-0.1,2.8-0.7,6.3
		c-0.5,3.4-2.5,8-5.8,13.8c-3,4.3-4.6,6.1-4.8,5.5l-36.4,8.7l-0.6,2.7l20.9-5.4c5.5-1.3,10.2-2.3,14.4-3l3.8,0.4l9,2.4l4.3,0.3
		c5.8-2.4,10.1-5,13-8.1c2.8-3,5.2-6.6,7.1-10.6c2.7-7.7,3.2-12.9,1.5-15.5c-1.6-2.6-3.2-4.3-4.6-5.1c-12.2-7.9-22-14.9-29.5-20.8
		c-11.4-10.8-17.2-16.5-17.2-17V232.9z"/>
	<path class="st0" d="M279.6,234c0,2.5-0.5,4.7-1.5,6.6l-1.6,3c0.2-0.6,0.4-3.9,0.7-10c0.1-6.2-1.1-12.4-3.8-18.6
		c-2.8-6.1-8.6-9.5-17.3-10c-4.1,1.8-6.2,2.5-6.1,2.1c0-0.4,0.1-0.6,0.5-0.8l-5.3-2.5c-3.1-1.4-5-2.2-5.6-2.3l-4.1,3.4
		c-0.7,0.1-1,0-1-0.6l0.1-1l1.2-2.8l-2.2-0.3c-0.9-0.1-1.6,0.6-2.2,2c2.3,1.7,3.4,3.5,3.3,5.5c0,1.9-0.1,2.9-0.3,3.1
		c0.2,0.7-1.1,3.6-3.9,8.9l-6.2,9.5c-2.8,3.9-4.7,7-5.9,9c-4.8,11.6-6.3,21.6-4.5,29.9c1.6,8.3,2.7,12.7,3.4,13.1l0.8-6.8
		c-0.5-0.6-1.4-4.2-2.6-11.1c-1.2-6.9,0.4-13.5,4.9-19.8c-3,7.5-4.1,13.8-3.4,18.9c0.8,5.2,1.3,7.8,1.7,8.1l4.9-19.8
		c-0.7-2.2-0.6-3.3,0.2-3.1c0.9,0.2,1.4,0.4,1.6,0.6l-15.5,109.9v2.5c0,1.6,0.4,3.2,1.2,4.8c1.5,2.3,2.7,3.8,3.6,4.5
		c11.4,10.7,21.2,19.3,29.7,25.8c8.3,6.5,16.8,12.3,25.3,17.5l30.3,18c3.2,2.9,5.2,5.3,5.8,7.2l1.2,4.2c0.3,1.3,1.5,4,3.3,8.2
		c1.8,4.1,3.8,7.9,5.9,11.2c2,3.3,3.6,6.4,4.9,9.6l2.1,5.4c1,5.8,2.1,9.3,3.1,10.3c1.2,0.9,1.8,1.3,1.9,1l-1.6-3.8
		c-0.3,0-0.4-0.2-0.4-0.6c-0.1-0.4,1.4-0.7,4.3-0.7l-1-8.9c-0.6-3.2-1.2-6-2-8.2l-1.2-3.7c-0.2-0.1-0.1-0.4,0.2-0.7
		c0.5,0.1,0.7,0.2,0.7,0.5l4.9,16.6c1.2,5.9,2.2,9.4,3,10.5c0.9,1,1.3,1.4,1.4,1.1l-0.8-2.1c-0.4-1.3-0.6-2.1-0.6-2.4
		c2.3-1,3.5-1.1,3.7-0.3l0.3,1.4c0.2-0.4,0.2-2.3,0-5.6l-0.5-6l-2.1-0.2l-1.1,0.3l-1.2,0.1c0.1-0.2,0.8-0.5,2.2-0.8
		c1.2-0.5,1.9-0.8,2-1.2l-3.7-13.9c-0.3-0.2-0.2-0.4,0.3-0.8c0.4,0.4,1,2.1,1.8,5.1l2.3,9.6l1.1,9.8l1.1,2.1c0.6,1.3,1.1,1.9,1.4,2
		c0.1-0.3,0-0.9-0.5-2c-0.4-1.1-0.6-2-0.6-2.7c-0.3-0.4,0.4-0.7,2.1-1c1.2-0.2,1.6-0.6,1.3-1l0.3-3.5c0.2-2.1,0.2-3.3,0.1-3.7
		c-0.3,0.5-1.2,0.8-2.6,0.9c-0.6-0.3-0.7-0.5-0.4-0.6c0.2-0.1,0.9-0.4,2.1-0.8c0.9-0.1,1.2-0.2,1.1-0.3c0.2-0.3,0.1-0.6-0.2-0.8
		l-2.9,0.9l1.3-0.7l1.8-1.2c0.1-1.3,0-2.1-0.2-2.4l-1.6-5.3c-1-3.2-1.6-5.2-1.8-6.2c0-1,0.1-1.5,0.3-1.3c0.2-0.5,0.5-0.2,1.1,0.7
		c0,1.3,0.4,3.2,1.1,5.8l2,7.1c0,2.1-0.2,4.9-0.6,8.3c0.8,1.3,1.4,2,1.9,1.9c-0.1-0.1-0.1-0.7-0.1-1.8c0.1-1,0.9-1.5,2.3-1.6v-7.7
		l-0.9,0.1c-1.1-0.8-0.9-1.6,0.7-2.4c0.2-0.9,0.1-2.1-0.2-3.7l-2.2-10.5l-3.6-11.1l-1.8-4c-1.1-2.4-2.2-4.5-3.4-6.4L321.5,415
		c-4.3-3.7-6.9-5.9-7.9-6.5c-10.6-7-18.8-12.7-24.4-16.9l-8.3-6.4l-17.3-16.1l-12.6-15c-2.7-3.4-4.2-5.7-4.7-6.9
		c-0.5-1-0.6-2.4-0.5-4.2l0.4-2.9l20.9-68.8l0.3-4l7.4-13.5l-0.8,3.6c-0.3,1-0.8,2.2-1.6,3.3c-1,3.5-1.8,5.3-2.3,5.5l-1.1,1.4
		l-0.3,2.4c0.6-0.4,2.3-2.7,5.2-6.9c0.3,0.2,0.2,1.3-0.3,3.2c-1.5,1.9-2.9,3.5-4.2,4.6l-1,3.5l2.3-1.6c1.4-1,2.7-2.1,3.9-3.4
		c0.8,0,1.5,0.3,2.1,1.1l1.7,0.1c0.3,0,0.5,0.2,0.7,0.7c-0.7,0.7-1.3,1.1-1.7,1.1l-2,1.4l-7.2,2.6l-0.4,0.9l-1.6,6
		c-2.1,4.4-3.9,9.7-5.4,16l-2.4,10.3l24.1-6.4c5.7-1.4,9.6-2.3,11.8-2.6c8.3-9.1,11.3-18.3,8.9-27.8c-2.4-9.5-6.5-17.8-12.2-25.1
		L279.6,234z"/>
	<path class="st2" d="M339.1,246.5l1.4,2.7v-0.1h25.2l1-1.5c1.2-0.8,2.6-1,3.9-0.4l2.2,1.1l2.2-1.8l0.1-0.1L339.1,246.5z"/>
	<path class="st4" d="M372,248l-0.3-0.2c-0.7-0.3-1.6-0.4-2.9-0.6c-2.2,0.9-3,1.6-2.6,2.3h1.9c-0.1-0.3-0.1-0.5,0.1-0.8l0.9-1
		c0.9-0.1,1.4,0.1,1.4,0.8l0,0l-0.1,1h1.6c0.3-0.3,0.4-0.6,0.4-1.2C372.3,248.2,372.2,248.1,372,248z"/>
	<path class="st4" d="M370.4,249.5l-0.2,0.3l-0.8,0.4c-0.8-0.2-1.3-0.4-1.3-0.7h-1.9c-0.1,0.2,0,0.9,0.3,2.1
		c0.4,1.1,1.6,1.9,3.8,2.3c2.5-0.6,3.5-1,3-1.4c-0.1,0-0.2-0.2-0.5-0.6l0.1-1.4c-0.4,0-0.6,0-0.4-0.1l-0.2-0.9H370.4z"/>
	<path class="st2" d="M370.4,249.5L370.4,249.5l0.1-1l0,0c0-0.5-0.5-0.8-1.3-0.8l-1,1c-0.2,0.3-0.2,0.5-0.1,0.8l0,0
		c0,0.3,0.5,0.5,1.3,0.7l0.8-0.4L370.4,249.5z"/>
	<path class="st0" d="M372.3,249.5L372.3,249.5l0.3,1h0.4l4.1-4.2h-1.3L372.3,249.5z"/>
	<path d="M369.2,247.7c0.8,0,1.3,0.3,1.3,0.8C370.5,247.8,370,247.6,369.2,247.7l-1,1L369.2,247.7z"/>
	<path class="st2" d="M352.1,268.2l1.1,1.9l13.4-0.4l1.1-1.9l9.4-18.6l1.4-2.7l0.1-0.3l-4.6,4.3l0,0l0.2,0.6c0,0.7-0.6,1.8-1.7,3.2
		c-2.5,0.8-3.8,1-4.1,0.4l-15,13.5c-0.3,0-0.4,0-0.4-0.2v-0.2l14.6-13.5h0.1c-0.5-0.2-1.1-0.8-1.9-2.1l-0.4-0.7
		c-0.1-0.5-0.2-1,0-1.5H341L352.1,268.2z"/>
	<path class="st0" d="M350.3,275.9c0.2-0.7-0.5-0.9-1.9-0.5c-1.5,0.3-5,5.1-10.4,14.3c-0.8,1.1-2.1,3.7-4,7.8l-3,7l-4.9,6.1
		c-3.3,3.7-8,7.1-14.3,10.2c-1.2,1.2-1.6,1.9-1.2,2.3l0.7,6.5c0.4,4.4,1,12,1.7,22.6l30-31.3c1.5-2.2,2.2-3,2.3-2.5
		c0.4,0.1,1.5-0.5,3.3-1.6c3.3-1.6,6.2-3.4,9-5.5l4.3-3.4l-4.5,2.7c-2.7,1.5-4.5,2.1-5.5,1.8c-0.7-0.7-0.8-1.5-0.4-2.3
		c0-2.5-0.4-3.4-1.1-2.8h-3.9l0.1-1.5l-1.8,1.3c0-0.1,0.5-0.9,1.5-2.2l2-2.7c0.5-0.8,0.7-2,0.7-3.4l0.2-3.5l0.8-1.8
		c-0.3,0.1-1.4,1-3.1,2.4c-1.8,1.6-3.3,2.6-4.4,3.1c-0.6,0,0-0.7,1.5-2l2.7-2.4l2-1.2c1.2-0.8,2.5-1.5,3.8-2.2
		c2.6-1.8,4.2-3.5,4.7-5.3c0.4-1.7,0.4-2.5,0-2.5l-2.1,2.1c-1.1,1.1-2,1.8-2.6,2.2c-0.7,0-1.2-0.3-1.7-0.9c-0.6-1.4-0.8-2.1-0.3-2.3
		l2.2-1.7c-0.1-0.1-0.6,0.1-1.6,0.5l-2.1,1.1l-3.8,2.7c-2,1.5-3.3,2.3-3.8,2.3c-0.2-0.5,1.2-1.7,4.2-3.7c3-2.1,6.4-3.7,10.2-5
		l-0.3-1.2c-0.1-0.3-0.4-0.4-0.8-0.3c-0.8,1-1.7,0.8-2.7-0.7C350.9,277.1,350.4,276.2,350.3,275.9z M342,318l-0.1,0.1
		c-2.5-2.2-4.5-4.7-6-7.6l-2.4-4.7L342,318z"/>
	<path d="M341.9,318.1l0.1-0.1l-8.5-12.2l2.4,4.7C337.4,313.4,339.4,315.9,341.9,318.1z"/>
	<path class="st5" d="M351.4,284.3l-0.5,0.5c-0.2,0.5-0.2,0.8,0,1c0.2,0.4,0.5,0.7,1,1.1l1-0.1l4.5-4.4c0.1-1-0.2-1.5-0.9-1.5
		L351.4,284.3z"/>
	<path class="st0" d="M377.2,245h1.4l2.6-2.2c-0.4-0.7-0.7-0.9-0.8-0.6L377.2,245z"/>
	<path class="st2" d="M366.5,271.5v-0.1l-9.7,0.1l-0.2-0.3V271l9.7-0.1v-0.5v-0.1l-10.5,0.3c-0.1,0.2-0.2,0.5,0,0.8
		c0.1,0.3,0.7,0.7,1.5,1.1h5.2l0,0v0.2l0.2,0.6c0.5,0.2,1,0.1,1.5-0.4c-0.1-0.2,0.1-0.4,0.4-0.4h0.6l0.1,0.1l0.4,0.2h0.1
		c0.1-0.2,0.3-0.4,0.5-0.6L366.5,271.5z"/>
	<path class="st0" d="M370,271.5l-2.7,0.2c-1,1.1-1.8,2.4-2.4,3.9c-0.2,0.8-0.1,1.5,0.3,2.1c1.1,0.9,1.9,1.4,2.4,1.6
		c0.3,0.3,1,0.2,2-0.2l2-2.5C372.6,275.2,372,273.5,370,271.5z M370.3,274.2c0.2,0.5,0.1,1.1-0.1,1.7l-1,1.6
		c-0.5,0.3-0.8,0.3-0.9,0.2l-1.5-1.1c-0.4-0.6-0.4-0.9-0.2-1l1.3-2.2l1-0.4L370.3,274.2z"/>
	<path d="M370.2,275.9c0.2-0.6,0.3-1.2,0.1-1.7l-1.4-1.2l-1,0.4l-1.3,2.2c-0.2,0.1-0.2,0.4,0.2,1l1.5,1.1c0.1,0.1,0.4,0.1,0.9-0.2
		L370.2,275.9z M369.7,274.7v1.1l-0.7,1.1c0,0.2-0.2,0.3-0.5,0.2l-1.2-0.9c-0.2,0-0.2-0.1-0.2-0.3l1.2-1.9l0.9-0.1L369.7,274.7z"/>
	<path class="st5" d="M369.7,275.8v-1.1l-0.5-0.8l-0.9,0.1l-1.2,1.9c0,0.2,0,0.3,0.2,0.3l1.2,0.9c0.3,0.1,0.5,0,0.5-0.2L369.7,275.8
		z"/>
	<path class="st2" d="M359.2,273.3l-0.7,1.4c-0.1,0.1-0.1,0.5-0.1,1c0,1.1,0,3,0,5.8l0.2,18.1h-0.1l-1.3,0.2h-0.1l-1.5,1.9l-0.1,0.2
		l-0.7,0.7c-1.2,1.6-3.3,2.5-6,2.7c-0.3,0.3-0.5,0.5-0.5,0.8l-0.1,0.4l0.3,0.2l26.4-0.3v-0.1c-0.1-0.2-0.7-0.7-1.8-1.3
		c-5.5-1.7-7.9-2.8-7.2-3.4v-0.1v-0.1l-0.4-0.9c-1.2-1-1.4-2.3-0.8-4.1l-0.1-3.2l-0.9,0.3l0,0l0.3,6.9v0.1h0.3l0.1,0.3l0.1,0.8
		l-0.5,0.8l-1.2,0.7l-0.5,0.1l0,0l-0.8-0.1c-0.8-0.1-1.4-0.3-1.9-0.7l-0.1-0.1l-0.5-0.6l0,0l2-0.1l1.5-0.3l0.1-0.1l0.1-0.4v-7.5
		v-0.1l-1.7-1l-0.1-0.1l-0.9-0.8c-0.2-0.2-0.3-0.4-0.3-0.6c-0.1-0.5,0.2-1.1,1-1.7v-0.1l0.1-0.9c0.2-1,0.6-1.8,1.2-2.2l0,0l1.2-0.9
		l-0.3-10.2h-0.1l-1.8-0.2h-0.6v-0.1c-0.2-0.2-0.2-0.5,0-0.8l1.4,0.1v-0.6h-0.1L359.2,273.3L359.2,273.3z"/>
	<path class="st5" d="M360.5,289.9c-0.2,0.1-0.3,0.4-0.3,0.8c0.2,0.5,0.4,0.8,0.8,0.9l0.7-0.2l1.9-0.9c1.1-0.6,1.8-1,2.1-1.3v-0.8
		l-0.7-1.1c-0.8-0.1-1.2-0.1-1.4,0.2L360.5,289.9z"/>
	<path class="st0" d="M357.5,288.3c-0.3,0.2-0.6,1-0.7,2.1l-0.7,2.6l-2.7,2.2c-0.3,0.4-0.7,1.6-1.3,3.4c-0.5,1.8-1.5,3.6-3,5.3
		c2.2,0.2,3.9-0.5,5.2-2l2.6-3c0.4,0,0.6-0.1,0.7-0.4L357.5,288.3z"/>
	<path class="st0" d="M363.8,286.7c0.4-0.3,0.9-0.3,1.6,0c0.4,0.3,0.8,1,1.2,2l-0.2,0.8c-0.3,0.3-1,0.7-2.1,1.2l-2.1,1.2
		c-0.1,0.4,0.5,0.6,1.7,0.5l6.5-2.8c1-0.8,1.4-1.2,1.2-1.4l0.2-2c0.1-1.2-0.4-2.1-1.4-2.5c-0.8-0.4-1.9-0.4-3.2,0h-0.1
		c-3.1,1.5-4.9,2.6-5.3,3.5c-0.3,0.8-0.4,1.2-0.2,1.2l1.3-1C362.9,287.3,363.3,287.1,363.8,286.7z"/>
	<path class="st0" d="M370.7,297.6c0.4-1.3,0.3-1.9-0.2-1.9c0-0.3-0.7-0.8-1.9-1.5c-1.1-0.2-1.6-0.1-1.7,0.3l-2,2.6
		c-0.3,0.2-0.2,1,0.4,2.2c0.9,0.8,1.5,1.3,1.8,1.4c1.3-0.1,2-0.4,2.2-0.9L370.7,297.6z M367.3,295.7c0-0.2,0.3-0.4,1-0.5l1.3,1
		c0.4,0.8,0.4,1.2,0.1,1.2l-1,1.6c-0.1,0.5-0.6,0.6-1.5,0.3l-0.8-0.8c-0.1-0.1-0.2-0.4-0.1-0.9L367.3,295.7z"/>
	<path d="M368.3,295.2c-0.7,0.1-1,0.3-1,0.5l-1,1.9c-0.1,0.5,0,0.8,0.1,0.9l0.8,0.8c0.9,0.3,1.4,0.2,1.5-0.3l1-1.6
		c0.3,0,0.3-0.4-0.1-1.2L368.3,295.2z M366.7,297.6l0.9-1.4c-0.1-0.4,0.2-0.5,0.8-0.2l0.7,0.6l0.1,0.5l-1.3,1.5h-0.5l-0.7-0.6V297.6
		z"/>
	<path class="st5" d="M367.6,296.2l-0.9,1.4v0.4l0.7,0.6h0.5l1.3-1.5l-0.1-0.5l-0.7-0.6C367.8,295.7,367.5,295.8,367.6,296.2z"/>
	<path class="st0" d="M305.7,311l-7.7-3.6l-2.2-0.7l-4.3-0.1l-34.3,8.4c-0.3,0.4-0.9,3.2-1.8,8.3l-4.4,26.2
		c-0.2,1.9-0.1,2.7,0.2,2.4l10.6,12.2c6.6,7.5,13.6,14.3,21,20.4c12.5-3.3,22.7-4.2,30.8-2.8c8.1,1.5,12.3,2.5,12.6,2.9l0.9,0.1
		c0.4-0.1,0.5-0.6,0.2-1.5c-1.1-2.4-1.9-3.8-2.2-4.1c-0.7-0.7-3-4.3-7.1-11c-4.2-6.8-6.4-12.9-6.9-18.5l-1.1-20.3
		C309.5,321.8,308.1,315.6,305.7,311z"/>
	<path class="st0" d="M292.1,387.7c-1.9,1.3-2.8,2.2-2.8,2.6l21.7,15.2c5.1,3.5,8.4,6,10.1,7.5l15.7,13c-0.3-0.6-1.3-2.8-2.9-6.7
		c-2-4.9-5.2-14.9-9.6-29.9l-3-1.3c-1.6-0.7-3.1-1.1-4.6-1.4l-14-0.4C297.1,386.8,293.6,387.3,292.1,387.7z"/>
	<path class="st3" d="M288.2,389.5c-0.2-0.5,1.5-1.6,5-3.2l9.9-1.2c3.3-0.3,6.1-0.3,8.7,0l8.5,1.5l4.8,1.9l0.6,1.1l0.8,4.9l3.5,10.7
		l9.7,19c-0.1,0.3,0.6,0.7,2.3,1.1l5.2-0.5c0.6,0.3,1.2-0.3,1.7-1.8l0.1-9.1l-17.3-21.7l-0.1-0.9c0-0.6,0.5-0.8,1.5-0.5
		c2.4,1.2,4.5,3.1,6.4,5.4l6.3,10.4c0.2,0.2,0.5,0.4,1.1,0.3c0.4-0.2,0.9-0.6,1.3-1.1c0.3-1.6,0.3-2.5,0.1-2.9l-4.4-6.7
		c-1.1-1.1-1.8-1.7-2.2-2l-11.7-8.4l-1.3-0.3c-0.2,0.5-0.9,0.5-1.8,0.2l-9.5-2.1l-6.6-1c-9.7-0.1-16.7,0.3-21,1.2
		c-4.2,0.9-6.3,1.4-6.3,1.6L288.2,389.5z M330.2,397.3v-0.1c0-0.2,0.1-0.4,0.3-0.5l0.6-0.1l1.3,1.2l13.3,15.3c0,0.8,0,1.6-0.2,2.1
		c-0.2,0.3-0.1,0.7,0,1.1l2.2,4.2l0.3,1.3c0.1,0.2-0.1,0.7-0.4,1.5c-0.4,0.4-1,0.6-1.8,0.7h-0.3c-2.1,0.2-3.5-0.4-4-1.6L331,399.7
		L330.2,397.3z"/>
	<path d="M330.2,397.2v0.1l0.8,2.4l10.5,22.7c0.5,1.2,1.9,1.8,4,1.6h0.3c0.8-0.1,1.4-0.3,1.8-0.7c0.3-0.8,0.5-1.3,0.4-1.5l-0.3-1.3
		l-2.2-4.2c-0.1-0.4-0.2-0.8,0-1.1c0.2-0.5,0.2-1.3,0.2-2.1l-13.3-15.3l-1.3-1.2l-0.6,0.1C330.3,396.8,330.2,397,330.2,397.2z
		 M344.4,413.6L344.4,413.6l-0.3,2.2c0,0.4,0.1,0.8,0.4,1.3l1.9,3.9l0.2,1l-0.1,0.4l-0.7,0.2h-0.3c-1.9,0-2.9-0.2-2.8-0.7v-0.1
		l-0.1-0.2c-0.5-0.8-1.9-3.8-4.3-8.9c-2.4-5.1-4.3-9.4-5.8-12.9L344.4,413.6z"/>
	<path class="st3" d="M329.5,384.8l3,1.8l3.2-3.9l3.5-0.2l9.3,5.1l-8.6-7.2c0-0.5-1.3-0.8-3.6-0.9c-2.1,0.6-3.8,1.6-5,2.9
		L329.5,384.8z"/>
	<path class="st3" d="M341.6,403.4l3.9,5.1c0.4-0.3,0.4-0.8,0.2-1.6l-5.9-8.6L341.6,403.4z"/>
	<path class="st0" d="M348.7,451.4l-1.4-8.4l-4.9-7.9L348.7,451.4z"/>
	<path class="st5" d="M330.3,484.4c0-0.6-0.2-0.9-0.5-0.7c-2.2,0.2-3,0.4-2.3,0.8l1.3,4.3c-0.1,0.2,0.2,0.3,1,0.3
		c0.8-0.4,1-0.7,0.8-0.8L330.3,484.4z M329.5,484.3l0.2,1.6l-0.2,1.4c-0.2-0.1-0.4-0.6-0.7-1.4c-0.3-0.8-0.5-1.3-0.5-1.5
		L329.5,484.3z"/>
	<path class="st2" d="M329.7,485.9l-0.2-1.6l-1.2,0.1c0,0.2,0.2,0.7,0.5,1.5c0.3,0.8,0.5,1.3,0.7,1.4L329.7,485.9z"/>
	<path class="st5" d="M344.2,482.3h-0.4c-0.6,0.2-1,0.5-1.3,0.8c0,0.3,0.1,1.1,0.3,2.4c0.1,1.3,0.4,2,0.6,2.3l0.8-0.1V482.3z"/>
	<path class="st2" d="M344.8,482.3h-0.6v5.4l0.5-0.2l0.1-0.7V482.3z"/>
	<path class="st2" d="M338,485.7l0.4,2l0.1,2.4l-0.1,0.3l0.6-0.1l-0.5-4.6H338z"/>
	<path class="st5" d="M338.4,487.7l-0.4-2c-0.7,0-1.4,0.2-1.9,0.6c-0.1,0.3,0,1,0.3,2l0.7,2.1h1.3l0.1-0.3L338.4,487.7z"/>
	<path class="st5" d="M348.6,477.4l-0.1,0.4v3.6c0.4,0.2,0.7,0.2,1,0v-1.9l-0.1-2.5C348.9,477.1,348.6,477.3,348.6,477.4z"/>
	<path class="st2" d="M349.5,481.4l0.4-0.4l-0.1-3.7c-0.1-0.2-0.3-0.3-0.3-0.3v2.5V481.4z"/>
	<path class="st2" d="M251,190.2l-0.5-21.2l-13.4,32.6L251,190.2z"/>
	<path class="st3" d="M237.2,197l-2.9,1.7c0.1,0.2,0.8,0.3,2.2,0.5L237.2,197z"/>
	<path class="st3" d="M242.8,198.9l-1.9,1.6l10.4,5.6l1.4-0.9L242.8,198.9z"/>
	<path class="st0" d="M243.7,198.1l9.5,6.9l2.3-1l-8.1-8.9L243.7,198.1z"/>
	<path class="st3" d="M213.2,247c-0.2,0-1.1,1.5-2.4,4.7c-1.4,3.1-1.9,7.7-1.6,13.8c0.4,6,2.9,13.4,7.7,22v-2.7
		c-4.4-9.1-6.3-17.6-5.5-25.4C212.1,251.6,212.8,247.5,213.2,247z"/>
	<path class="st0" d="M210,305.3l-1.6,3.9l2.7,9.3h2.3l1.3-10.5c-0.2,0.6-1.6-0.3-4-2.5C210.2,305.2,209.9,305.2,210,305.3z"/>
	<path class="st3" d="M209.8,321.1l3.3-0.5l0.2-1.1h-4.7c-1.7,0.5-2.4,1-2.1,1.6l-0.1,4.2l1.6-0.9l0.2-1.9
		C208.8,321.6,209.3,321.1,209.8,321.1z"/>
	<path class="st0" d="M213.1,321.4h-1.2v0.2l0.2,1h0.2l0.8-0.6V321.4z"/>
	<path class="st3" d="M209.5,327.3l3.1-2.6c0.2-0.9,0.2-1.5,0.2-1.7l-7.9,5.4c-0.2-0.1-0.9,0.6-2.1,2c-0.4,0.9-0.6,1.8-0.6,2.8
		l0.4,4.9c0.3,1.8,1.6,3.4,3.8,4.5l4.1-0.3l0.3-3.2l-1.7,0.9c-1.1,0.5-2.3,0.1-3.7-1.2c-1.2-1.4-1.7-3-1.4-5
		C204.2,331.9,206.1,329.7,209.5,327.3z"/>
	<path class="st3" d="M242.7,398.6l-5.8,2.3c-3.6,1.4-7.6,3.4-12,5.7c-4.4,2.4-7.8,4.9-10.4,7.7c-8.6,14.4-13.6,26.1-15,35.3
		c-1.4,9.1-1.2,15.9,0.4,20.2c1.7,4.3,2.7,6.5,3,6.5c0,0.2,1.7,2.4,5.3,6.3c3.6,4,9.3,8.1,17.1,12.5c7.7,4.3,17.9,7.3,30.4,8.8
		c0.2-1-0.2-1.6-0.9-1.9c-5.5-1.5-9.4-3.1-11.6-4.6c-2.2-1.4-3.1-2.2-2.5-2.2l5.8,2c3,1,8,3.7,14.7,8.2c1.3,0.7,2.3,1,3,0.8
		c0.3-3.3,0.7-5.7,1.4-7c0.3,0.4,2-4.9,4.9-16.2c3-11.2,5.4-32.3,7.2-63.2l-23.3-13.6L242.7,398.6z"/>
	<path class="st0" d="M215.1,411.8c7.7-5.4,14.1-9.1,19-11c4.9-2,7.5-2.9,7.6-2.8L229,386.4L215.1,411.8z"/>
	<path class="st0" d="M298.2,431.7L279,420.3l-2.6,35.1c0,0.5-0.5,4.8-1.6,13c-1.1,8.1-3.2,16.7-6.3,25.7l-1.9,5.4
		c-0.8,2.1-1.1,3.8-1,5.2c0.1,1.1,0.3,2.2,0.6,3.5l0.5,1.9l0.2,1.8h78.9l1.2-30.5c-0.6,1.3-1.1,1.9-1.6,1.8l-0.2,1.1v3.4l-1.4,0.9
		c-2.7-1.3-3.9-2.2-3.7-2.7c-0.2,0.2-0.2,0.8-0.1,1.7c0,0.9-0.1,1.6-0.3,2l-0.5,1.4l-1.5,0.3c-0.5,0-1.5-0.4-2.8-1.2l-1.9-4.6
		l-1.8-6.7l-0.7-1.5l0.7,7.1l-0.1,3.7c0.1,0.3-0.1,0.8-0.6,1.3l-1.3,0.2l-2.5-0.9c-0.9-0.6-1.9-2.2-2.9-4.8l-1.5-6.4l-3.7-8.9
		l-8.9-16.1l-4.2-9.9l-0.7-2.9c-0.4-1.7-1.2-3.1-2.3-4.1C300.2,433.2,298.8,431.9,298.2,431.7z"/>
	<path class="st0" d="M196.2,460.6c-0.2,0.5-0.6,4.9-1.2,13.2c-0.6,8.2-0.2,17.2,1.4,27l1.8,11.1h66.9l-0.8-4l-9.7-2
		c-5.9-1.2-10.8-2.4-14.9-3.6c-4.6-1-10-3.1-16-6.2c-9.4-5.1-15.4-9.4-18.2-12.9c-2.7-3.6-4.5-6.3-5.2-8.2c-1.2-2.3-2.2-5.2-2.9-8.6
		L196.2,460.6z"/>
</g>
</svg>
