<?xml version="1.0" encoding="utf-8"?>
<!-- Generator: Adobe Illustrator 21.1.0, SVG Export Plug-In . SVG Version: 6.00 Build 0)  -->
<svg version="1.1" id="Слой_1" xmlns="http://www.w3.org/2000/svg" xmlns:xlink="http://www.w3.org/1999/xlink" x="0px" y="0px"
	 viewBox="0 0 512 512" style="enable-background:new 0 0 512 512;" xml:space="preserve">
<style type="text/css">
	.st0{fill:#776B57;}
	.st1{fill:#C6C8CC;}
	.st2{fill:#D8C2A8;}
	.st3{fill:#C0AD96;}
	.st4{fill:#FFFFFF;}
	.st5{fill:#605E6F;}
	.st6{fill:#766A57;}
	.st7{fill:#9F805B;}
	.st8{fill:#CAAD82;}
	.st9{fill:#F3E1A1;}
	.st10{fill:#EBD2A1;}
	.st11{fill:#E8CDA1;}
	.st12{fill:#6E7180;}
</style>
<g>
	<path d="M308.2,107.3c1.7-4.2,2-8.4,1-12.6c-1-4.2-3.1-7.9-6.3-11c-4.3-2.7-8.8-3.4-13.5-2c-4.8,1.3-9,3.3-12.8,5.8
		c-2.3-5.2-4.5-10.5-6.6-15.8l-6.2-16.1c-2.6-4.1-6-6.8-10.3-8c-4.4-1.3-8.9-1.9-13.7-1.9c-3,0.5-6,1.4-8.9,2.6
		c-2.9,1.3-5,3.4-6.3,6.6c-1.2,5.4-2.9,10.7-4.9,15.8L213.6,86c-2.1-0.7-4.2-1.7-6.1-3c-1.9-1.4-3.9-2.4-6-3.1
		c-2.7-0.5-5.3-0.5-7.9,0c-2.5,0.6-4.7,1.8-6.6,3.8c-3,3.5-4.9,7.5-5.7,12.2c-0.7,4.6-0.5,9.1,0.8,13.7c1.3,4.8,3.9,8.8,7.9,12.1
		c3.9,3.2,8.3,5.4,13,6.5c1.7,2.2,2.8,4.8,3.4,7.6c1.7,1.6,2.9,3.4,3.7,5.5c0.7,2,1.7,4,2.7,5.9c1.2-0.2,2.2,0,3,0.7
		c0.9,0.6,1.9,0.8,3.1,0.4l1.9,2c0.6,0.7,0.7,1.5,0.4,2.6c-2.3,2.6-4,5.6-5.1,8.8l-3.3,9.4c-4.5,3.4-9.2,6.4-14,9.2
		c-4.9,2.7-9.2,6.2-12.9,10.6c0.1,0.8,0,1.5-0.2,2.2l-0.6,2l-7.6,38.7l-5.7,24.4c-2.1,5.8-4.1,11.7-5.9,17.7
		c-1.9,5.9-4.1,11.8-6.6,17.5c-2.6,5.6-5.9,11-9.9,16.1c-0.9,2.1-1.6,4.4-2.1,6.7l-1.7,6.9c-2.4,4.5-2.9,8.6-1.5,12.3
		c1.3,3.8,3.2,7.4,5.7,10.9c2.4,3.5,4.2,7.2,5.3,11c1.1,3.4,3,6.2,5.7,8.5c2.8,2.3,5.5,4.4,8.4,6.3l-1.6,24.4
		c4.2,2.5,6.6,5.7,7.3,9.8c0.5,4,0.5,8.2,0,12.7c-0.6,4.5-0.6,8.8,0,12.8l1,41l-0.3,39.6h51.3l0.1-1.6c0-0.4-0.2-0.9-0.5-1.5
		l0.8-20.9c0.7-8,1.2-16.1,1.5-24.2c0.3-8.2,1-16.2,1.9-24.1c1-8,2.7-15.5,5.3-22.7l0.8-0.8c5.3,8.3,9.2,17.3,11.8,26.9l18.6,68.9
		h5.7l-20.5-67.7l0.4-0.3l5.7,11l-0.4,2.2l7.6,25.4c0.2-1,0.1-1.9-0.4-2.6c-0.6-0.8-0.6-1.6,0-2.6c-0.3-1.8-0.7-3.5-1-5.2l-3.9-14.8
		l-7.3-16.1c-0.5-0.8-1-1.5-1.5-2.3c-0.4-0.9-0.9-1.9-1.4-2.9L245,428l-4-8.9c-0.4-1.1-0.6-2.2-0.8-3.3l0.4-0.3
		c0.5-0.5,1.1-0.7,1.6-0.7s1,0.2,1.5,0.6l3,2c4.6,4,8.9,8.5,12.9,13.3c4.1,4.7,8.2,9.3,12.5,13.7c4.3,4.2,9.1,7.8,14.4,10.5
		c-2.9-2.6-5.7-5-8.7-7.1l-38-41.5l0.4-0.3h0.1l14.3,4.1c0.6,0.2,1.3,0.5,2,0.7c5.2,2,10.4,3.9,15.8,5.7c-0.1,0-0.3-0.1-0.3-0.1
		l-30.7-13.1l-1.4-1.6c-0.4-0.5-0.5-1.1-0.6-1.8c0-1.2,0.2-2.6,0.5-3.9c0.4-1.4,0.5-2.8,0.3-4.1l1.1-2.3l0.3-0.8l1.5-6l0.3-3
		c0.3-4.3,0.3-8.7,0.2-13.2c-0.2-4.5,0-9,0.5-13.2l0.3-0.8v-0.2l0,0l17.9,0.4l-0.4,0.6v1.3c0.2,0.2,0.4,0.3,0.7,0.4l1.2-0.1
		c0.4-0.2,0.8-0.4,1.3-0.6l1.2-0.3l1.9-0.1c0.6,0.1,1.2,0.4,1.7,0.7c1.7,1.1,3.2,2.6,4.5,4.5c1.4,1.9,2.9,3.3,4.6,4.2
		c3.7,5.6,8.1,10.3,13.4,14.2c5.3,3.9,10.3,7.9,15,12c-0.5-1.4-0.5-2.8,0.1-4.2l0,0c0.6,0,0.8,0.3,0.8,0.8c-0.2,0.5,0,0.9,0.4,1.1
		l2.2,25.2c0.8,8.4,1.5,16.9,1.9,25.4c0.8,2.4,1.3,4.9,1.5,7.5c0.3,2.6,0.9,5,2,7.3l6.5,29.8c2.2,9.9,4.3,19.8,6.4,29.9l3.4-0.4
		l-11.8-60.4l-4.6-41.5c0-1.2,0.6-1.7,1.8-1.6l3.2,0.1c4.6-1.6,8.9-3.9,12.9-6.9c4-3.1,8.2-5.7,12.5-7.9c-0.6-4.6-1.5-9.2-2.5-13.6
		l-3.2-13.4l19-21.3c2.1-4.1,5.1-7.6,8.9-10.3c3.8-2.8,7.2-6,10.1-9.4c-0.2-12.7-2.1-24.6-5.7-35.7c-4.8-16.8-10.7-33-17.5-48.9
		c-6.9-15.8-14.6-31.4-23.1-46.5l-4.2-3.4c-7.6-4.5-15.3-8.7-23.2-12.5l-23.6-11.5v-1.9c-3.2-5.4-7.5-10-12.9-13.6
		c0.4-0.3,0.5-0.7,0.4-1.2l8.7-4.9l1-2.1c0.3-0.5,0.3-1.1,0-1.7c-0.1,0.8-0.3,1.6-0.8,2.3v-1.9c0.1-1.2-0.1-2.2-0.4-3.1
		c-1.3-1-1.9-2.3-1.8-3.9c0-1.5-0.2-3-0.5-4.4c0-1,0.3-1.5,0.9-1.5l2.2-0.1l0.7,4.6l-0.5-1.4c-0.2-0.5-0.5-0.9-1-1.3
		c-0.1,0.8-0.1,1.6,0.2,2.4l0.6,2.6c0.1,0.9,0,1.8-0.1,2.7c-0.2,0.9,0,1.6,0.5,2.2v0.2l0.6-0.7c0.2-0.3,0.6-0.4,1.1-0.2l-0.4-6.1
		c-0.5-0.7-0.8-1.5-1-2.4c-0.2-1,0.2-1.7,1-2.2c5.7-1.6,10.9-4.5,15.8-8.6C300.7,117.1,304.9,112.4,308.2,107.3z M272.3,89.1
		c-1.2,0.9-2.5,1.3-4,1.2l-4.4-0.8l-20.1-1.1c-6.9-0.4-13.4,0.1-19.8,1.5c-1.7-0.5-3.3-1.2-4.9-1.9c5-3.2,10.9-4.8,17.4-4.9
		c6.6-0.1,13.1,0,19.4,0.3l8.8,1.4C267.5,85.5,270,86.9,272.3,89.1z M273,107.3v-1.5c2,2.1,4.3,3.8,7,5.2c2.6,1.3,4.1,3.5,4.8,6.6
		c-0.7,0.7-1,1.6-0.9,2.5l0.5,2.8c-0.5-2-1.6-3.5-3.4-4.6c-0.2,0.7,0,1.3,0.5,1.9c0.6,0.6,0.9,1.2,1,1.9c-1.7-2.1-3.6-4.1-5.7-6.1
		c0.7,0.3,1.3,0.8,2,1.3l1.8,1.4l0.4-0.4c-1.5-2.3-3.5-3.7-6.1-4.2l-0.6-0.8c-0.2-0.3-0.3-0.6-0.2-1.1l1.4,0.9l1.3-0.1l-2.2-1.9
		c1.7,0.2,3.3,0.9,4.7,2.2l4,3.9c0.1-0.7,0-1.3-0.5-1.9l-1.4-1.9c-1.4-1.2-2.8-2.1-4.3-2.9S274.3,108.6,273,107.3z M269.8,107.8
		l-0.3-2.8l0.1,0.7C269.8,106.4,269.9,107.2,269.8,107.8z M269.3,102v1.5l-0.5-2.2L269.3,102z M271.9,102c2.2,1,4.4,2.3,6.5,4
		c2.1,1.6,3.7,3.6,4.9,5.9l-0.7-0.8l-0.5,0.4c-1.1-2.1-2.8-3.7-5-4.8C274.8,105.6,273.1,104,271.9,102z M269.7,109l-0.1,0.2
		c-0.3,1-1.4,1.3-3.4,1.1C267.3,109.7,268.4,109.2,269.7,109z M271.2,113.4v0.3l0.3,0.2l-0.4,7.6h-0.2l-0.1,0.9
		c-0.7,3-0.7,6.1,0,9.2c0.9-0.7,1.4-1.5,1.5-2.6c0-1.1,0.7-1.5,2.3-1.2c0.2,1.7-0.2,3.1-1.2,4.1l-3,3.1c0.7,5.8-0.2,10.8-2.6,15.2
		c-2.5,4.4-5.2,8.7-8,13l-6,6.9c-2.1,2.3-4.8,3.3-8.1,2.9c-2,0.1-3.7-0.5-5.1-1.7l-4-4l-6-7.9l0.6,0.8c-1.5-6.9-3.3-13.8-5.3-20.5
		l0.8-0.8c0.4,0.3,0.7,0.6,0.8,1.1c0.1,0.4,0.5,0.6,1.1,0.4c0.5-1.9,0.2-3.6-0.7-5.2c-1-1.6-1.7-3.3-2-5c1.6-0.9,3.4-1.3,5.3-1.4
		l5.7-0.5l1.9,1.9c1,1.7,1.1,3.1,0.4,4.2c-0.8,1.1-1.7,2.1-2.8,3.2c-1.1,1-1.7,2.2-1.7,3.6h1.2l-0.4,0.5c-1.7-0.4-2.8,0.1-3.2,1.3
		c-0.5,1.3-1.2,2.4-2.1,3.3l-0.4-0.4c-0.1-2.1,0.2-4.1,1-6.1c0.7-2,1.9-3.8,3.6-5.3l-3.8,3.4c-1.6,2.5-2,5-1.2,7.7
		c0.8,2.6,1.7,5.2,2.7,7.5l1.6,2.6c0.7,0.9,1.4,1.5,2.2,2c-0.8-2-1.8-3.8-3.1-5.5c-1.2-1.7-2.1-3.5-2.6-5.6l0.4-0.3
		c1,1.3,2.2,1.8,3.8,1.4l4.1-1.1c0.5,0.6,1,1,1.6,1.2c0.2-1.1,0.6-1.7,1.3-1.9c0.7-0.3,1.4-0.8,2.1-1.5c0.8-0.5,1.7-0.7,2.7-0.7
		c1,0.1,1.8,0.4,2.6,1c1,0.7,2.1,1,3.3,0.7c1.2-0.2,2.3-0.7,3.1-1.4c1.5,0.4,2.7,1.3,3.5,2.6l1.6-0.1l1.4,1.3c1,1.4,1.1,2.8,0.4,4.2
		c-0.8,1.3-1.3,2.7-1.5,4.1c0.8-0.8,1.4-1.7,1.9-2.6c0.5-0.8,0.8-1.6,0.9-2.6c0.1-1.1,0.5-1.7,1.3-2c-0.5-1.1-0.5-2.3,0-3.4l0.8,0.8
		c0.1-1.7-0.5-2.9-1.8-3.7l-3.5-2.8l0.4-0.4l-1.2-0.9c-0.4-0.2-0.8-0.5-1.1-1v-0.8c-0.1-0.3,0-0.5,0.4-0.7l4.1,3.8l-4.1-4.9
		l-0.6-2.2c-0.3-0.7-0.7-1.3-1.3-1.6c-0.8,0.6-0.8,1.3-0.1,2.2c0.6,0.8,0.9,1.7,0.8,2.7l-4,2.4c-1.3,0.9-2.7,1.1-4.3,0.6
		c-0.1-0.3,0.1-0.5,0.4-0.7c-0.8-0.8-1.1-1.7-0.9-2.5l0.5-2.8h-0.1v-1.7c0-0.6-0.4-1-1.1-1.1l-3.4-4.6c-1.2-1.6-2.4-3-3.9-4.2
		l0.5-0.6v0.8c0.7,0.2,1.3,0.8,1.8,1.5c0.5,0.8,1.1,1.4,2,1.9c0.1,1.1,0.7,2,1.7,2.6c0.5,0.2,0.9,0.6,1.1,1l-1.7-5.1
		c0.2-1,0.6-1.9,1.2-2.7c0.5-0.9,0.6-1.8,0.3-2.7l0.4-0.1c0.9-0.4,1.8-1.1,2.6-2c0.8-0.9,1.7-1.1,2.7-0.4v0.9
		c-1-1.1-1.9-1.2-2.7-0.2c-0.8,0.9-1.7,1.5-2.6,1.7v0.8c0.6,0.5,1.1,0.6,1.6,0.1c0.5-0.6,1.1-0.7,1.8-0.5c1.7,1,2.7,2.3,3,4l1.2,4.7
		l3.3-0.3c1.1-0.1,1.9-0.5,2.3-1.4l0.8,0.1c1.6,0,3-0.7,4.1-1.9c1.1-1.2,2.4-2,3.9-2.2l-0.5-0.8c-0.4-0.4-0.6-1-0.6-1.6
		c-0.1-0.7-0.2-1.2-0.5-1.6l-0.7-0.2l0.1-0.5l-1.2-0.5h-1.2l0.1-0.2h-0.4l0.7-0.5c0.6-0.7,1.3-1.4,2.2-1.9
		C268.8,112.7,269.9,112.6,271.2,113.4z M267.7,111.7l1.6,0.1c-1.2,0.3-2.3,0.8-3.2,1.6c-1.2,0.9-2.4,1.7-3.7,2.5
		c-1.3,0.7-2.8,0.8-4.5,0.3c-0.1-0.3,0.1-0.5,0.4-0.7c0.4,0.4,0.9,0.4,1.3,0c0.4-0.5,0.8-0.7,1.3-0.8l3.1-1.1
		c-0.1,0.3,0,0.5,0.3,0.7c0.7-0.3,1.4-0.8,1.9-1.5l-0.3-0.4C266.3,111.8,266.9,111.5,267.7,111.7z M281.4,125.9
		c-1-1.3-2.4-2.6-4.1-3.7c-1.8-1.2-2.6-2.9-2.4-5c2.5,2.7,4.8,5.5,6.9,8.3L281.4,125.9z M274.1,137.7l0.5-0.4
		c0.8,0.9,1.2,1.9,1.4,3.1l0.5,3.4c-0.8,0.2-1.3,0.8-1.5,1.5c-0.2,0.8-0.7,1.3-1.6,1.5c0.8-0.7,1.2-1.7,1.2-2.9
		c0-1.1-0.2-2.2-0.5-3.1l1.2,2.2c0.5-0.6,0.6-1.2,0.2-1.8c-0.3-0.6-0.4-1.2-0.2-2L274.1,137.7z M267.3,155.2c0.5,0,0.9,0.3,1.2,0.7
		c0.5,3.8,0.6,7.5,0.1,11.1l-1.3,11l-9.8,21.3c-3.5,0.9-7.2,1.3-11.1,1.1c-1.3-1.8-2.5-3.9-3.5-6.2c-0.9-2.2-2.1-4.3-3.5-6.1
		c-1.3-1.9-3.3-3.1-5.9-3.7c-1.6,0.9-2.5,2.3-2.6,4.2l-6.9,9.5c-2.1-0.8-4.2-1.9-6.1-3l1.9-25.9c1.1,1,1.7,2.2,1.9,3.7
		c0.3,1.4,0.9,2.6,1.9,3.6c0.2-0.9,0.2-1.9-0.1-2.8l-0.6-2.9c-0.7-2.4-1.6-4.7-2.7-6.9l0.4-0.4l0.4,0.4l1.1-6.4
		c0.5,0.7,0.5,1.5,0.2,2.5l-0.6,2.8c1.6,3.9,3.9,7.6,6.8,11c2.9,3.4,5.4,6.9,7.7,10.6c0.7,1,1.8,1.4,3,1.2
		c9.3-5.5,17.9-12.6,25.9-21.3C266.4,161.5,267.1,158.4,267.3,155.2z M271.9,159c1.7-0.6,3.1-0.2,4.1,1.4c0.9,1.5,2,2.8,3.1,3.9
		c1.3,4,1.8,8.2,1.5,12.5c-0.2,4.2-0.5,8.5-0.7,12.8c-0.3,4.2,0.1,8.3,1.1,12.3l2.3,7.6l-8.4,5.3v0.8c3.7,3.1,7.2,6.4,10.7,9.9
		c-6.5,10.2-11.8,21-15.9,32.3c-4.1,11.3-7.4,23-10,34.9l-6-17.5c-0.5-5.8-0.5-11.6-0.3-17.4l0.6-17.5l12.6-46.8
		c1.3-4.9,2.2-9.9,2.6-15.2l0.4,0.4l1.2-1.1l1.2-9.2C272.5,165.3,272.5,162.2,271.9,159z M283.4,181.9v-1.1l-0.5-10.1
		c7.3,2.5,14.5,5.5,21.4,9.1c7,3.5,13.8,7,20.4,10.7c-2.2-0.2-4.2,0-6,0.7l-0.8,0.3l-2.2,1.3l-0.2,0.1l-2.7,2.5l-3.3,4.1
		c-1.7,2.6-3.5,5.2-5.3,7.7v8.8l-15.2,6l-9.9-7.5c3.4-0.6,5.4-1.7,6.2-3.2c0.7-1.6,0.8-3.3,0.2-5.5l-2.1-6.4
		c-0.8-2.2-0.9-4.3-0.5-6.2C283.2,189.3,283.4,185.6,283.4,181.9z M328.1,193.9h1.2c11.8,18.4,21.3,37.8,28.5,58.2
		c4.6,10.9,8.8,22,12.7,33.3c3.8,11.3,6,23.2,6.7,35.8l-0.8,5c-7,4.6-12.9,10.3-17.8,16.9c-4.9,6.6-10,13-15.3,19.2l-1.6-4.1
		c-0.5-1.5-1.3-2.8-2.5-3.9c3.4-5.1,7.1-10.2,11-15.2l1.8,1.9c0.5,0.7,1.2,0.8,2,0.4c-2.5-3.8-5.6-7.3-9.2-10.8
		c-3.7-3.4-7.4-6.3-11.3-8.6l-4.6-1.5l1.1-0.8l11.8,3.2c4,0.9,7.8,2.3,11.4,4l0.4-0.3c-2.4-3.5-4.9-7-7.6-10.6
		c-2.6-3.5-6-6-10.3-7.3c-0.2-0.6-0.1-1.2,0.3-1.6l0.9-1.4c5.3,1.6,10.8,3.1,16.2,4.4l16.5,3.9l0.3-0.4c-2.4-2-4.7-4.3-7.1-6.7
		c-2.3-2.5-4.9-4.6-7.6-6.2c-2.8-1.6-6-2.1-9.6-1.5h-3.4l4.7-0.6c1.6-0.3,2.7-1.2,3.3-2.8c1.6-1.1,3.4-1.4,5.4-1.1l5.6,1.1l0.6-1.6
		c0.2-0.6-0.1-0.9-1-1.1l-2.7-0.9l-3-0.2l2.3-1.9c0.7-0.8,1.5-1.5,2.3-1.9c0.2-1.8-0.2-3-1.5-3.7c-1.2-0.7-2.2-1.6-3.1-2.8
		c-1.8,3.1-4.2,5.5-7.1,7c-2.9,1.6-5.9,2.9-8.8,4c-1.3,0-2.3-0.6-3.1-1.5c-0.8-1-1.4-2-1.9-3l2.1-5.5c0.6-1.8,2-3.3,4-4.4l-1.9,5.3
		c-0.6,1.8-0.6,3.7,0,5.7c0.9,0.7,1.7,0.8,2.7,0.3l2.6-1.4l1.9-1.9l-13.7-35.7c1.5-2.6,3-5.1,4.8-7.7c1.7-2.6,3.9-4.7,6.6-6.4V235
		l-19-10.3l14.9,1.5c-1.7-4.9-4-9.6-6.9-14c-1.8-1.4-3.7-2.4-5.8-3.1l-6.3-1.9l0.3-3.8c-0.6-0.5-1.1-1-1.5-1.7
		c-0.3-0.6-0.8-1.2-1.5-1.7c-3.4,3.9-5.7,8.5-6.8,13.6c-1.1,5.1-1.3,10.5-0.4,16.1c2.5,7.1,5,14.3,7.2,21.6
		c2.3,7.3,4.7,14.5,7.2,21.7c1.3,1.3,2,2.8,2.3,4.6c0.3,1.7,0.8,3.3,1.5,4.9l-2,0.5c-0.8,0.2-1.3,0.6-1.8,1.4c0.1,3.1,0.9,6,2.4,8.6
		l4.5,7.7c0.1,0.7,0,1.3-0.2,1.8l-0.6,1.6c-2.3-4.8-4.3-9.8-6.1-15.2c-0.3-0.8-0.7-1.5-1.2-2.2c-0.4-0.8-0.5-1.6-0.3-2.7
		c1.8-1.2,2.3-2.8,1.5-4.6l-11.4-38.7c-0.8-2.7-1.8-5.4-3-8c-0.3,1.9-0.2,3.8,0.3,5.6c0.4,1.9,0.7,3.8,0.8,5.8
		c-0.9,0.6-2.1,1.2-3.3,1.7c-1.3,0.5-1.7,1.6-1.2,3.2c-3.5-0.9-7.2-1.3-11.1-1.2l-11.4,0.5l-1.7-3.9c-0.6-1.4-1.6-2.3-2.8-2.9
		c1.4-1.9,2.6-4,3.3-6.4c0.8-2.5,1.8-4.6,3.1-6.5c1.3-1.9,3.5-3,6.5-3.1l11.8-4.5c1.6-1.7,2.2-3.8,2-6.2c-0.3-2.4-0.2-4.7,0.3-6.8
		c1.1-2.3,2.5-4.6,4.2-6.7l4.9-6.2l6.2-1.6C324.3,192.9,326.3,193.1,328.1,193.9z M284,220.5l-1.4-1.5l5.2,4.5l0.7,0.4l15.7-6v0.3
		c-2.5,1.2-5.1,2.2-7.7,3c-2.7,0.8-5.3,1.7-7.9,2.8l-0.1-0.1l-0.2,0.1l-0.5-0.5C286.4,222.8,285.1,221.7,284,220.5z M296.1,250.6
		c3.7,0,7,0.8,10,2.2l0.6,4.7c0.3,1.5,0.3,3.1,0.2,4.8c-2.6-0.1-5,0.2-7.1,1c-2.3,0.7-4.4,1.6-6.6,2.4c-0.3-0.8-0.7-1.5-1.1-2.2
		c-0.5-0.7-0.1-1.3,1.1-1.9c-0.1-0.8-0.6-1.5-1.1-2l-2-1.5c-1.3-0.3-2.2-1.1-2.7-2.4c-0.5-1.4-1.1-2.6-1.8-3.6l-0.4-1.6L296.1,250.6
		z M286,265.8c-2-1.3-4.1-2.1-6.4-2.5l-6.6-1.7l1.1-7.6l2.6,3.4c1.1,1.3,2.4,1.9,3.9,1.9l0.4-0.4C282.9,261.1,284.5,263.4,286,265.8
		z M268.4,268.2c0.9-2,1.5-4.1,2-6.3c2.6,1.4,5.5,2.4,8.6,3.2c3.1,0.8,5.9,2.1,8.5,4.1l16.3,17.1v0.7c-2.4-1-5-1.6-7.8-1.9l-8.1-0.4
		c4.2,3.3,8.9,5.9,13.9,7.9c5.1,1.9,10,4,14.9,6.2l1.2,4.2l-46.8-25.5c-0.4,0.1-0.8,0.3-1.1,0.8l11.8,8.7v1.5l-3.2,0.3
		c-1,0.2-1.7,0.9-2.1,2c0.3,3.4,1.8,6.3,4.5,8.8c2.6,2.4,5.1,4.9,7.2,7.6l4.5,4c1.6,1.4,2.7,3,3.5,4.7c-0.4,2.1-1.1,4.1-1.8,6.1
		c-0.8,2-1.3,4.1-1.3,6.4c0.7,0.4,1.1,0.9,1.2,1.5v2c-1.4-0.1-2.7,0.1-3.8,0.7c0.4,0.7,0.5,1.4,0.4,2.3c-0.3-0.1-0.6,0.1-0.8,0.4
		l-18.2-17.9l-0.4,0.4c2.1,3.2,4.4,6.4,6.9,9.4l7.6,9.2l-0.4,0.4l-9.5-8.8c-3.2-3.1-5.7-6.5-7.2-10.2c-1.3-3.5-2.6-7-4.1-10.5
		c-1.4-3.4-2.5-7-3.2-10.8c1.7-7.4,3.6-14.8,5.7-22C267.2,272.3,267.6,270.3,268.4,268.2z M290.9,260.4v0.8l-1.1-1.5L290.9,260.4z
		 M264.6,99.3l1.2,0.3l1.7,0.7L264.6,99.3z M228.2,103.2l-0.4,0.8c0.2-0.8,0.2-1.6,0-2.5C228,102,228.2,102.6,228.2,103.2z
		 M226.7,106.5l0.1-0.1l-1.1,2.5v-0.6L226.7,106.5z M230.2,99l1.4-0.1l19.8,1.2c-2.4,0.2-4.7,0.2-7.2,0L230.2,99z M243.6,113.5h-0.4
		c-0.8,0.1-1.5,0-2-0.3c-1-1-2.1-1.6-3.4-1.8c-1.2-0.3-2.2-1.1-3.1-2.4h-0.2h0.2l0,0c1.7,0.1,3.3,0.7,4.8,1.8L243.6,113.5z
		 M241.2,116.2l-0.4,0.1L241.2,116.2c-0.8-0.4-1.6-0.6-2.5-0.4c-0.8,0.1-1.4-0.1-2-0.7l3.2-0.1C240.5,114.9,240.9,115.3,241.2,116.2
		z M237.5,114.7h-0.4l1-0.5c-0.8-0.7-1.6-1.2-2.4-1.5l-2.1-0.9h1.6l3.7,2.5C238.5,114.6,238,114.8,237.5,114.7z M239.3,118.5
		c0.1-0.8,0.5-1.1,1-1c0.6,0.2,0.9,0.5,0.9,1H239.3z M239.7,119.7c0.4,0,0.8,0,1.2-0.3c0.3-0.2,0.7-0.2,1,0.3l-0.5,0.5l0.1-0.3
		l-5.1,0.1c-1.7,0-3.1-0.2-4.5-0.7L239.7,119.7z M230.4,112.3c-0.8,0.5-1.6,0.6-2.4,0.5l1.4-0.4c0.6-0.1,1.1-0.3,1.5-0.7h1
		C231.4,111.8,230.9,112,230.4,112.3z M229.7,110.2l0.8-0.9c1.5-1.4,3.1-1.9,4.6-1.5l1,0.3l-2.5-0.2
		C232.1,108.4,230.8,109.2,229.7,110.2z M227.8,112.7l0.6-0.7L227.8,112.7L227.8,112.7z M229.7,118.4l0.7-1
		c-0.6,1.5-0.3,2.7,0.8,3.5l1.3,1l-0.1,0.3C230.8,121.4,229.9,120.1,229.7,118.4z M231.3,119.3h0.3l0.2,0.7L231.3,119.3z
		 M234.3,118.2l-1.9-0.8h1.1c0.3-0.1,0.6,0.1,0.8,0.4V118.2z M232.9,116.1l2.1,0.1l-4.1,0.7C231.4,116.4,232.1,116.1,232.9,116.1z
		 M242.2,132.8h0.1c-0.2,1-0.1,1.8,0.4,2.4l-0.4-0.3C241.7,134.1,241.7,133.4,242.2,132.8z M263.1,112.6l3.1-2.2
		C265.4,111.6,264.3,112.4,263.1,112.6z M258.2,120.3h-1.1v-0.1L258.2,120.3z M264.1,118.6c0.5-0.2,1-0.1,1.4,0.3
		c-0.4,0.6-1.2,0.9-2.3,0.8C263.3,119.1,263.6,118.7,264.1,118.6z M253.1,114l0.4-0.9h0.2c-0.5,0.6-0.6,1.2-0.5,1.7l0.1,0.7
		C252.9,115.1,252.8,114.5,253.1,114z M252.5,113.1h0.2l-0.1,0.1L252.5,113.1z M249.3,112.4c0,0.5-0.2,1-0.6,1.4
		c-0.1-1.1,0.3-1.9,1.2-2.6v0.2C249.5,111.5,249.3,111.8,249.3,112.4z M250.5,113.9c-0.2,0-0.4-0.1-0.6-0.3c0.2-0.2,0.4-0.4,0.4-0.6
		L250.5,113.9z M255.2,116.5l0.2,1.1L255.2,116.5L255.2,116.5z M265.8,120.7l-1.1-0.1L265.8,120.7c0.3,0.1,0.5,0.4,0.4,0.7
		C266.2,121.1,266.1,120.9,265.8,120.7z M266,122.1l-0.2,0.4l-0.1,0.1L266,122.1z M263,123.7l-1.1,0.1l-0.6-0.1H263z M258.5,124.1
		l-0.7-0.4h0.2L258.5,124.1z M224.8,105.8c-0.1,0.3,0.1,0.6,0.4,0.8c0.2-0.1,0.4-0.1,0.7-0.3c0.2-0.2,0.4-0.2,0.7,0l-1,1.4
		c-0.8,2-1.8,3.9-3.1,5.7l-3.5,5.4c-1.1,1.9-1.5,4-1.4,6.4l-1-1.7c-0.3-0.6-0.8-0.8-1.7-0.6c-0.3,0.2-0.4,0.5-0.4,0.9v1l-0.9-1.5
		c-0.3-0.6-0.7-1-1.3-1.2c-1.1,1-2,2.2-2.8,3.6c-0.9,1.3-2.2,1.7-3.7,1c-0.2-1.1,0-2.1,0.5-3c0.4-0.9,0.5-1.8,0.3-2.7l-1.6,1.9v-1.1
		c4.4-3.5,8.8-6.4,13.3-8.8l-0.3-0.4c1-0.6,1.8-1.4,2.6-2.4l2.3-2.9c-0.2-0.3-0.5-0.4-0.8-0.4c0.9-0.5,1.7-1.2,2.5-2l2.1-2.1
		C226.4,103.8,225.7,104.9,224.8,105.8z M218.7,110.7l-2.5,2.2c-1,0.6-2,0.9-3.2,0.9c0.8-0.9,1.8-1.5,2.8-1.9L218.7,110.7z
		 M212.6,126.3l0.4,0.1L212.6,126.3L212.6,126.3z M215.7,128.7l-1.8-1.8c0.5,0.3,0.9,0.8,1.4,1.3L215.7,128.7z M220.5,144.7
		l-0.7-1.3V143L220.5,144.7z M223.6,154.1h0.4l0.1-0.5l10.5,13.2c3.6,4.4,7.7,8.2,12.3,11.5v0.8c-1.7,0.9-3.4,2-5,3.4
		c-0.7,0.6-1.6,1-2.4,1.2l0.1,0.5c-1.6,0.2-2.9-0.3-3.8-1.6l0.2-0.6l-2.5-4.5l-7.6-11.2l-0.3-1.7c-1.3-2.7-1.8-5.7-1.7-8.9
		L223.6,154.1z M217.8,165.7l-0.6,2c0.1,1.2,0.1,2.2-0.2,3.2s-0.3,2-0.2,2.9c0.9-0.9,1.4-2.2,1.5-3.7c-0.6,9.4-1.7,18.7-3.2,27.8
		c-1.4,9.1-2.6,18.3-3.6,27.6l1.1,1.1c0.7,4.5,1.2,9.1,1.6,14c0.2,4.9,0.7,9.5,1.5,14.2L213,273c-3.5-8.6-6-17.6-7.5-27
		c-1.4-9.5-2.2-19.3-2.4-29.2l3.7-2.4c1.3-0.7,2-1.8,2.4-3.3c-2.3-1.9-4.6-3.9-6.8-6.1c2.3-6.9,4.8-13.7,7.5-20.5
		c2.7-6.7,5.2-13.6,7.3-20.6C218,164.5,218.2,165.1,217.8,165.7z M209,180.4l-0.2,0.1l-3.8,10.1c-1.8,4.9-3.8,9.7-6.1,14.4l7.3,6.5
		l-3.5,2.2c-1.2,0.8-2.2,1.6-3,2.7c0.9,0.8,1,1.6,0.1,2.3l-2.4,1.8c-1.4,0.1-2.9-0.4-4.2-1.3l-4.1-2.5c-0.1-3.7-0.4-7.4-0.8-11
		c-0.5-3.6-0.7-7.2-0.8-11c0.3-1.4,0.8-2.8,1.5-4.1c0.6-1,1.3-1.9,2.3-2.6l19.6-12.1L209,180.4z M258.4,143.7
		c-0.6-0.7-0.9-1.6-0.9-2.8c1.4,1.6,2.4,3.2,3.1,5L258.4,143.7z M260.9,141.7l1.2,1.9l0.4,1.9L260.9,141.7z M248,134.4l0.5-0.6
		l-0.1,0.3L248,134.4z M247.3,138.3l-0.7-0.8l0.6,0.3c0.1-0.5,0-0.9-0.4-1.2l0.5-1.2v0.6V138.3z M249.8,142.1h0.9l-1.5,0.3l-0.1,0.1
		v-0.1l-2.3,0.2c-1.3,0-2.6,0.2-3.7,0.6l-0.1-0.8c0-0.3,0.1-0.5,0.4-0.7l-0.3-0.4l-2.7,2.7c0-0.3,0.1-0.6,0.4-0.8l-0.4-0.4
		c-1.2,0.8-2.4,1.8-3.4,3.1l0.6-1.2c0.3-0.3,0.2-0.7-0.2-1.1l2.7-2.2c0.9-0.6,1.8-1.4,2.6-2.4c0.1,0.5,0,0.9-0.4,1.2
		c0.2,0.4,0.5,0.5,0.7,0.3l0.8-0.3c0.7-1.3,1.3-1.7,2-1.5l3,2.3l0.5,0.1l0.2,0.2l-0.7-0.3c-0.3-0.1-0.6,0.1-0.8,0.3l1.1,1.1h0.1
		C249.4,142.1,249.6,142,249.8,142.1z M254.8,142.3l-1.8-0.2c0.5-1.4,1-1.8,1.4-1c0.4,0.7,1.1,1.3,2,1.8L254.8,142.3z M252.1,144
		h0.7c-0.3,0-0.4,0.1-0.6,0.3l-0.8,0.1C251.6,144.1,251.8,143.9,252.1,144z M242,136.8l-0.4,0.1l0.3-0.3l-0.8-0.7
		c-0.4-0.6-0.5-1.2-0.2-1.8l0.3-0.7C241.2,134.6,241.4,135.7,242,136.8z M237,141.7c0.2-1.1,0.8-1.9,1.8-2.4
		c-0.5,0.3-0.9,0.7-1.1,1.3l0.4,0.3L237,141.7z M255.9,201.1l0.4,0.4l-4.2,7.6l-4.5-6.8c1-0.7,2.4-1,4-0.8L255.9,201.1z
		 M258.7,200.4l7.6-16c-0.9,5.9-2.2,11.7-3.8,17.3l-4.6,16.9l-8.6-3.4c-2.8-1.2-5.8-2.1-8.9-2.6l-0.5-4.4c-0.1-1.6,0.3-2.9,1.3-4
		l1.9-1.5c0.7-0.6,1.2-1.2,1.5-1.9l8,10.7c1.4-1.6,2.6-3.3,3.5-5.3C257.1,204.3,257.9,202.3,258.7,200.4z M237.5,189.9l-1.3,0.6
		l-1.6-0.6c-0.5-0.3-0.9-0.7-1.1-1.3c0.3-1.6,0.9-2,1.8-1.2l2,2.3l0.8-1.1l0.4,0.4C238.3,189.5,238,189.8,237.5,189.9z M238.8,191.3
		l0.4-0.4c0.5,0.1,0.7,0.5,0.8,1.1L238.8,191.3z M237.3,192.4c1.3,0.6,2.6,1.4,3.8,2.3c1.1,1,2.1,2.1,2.7,3.4
		c0.2,0.9,0.2,1.7-0.1,2.5c-0.3,0.7-0.5,1.2-0.7,1.3l-2.3,1.9l-1.5,0.8l-1.9,0.7c-2.2,0.2-4.3-0.1-6.1-1.1c-1.9-0.9-3.4-2.3-4.5-4.2
		c-0.2-1.3,0-2.5,0.7-3.4c0.8-1,1.4-2,2-3c1-0.9,2.3-1.4,3.7-1.5L237.3,192.4z M232.8,190.5c-0.4,0.5-1,0.8-1.9,0.8l1.1-1.6
		L232.8,190.5z M239.2,211.8h-0.4v-2.3h0.4V211.8z M240.1,217.9v-3.8c6.2,1.1,12,3.4,17.4,6.5c-3,6.9-4.6,14.5-5,22.6l-0.7,24.5
		l-2.5-9.3c-0.8-3.1-1.9-6.1-3.2-8.9l-0.3,0.3c2.4,13.7,5.9,27,10.4,39.9c4.4,12.9,8.8,25.8,13.1,38.8c-4.5,1-8.9,1.1-13.2,0.3
		l-13-1.8c-1.5-1-3-1.4-4.6-1.2l-4.9-0.4l-5.5-3.7c-1.9-1.2-3.3-2.9-4.4-5c0.2-1,0.7-2,1.4-2.8c0.7-0.9,0.9-1.9,0.5-2.9l-1.8,3.1
		c-0.6,0.9-0.9,2.1-0.8,3.4c0.8,1.6,2,3,3.6,4.2c1.5,1.2,2.9,2.5,4.3,3.7l-5.8-0.2l-5.5,0.6c-1.8,0-3.5-0.9-5-2.6
		c-1.5-1.1-1.9-2.4-1.1-3.8l1.2-2.7c0.4-0.9,1.1-1.5,2.1-1.9c1-6.8,1.5-13.7,1.5-20.8s0.4-14.1,1.2-21c0.7-6.7,2.6-13,5.6-18.7
		l0.2-0.8c1.5-7,3.1-13.9,4.9-20.8l1.1-25.1c1.5,7,1.7,13.7,0.8,20.1c-1,6.5-2.6,12.8-4.6,19.1l-2.2,6.7l-0.1,0.5l-0.1,0.3
		l-3.3,11.1c0.2,2.2-0.2,4.3-1.1,6.1c-0.5,2.4-0.5,4.8-0.2,7.2c0.2,2.3,1.3,4.4,3.2,6.1c0.8-1.9,1.3-4,1.4-6.1l0.5-6.5
		c-1.5-1.1-1.9-2.6-1.3-4.2c0.6-1.7,1.1-3.3,1.3-4.9l4.2-16.7c0,2.2,0.2,4.6,0.7,6.9c0.4,2.4-0.1,4.5-1.5,6.4l0.4,0.4l0.8-0.8
		c-1.4,4.1-2.2,8.4-2.3,12.9c-0.7,0-1.2,0.2-1.5,0.8l-0.8,37.6l0.4,0.4c0.9-4.1,1.3-8.3,1.2-12.8l-0.1-14.9c0.6,1,1.3,2,2.3,3
		c1.6-1.4,2.3-3.1,2-5.2c-0.3-2.1-0.2-4,0.3-5.8l-1.9-3.4c0.3-3.3,1-6.4,1.9-9.4c1-3,1.3-6.2,1.1-9.6c2.3-3.3,3.8-6.9,4.6-10.8
		c0.8-3.9,1.3-7.9,1.5-12C239.1,226,239.5,221.9,240.1,217.9z M234.7,207.2h0.4l0.6,6.3c0.3,2,0.1,4-0.6,5.9
		c-0.3-1.4-0.5-3.4-0.4-5.7V207.2z M238.5,213.7c0.4,5.4,0.2,10.8-0.7,16c-0.9,5.3-1.7,10.6-2.4,15.9l-1.1,2.6
		c-0.3,0.8-0.8,1.6-1.5,2.3c0.2-6.4,0.9-12.7,2.2-18.6C236.3,225.8,237.4,219.8,238.5,213.7z M229.3,204.6v6.4
		c-1.1,0.9-2.5,1.3-4.1,1.4c-1.7,0.1-3.2,0.4-4.6,0.9l-4.2,1.9c-0.4-1.4-0.5-2.9-0.2-4.4l0.6-4.7c0.2,0.3,0.5,0.4,0.9,0.4h1l5.7-6.1
		L229.3,204.6z M218,197l2.7,1.1c1,0.4,1.6,1,1.9,1.9l-4.6,5c-0.3-1.1-0.4-2.4-0.4-3.9S217.7,198.2,218,197z M192.8,221
		c-0.2-0.2-0.4-0.4-0.7-0.5l0.9,0.5c1.3,0.9,2.6,1.5,3.8,1.7c1.3,0.3,2.5-0.6,3.7-2.5c-1.1,2-2.3,2.9-3.7,2.6
		C195.5,222.6,194.2,222,192.8,221z M196.7,225.1c1.1,0.2,1.8-0.1,2.3-0.8c0.4-0.8,1-1.4,1.8-1.8l1.6,17c-1.3,0.6-2.5,0.7-3.8,0.4
		l-13,1.1l0.4-38l1.2,16.8L196.7,225.1z M215.8,217.9c2-1.3,4.2-2.4,6.4-3.4c2.2-0.9,4.6-1.5,7.2-1.5c0.6,10.5-0.2,20.3-2.5,29.6
		c-2.4,9.2-5.1,18.4-8.1,27.3c-0.8,5-1.3,10.1-1.5,15.3c-0.1,5.3-0.1,10.5,0,15.5l-1.2,13.3c-1.6,0.8-2.7,2-3.3,3.5
		c-0.5,1.6-1,3.2-1.2,4.9c0.9,1,1.9,1.9,3,2.6l-4.4-0.3c-1.7-0.3-3.1-1-4.3-1.9c-0.6-1.4-0.6-2.8,0-4.2c1.3-0.4,2.1-1.1,2.3-2.3
		c0.1-1.3,0.8-2.3,1.9-3c0.8-10.3,2.1-20.5,3.7-30.4l4.6-30.1c-0.6-5.8-1.4-11.5-2.4-17.2C215,230,214.9,224,215.8,217.9z
		 M194.4,251.7l-1.2-1.5l1.8,0.2l1.7,0.6c0.1,0.5-0.1,0.8-0.4,1.1C195.5,252.3,194.9,252.2,194.4,251.7z M199.3,251.5
		c-0.2-1.7-1.2-2.8-3-3.2c-1.4-0.6-2.8-0.6-4.2,0c-1.1-1.7-2.2-3.3-3.4-5l14-1.1c0.1,1.8,0.3,3.5,0.8,5.3l1.1,5
		c-1.3,0.8-2.6,1.8-3.8,3C200.1,254.4,199.6,253,199.3,251.5z M196.3,277.5h0.8c-0.7,3.2-0.8,6.4-0.6,9.6c0.3,3.2,0.3,6.5,0.2,9.8
		l2.8,2.5c1,0.9,2.1,1,3.3,0.2c0.4,0.4,0.9,0.6,1.5,0.7h1.9c1.3-1,1.9-2.4,2-3.9c0-1.6,0.6-2.9,1.8-4c-0.8,3.2-1.3,6.6-1.8,10.1
		c-0.4,3.4-1.1,6.7-2,9.9c-1,3.3-2.6,6.2-5,8.8l-1.4,3.1c-0.5,1-1.3,1.7-2.4,1.9c-0.6-0.7-1.3-1.1-2.2-1.3c-0.8-0.1-1.6-0.5-2.3-1
		l2.3-4.6l-3.5-26.9c1.8-2.1,2.9-4.5,3.4-7L196.3,277.5z M222.1,278.2c0.1-1.8,0-3.6-0.4-5.2c0.3-1.1,0.9-1.4,1.7-1
		c0.9,0.3,1.1,1.1,0.6,2.1l-0.7,8.8C222.3,281.6,221.9,280.1,222.1,278.2z M207.4,267.8c0.9,4.2,2.2,8.2,4.1,12l-1.2,8.7
		c-0.5-0.5-1-1.2-1.2-2.1c-0.3-0.9-0.6-1.7-1-2.4l-8.8-24.3l5.4-4.2C205.7,259.4,206.6,263.5,207.4,267.8z M227.9,273.7l0.8-0.2
		l0.7-0.2c0.5,1.9,0.5,3.7,0.3,5.5l-0.6,5.6c-1-1.5-1.4-3.2-1.3-5.1C228,277.4,228,275.5,227.9,273.7z M226.7,326.2l1.3,0.6
		l-8.3,0.6c-2-0.1-4-0.1-5.9-0.1c-0.7,0.4-1.3,0.9-1.8,1.5c-0.5,0.7-0.7,1.4-0.4,2.3c0.4,1.3,0.5,2.6,0.1,3.9
		c-0.5,1.2-0.5,2.4-0.1,3.7c-0.5,1.7-0.6,3.3-0.3,5c0.4,1.6,0.3,3.2-0.1,4.9c0.2,0.9,0.6,1.8,1.3,2.7c0.6,0.8,1.4,1.3,2.5,1.5
		c2.1-0.7,4.2-0.7,6.1,0c2,0.6,4,1,6,1.1c1.8-0.6,3.5-0.8,5.2-0.4l4.8,1.2c1.6,0.3,3.2,0.2,4.9-0.4l0.8-2.6h-0.5v-0.6h0.6v0.3
		l0.1-0.5c0.2-1.3,0-2.4-0.7-3.4c0.5-1.1,0.9-2.1,1-3l0.6-3.1l-0.7-2.8c-0.2-0.9-0.3-1.8-0.1-2.5c0-0.4-0.1-0.6-0.4-0.8
		c0.4-1.2,0.5-2.4,0.5-3.6c0-1.1-0.4-2.2-1.2-3.2c-1.4-0.6-2.7-0.9-4-0.9l-4,0.5l-3.3-0.6l9.4-0.6c2.1,0.2,3.4,1.7,4.1,4.6v9.1
		c0.1,3.1-0.2,6.1-0.8,9.1c0.4,0.9,0.5,1.7,0.3,2.6c-0.3,0.8-0.6,1.6-1.1,2.4c-0.4,0.2-0.8,0.5-1.3,0.8l-4.7-0.4
		c-1.2-0.5-2.3-0.9-3.5-1.2c-0.2,0.3-0.4,0.5-0.7,0.4l-5.7,0.4c-1.7-0.2-3.2-0.6-4.8-1.4l-4.7,0.2c-0.2-0.3-0.5-0.4-0.8-0.3h-1.6
		l-1.8-0.4c-1.7-1.1-2.7-2.5-2.7-4.2c0-1.7,0-3.5,0.4-5.3c0.3-1.9,0.1-3.7-0.4-5.3c0.7-1.5,0.9-3.1,0.8-4.8c-0.2-1.8,0-3.3,0.3-4.7
		c0.4-1.3,1.6-2.1,3.9-2.3c1.8,0.7,3.6,0.9,5.6,0.7L226.7,326.2z M230.9,330v0.4h0.6v-0.6H231l0.2-0.2c0.7,0.3,1.2,0.7,1.6,1.4
		c0.4,0.6,1,0.9,1.9,0.9c0,0.3-0.1,0.5-0.4,0.7l-3.1-1.9l-0.3,0.4c0.2,0.9,0.7,1.3,1.5,1.3c0.8,0.1,1.3,0.5,1.5,1.4
		c0.8-0.4,1.6-0.5,2.3-0.4c0.6,0.1,1.1,0,1.5-0.4c0.7,0.5,1.5,0.5,2.2,0l-1.1,0.8h0.1l-0.2-0.1l-1-0.3l-0.8,0.7
		c0.1,0.1,0.1,0.1,0.1,0.2c-0.1-0.1-0.2-0.1-0.4-0.2l-1.3,0.1c-0.4,0-0.8,0.3-1,0.7c0,1-0.1,2-0.4,3.1c-0.3,1.1-0.8,2.1-1.5,3
		c0.7,0.9,1.1,2,1.1,3.1c-0.1,1.2,0.7,1.5,2.3,1.1l0.4,0.3l-1.5,0.3c-0.4,0.1-0.8,0.3-1,0.7h-0.6v0.6h0.6v-0.2l1,0.2
		c-0.8,0.9-1.8,1.3-3.1,1.1c-1.2-0.2-2.3-0.1-3,0.4c-0.7-0.1-1.2,0.2-1.5,0.7c0.4,0.5,0.5,1,0.2,1.6l-0.6,1.5
		c-0.7-0.1-0.9-0.4-0.8-1c0.2-0.7-0.1-1.1-0.7-1.3l0.7-0.8c-0.4-1.2-1.1-1.9-2.1-2l-3-0.4c-1.1-0.1-1.9-0.7-2.5-1.7
		c0.5,0.1,0.9,0.4,1.3,0.8c0.4,0.5,0.9,0.4,1.4-0.1c-0.9-0.4-1.7-1-2.3-1.9c1-2.2,1.3-4.6,0.8-7.2c-0.7-0.5-0.9-1.1-0.8-1.9l0.4-0.4
		c-0.3-0.6-0.8-0.9-1.4-0.8c-0.7,0.2-1.2,0-1.7-0.3l-0.4,0.3l0.1,0.1l-0.2,0.2l-0.2,0.5l0.4,0.4c0.1-0.3,0.4-0.4,0.7-0.4l-0.2,0.8
		c-0.2,0.1-0.3,0.4-0.2,0.7c-0.5,0.2-0.9,0.1-1.2-0.4c-0.2-0.4-0.5-0.5-0.7-0.3l-0.3,0.4c-0.3-0.2-0.5-0.5-0.5-0.8
		c0.4,0,0.6,0.1,0.8,0.4l1.4-1.3l0.1-0.3l-1-0.7c0.6,0.4,1.2,0.4,1.7-0.2l-0.2-0.5l-0.8-0.1c-0.2-0.6-0.1-0.9,0.4-1l1.1-0.5
		c0,0.7-0.2,1.2-0.8,1.5l0.1,0.1l0.3,0.3l-0.1,0.2c0.2,0.6,0.6,0.8,1.1,0.7l2.1-0.5l3-1.9l-1.7-0.1c-0.8,0-1.3,0.3-1.7,0.9h-0.4
		c0.6-0.3,1.1-0.9,1.7-1.7c0.5-0.9,1.2-1.2,2.1-1c0.2,0.4,0.1,0.8-0.2,1c-0.4,0.3-0.3,0.6,0.2,0.9l1.1-1.5c-0.2-0.8-0.6-1.3-1.4-1.4
		l-0.4-0.1l11.3,0.3v0.4l-1.4-0.3c-0.5-0.2-0.9,0.1-1.2,0.7C230.4,329.5,230.6,329.8,230.9,330z M234.6,330h-1.1l0.4-0.8
		c0.2,0.3,0.4,0.5,0.7,0.4h0.8C235.2,329.9,234.9,330.1,234.6,330z M237.7,330l2.2-0.1c0.7,0.4,1.3,1,1.6,1.6v0.4
		c-0.2-0.4-0.4-0.5-0.7-0.3l-0.8,0.3c-0.1-0.6-0.4-1-0.9-1.2L237.7,330z M193.9,326.9l4.3,2.3c-0.4,1.5-1.2,2.2-2.6,2.2
		c-1.4-0.1-2.6,0.3-3.5,1.2c-0.5,0.1-0.9,0-1.3-0.4l-1-1.1l-0.4,0.4c1.5,3.3,3.1,6.6,5,9.9l-16,24.3c-0.3,0.7-0.5,1.5-0.4,2.5
		c0.1,0.9,0,1.7-0.3,2.4c-3.3-2-5.9-4.4-8.1-7.3c-2.1-2.8-3.4-6.1-3.7-9.8c1.1-7.8,4.4-14.8,9.9-20.9c2.1-1.3,4.4-2.4,6.7-3.2
		c2.4-0.8,4.5-2,6.6-3.6C190.9,325.6,192.5,326,193.9,326.9z M206.8,325.8l-0.4-0.4L206.8,325.8L206.8,325.8z M214.7,327.9v0.6h-0.6
		v-0.6H214.7z M213.8,330.3c0.3-0.4,0.7-0.6,1.1-0.7c0.4-0.1,0.9,0,1.1,0.4c-0.6,0.1-1,0.4-1.2,1c-0.1,0.6-0.6,0.8-1.5,0.5
		C213.3,331,213.4,330.6,213.8,330.3z M219.5,329.6l-0.4,0.4c-0.5-0.2-0.8-0.6-1-1.1c-0.1-0.5-0.5-0.8-1.1-0.8h1.5
		C219.2,328.3,219.5,328.8,219.5,329.6z M217.2,329.6l0.7,1.1l-0.3,0.4L217.2,329.6z M217.6,336h0.4v0.8L217.6,336z M218.3,339.1
		l-0.4-0.8h0.4V339.1z M216.1,338.3c0.2,0.2,0.4,0.5,0.4,0.8l-0.7,0.4h-0.9L216.1,338.3z M218,341.8c0.3,0.3,0.5,0.7,0.3,1.1
		l-1.5,0.4c0.4-0.7,0.9-1.4,1.5-1.9L218,341l0.3-0.4l0.4,0.4l-0.4,0.4L218,341.8z M216.8,340.2c0.4,1,0.3,1.6-0.5,1.7
		c-0.2,0-0.5,0.1-0.6,0.2c-0.4-0.3-0.4-0.8-0.1-1.3C215.8,340.3,216.3,340.1,216.8,340.2z M214.2,332.6v0.8h-0.4v-0.8H214.2z
		 M212.8,331.3v0.6h-0.6v-0.6H212.8z M213.8,337.6c0.6-0.4,1.1-0.5,1.5-0.4l-1.1,0.9c-0.5,0.2-0.9,0.5-1.2,1
		C213,338.4,213.3,337.9,213.8,337.6z M213,342.2v-0.6h0.6v0.6H213z M214.9,342.5l0.6-0.1l-0.2,0.9h-0.4V342.5z M215.7,349.1v0.3
		l-2.4,0.7c0.3-0.7,0.8-0.9,1.4-0.7C215.1,349.5,215.5,349.4,215.7,349.1l0.3-0.6v0.1L215.7,349.1z M215.3,347.6l-1.2-0.5
		c0.5-0.6,1-1,1.6-1.2c0,0.3-0.1,0.6-0.4,0.8l0.7,0.8l-0.3,0.3C215.6,347.7,215.5,347.7,215.3,347.6z M213,347.1v-0.8h0.8L213,347.1
		z M215.7,350.5v0.4l-0.4-0.4H215.7z M216.8,345.5l2.8,1.7c0.8,0.5,1.8,0.9,2.9,1l1.5,1.4c0.4,0.3,0.7,0.9,0.8,1.6
		c-1.2-1-2.5-1.9-3.6-2.6c-1.2-0.7-2.5-1.4-4-1.9L216.8,345.5z M218,347.8v0.4l-1.2-0.4H218z M217.2,350.5l-0.8-0.8
		c0.3-0.3,0.7-0.5,1.2-0.4C217.7,349.8,217.5,350.2,217.2,350.5z M216.9,351.8l0.9-0.3l-1,0.6l-2.3-0.1L216.9,351.8z M224.8,352.8
		l-2.3-1.1c-0.8-0.4-1.4-0.9-1.9-1.6C222.2,350.7,223.6,351.6,224.8,352.8z M195.4,342.9L195.4,342.9c0.3,0,0.7,0.1,1.1,0.3
		C196.1,343.1,195.7,343,195.4,342.9z M197,343.6c0.5,0.4,1.1,0.6,1.8,0.4l0.2-0.6l-0.2,0.7C198.1,344.2,197.5,344.1,197,343.6z
		 M202.1,346.1c0.4,0.4,0.9,0.7,1.5,1.1c-0.6-0.4-1.1-0.7-1.5-1l-0.7-0.8L202.1,346.1z M262,332l3.1-0.1c0.8,3.4,1.5,6.9,2.1,10.3
		c0.6,3.4,0.9,7,0.9,10.8l-4.9,0.5c0.5-2.1,0.6-4.4,0.1-6.7l-1.3-6.9l-2.6-9.2C260.2,331,261.1,331.4,262,332z M242.3,333.8
		l-0.4,0.4l0.4-1.2V333.8z M240.7,332.6l0.4,0.4l-0.4,0.4V332.6z M238.7,332.6l-0.7,0.1l0.1-0.1l-1.5-1.9c-0.2,0.3-0.5,0.4-0.8,0.4
		c0.1-0.4,0.3-0.8,0.8-1.1c-0.1,0.4,0,0.8,0.3,1.1l1.1,0.1l1.2,0.7C239.3,332.3,239.1,332.6,238.7,332.6z M237.3,335.3
		c0.1-0.4,0-0.7-0.1-0.9c0.1,0.1,0.3,0.2,0.5,0.1C237.8,334.8,237.6,335.1,237.3,335.3z M237.7,336.4c0-0.5,0.2-0.7,0.6-0.7
		c0.4,0,0.7-0.1,0.9-0.4l-0.4-0.4l0.4-0.4l-0.1-0.5l0.5,0.1v1.3c-0.1,0.4-0.3,0.8-0.8,1H237.7z M240.4,335.3
		c0.2-0.3,0.4-0.4,0.7-0.4v0.8L240.4,335.3z M238.8,337.2l1.8,0.6c0.7,0.1,1.1,0.5,1.3,1.3C240.7,338.6,239.7,338,238.8,337.2z
		 M236.9,339.9c0.1-0.5,0.3-0.9,0.8-1l1.1-0.6c-0.3,0.3-0.4,0.5-0.2,0.8l0.6,0.8H236.9z M237.2,337.8v0.6h-0.6v-0.6H237.2z
		 M236.6,341l1-0.1c0.4,0,0.6,0.1,0.9,0.4c0.1,0.8-0.1,1.5-0.8,1.9H237L236.6,341z M243,340.6l-0.4-0.4h0.4V340.6z M241.5,342.1h1.2
		l-0.4,3.5h-0.4c0.5-0.6,0.5-1.2,0.3-1.8L241.5,342.1z M235,341.7l-0.7,0.8v-0.8H235z M236,337.4l-0.9,1.1l0.7-2.5
		C236.3,336.7,236.4,337.1,236,337.4z M235.1,338.7c0.3,0.3,0.4,0.7,0.3,1.1h-0.7L235.1,338.7z M235.1,344l-0.4,0.4
		c-0.4-0.2-0.5-0.5-0.3-0.8l0.7-0.7c0.5,0,0.8,0.3,1,0.7l0.5,1.2C236.3,344.2,235.8,344,235.1,344z M229.1,352.8
		c-0.2-0.5-0.1-0.9,0.2-1l0.9-0.6c1.5-0.1,2.8,0.2,3.8,1.2l-1.7-0.7c-0.7-0.3-1.1-0.1-1.3,0.7c-0.3,0.3-0.6,0.4-0.9,0.4H229.1z
		 M228.6,350.5l2.3-1.2c0.9-0.5,1.9-0.6,3-0.3l3.4-2.7c-0.1,0.5,0.1,0.9,0.4,1.2c0.6-0.4,1.2-0.2,1.9,0.4l0.8,0.7
		c-0.8,0-1.3,0.3-1.6,0.9l-1.1,1.4c0.6,0.4,1.3,0.6,2.1,0.7c0.9,0,1.2,0.4,0.9,1.2l-0.8-0.9c-0.2-0.3-0.6-0.4-1.1-0.2l-0.3,0.3
		c-1-0.4-1.3-0.9-0.9-1.5c0.3-0.7,0.2-1.3-0.3-1.9c-0.3,0.5-0.7,0.5-1,0.3c-0.4-0.3-0.8-0.4-1.3-0.3c-0.9,1.1-1.8,1.6-2.9,1.5
		C231.1,350,229.9,350.2,228.6,350.5z M233.9,351.2l1.6-1.9c0.1,0.3,0.4,0.5,0.7,0.4c0.1,0.5,0,0.9-0.4,1.2l1.2,0.8
		c0.5,0.2,0.5,0.5,0,1.1C235.7,352.8,234.7,352.3,233.9,351.2z M241.2,347.4c0.3-0.1,0.6,0.1,0.7,0.4c-0.2,0.4-0.5,0.5-0.8,0.3
		l-0.7-0.7H241.2z M239.1,344.6v0.6h-0.6v-0.6H239.1z M239.2,343.3v0.7c-0.3,0.1-0.5-0.1-0.7-0.3
		C238.7,343.4,238.9,343.2,239.2,343.3z M240.7,350.5v-0.6h0.6v0.6H240.7z M238.1,352.8c0.4,0.3,0.5,0.7,0.4,1.1
		c-0.2-0.3-0.5-0.4-0.8-0.4L238.1,352.8z M240.8,354.3h-1.2l1.9-1.2C241.5,353.6,241.2,354,240.8,354.3z M228.2,378.6l2.3-11
		l1.5,2.3l-0.4,24.7l-4.9-4.6C226.8,386.1,227.3,382.3,228.2,378.6z M227.1,356.2l5.7-0.4c2-0.2,3.7,0.2,5.3,1.2
		c2.2,0.2,3.8-0.3,4.9-1.5c-0.4,6.2-0.6,12.6-0.5,18.9c0,6.3-1,12.3-2.9,17.9l-0.6,4.1c-0.1,1.4-0.4,2.7-0.9,3.9
		c-1.1-1-2.3-2-3.7-2.9c-1.3-0.9-1.9-2.2-1.6-3.9c0.4-4.1,0.7-8.3,0.7-12.5c0.1-4.3-0.1-8.4-0.4-12.6l-1-2.8c-0.3-1-1-1.9-2-2.5
		l-1.1,1.1l-3.5,20.5L227.1,356.2z M159,303.8c1.9-0.5,3.8-0.9,5.8-1l6-0.6c-0.7,3.8-0.6,7.5,0.2,11c0.8,3.6,2.8,6.5,5.9,8.8
		l-4.9,4.2c-1.6,1.4-3.4,2.4-5.4,3l-4.2,7.3c-1.5,2.5-2.7,5-3.4,7.7c-0.7,2.7-0.5,5.7,0.4,9l2.3,9.5c-2.6-4.2-5.1-8.7-7.4-13.7
		c-2.3-4.9-4.8-9.8-7.4-14.5c0.1-5.5,0.9-10.9,2.3-15.9c1.4-5.1,4-9.7,7.9-13.7L159,303.8z M177.2,379.8L177.2,379.8l0.2-1.2
		L177.2,379.8z M175.9,382.8l1.2-0.7c0.2-0.3,0.3-0.5,0.3-0.7c0,0.2-0.1,0.4-0.3,0.7L175.9,382.8L175.9,382.8z M226.1,402.6l0.1-0.1
		l2.6,2.7L226.1,402.6l-0.3,0.4v-0.1L226.1,402.6z M226.2,407.1l0.8,2.6L226.2,407.1c-1.1-2.2-1.8-4.6-2-7.3l-0.1-1.9l0.2,1.9
		C224.4,402.4,225.1,404.9,226.2,407.1z M229.9,417c-0.4-0.7-0.8-1.5-1.1-2.2c0.3,0.7,0.7,1.5,1.2,2.2H229.9z M233.8,415.5l-0.4,1.2
		l0.3-1.2c-0.3-0.9-0.6-1.8-1-2.6C233.1,413.7,233.4,414.6,233.8,415.5z M225.8,439.8v0.1l-0.3,0.7L225.8,439.8z M221.2,506.3
		L221.2,506.3h0.4c0.4,0.1,0.7,0.2,1,0.5c-0.3-0.2-0.6-0.4-1-0.5H221.2z M314.1,327c0.5,0.6,1.2,0.9,1.9,1.1
		c1.6,0.7,2.9,0.6,3.8-0.4l2.5-2.9c0.8-0.9,2-0.7,3.6,0.6c-0.1,0.5,0,0.9,0.3,1.2c-1.1,0.3-1.6,0.9-1.7,1.7l0.2,2.4
		c0.1,0.8-0.1,1.6-0.7,2.3c-1.8,1.4-2.9,3-3.5,5c-2-1.1-4.1-2.2-6.2-3.4c-2-1.2-4.4-1.4-7.1-0.4l-3.8,2.2v-1.1
		c1.6-1.6,3.1-3.3,4.3-5.1c1.3-1.9,2.9-3.3,4.9-4.4L314.1,327z M289.8,347.5l-0.4-0.4l-3.8,4.9c-1-2-2.5-3.4-4.4-4.1
		c-1.9-0.8-3.7-1.6-5.3-2.5c-1.7-0.9-2.6-2.6-2.9-5.1c0.6-0.6,1.3-0.9,2.2-0.9c0.9,0.1,1.7,0.2,2.4,0.5c2.9,0.5,5.8,0.5,8.6,0.1
		c2.9-0.4,5.6-1.1,8.1-2c2.3,0.2,4.8,0.2,7.3,0c2.6-0.3,5-0.2,7.3,0.1c2.3,0.3,4.3,1.4,5.9,3.3l14.1,15.2c0.7,1.1,1.1,2.4,1.1,3.8
		c0.1,1.5,0,2.8-0.3,4.2c-2.5,3-5.2,5.7-8.2,8.2l-8.9,7.8c-2.9,2.4-5.5,3.3-8,2.9c-2.4-0.4-4.7-1.7-6.9-3.8l-6.4-6.5
		c-2.2-2.3-4.3-4-6.5-5.1l-4.5-5.8c1.8-2.3,3.4-4.8,4.9-7.3L289.8,347.5z M336.2,370.3c0.7,0.4,1.3,0.6,1.8,0.8
		c0.6,0,1.1-0.5,1.6-1.6l2.8,11.1c1,3.6,1.7,7.4,2.1,11.3c-1.7,1.4-3.5,2.4-5.4,3.1c-2,0.7-3.8,1.6-5.6,2.6l0.7-27.7
		C334.9,369.7,335.6,369.9,336.2,370.3z"/>
	<path class="st0" d="M268.3,90.3c1.5,0.1,2.8-0.3,4-1.2c-2.3-2.2-4.8-3.6-7.6-4.3l-8.8-1.4c-6.3-0.3-12.8-0.4-19.4-0.3
		c-6.5,0.1-12.4,1.7-17.4,4.9c1.6,0.7,3.2,1.4,4.9,1.9c6.4-1.4,12.9-1.9,19.8-1.5l20.1,1.1L268.3,90.3z"/>
	<path class="st1" d="M273,105.8v1.5c1.3,1.3,2.6,2.4,4.1,3.2s2.9,1.7,4.3,2.9l1.4,1.9c0.5,0.6,0.6,1.2,0.5,1.9l-4-3.9
		c-1.4-1.3-3-2-4.7-2.2l2.2,1.9l-1.3,0.1l-1.4-0.9c-0.1,0.5,0,0.8,0.2,1.1l0.6,0.8c2.6,0.5,4.6,1.9,6.1,4.2c1.8,1.1,2.9,2.6,3.4,4.6
		l-0.5-2.8c-0.1-0.9,0.2-1.8,0.9-2.5c-0.7-3.1-2.2-5.3-4.8-6.6C277.3,109.6,275,107.9,273,105.8z"/>
	<path class="st1" d="M281.5,120.2c-0.5-0.6-0.7-1.2-0.5-1.9l-0.4,0.4l-1.8-1.4c-0.7-0.5-1.3-1-2-1.3c2.1,2,4,4,5.7,6.1
		C282.4,121.4,282.1,120.8,281.5,120.2z"/>
	<path class="st2" d="M269.5,105l0.3,2.8c0.1-0.6,0-1.4-0.2-2.1L269.5,105z"/>
	<path class="st2" d="M269.3,103.5V102l-0.5-0.7L269.3,103.5z"/>
	<path class="st1" d="M278.4,106c-2.1-1.7-4.3-3-6.5-4c1.2,2,2.9,3.6,5.2,4.7c2.2,1.1,3.9,2.7,5,4.8l0.5-0.4l0.7,0.8
		C282.1,109.6,280.5,107.6,278.4,106z"/>
	<path class="st2" d="M269.6,109.2l0.1-0.2c-1.3,0.2-2.4,0.7-3.5,1.3C268.2,110.5,269.3,110.2,269.6,109.2z"/>
	<path class="st2" d="M271.2,113.7v-0.3c-1.3-0.8-2.4-0.7-3.2,0.2L271.2,113.7z"/>
	<path class="st3" d="M271.5,113.9l-0.3-0.2l-3.2-0.1c-0.9,0.5-1.6,1.2-2.2,1.9l-0.3,0.5l-0.1,0.2h1.2l1.2,0.5l0.6,0.7
		c0.3,0.4,0.4,0.9,0.5,1.6c0,0.6,0.2,1.2,0.6,1.6c0.3,0.4,0.8,0.7,1.4,0.9h0.2L271.5,113.9z"/>
	<path class="st2" d="M267.8,116.7l-0.1,0.5l0.7,0.2L267.8,116.7z"/>
	<path class="st2" d="M270.8,122.4l0.1-0.9c-0.6-0.2-1.1-0.5-1.4-0.9l0.5,0.8c-1.5,0.2-2.8,1-3.9,2.2c-1.1,1.2-2.5,1.9-4.1,1.9
		l-0.8-0.1c-0.4,0.9-1.2,1.3-2.3,1.4l-3.3,0.3l-1.2-4.7c-0.3-1.7-1.3-3-3-4c-0.7-0.2-1.3-0.1-1.8,0.5c-0.5,0.5-1,0.4-1.6-0.1V118
		l-0.4,0.1c0.3,0.9,0.2,1.8-0.3,2.7c-0.6,0.8-1,1.7-1.2,2.7l1.7,5.1c-0.2-0.4-0.6-0.8-1.1-1c-1-0.6-1.6-1.5-1.7-2.6
		c-0.9-0.5-1.5-1.1-2-1.9c-0.5-0.7-1.1-1.3-1.8-1.5v-0.8l-0.5,0.6c1.5,1.2,2.7,2.6,3.9,4.2l3.4,4.6c0.7,0.1,1.1,0.5,1.1,1.1v1.7h0.1
		l-0.5,2.8c-0.2,0.8,0.1,1.7,0.9,2.5c-0.3,0.2-0.5,0.4-0.4,0.7c1.6,0.5,3,0.3,4.3-0.6l4-2.4c0.1-1-0.2-1.9-0.8-2.7
		c-0.7-0.9-0.7-1.6,0.1-2.2c0.6,0.3,1,0.9,1.3,1.6l0.6,2.2l4.1,4.9l-4.1-3.8c-0.4,0.2-0.5,0.4-0.4,0.7v0.8c0.3,0.5,0.7,0.8,1.1,1
		l1.2,0.9l-0.4,0.4l3.5,2.8c1.3,0.8,1.9,2,1.8,3.7l-0.8-0.8c-0.5,1.1-0.5,2.3,0,3.4c-0.8,0.3-1.2,0.9-1.3,2c-0.1,1-0.4,1.8-0.9,2.6
		c-0.5,0.9-1.1,1.8-1.9,2.6c0.2-1.4,0.7-2.8,1.5-4.1c0.7-1.4,0.6-2.8-0.4-4.2l-1.4-1.3l-1.6,0.1c-0.8-1.3-2-2.2-3.5-2.6
		c-0.8,0.7-1.9,1.2-3.1,1.4c-1.2,0.3-2.3,0-3.3-0.7c-0.8-0.6-1.6-0.9-2.6-1c-1,0-1.9,0.2-2.7,0.7c-0.7,0.7-1.4,1.2-2.1,1.5
		c-0.7,0.2-1.1,0.8-1.3,1.9c-0.6-0.2-1.1-0.6-1.6-1.2l-4.1,1.1c-1.6,0.4-2.8-0.1-3.8-1.4l-0.4,0.3c0.5,2.1,1.4,3.9,2.6,5.6
		c1.3,1.7,2.3,3.5,3.1,5.5c-0.8-0.5-1.5-1.1-2.2-2l-1.6-2.6c-1-2.3-1.9-4.9-2.7-7.5c-0.8-2.7-0.4-5.2,1.2-7.7l3.8-3.4
		c-1.7,1.5-2.9,3.3-3.6,5.3c-0.8,2-1.1,4-1,6.1l0.4,0.4c0.9-0.9,1.6-2,2.1-3.3c0.4-1.2,1.5-1.7,3.2-1.3l0.4-0.5h-1.2
		c0-1.4,0.6-2.6,1.7-3.6c1.1-1.1,2-2.1,2.8-3.2c0.7-1.1,0.6-2.5-0.4-4.2l-1.9-1.9l-5.7,0.5c-1.9,0.1-3.7,0.5-5.3,1.4
		c0.3,1.7,1,3.4,2,5c0.9,1.6,1.2,3.3,0.7,5.2c-0.6,0.2-1,0-1.1-0.4c-0.1-0.5-0.4-0.8-0.8-1.1l-0.8,0.8c2,6.7,3.8,13.6,5.3,20.5
		l-0.6-0.8l6,7.9l4,4c1.4,1.2,3.1,1.8,5.1,1.7c3.3,0.4,6-0.6,8.1-2.9l6-6.9c2.8-4.3,5.5-8.6,8-13c2.4-4.4,3.3-9.4,2.6-15.2l3-3.1
		c1-1,1.4-2.4,1.2-4.1c-1.6-0.3-2.3,0.1-2.3,1.2c-0.1,1.1-0.6,1.9-1.5,2.6C270.1,128.5,270.1,125.4,270.8,122.4z M266.5,125.9
		c1-0.3,1.7-1,2.2-2.1c-0.2,0.8,0,1.6,0.6,2.3c0.3,0.2,0.4,0.5,0.4,0.8l-1.5-1.5c-0.6,0.5-0.6,1-0.1,1.5c0.6,0.4,0.8,0.9,0.8,1.5
		l-1.9-1.9c-0.3,0.3-0.4,0.7-0.3,1.1c-1.1-0.5-2.2-0.8-3.5-0.7h-3.8c1-0.6,2.2-0.8,3.5-0.8L266.5,125.9z M267.1,142.4L267,144
		c-1.2-2.6-2.7-5.1-4.5-7.6c0.7,0.2,1.2,0.7,1.5,1.3l1.1,1.7l0.4-4.9l1.2,3c0.5,1.1,0.5,2.2,0,3.4
		C267,141.4,267.1,141.8,267.1,142.4z M253.8,133.9c-0.1,1.4-0.2,2.6-0.4,3.6c-0.6-2.6-0.6-5.1,0-7.6
		C253.6,131.1,253.8,132.4,253.8,133.9z M253.3,148.9c1-0.7,2-1.2,3.1-1.5c-0.9,1.2-1.4,2.6-1.6,4.2c-0.3,1.5-1.3,2.6-3,3.4
		c-0.6-0.3-0.9-0.8-0.9-1.6c0-0.7-0.3-1.2-1-1.5c-0.3,0.5-0.4,0.9-0.4,1.5v1.6c-1.4,0.1-2.3-0.4-2.8-1.6c-0.4-1.1-1.2-2-2.1-2.6
		c-0.1-0.6-0.1-1.3,0.1-1.8c0.2-0.6,0.7-0.9,1.4-0.9c1.1,0.5,2.3,0.8,3.5,1.1L253.3,148.9z M248.1,163c0.8-0.8,1.4-0.6,1.8,0.7
		c0,0.3,0.1,0.6,0.4,0.8c-0.5,0.3-0.8,0.7-0.9,1.2c-0.2,0.4-0.6,0.6-1.4,0.3c-0.5-0.7-1.2-1.2-1.9-1.5
		C246.7,164.3,247.4,163.7,248.1,163z M229,137.5l-3-7.2l3.4,5.3l2.3-3L229,137.5z"/>
	<path d="M268.7,123.8c-0.5,1.1-1.2,1.8-2.2,2.1l-3.6,0.2c-1.3,0-2.5,0.2-3.5,0.8h3.8c1.3-0.1,2.4,0.2,3.5,0.7
		c-0.1-0.4,0-0.8,0.3-1.1l1.9,1.9c0-0.6-0.2-1.1-0.8-1.5c-0.5-0.5-0.5-1,0.1-1.5l1.5,1.5c0-0.3-0.1-0.6-0.4-0.8
		C268.7,125.4,268.5,124.6,268.7,123.8z"/>
	<path d="M267,144l0.1-1.6c0-0.6-0.1-1-0.4-1.5c0.5-1.2,0.5-2.3,0-3.4l-1.2-3l-0.4,4.9l-1.1-1.7c-0.3-0.6-0.8-1.1-1.5-1.3
		C264.3,138.9,265.8,141.4,267,144z"/>
	<path d="M253.4,137.5c0.2-1,0.3-2.2,0.4-3.6c0-1.5-0.2-2.8-0.4-4C252.8,132.4,252.8,134.9,253.4,137.5z"/>
	<path d="M256.4,147.4c-1.1,0.3-2.1,0.8-3.1,1.5l-3.7,0.3c-1.2-0.3-2.4-0.6-3.5-1.1c-0.7,0-1.2,0.3-1.4,0.9
		c-0.2,0.5-0.2,1.2-0.1,1.8c0.9,0.6,1.7,1.5,2.1,2.6c0.5,1.2,1.4,1.7,2.8,1.6v-1.6c0-0.6,0.1-1,0.4-1.5c0.7,0.3,1,0.8,1,1.5
		c0,0.8,0.3,1.3,0.9,1.6c1.7-0.8,2.7-1.9,3-3.4C255,150,255.5,148.6,256.4,147.4z"/>
	<path d="M249.9,163.7c-0.4-1.3-1-1.5-1.8-0.7c-0.7,0.7-1.4,1.3-2,1.5c0.7,0.3,1.4,0.8,1.9,1.5c0.8,0.3,1.2,0.1,1.4-0.3
		c0.1-0.5,0.4-0.9,0.9-1.2C250,164.3,249.9,164,249.9,163.7z"/>
	<path d="M226,130.3l3,7.2l2.7-4.9l-2.3,3L226,130.3z"/>
	<path class="st2" d="M265.1,116h0.4l0.3-0.5L265.1,116z"/>
	<path class="st2" d="M248,118c0.9-0.2,1.8-0.8,2.6-1.7c0.8-1,1.7-0.9,2.7,0.2v-0.9c-1-0.7-1.9-0.5-2.7,0.4
		C249.8,116.9,248.9,117.6,248,118z"/>
	<path class="st1" d="M269.3,111.8l-1.6-0.1c-0.8-0.2-1.4,0.1-1.8,0.7l0.3,0.4c-0.5,0.7-1.2,1.2-1.9,1.5c-0.3-0.2-0.4-0.4-0.3-0.7
		l-3.1,1.1c-0.5,0.1-0.9,0.3-1.3,0.8c-0.4,0.4-0.9,0.4-1.3,0c-0.3,0.2-0.5,0.4-0.4,0.7c1.7,0.5,3.2,0.4,4.5-0.3
		c1.3-0.8,2.5-1.6,3.7-2.5C267,112.6,268.1,112.1,269.3,111.8z"/>
	<path class="st1" d="M277.3,122.2c1.7,1.1,3.1,2.4,4.1,3.7l0.4-0.4c-2.1-2.8-4.4-5.6-6.9-8.3C274.7,119.3,275.5,121,277.3,122.2z"
		/>
	<path class="st1" d="M274.6,137.3l-0.5,0.4l1.2,1.5c-0.2,0.8-0.1,1.4,0.2,2c0.4,0.6,0.3,1.2-0.2,1.8l-1.2-2.2
		c0.3,0.9,0.5,2,0.5,3.1c0,1.2-0.4,2.2-1.2,2.9c0.9-0.2,1.4-0.7,1.6-1.5c0.2-0.7,0.7-1.3,1.5-1.5l-0.5-3.4
		C275.8,139.2,275.4,138.2,274.6,137.3z"/>
	<path class="st4" d="M268.5,155.9c-0.3-0.4-0.7-0.7-1.2-0.7c-0.2,3.2-0.9,6.3-2.2,9.1c-8,8.7-16.6,15.8-25.9,21.3
		c-1.2,0.2-2.3-0.2-3-1.2c-2.3-3.7-4.8-7.2-7.7-10.6c-2.9-3.4-5.2-7.1-6.8-11l0.6-2.8c0.3-1,0.3-1.8-0.2-2.5l-1.1,6.4l-0.4-0.4
		l-0.4,0.4c1.1,2.2,2,4.5,2.7,6.9l0.6,2.9c0.3,0.9,0.3,1.9,0.1,2.8c-1-1-1.6-2.2-1.9-3.6c-0.2-1.5-0.8-2.7-1.9-3.7l-1.9,25.9
		c1.9,1.1,4,2.2,6.1,3l6.9-9.5c0.1-1.9,1-3.3,2.6-4.2c2.6,0.6,4.6,1.8,5.9,3.7c1.4,1.8,2.6,3.9,3.5,6.1c1,2.3,2.2,4.4,3.5,6.2
		c3.9,0.2,7.6-0.2,11.1-1.1l9.8-21.3l1.3-11C269.1,163.4,269,159.7,268.5,155.9z M224.6,176.3v0.6H224v-0.6H224.6z"/>
	<path d="M224.6,176.9v-0.6H224v0.6H224.6z"/>
	<path class="st5" d="M276,160.4c-1-1.6-2.4-2-4.1-1.4c0.6,3.2,0.6,6.3,0.1,9.4l-1.2,9.2l-1.2,1.1l-0.4-0.4
		c-0.4,5.3-1.3,10.3-2.6,15.2L254,240.3l-0.6,17.5c-0.2,5.8-0.2,11.6,0.3,17.4l6,17.5c2.6-11.9,5.9-23.6,10-34.9
		c4.1-11.3,9.4-22.1,15.9-32.3c-3.5-3.5-7-6.8-10.7-9.9v-0.8l8.4-5.3l-2.3-7.6c-1-4-1.4-8.1-1.1-12.3c0.2-4.3,0.5-8.6,0.7-12.8
		c0.3-4.3-0.2-8.5-1.5-12.5C278,163.2,276.9,161.9,276,160.4z"/>
	<path class="st6" d="M283.4,180.8v1.1c0,3.7-0.2,7.4-0.5,11.3c-0.4,1.9-0.3,4,0.5,6.2l2.1,6.4c0.6,2.2,0.5,3.9-0.2,5.5
		c-0.8,1.5-2.8,2.6-6.2,3.2l9.9,7.5l15.2-6v-8.8c1.8-2.5,3.6-5.1,5.3-7.7l3.3-4.1c-1.8-1.2-4.7-2.7-8.6-4.7L283.4,180.8z"/>
	<path class="st7" d="M282.9,170.7l0.5,10.1l20.8,9.9c3.9,2,6.8,3.5,8.6,4.7l2.7-2.5l0.2-0.1l2.2-1.3l0.8-0.3c1.8-0.7,3.8-0.9,6-0.7
		c-6.6-3.7-13.4-7.2-20.4-10.7C297.4,176.2,290.2,173.2,282.9,170.7z"/>
	<path class="st5" d="M329.3,193.9h-1.2c-1.8-0.8-3.8-1-5.9-0.4l-6.2,1.6l-4.9,6.2c-1.7,2.1-3.1,4.4-4.2,6.7
		c-0.5,2.1-0.6,4.4-0.3,6.8c0.2,2.4-0.4,4.5-2,6.2l-11.8,4.5c-3,0.1-5.2,1.2-6.5,3.1c-1.3,1.9-2.3,4-3.1,6.5
		c-0.7,2.4-1.9,4.5-3.3,6.4c1.2,0.6,2.2,1.5,2.8,2.9l1.7,3.9l11.4-0.5c3.9-0.1,7.6,0.3,11.1,1.2c-0.5-1.6-0.1-2.7,1.2-3.2
		c1.2-0.5,2.4-1.1,3.3-1.7c-0.1-2-0.4-3.9-0.8-5.8c-0.5-1.8-0.6-3.7-0.3-5.6c1.2,2.6,2.2,5.3,3,8l11.4,38.7c0.8,1.8,0.3,3.4-1.5,4.6
		c-0.2,1.1-0.1,1.9,0.3,2.7c0.5,0.7,0.9,1.4,1.2,2.2c1.8,5.4,3.8,10.4,6.1,15.2l0.6-1.6c0.2-0.5,0.3-1.1,0.2-1.8l-4.5-7.7
		c-1.5-2.6-2.3-5.5-2.4-8.6c0.5-0.8,1-1.2,1.8-1.4l2-0.5c-0.7-1.6-1.2-3.2-1.5-4.9c-0.3-1.8-1-3.3-2.3-4.6
		c-2.5-7.2-4.9-14.4-7.2-21.7c-2.2-7.3-4.7-14.5-7.2-21.6c-0.9-5.6-0.7-11,0.4-16.1c1.1-5.1,3.4-9.7,6.8-13.6
		c0.7,0.5,1.2,1.1,1.5,1.7c0.4,0.7,0.9,1.2,1.5,1.7l-0.3,3.8l6.3,1.9c2.1,0.7,4,1.7,5.8,3.1c2.9,4.4,5.2,9.1,6.9,14l-14.9-1.5
		l19,10.3v1.5c-2.7,1.7-4.9,3.8-6.6,6.4c-1.8,2.6-3.3,5.1-4.8,7.7l13.7,35.7l-1.9,1.9l-2.6,1.4c-1,0.5-1.8,0.4-2.7-0.3
		c-0.6-2-0.6-3.9,0-5.7l1.9-5.3c-2,1.1-3.4,2.6-4,4.4l-2.1,5.5c0.5,1,1.1,2,1.9,3c0.8,0.9,1.8,1.5,3.1,1.5c2.9-1.1,5.9-2.4,8.8-4
		c2.9-1.5,5.3-3.9,7.1-7c0.9,1.2,1.9,2.1,3.1,2.8c1.3,0.7,1.7,1.9,1.5,3.7c-0.8,0.4-1.6,1.1-2.3,1.9l-2.3,1.9l3,0.2l2.7,0.9
		c0.9,0.2,1.2,0.5,1,1.1l-0.6,1.6l-5.6-1.1c-2-0.3-3.8,0-5.4,1.1c-0.6,1.6-1.7,2.5-3.3,2.8l-4.7,0.6h3.4c3.6-0.6,6.8-0.1,9.6,1.5
		c2.7,1.6,5.3,3.7,7.6,6.2c2.4,2.4,4.7,4.7,7.1,6.7l-0.3,0.4l-16.5-3.9c-5.4-1.3-10.9-2.8-16.2-4.4l-0.9,1.4c-0.4,0.4-0.5,1-0.3,1.6
		c4.3,1.3,7.7,3.8,10.3,7.3c2.7,3.6,5.2,7.1,7.6,10.6l-0.4,0.3c-3.6-1.7-7.4-3.1-11.4-4l-11.8-3.2l-1.1,0.8l4.6,1.5
		c3.9,2.3,7.6,5.2,11.3,8.6c3.6,3.5,6.7,7,9.2,10.8c-0.8,0.4-1.5,0.3-2-0.4l-1.8-1.9c-3.9,5-7.6,10.1-11,15.2c1.2,1.1,2,2.4,2.5,3.9
		l1.6,4.1c5.3-6.2,10.4-12.6,15.3-19.2c4.9-6.6,10.8-12.3,17.8-16.9l0.8-5c-0.7-12.6-2.9-24.5-6.7-35.8
		c-3.9-11.3-8.1-22.4-12.7-33.3C350.6,231.7,341.1,212.3,329.3,193.9z M373,299.8h0.6v0.6H373V299.8z M362.7,316.7l2.9,4.3
		c1,1.4,1.8,2.9,2.4,4.4c-2.8-2.5-5.8-4.8-8.9-6.9l-8.9-6.4c2.1,0.6,4.2,1.5,6.2,2.5C358.3,315.7,360.5,316.4,362.7,316.7z"/>
	<path d="M373.6,299.8H373v0.6h0.6V299.8z"/>
	<path d="M365.6,321l-2.9-4.3c-2.2-0.3-4.4-1-6.3-2.1c-2-1-4.1-1.9-6.2-2.5l8.9,6.4c3.1,2.1,6.1,4.4,8.9,6.9
		C367.4,323.9,366.6,322.4,365.6,321z"/>
	<path class="st6" d="M282.6,219l1.4,1.5c1.1,1.2,2.4,2.3,3.8,3L282.6,219z"/>
	<path class="st6" d="M304.2,218.2v-0.3l-15.7,6l0.1,0.1c2.6-1.1,5.2-2,7.9-2.8C299.1,220.4,301.7,219.4,304.2,218.2z"/>
	<path class="st6" d="M287.8,223.5l0.5,0.5l0.2-0.1L287.8,223.5z"/>
	<path class="st5" d="M306.1,252.8c-3-1.4-6.3-2.2-10-2.2l-10.9-0.1l0.4,1.6c0.7,1,1.3,2.2,1.8,3.6c0.5,1.3,1.4,2.1,2.7,2.4l2,1.5
		c0.5,0.5,1,1.2,1.1,2c-1.2,0.6-1.6,1.2-1.1,1.9c0.4,0.7,0.8,1.4,1.1,2.2c2.2-0.8,4.3-1.7,6.6-2.4c2.1-0.8,4.5-1.1,7.1-1
		c0.1-1.7,0.1-3.3-0.2-4.8L306.1,252.8z"/>
	<path class="st5" d="M279.6,263.3c2.3,0.4,4.4,1.2,6.4,2.5c-1.5-2.4-3.1-4.7-5-6.9l-0.4,0.4c-1.5,0-2.8-0.6-3.9-1.9l-2.6-3.4
		l-1.1,7.6L279.6,263.3z"/>
	<path class="st5" d="M270.4,261.9c-0.5,2.2-1.1,4.3-2,6.3c-0.8,2.1-1.2,4.1-1.1,6.3c-2.1,7.2-4,14.6-5.7,22
		c0.7,3.8,1.8,7.4,3.2,10.8c1.5,3.5,2.8,7,4.1,10.5c1.5,3.7,4,7.1,7.2,10.2l9.5,8.8l0.4-0.4l-7.6-9.2c-2.5-3-4.8-6.2-6.9-9.4
		l0.4-0.4l18.2,17.9c0.2-0.3,0.5-0.5,0.8-0.4c0.1-0.9,0-1.6-0.4-2.3c1.1-0.6,2.4-0.8,3.8-0.7v-2c-0.1-0.6-0.5-1.1-1.2-1.5
		c0-2.3,0.5-4.4,1.3-6.4c0.7-2,1.4-4,1.8-6.1c-0.8-1.7-1.9-3.3-3.5-4.7l-4.5-4c-2.1-2.7-4.6-5.2-7.2-7.6c-2.7-2.5-4.2-5.4-4.5-8.8
		c0.4-1.1,1.1-1.8,2.1-2l3.2-0.3V287l-11.8-8.7c0.3-0.5,0.7-0.7,1.1-0.8l46.8,25.5l-1.2-4.2c-4.9-2.2-9.8-4.3-14.9-6.2
		c-5-2-9.7-4.6-13.9-7.9l8.1,0.4c2.8,0.3,5.4,0.9,7.8,1.9v-0.7l-16.3-17.1c-2.6-2-5.4-3.3-8.5-4.1
		C275.9,264.3,273,263.3,270.4,261.9z M263.6,293.3c0.6-0.6,1.4-1.1,2.2-1.3c1.4,0.3,2.8,0.7,4.1,1.2c1.4,0.5,2.4,1.5,3.1,3
		c0.3,1.5-0.2,2.8-1.5,3.8l-2.7,0.5c-0.8,0.2-1.7,0-2.6-0.5c-1.7-1-2.8-2.4-3.4-4.2C262.6,294.7,262.9,293.9,263.6,293.3z
		 M282.1,325c0-1.4,0.6-2.5,2-3c1.8,0.2,3.3,1.1,4.5,2.6c1.2,1.5,2.1,3.1,2.7,4.6c0.3,1,0.2,1.7-0.6,2.1l-2.1,0.9
		c-1.5-0.7-2.7-1.8-3.8-3.1C283.7,327.8,282.8,326.4,282.1,325z"/>
	<path d="M265.8,292c-0.8,0.2-1.6,0.7-2.2,1.3c-0.7,0.6-1,1.4-0.8,2.5c0.6,1.8,1.7,3.2,3.4,4.2c0.9,0.5,1.8,0.7,2.6,0.5l2.7-0.5
		c1.3-1,1.8-2.3,1.5-3.8c-0.7-1.5-1.7-2.5-3.1-3C268.6,292.7,267.2,292.3,265.8,292z M264.7,296.2c-0.3-1.3,0.1-2,1.1-2.3l3.6,0.3
		c1.1,0.3,1.8,1.1,2.1,2.3c0.1,0.8-0.1,1.5-0.7,1.9c-1.3,0.7-2.4,0.6-3.3,0L264.7,296.2z"/>
	<path class="st5" d="M265.8,293.9c-1,0.3-1.4,1-1.1,2.3l2.8,2.2c0.9,0.6,2,0.7,3.3,0c0.6-0.4,0.8-1.1,0.7-1.9c-0.3-1.2-1-2-2.1-2.3
		L265.8,293.9z"/>
	<path d="M284.1,322c-1.4,0.5-2,1.6-2,3c0.7,1.4,1.6,2.8,2.7,4.1c1.1,1.3,2.3,2.4,3.8,3.1l2.1-0.9c0.8-0.4,0.9-1.1,0.6-2.1
		c-0.6-1.5-1.5-3.1-2.7-4.6C287.4,323.1,285.9,322.2,284.1,322z M284.2,326l-0.6-1.7c1-1.1,2-1.2,3-0.2l2.4,2.9l0.6,1.4
		c0.2,0.4,0.3,1,0.2,1.6c-0.9,0.2-1.7,0.1-2.4-0.6l-2.2-2.1C284.7,327.1,284.4,326.6,284.2,326z"/>
	<path class="st5" d="M283.6,324.3l0.6,1.7c0.2,0.6,0.5,1.1,1,1.3l2.2,2.1c0.7,0.7,1.5,0.8,2.4,0.6c0.1-0.6,0-1.2-0.2-1.6L289,327
		l-2.4-2.9C285.6,323.1,284.6,323.2,283.6,324.3z"/>
	<path class="st4" d="M290.9,261.2v-0.8l-1.1-0.7L290.9,261.2z"/>
	<path class="st2" d="M265.8,99.6l-1.2-0.3l2.9,1L265.8,99.6z"/>
	<path class="st2" d="M227.8,104l0.4-0.8c0-0.6-0.2-1.2-0.4-1.7C228,102.4,228,103.2,227.8,104z"/>
	<path class="st2" d="M226.8,106.4l-0.1,0.1l-1,1.8v0.6L226.8,106.4z"/>
	<path class="st2" d="M231.6,98.9l-1.4,0.1l14,1.1c2.5,0.2,4.8,0.2,7.2,0L231.6,98.9z"/>
	<path class="st1" d="M243.2,113.5h0.4l-4.1-2.7c-1.5-1.1-3.1-1.7-4.8-1.8c0.9,1.3,1.9,2.1,3.1,2.4c1.3,0.2,2.4,0.8,3.4,1.8
		C241.7,113.5,242.4,113.6,243.2,113.5z"/>
	<path class="st1" d="M234.7,109h-0.2H234.7L234.7,109z"/>
	<path class="st2" d="M240.8,116.3l0.4-0.1c-0.3-0.9-0.7-1.3-1.3-1.2l-3.2,0.1c0.6,0.6,1.2,0.8,2,0.7c0.9-0.2,1.7,0,2.4,0.3
		L240.8,116.3z"/>
	<path class="st2" d="M237.1,114.7h0.4c0.5,0.1,1-0.1,1.4-0.4l-3.7-2.5h-1.6l2.1,0.9c0.8,0.3,1.6,0.8,2.4,1.5L237.1,114.7z"/>
	<path class="st4" d="M240.3,117.5c-0.5-0.1-0.9,0.2-1,1h1.9C241.2,118,240.9,117.7,240.3,117.5z"/>
	<path class="st2" d="M240.9,119.4c-0.4,0.3-0.8,0.3-1.2,0.3l-7.8-0.4c1.4,0.5,2.8,0.7,4.5,0.7l5.1-0.1l-0.1,0.3l0.5-0.5
		C241.6,119.2,241.2,119.2,240.9,119.4z"/>
	<path class="st2" d="M228,112.8c0.8,0.1,1.6,0,2.4-0.5c0.5-0.3,1-0.5,1.5-0.6h-1c-0.4,0.4-0.9,0.6-1.5,0.7L228,112.8z"/>
	<path class="st2" d="M230.5,109.3l-0.8,0.9c1.1-1,2.4-1.8,3.9-2.3l2.5,0.2l-1-0.3C233.6,107.4,232,107.9,230.5,109.3z"/>
	<path class="st2" d="M228.4,112l-0.6,0.7h0.1L228.4,112z"/>
	<path class="st2" d="M230.4,117.4l-0.7,1c0.2,1.7,1.1,3,2.7,3.8l0.1-0.3l-1.3-1C230.1,120.1,229.8,118.9,230.4,117.4z"/>
	<path class="st2" d="M231.6,119.3h-0.3l0.5,0.7L231.6,119.3z"/>
	<path class="st4" d="M232.4,117.4l1.9,0.8v-0.4c-0.2-0.3-0.5-0.5-0.8-0.4H232.4z"/>
	<path class="st2" d="M235,116.2l-2.1-0.1c-0.8,0-1.5,0.3-2,0.8L235,116.2z"/>
	<path class="st2" d="M242.3,132.8h-0.1c-0.5,0.6-0.5,1.3,0.1,2.1l0.4,0.3C242.2,134.6,242.1,133.8,242.3,132.8z"/>
	<path class="st2" d="M266.2,110.4l-3.1,2.2C264.3,112.4,265.4,111.6,266.2,110.4z"/>
	<path class="st2" d="M257.1,120.3h1.1l-1.1-0.1V120.3z"/>
	<path class="st4" d="M265.5,118.9c-0.4-0.4-0.9-0.5-1.4-0.3c-0.5,0.1-0.8,0.5-0.9,1.1C264.3,119.8,265.1,119.5,265.5,118.9z"/>
	<path class="st2" d="M253.5,113.1l-0.4,0.9c-0.3,0.5-0.2,1.1,0.2,1.5l-0.1-0.7c-0.1-0.5,0-1.1,0.5-1.7H253.5z"/>
	<path class="st2" d="M252.7,113.1h-0.2H252.7L252.7,113.1z"/>
	<path class="st2" d="M248.7,113.8c0.4-0.4,0.6-0.9,0.6-1.4c0-0.6,0.2-0.9,0.6-1v-0.2C249,111.9,248.6,112.7,248.7,113.8z"/>
	<path class="st2" d="M249.9,113.6c0.2,0.2,0.4,0.3,0.6,0.3l-0.2-0.9C250.3,113.2,250.1,113.4,249.9,113.6z"/>
	<path class="st2" d="M255.4,117.6l-0.2-1.1l0,0L255.4,117.6z"/>
	<path class="st2" d="M264.7,120.6l1.1,0.1c0.3,0.2,0.4,0.4,0.4,0.7c0.1-0.3-0.1-0.6-0.4-0.8H264.7z"/>
	<path class="st2" d="M265.8,122.5l0.2-0.4l-0.3,0.5L265.8,122.5z"/>
	<path class="st2" d="M261.9,123.8l1.1-0.1h-1.7L261.9,123.8z"/>
	<path class="st2" d="M257.8,123.7l0.7,0.4l-0.5-0.4H257.8z"/>
	<path class="st1" d="M225.2,106.6c-0.3-0.2-0.5-0.5-0.4-0.8c0.9-0.9,1.6-2,1.9-3l-2.1,2.1c-0.8,0.8-1.6,1.5-2.5,2
		c0.3,0,0.6,0.1,0.8,0.4l-2.3,2.9c-0.8,1-1.6,1.8-2.6,2.4l0.3,0.4c-4.5,2.4-8.9,5.3-13.3,8.8v1.1l1.6-1.9c0.2,0.9,0.1,1.8-0.3,2.7
		c-0.5,0.9-0.7,1.9-0.5,3c1.5,0.7,2.8,0.3,3.7-1c0.8-1.4,1.7-2.6,2.8-3.6c0.6,0.2,1,0.6,1.3,1.2l0.9,1.5v-1c0-0.4,0.1-0.7,0.4-0.9
		c0.9-0.2,1.4,0,1.7,0.6l1,1.7c-0.1-2.4,0.3-4.5,1.4-6.4l3.5-5.4c1.3-1.8,2.3-3.7,3.1-5.7l1-1.4c-0.3-0.2-0.5-0.2-0.7,0
		C225.6,106.5,225.4,106.5,225.2,106.6z M222.5,110.7c-1.3,2-2.9,3.9-4.8,5.6c-1.9,1.8-3.8,3.2-5.9,4.3
		C215.8,117.8,219.3,114.5,222.5,110.7z"/>
	<path d="M217.7,116.3c1.9-1.7,3.5-3.6,4.8-5.6c-3.2,3.8-6.7,7.1-10.7,9.9C213.9,119.5,215.8,118.1,217.7,116.3z"/>
	<path class="st1" d="M216.2,112.9l2.5-2.2l-2.9,1.2c-1,0.4-2,1-2.8,1.9C214.2,113.8,215.2,113.5,216.2,112.9z"/>
	<path class="st2" d="M213,126.4l-0.4-0.1v0.1H213z"/>
	<path class="st2" d="M213.9,126.9l1.8,1.8l-0.4-0.5C214.8,127.7,214.4,127.2,213.9,126.9z"/>
	<path class="st2" d="M219.8,143.4l0.7,1.3l-0.7-1.7V143.4z"/>
	<path class="st3" d="M224,154.1h-0.4l0.3,1.6l1.7,8.9l0.3,1.7l7.6,11.2l2.7,4L236,182l-0.2,0.6c0.9,1.3,2.2,1.8,3.8,1.6l-0.1-0.5
		l-3.3-14.7l-11.8-14.9H224z"/>
	<path class="st2" d="M224.1,153.6l-0.1,0.5h0.4l11.8,14.9l3.3,14.7c0.8-0.2,1.7-0.6,2.4-1.2c1.6-1.4,3.3-2.5,5-3.4v-0.8
		c-4.6-3.3-8.7-7.1-12.3-11.5L224.1,153.6z"/>
	<path class="st2" d="M225.6,164.6l-1.7-8.9C223.8,158.9,224.3,161.9,225.6,164.6z"/>
	<path class="st2" d="M233.5,177.5l2.5,4.5l0.2-0.5L233.5,177.5z"/>
	<path class="st5" d="M217.2,167.7l0.6-2c0.4-0.6,0.2-1.2-0.6-1.8c-2.1,7-4.6,13.9-7.3,20.6c-2.7,6.8-5.2,13.6-7.5,20.5
		c2.2,2.2,4.5,4.2,6.8,6.1c-0.4,1.5-1.1,2.6-2.4,3.3l-3.7,2.4c0.2,9.9,1,19.7,2.4,29.2c1.5,9.4,4,18.4,7.5,27l2.7-18.2
		c-0.8-4.7-1.3-9.3-1.5-14.2c-0.4-4.9-0.9-9.5-1.6-14l-1.1-1.1c1-9.3,2.2-18.5,3.6-27.6c1.5-9.1,2.6-18.4,3.2-27.8
		c-0.1,1.5-0.6,2.8-1.5,3.7c-0.1-0.9-0.1-1.9,0.2-2.9S217.3,168.9,217.2,167.7z"/>
	<path class="st7" d="M208.8,180.5l0.2-0.1l1.9-4.5L191.3,188c-0.9,0.7-1.6,1.5-2.1,2.5c-0.7,1.3-1.2,2.6-1.5,4.1l0.1,1.6
		L208.8,180.5z"/>
	<path class="st6" d="M187.5,194.7c0.1,3.8,0.3,7.4,0.8,11c0.4,3.6,0.7,7.3,0.8,11l4.1,2.5c1.3,0.9,2.8,1.4,4.2,1.3l2.4-1.8
		c0.9-0.7,0.8-1.5-0.1-2.3c0.8-1.1,1.8-1.9,3-2.7l3.5-2.2l-7.3-6.5c2.3-4.7,4.3-9.5,6.1-14.4l3.8-10.1l-21,15.7l-0.1-1.6
		c0.3-1.5,0.8-2.8,1.5-4.1c0.5-1,1.2-1.8,2.1-2.5c-1,0.7-1.7,1.6-2.3,2.6C188.3,191.9,187.8,193.3,187.5,194.7z"/>
	<path class="st1" d="M257.5,140.9c0,1.2,0.3,2.1,0.9,2.8l2.2,2.2C259.9,144.1,258.9,142.5,257.5,140.9z"/>
	<path class="st1" d="M262.1,143.6l-1.2-1.9l1.6,3.8L262.1,143.6z"/>
	<path class="st2" d="M248.5,133.8l-0.5,0.6l0.4-0.3L248.5,133.8z"/>
	<path class="st2" d="M246.6,137.5l0.7,0.8V136v-0.6l-0.5,1.2c0.4,0.3,0.5,0.7,0.4,1.2L246.6,137.5z"/>
	<path class="st1" d="M250.7,142.1h-0.9c-0.2-0.1-0.4,0-0.6,0.3L250.7,142.1z"/>
	<path class="st1" d="M249.5,141.3l-0.2-0.2l-0.5-0.1L249.5,141.3z"/>
	<path class="st1" d="M248,141.3c0.2-0.2,0.5-0.4,0.8-0.3l-3-2.3c-0.7-0.2-1.3,0.2-2,1.5l-0.8,0.3c-0.2,0.2-0.5,0.1-0.7-0.3
		c0.4-0.3,0.5-0.7,0.4-1.2c-0.8,1-1.7,1.8-2.6,2.4l-2.7,2.2c0.4,0.4,0.5,0.8,0.2,1.1l-0.6,1.2c1-1.3,2.2-2.3,3.4-3.1l0.4,0.4
		c-0.3,0.2-0.4,0.5-0.4,0.8l2.7-2.7l0.3,0.4c-0.3,0.2-0.4,0.4-0.4,0.7l0.1,0.8c1.1-0.4,2.4-0.6,3.7-0.6l2.3-0.2L248,141.3z"/>
	<path class="st1" d="M249.1,142.5l0.1-0.1h-0.1V142.5z"/>
	<path class="st1" d="M253,142.1l1.8,0.2l1.6,0.6c-0.9-0.5-1.6-1.1-2-1.8C254,140.3,253.5,140.7,253,142.1z"/>
	<path class="st4" d="M252.8,144h-0.7c-0.3-0.1-0.5,0.1-0.7,0.4l0.8-0.1C252.4,144.1,252.5,144,252.8,144z"/>
	<path class="st2" d="M241.6,136.9l0.4-0.1c-0.6-1.1-0.8-2.2-0.8-3.4l-0.3,0.7c-0.3,0.6-0.2,1.2,0.2,1.8l0.8,0.7L241.6,136.9z"/>
	<path class="st1" d="M238.8,139.3c-1,0.5-1.6,1.3-1.8,2.4l1.1-0.8l-0.4-0.3C237.9,140,238.3,139.6,238.8,139.3z"/>
	<path class="st8" d="M256.3,201.5l-0.4-0.4l-4.3,0.4c-1.6-0.2-3,0.1-4,0.8l4.5,6.8L256.3,201.5z M255.9,201.4l0.3,0.3l-4,7.2
		l2.6-7.2L255.9,201.4z"/>
	<path class="st4" d="M256.2,201.7l-0.3-0.3l-1.1,0.3l-2.6,7.2L256.2,201.7z"/>
	<path class="st4" d="M266.3,184.4l-7.6,16c-0.8,1.9-1.6,3.9-2.6,5.8c-0.9,2-2.1,3.7-3.5,5.3l-8-10.7c-0.3,0.7-0.8,1.3-1.5,1.9
		l-1.9,1.5c-1,1.1-1.4,2.4-1.3,4l0.5,4.4c3.1,0.5,6.1,1.4,8.9,2.6l8.6,3.4l4.6-16.9C264.1,196.1,265.4,190.3,266.3,184.4z"/>
	<path class="st2" d="M236.2,190.5l1.3-0.6c0.5-0.1,0.8-0.4,1-0.9l-0.4-0.4l-0.8,1.1l-2-2.3c-0.9-0.8-1.5-0.4-1.8,1.2
		c0.2,0.6,0.6,1,1.1,1.3L236.2,190.5z"/>
	<path class="st4" d="M239.2,190.9l-0.4,0.4l1.2,0.7C239.9,191.4,239.7,191,239.2,190.9z"/>
	<path class="st9" d="M241.1,194.7c-1.2-0.9-2.5-1.7-3.8-2.3l-4.2-0.3c-1.4,0.1-2.7,0.6-3.7,1.5c-0.6,1-1.2,2-2,3
		c-0.7,0.9-0.9,2.1-0.7,3.4c1.1,1.9,2.6,3.3,4.5,4.2c1.8,1,3.9,1.3,6.1,1.1l1.9-0.7l1.5-0.8l2.3-1.9c0.2-0.1,0.4-0.6,0.7-1.3
		c0.3-0.8,0.3-1.6,0.1-2.5C243.2,196.8,242.2,195.7,241.1,194.7z M232.9,194.4l1.2-0.4l3.3,0.4c0.7,0.3,1.5,0.8,2.4,1.6l1.9,2
		c0.4,0.6,0.6,1.3,0.7,2.2c0,0.7-0.2,1.3-0.7,1.8l-0.6,1c-2.2,1.7-4.3,2.2-6.4,1.6c-1-0.3-1.8-1.2-2.4-2.6l-0.2,0.9
		c-0.5,0.5-1.2,0.4-2.2-0.3c-0.8-0.7-1-1.4-0.7-2.1c0.6-0.5,1.3-0.4,2.2,0.3l0.6,0.6l-1.2-3.5C230.5,195.7,231.1,194.5,232.9,194.4z
		"/>
	<path class="st4" d="M234.1,194l-1.2,0.4c-0.6,0.3-0.8,0.8-0.6,1.6c0.2,0.6,0.9,1.3,2,2l4.8,3.3c1,0.7,1.8,1,2.5,0.7h0.1
		c0.5-0.5,0.7-1.1,0.7-1.8c-0.1-0.9-0.3-1.6-0.7-2.2l-1.9-2c-0.9-0.8-1.7-1.3-2.4-1.6L234.1,194z"/>
	<path class="st10" d="M234.3,198c-1.1-0.7-1.8-1.4-2-2c-0.2-0.8,0-1.3,0.6-1.6c-1.8,0.1-2.4,1.3-2.1,3.5l1.2,3.5l0.3,0.6
		c0.6,1.4,1.4,2.3,2.4,2.6c2.1,0.6,4.2,0.1,6.4-1.6l0.6-1h-0.1c-0.7,0.3-1.5,0-2.5-0.7L234.3,198z"/>
	<path class="st4" d="M232.3,202l-0.3-0.6l-0.6-0.6c-0.9-0.7-1.6-0.8-2.2-0.3c-0.3,0.7-0.1,1.4,0.7,2.1c1,0.7,1.7,0.8,2.2,0.3
		L232.3,202z"/>
	<path class="st4" d="M230.9,191.3c0.9,0,1.5-0.3,1.9-0.8l-0.8-0.8L230.9,191.3z"/>
	<path class="st4" d="M238.8,211.8h0.4v-2.3h-0.4V211.8z"/>
	<path class="st4" d="M240.1,214.1v3.8c-0.6,4-1,8.1-1.2,12.2c-0.2,4.1-0.7,8.1-1.5,12c-0.8,3.9-2.3,7.5-4.6,10.8
		c0.2,3.4-0.1,6.6-1.1,9.6c-0.9,3-1.6,6.1-1.9,9.4l1.9,3.4c-0.5,1.8-0.6,3.7-0.3,5.8c0.3,2.1-0.4,3.8-2,5.2c-1-1-1.7-2-2.3-3
		l0.1,14.9c0.1,4.5-0.3,8.7-1.2,12.8l-0.4-0.4l0.8-37.6c0.3-0.6,0.8-0.8,1.5-0.8c0.1-4.5,0.9-8.8,2.3-12.9l-0.8,0.8l-0.4-0.4
		c1.4-1.9,1.9-4,1.5-6.4c-0.5-2.3-0.7-4.7-0.7-6.9l-4.2,16.7c-0.2,1.6-0.7,3.2-1.3,4.9c-0.6,1.6-0.2,3.1,1.3,4.2l-0.5,6.5
		c-0.1,2.1-0.6,4.2-1.4,6.1c-1.9-1.7-3-3.8-3.2-6.1c-0.3-2.4-0.3-4.8,0.2-7.2c0.9-1.8,1.3-3.9,1.1-6.1l3.3-11.1
		c-3,5.7-4.9,12-5.6,18.7c-0.8,6.9-1.2,13.9-1.2,21s-0.5,14-1.5,20.8c-1,0.4-1.7,1-2.1,1.9l-1.2,2.7c-0.8,1.4-0.4,2.7,1.1,3.8
		c1.5,1.7,3.2,2.6,5,2.6l5.5-0.6l5.8,0.2c-1.4-1.2-2.8-2.5-4.3-3.7c-1.6-1.2-2.8-2.6-3.6-4.2c-0.1-1.3,0.2-2.5,0.8-3.4l1.8-3.1
		c0.4,1,0.2,2-0.5,2.9c-0.7,0.8-1.2,1.8-1.4,2.8c1.1,2.1,2.5,3.8,4.4,5l5.5,3.7l4.9,0.4c1.6-0.2,3.1,0.2,4.6,1.2l13,1.8
		c4.3,0.8,8.7,0.7,13.2-0.3c-4.3-13-8.7-25.9-13.1-38.8c-4.5-12.9-8-26.2-10.4-39.9l0.3-0.3c1.3,2.8,2.4,5.8,3.2,8.9l2.5,9.3
		l0.7-24.5c0.4-8.1,2-15.7,5-22.6C252.1,217.5,246.3,215.2,240.1,214.1z M219.1,305.7c-0.3-1.1,0.1-1.8,1.1-2.2c0.9-0.4,1.5,0,1.9,1
		l-0.3,1c0,0.4-0.2,0.7-0.4,0.9h-1.3C219.7,306.3,219.3,306.1,219.1,305.7z"/>
	<path d="M220.2,303.5c-1,0.4-1.4,1.1-1.1,2.2c0.2,0.4,0.6,0.6,1,0.7h1.3c0.2-0.2,0.4-0.5,0.4-0.9l0.3-1
		C221.7,303.5,221.1,303.1,220.2,303.5z M219.8,304.4c0-0.3,0.3-0.6,0.8-0.7c0.3,0,0.5,0.1,0.8,0.4v1.5c-0.4,0-0.6,0.1-0.8,0.4
		c-0.2-0.3-0.5-0.4-0.8-0.4V304.4z"/>
	<path class="st4" d="M220.6,303.7c-0.5,0.1-0.8,0.4-0.8,0.7v1.2c0.3,0,0.6,0.1,0.8,0.4c0.2-0.3,0.4-0.4,0.8-0.4v-1.5
		C221.1,303.8,220.9,303.7,220.6,303.7z"/>
	<path class="st4" d="M232.1,227.7c0.9-6.4,0.7-13.1-0.8-20.1l-1.1,25.1c-1.8,6.9-3.4,13.8-4.9,20.8l2.2-6.7
		C229.5,240.5,231.1,234.2,232.1,227.7z"/>
	<path class="st4" d="M225.3,253.5l-0.2,0.8l0.1-0.3L225.3,253.5z"/>
	<path class="st4" d="M235.1,207.2h-0.4v6.5c-0.1,2.3,0.1,4.3,0.4,5.7c0.7-1.9,0.9-3.9,0.6-5.9L235.1,207.2z"/>
	<path class="st4" d="M237.8,229.7c0.9-5.2,1.1-10.6,0.7-16c-1.1,6.1-2.2,12.1-3.5,18.2c-1.3,5.9-2,12.2-2.2,18.6
		c0.7-0.7,1.2-1.5,1.5-2.3l1.1-2.6C236.1,240.3,236.9,235,237.8,229.7z"/>
	<path class="st4" d="M229.3,211v-6.4l-4.9-4.2l-5.7,6.1h-1c-0.4,0-0.7-0.1-0.9-0.4l-0.6,4.7c-0.3,1.5-0.2,3,0.2,4.4l4.2-1.9
		c1.4-0.5,2.9-0.8,4.6-0.9C226.8,212.3,228.2,211.9,229.3,211z"/>
	<path class="st8" d="M220.7,198.1L218,197c-0.3,1.2-0.4,2.6-0.4,4.1s0.1,2.8,0.4,3.9l4.6-5C222.3,199.1,221.7,198.5,220.7,198.1z
		 M221.2,198.6l0.4,0.5l-3.6,5.7L221.2,198.6z"/>
	<path class="st4" d="M221.6,199.1l-0.4-0.5l-3.2,6.2L221.6,199.1z"/>
	<path class="st6" d="M192.1,220.5c0.3,0.1,0.5,0.3,0.7,0.5c1.4,1,2.7,1.6,4,1.8c1.4,0.3,2.6-0.6,3.7-2.6c-1.2,1.9-2.4,2.8-3.7,2.5
		c-1.2-0.2-2.5-0.8-3.8-1.7L192.1,220.5z"/>
	<path class="st5" d="M199,224.3c-0.5,0.7-1.2,1-2.3,0.8l-9.5-5.3L186,203l-0.4,38l13-1.1c1.3,0.3,2.5,0.2,3.8-0.4l-1.6-17
		C200,222.9,199.4,223.5,199,224.3z"/>
	<path class="st4" d="M222.2,214.5c-2.2,1-4.4,2.1-6.4,3.4c-0.9,6.1-0.8,12.1,0.2,17.7c1,5.7,1.8,11.4,2.4,17.2l-4.6,30.1
		c-1.6,9.9-2.9,20.1-3.7,30.4c-1.1,0.7-1.8,1.7-1.9,3c-0.2,1.2-1,1.9-2.3,2.3c-0.6,1.4-0.6,2.8,0,4.2c1.2,0.9,2.6,1.6,4.3,1.9
		l4.4,0.3c-1.1-0.7-2.1-1.6-3-2.6c0.2-1.7,0.7-3.3,1.2-4.9c0.6-1.5,1.7-2.7,3.3-3.5l1.2-13.3c-0.1-5-0.1-10.2,0-15.5
		c0.2-5.2,0.7-10.3,1.5-15.3c3-8.9,5.7-18.1,8.1-27.3c2.3-9.3,3.1-19.1,2.5-29.6C226.8,213,224.4,213.6,222.2,214.5z"/>
	<path class="st5" d="M193.2,250.2l1.2,1.5c0.5,0.5,1.1,0.6,1.9,0.4c0.3-0.3,0.5-0.6,0.4-1.1l-1.7-0.6L193.2,250.2z"/>
	<path class="st5" d="M196.3,248.3c1.8,0.4,2.8,1.5,3,3.2c0.3,1.5,0.8,2.9,1.5,4c1.2-1.2,2.5-2.2,3.8-3l-1.1-5
		c-0.5-1.8-0.7-3.5-0.8-5.3l-14,1.1c1.2,1.7,2.3,3.3,3.4,5C193.5,247.7,194.9,247.7,196.3,248.3z"/>
	<path class="st5" d="M197.1,277.5h-0.8l-1.2,7.9c-0.5,2.5-1.6,4.9-3.4,7l3.5,26.9l-2.3,4.6c0.7,0.5,1.5,0.9,2.3,1
		c0.9,0.2,1.6,0.6,2.2,1.3c1.1-0.2,1.9-0.9,2.4-1.9l1.4-3.1c2.4-2.6,4-5.5,5-8.8c0.9-3.2,1.6-6.5,2-9.9c0.5-3.5,1-6.9,1.8-10.1
		c-1.2,1.1-1.8,2.4-1.8,4c-0.1,1.5-0.7,2.9-2,3.9h-1.9c-0.6-0.1-1.1-0.3-1.5-0.7c-1.2,0.8-2.3,0.7-3.3-0.2l-2.8-2.5
		c0.1-3.3,0.1-6.6-0.2-9.8C196.3,283.9,196.4,280.7,197.1,277.5z"/>
	<path class="st8" d="M221.7,273c0.4,1.6,0.5,3.4,0.4,5.2c-0.2,1.9,0.2,3.4,1.2,4.7l0.7-8.8c0.5-1,0.3-1.8-0.6-2.1
		C222.6,271.6,222,271.9,221.7,273z"/>
	<path class="st5" d="M211.5,279.8c-1.9-3.8-3.2-7.8-4.1-12c-0.8-4.3-1.7-8.4-2.7-12.3l-5.4,4.2l8.8,24.3c0.4,0.7,0.7,1.5,1,2.4
		c0.2,0.9,0.7,1.6,1.2,2.1L211.5,279.8z"/>
	<path class="st8" d="M228.7,273.5l-0.8,0.2c0.1,1.8,0.1,3.7-0.1,5.6c-0.1,1.9,0.3,3.6,1.3,5.1l0.6-5.6c0.2-1.8,0.2-3.6-0.3-5.5
		L228.7,273.5z"/>
	<path class="st11" d="M228,326.8l-1.3-0.6l-5.8,0.7c-2,0.2-3.8,0-5.6-0.7c-2.3,0.2-3.5,1-3.9,2.3c-0.3,1.4-0.5,2.9-0.3,4.7
		c0.1,1.7-0.1,3.3-0.8,4.8c0.5,1.6,0.7,3.4,0.4,5.3c-0.4,1.8-0.4,3.6-0.4,5.3c0,1.7,1,3.1,2.7,4.2l1.8,0.4h1.6
		c0.3-0.1,0.6,0,0.8,0.3l4.7-0.2c1.6,0.8,3.1,1.2,4.8,1.4l5.7-0.4c0.3,0.1,0.5-0.1,0.7-0.4c1.2,0.3,2.3,0.7,3.5,1.2l4.7,0.4
		c0.5-0.3,0.9-0.6,1.3-0.8c0.5-0.8,0.8-1.6,1.1-2.4c0.2-0.9,0.1-1.7-0.3-2.6c0.6-3,0.9-6,0.8-9.1v-9.1c-0.7-2.9-2-4.4-4.1-4.6
		l-9.4,0.6l3.3,0.6l4-0.5c1.3,0,2.6,0.3,4,0.9c0.8,1,1.2,2.1,1.2,3.2c0,1.2-0.1,2.4-0.5,3.6c0.3,0.2,0.4,0.4,0.4,0.8
		c-0.2,0.7-0.1,1.6,0.1,2.5l0.7,2.8l-0.6,3.1c-0.1,0.9-0.5,1.9-1,3c0.7,1,0.9,2.1,0.7,3.4l-0.1,0.5v0.3h-0.1l-0.8,2.6
		c-1.7,0.6-3.3,0.7-4.9,0.4l-4.8-1.2c-1.7-0.4-3.4-0.2-5.2,0.4c-2-0.1-4-0.5-6-1.1c-1.9-0.7-4-0.7-6.1,0c-1.1-0.2-1.9-0.7-2.5-1.5
		c-0.7-0.9-1.1-1.8-1.3-2.7c0.4-1.7,0.5-3.3,0.1-4.9c-0.3-1.7-0.2-3.3,0.3-5c-0.4-1.3-0.4-2.5,0.1-3.7c0.4-1.3,0.3-2.6-0.1-3.9
		c-0.3-0.9-0.1-1.6,0.4-2.3c0.5-0.6,1.1-1.1,1.8-1.5c1.9,0,3.9,0,5.9,0.1L228,326.8z"/>
	<path class="st4" d="M242.3,351.1v0.6h0.5h0.1v-0.3v-0.3H242.3z"/>
	<path class="st4" d="M230.9,330.4V330c-0.3-0.2-0.5-0.5-0.4-0.8c0.3-0.6,0.7-0.9,1.2-0.7l1.4,0.3v-0.4l-11.3-0.3l0.4,0.1
		c0.8,0.1,1.2,0.6,1.4,1.4l-1.1,1.5l-3,1.9l-2.1,0.5c-0.5,0.1-0.9-0.1-1.1-0.7c-0.5,0.6-1.1,0.6-1.7,0.2l1,0.7l0.4-0.3
		c0.5,0.3,1,0.5,1.7,0.3c0.6-0.1,1.1,0.2,1.4,0.8l-0.4,0.4c-0.1,0.8,0.1,1.4,0.8,1.9c0.5,2.6,0.2,5-0.8,7.2c0.6,0.9,1.4,1.5,2.3,1.9
		c-0.5,0.5-1,0.6-1.4,0.1c-0.4-0.4-0.8-0.7-1.3-0.8c0.6,1,1.4,1.6,2.5,1.7l3,0.4c1,0.1,1.7,0.8,2.1,2l-0.7,0.8
		c0.6,0.2,0.9,0.6,0.7,1.3c-0.1,0.6,0.1,0.9,0.8,1l0.6-1.5c0.3-0.6,0.2-1.1-0.2-1.6c0.3-0.5,0.8-0.8,1.5-0.7c0.7-0.5,1.8-0.6,3-0.4
		c1.3,0.2,2.3-0.2,3.1-1.1l-1-0.2v0.2h-0.6v-0.6h0.6c0.2-0.4,0.6-0.6,1-0.7l1.5-0.3l-0.4-0.3c-1.6,0.4-2.4,0.1-2.3-1.1
		c0-1.1-0.4-2.2-1.1-3.1c0.7-0.9,1.2-1.9,1.5-3c0.3-1.1,0.4-2.1,0.4-3.1c0.2-0.4,0.6-0.7,1-0.7l1.3-0.1c0.2,0.1,0.3,0.1,0.4,0.2
		c0-0.1,0-0.1-0.1-0.2l0.8-0.7l1,0.3l0.2,0.1h-0.1l1.1-0.8c-0.7,0.5-1.5,0.5-2.2,0c-0.4,0.4-0.9,0.5-1.5,0.4c-0.7-0.1-1.5,0-2.3,0.4
		c-0.2-0.9-0.7-1.3-1.5-1.4c-0.8,0-1.3-0.4-1.5-1.3l0.3-0.4l3.1,1.9c0.3-0.2,0.4-0.4,0.4-0.7c-0.9,0-1.5-0.3-1.9-0.9
		c-0.4-0.7-0.9-1.1-1.6-1.4l-0.2,0.2h0.5v0.6H230.9z M228.2,328.4v0.1h0.1l0.3,0.4c0.2,0.1,0.4,0.2,0.7,0.3l0,0h0.1
		c0.1,0.5,0,0.9-0.4,1.2l0.4,0.3c0.4,0.3,0.5,0.7,0.4,1.3v1.1l0.3,0.3v0.3l0.1,0.1c0.4,0.4,0.6,0.8,0.6,1v0.1h0.1l-0.1,0.1v0.1
		l-0.5,0.3v-0.1h-0.2l-0.5-0.2c-0.5-0.5-0.8-0.3-1,0.6l0.8,0.7l0,0l0.7,0.4l0,0l0.3,0.2c0.5,0.3,0.8,0.8,0.9,1.4
		c0,0.7-0.1,1.3-0.4,1.9l-1.9,1.5l0.5,0.3c0.4,0.5,0.4,0.9,0,1.3c-0.5,0.6-0.8,1.1-0.9,1.8l-0.3,0.4l-0.1-0.1l0,0
		c-0.3-0.5-0.6-0.9-1-1.4l-0.5-0.4c-0.3,0.7-0.8,1.3-1.5,1.9v-0.1l-0.7-0.6l-0.5-0.4h-0.1c-0.5-0.3-0.4-0.7,0.1-1.2
		c-0.3-0.3-0.5-0.6-0.3-1l0.3-0.9c-1.2-0.7-2-1.7-2.3-3.1c0.3-0.3,0.7-0.5,1.2-0.4l1.1,1.2c0.6-0.8,0.6-1.3,0-1.5l-0.5-0.2
		c-0.6-0.3-0.9-0.8-1-1.4c-0.4-1.1-0.2-2,0.5-2.7c0.7-0.6,0.9-1.4,0.6-2.2l1.2-2.7v0.1l1.9,1.5L228.2,328.4z M222.3,346.3l1-0.4
		l0.8,0.4l4.6,0.4h-0.9l-3.7-0.4H222.3z"/>
	<path d="M228.2,328.5v-0.1l-1.5,1.6l-1.9-1.5v-0.1l-1.2,2.7c0.3,0.8,0.1,1.6-0.6,2.2c-0.7,0.7-0.9,1.6-0.5,2.7
		c0.1,0.6,0.4,1.1,1,1.4l0.5,0.2c0.6,0.2,0.6,0.7,0,1.5l-1.1-1.2c-0.5-0.1-0.9,0.1-1.2,0.4c0.3,1.4,1.1,2.4,2.3,3.1l-0.3,0.9
		c-0.2,0.4,0,0.7,0.3,1c-0.5,0.5-0.6,0.9-0.1,1.2l0,0l0.6,0.4l0.7,0.6c0.6-0.5,1.1-1.2,1.5-1.9v0.1l0.5,0.4c0.4,0.5,0.7,0.9,1,1.4
		l0,0l0.4-0.3c0-0.7,0.3-1.3,0.9-1.8c0.3-0.5,0.3-0.9,0-1.3l-0.5-0.3v-0.1l1.9-1.5c0.3-0.5,0.4-1.2,0.3-1.8c0-0.6-0.3-1.1-0.8-1.4
		l-0.3-0.2l0,0c0.6,0.9,0.9,1.9,0.8,3c-0.7,0.9-1.6,1.3-2.6,1.4l-2.8,0.5l0.4,0.4l-0.4,0.4h-0.8l-0.7-0.4l0.8-0.7l-2.7-2.3
		c-0.1-0.5,0-0.8,0.3-1.1l0.1-0.1v0.1l1.5,1.5l0.8-0.4c0.6,0.9,1.5,1.3,2.6,1.1c0.5-0.4,0.6-0.7,0.2-1c-0.3-0.4-0.3-0.8-0.2-1.3
		l-1.2-0.2c-0.3-0.3-0.7-0.2-1,0.2l-1.9-1.8c-0.6-0.6-0.8-1.4-0.4-2.3c0.6-1.2,1.4-1.8,2.6-1.8c1.1,0,2-0.3,2.7-0.9h0.8
		c0.3-0.1,0.6,0.1,0.7,0.4l-0.7,0.7l0.8,0.8l-0.1-1c0.1-0.6,0-1-0.3-1.3l-0.4-0.3v-0.1c0.3-0.2,0.4-0.6,0.3-1.1l0,0
		c-0.3-0.1-0.5-0.2-0.7-0.3L228.2,328.5z M228.2,330.8l-0.8-0.8l0.8-0.2c0.3-0.1,0.4,0.1,0.4,0.6L228.2,330.8z M224.5,330.2l0.3-1
		l1.2,1.2c-0.2,0.4-0.5,0.7-1.2,0.7C224.5,330.9,224.4,330.6,224.5,330.2z M225.9,339.5v-0.8c0.5-0.1,0.9,0.1,1.2,0.4v0.4H225.9z
		 M224.9,343.4c0.3-0.2,0.5,0,0.7,0.3c-0.3,0.3-0.7,0.4-1.2,0.4C224.4,343.7,224.5,343.5,224.9,343.4z M227.4,342.9
		c0.3,0,0.6,0.1,0.8,0.3l0.8,0.1l-0.8,1.1L227.4,342.9z"/>
	<path class="st11" d="M227.4,330l0.8,0.8l0.4-0.4c0-0.5-0.1-0.7-0.4-0.6L227.4,330z"/>
	<path class="st11" d="M224.8,329.2l-0.3,1c-0.1,0.4,0,0.7,0.3,0.9c0.7,0,1-0.3,1.2-0.7L224.8,329.2z"/>
	<path class="st4" d="M225.9,338.7v0.8h1.2v-0.4C226.8,338.8,226.4,338.6,225.9,338.7z"/>
	<path class="st11" d="M225.6,343.7c-0.2-0.3-0.4-0.5-0.7-0.3c-0.4,0.1-0.5,0.3-0.5,0.7C224.9,344.1,225.3,344,225.6,343.7z"/>
	<path class="st11" d="M228.2,343.2c-0.2-0.2-0.5-0.3-0.8-0.3l0.8,1.5l0.8-1.1L228.2,343.2z"/>
	<path class="st11" d="M228.3,328.5h-0.1l0.4,0.4L228.3,328.5z"/>
	<path class="st11" d="M229.4,329.2L229.4,329.2c0,0.5-0.1,0.9-0.4,1.1v0.1C229.4,330.1,229.5,329.7,229.4,329.2z"/>
	<path class="st11" d="M222.9,333.8c-0.4,0.9-0.2,1.7,0.4,2.3l1.9,1.8c0.3-0.4,0.7-0.5,1-0.2l1.2,0.2c-0.1,0.5-0.1,0.9,0.2,1.3
		c0.4,0.3,0.3,0.6-0.2,1c-1.1,0.2-2-0.2-2.6-1.1l-0.8,0.4l-1.5-1.5h-0.1c-0.3,0.3-0.4,0.6-0.3,1.1l2.7,2.3l-0.8,0.7l0.7,0.4h0.8
		l0.4-0.4l-0.4-0.4l2.8-0.5c1-0.1,1.9-0.5,2.6-1.4c0.1-1.1-0.2-2.1-0.8-3l-0.7-0.4c-0.7,0-0.9-0.3-0.8-0.8v-1.5
		c0.6,0.2,1.1,0.6,1.5,1.2h0.1c0.1-0.3,0.4-0.4,0.6-0.4v-0.1c0-0.2-0.2-0.6-0.6-1l-0.1-0.1v0.1l0,0l-0.3-0.8l-0.8-0.8l0.7-0.7
		c-0.1-0.3-0.4-0.5-0.7-0.4h-0.8c-0.7,0.6-1.6,0.9-2.7,0.9C224.3,332,223.5,332.6,222.9,333.8z M224.8,335.3c-0.5,0-0.8-0.2-0.7-0.6
		c0.1-0.4,0.4-0.7,0.7-0.9V335.3z M225.5,335.3v-0.6h0.6v0.6H225.5z M225.5,334.2v-0.8l1.5-0.1c0.5-0.1,0.8,0.2,0.8,0.9v0.3l0,0v0.1
		v0.6c0.1,0.3-0.1,0.6-0.4,0.9l-0.3-0.4c0.4-0.3,0.6-0.7,0.7-1.1v-0.1c-0.3-0.4-0.6-0.7-1-0.7C226.3,333.7,225.9,333.8,225.5,334.2z
		 M228.6,338.7c0.5-0.1,0.9,0.1,1.1,0.4c-0.2,0.4-0.6,0.5-1.1,0.4V338.7z"/>
	<path d="M224.1,334.7c-0.1,0.4,0.2,0.6,0.7,0.6v-1.5C224.5,334,224.2,334.3,224.1,334.7z"/>
	<path d="M225.5,334.7v0.6h0.6v-0.6H225.5z"/>
	<path d="M225.5,333.4v0.8c0.4-0.4,0.8-0.5,1.3-0.4c0.4,0,0.7,0.3,1,0.7v-0.3c0-0.7-0.3-1-0.8-0.9L225.5,333.4z"/>
	<path d="M227.8,334.5L227.8,334.5v0.1V334.5z"/>
	<path d="M227.8,335.2v-0.6c-0.1,0.4-0.3,0.8-0.7,1.1l0.3,0.4C227.7,335.8,227.9,335.5,227.8,335.2z"/>
	<path d="M229.7,339.1c-0.2-0.3-0.6-0.5-1.1-0.4v0.8C229.1,339.6,229.5,339.5,229.7,339.1z"/>
	<path class="st4" d="M222.5,338v-0.1l-0.1,0.1H222.5z"/>
	<path class="st11" d="M223.9,344.5h0.1l0.5,0.4L223.9,344.5L223.9,344.5z"/>
	<path class="st11" d="M225.2,345.5v0.1c0.7-0.6,1.2-1.2,1.5-1.9v-0.1C226.3,344.3,225.8,345,225.2,345.5z"/>
	<path d="M230.1,333.8L230.1,333.8v-0.4l-0.3-0.3V333L230.1,333.8L230.1,333.8z"/>
	<path class="st11" d="M229.8,333.1V332c0.1-0.6,0-1-0.4-1.3c0.3,0.3,0.4,0.7,0.3,1.3l0.1,1V333.1z"/>
	<path class="st11" d="M230.3,335.3v0.1l0.5-0.3V335L230.3,335.3z"/>
	<path d="M230.1,335.3h0.2l0.5-0.3l0.1-0.1h-0.1C230.6,334.9,230.3,335,230.1,335.3L230.1,335.3z"/>
	<path d="M229.4,336.4L229.4,336.4l-0.8-0.7c0.2-0.9,0.5-1.1,1-0.6l0.5,0.2c-0.4-0.6-0.9-1-1.5-1.2v1.5
		C228.5,336.1,228.7,336.4,229.4,336.4z"/>
	<path class="st11" d="M229,341.7L229,341.7l1.9-1.4c0.3-0.6,0.4-1.2,0.4-1.9c-0.1-0.6-0.4-1.1-0.9-1.4c0.5,0.3,0.8,0.8,0.8,1.4
		c0.1,0.6,0,1.3-0.3,1.8L229,341.7z"/>
	<path class="st11" d="M229.5,343.4c-0.6,0.5-0.9,1.1-0.9,1.8l-0.4,0.3l0.1,0.1l0.3-0.4C228.7,344.5,229,344,229.5,343.4
		c0.4-0.4,0.4-0.8,0-1.3C229.8,342.5,229.8,342.9,229.5,343.4z"/>
	<path d="M223.3,345.9l-1,0.4h1.8L223.3,345.9z"/>
	<path d="M227.8,346.7h0.9l-4.6-0.4L227.8,346.7z"/>
	<path class="st4" d="M222.3,330.2c0.3-0.2,0.4-0.6,0.2-1c-0.9-0.2-1.6,0.1-2.1,1c-0.6,0.8-1.1,1.4-1.7,1.7h0.4
		c0.4-0.6,0.9-0.9,1.7-0.9l1.7,0.1C222,330.8,221.9,330.5,222.3,330.2z"/>
	<path class="st4" d="M216.3,332.8l0.1-0.2l-0.3-0.3L216.3,332.8z"/>
	<path class="st4" d="M216.1,332.3l-0.1-0.1c0.6-0.3,0.8-0.8,0.8-1.5l-1.1,0.5c-0.5,0.1-0.6,0.4-0.4,1L216.1,332.3z"/>
	<path class="st4" d="M216.2,335.3l0.2-0.8c-0.3,0-0.6,0.1-0.7,0.4l-0.4-0.4l0.2-0.5l-1.4,1.3c0.2-0.2,0.5-0.1,0.7,0.3
		c0.3,0.5,0.7,0.6,1.2,0.4C215.9,335.7,216,335.4,216.2,335.3z"/>
	<path class="st4" d="M215.7,333.8L215.7,333.8l-0.2,0.2L215.7,333.8z"/>
	<path class="st4" d="M214.1,335.3c-0.2-0.3-0.4-0.4-0.8-0.4c0,0.3,0.2,0.6,0.5,0.8L214.1,335.3z"/>
	<path class="st4" d="M233.5,330h1.1c0.3,0.1,0.6-0.1,0.8-0.4h-0.8c-0.3,0.1-0.5-0.1-0.7-0.4L233.5,330z"/>
	<path class="st4" d="M239.9,329.9l-2.2,0.1l1.4,0.7c0.5,0.2,0.8,0.6,0.9,1.2l0.8-0.3c0.3-0.2,0.5-0.1,0.7,0.3v-0.4
		C241.2,330.9,240.6,330.3,239.9,329.9z"/>
	<path class="st2" d="M198.2,329.2l-4.3-2.3c-1.4-0.9-3-1.3-4.8-1.1c-2.1,1.6-4.2,2.8-6.6,3.6c-2.3,0.8-4.6,1.9-6.7,3.2
		c-5.5,6.1-8.8,13.1-9.9,20.9c0.3,3.7,1.6,7,3.7,9.8c2.2,2.9,4.8,5.3,8.1,7.3c0.3-0.7,0.4-1.5,0.3-2.4c-0.1-1,0.1-1.8,0.4-2.5
		l16-24.3c-1.9-3.3-3.5-6.6-5-9.9l0.4-0.4l1,1.1c0.4,0.4,0.8,0.5,1.3,0.4c0.9-0.9,2.1-1.3,3.5-1.2
		C197,331.4,197.8,330.7,198.2,329.2z"/>
	<path class="st4" d="M214.7,328.5v-0.6h-0.6v0.6H214.7z"/>
	<path class="st4" d="M214.9,329.6c-0.4,0.1-0.8,0.3-1.1,0.7c-0.4,0.3-0.5,0.7-0.5,1.2c0.9,0.3,1.4,0.1,1.5-0.5
		c0.2-0.6,0.6-0.9,1.2-1C215.8,329.6,215.3,329.5,214.9,329.6z"/>
	<path class="st4" d="M219.1,330l0.4-0.4c0-0.8-0.3-1.3-1-1.5H217c0.6,0,1,0.3,1.1,0.8C218.3,329.4,218.6,329.8,219.1,330z"/>
	<path class="st4" d="M217.9,330.7l-0.7-1.1l0.4,1.5L217.9,330.7z"/>
	<path class="st4" d="M218,336h-0.4l0.4,0.8V336z"/>
	<path class="st4" d="M217.9,338.3l0.4,0.8v-0.8H217.9z"/>
	<path class="st4" d="M216.5,339.1c0-0.3-0.2-0.6-0.4-0.8l-1.2,1.2h0.9L216.5,339.1z"/>
	<path class="st4" d="M218.3,342.9c0.2-0.4,0-0.8-0.3-1.1l0.3-0.4c-0.6,0.5-1.1,1.2-1.5,1.9L218.3,342.9z"/>
	<path class="st4" d="M218,341l0.3,0.4l0.4-0.4l-0.4-0.4L218,341z"/>
	<path class="st4" d="M216.3,341.9c0.8-0.1,0.9-0.7,0.5-1.7c-0.5-0.1-1,0.1-1.2,0.6c-0.3,0.5-0.3,1,0.1,1.3
		C215.8,342,216.1,341.9,216.3,341.9z"/>
	<path class="st4" d="M214.2,333.4v-0.8h-0.4v0.8H214.2z"/>
	<path class="st4" d="M212.8,331.9v-0.6h-0.6v0.6H212.8z"/>
	<path class="st4" d="M215.3,337.2c-0.4-0.1-0.9,0-1.5,0.4c-0.5,0.3-0.8,0.8-0.8,1.5c0.3-0.5,0.7-0.8,1.2-1L215.3,337.2z"/>
	<path class="st4" d="M213,341.6v0.6h0.6v-0.6H213z"/>
	<path class="st4" d="M215.5,342.4l-0.6,0.1v0.8h0.4L215.5,342.4z"/>
	<path class="st4" d="M215.7,349.4v-0.3c-0.2,0.3-0.6,0.4-1,0.3c-0.6-0.2-1.1,0-1.4,0.7L215.7,349.4z"/>
	<path class="st4" d="M216,348.6v-0.1l-0.3,0.6L216,348.6z"/>
	<path class="st4" d="M214.1,347.1l1.2,0.5c0.2,0.1,0.3,0.1,0.4,0.2l0.3-0.3l-0.7-0.8c0.3-0.2,0.4-0.5,0.4-0.8
		C215.1,346.1,214.6,346.5,214.1,347.1z"/>
	<path class="st4" d="M213,346.3v0.8l0.8-0.8H213z"/>
	<path class="st4" d="M215.7,350.9v-0.4h-0.4L215.7,350.9z"/>
	<path class="st4" d="M219.6,347.2l-2.8-1.7l0.4,1.2c1.5,0.5,2.8,1.2,4,1.9c1.1,0.7,2.4,1.6,3.6,2.6c-0.1-0.7-0.4-1.3-0.8-1.6
		l-1.5-1.4C221.4,348.1,220.4,347.7,219.6,347.2z"/>
	<path class="st4" d="M218,348.2v-0.4h-1.2L218,348.2z"/>
	<path class="st4" d="M216.4,349.7l0.8,0.8c0.3-0.3,0.5-0.7,0.4-1.2C217.1,349.2,216.7,349.4,216.4,349.7z"/>
	<path class="st4" d="M217.8,351.5l-0.9,0.3l-2.4,0.2l2.3,0.1L217.8,351.5z"/>
	<path class="st4" d="M222.5,351.7l2.3,1.1c-1.2-1.2-2.6-2.1-4.2-2.7C221.1,350.8,221.7,351.3,222.5,351.7z"/>
	<path class="st12" d="M265.1,331.9L262,332c-0.9-0.6-1.8-1-2.6-1.3l2.6,9.2l1.3,6.9c0.5,2.3,0.4,4.6-0.1,6.7l4.9-0.5
		c0-3.8-0.3-7.4-0.9-10.8C266.6,338.8,265.9,335.3,265.1,331.9z"/>
	<path class="st4" d="M241.9,334.2l0.4-0.4V333L241.9,334.2z"/>
	<path class="st4" d="M241.1,333l-0.4-0.4v0.8L241.1,333z"/>
	<path class="st4" d="M238,332.7l0.7-0.1c0.4,0,0.6-0.3,0.5-0.7l-1.2-0.7l-1.1-0.1c-0.3-0.3-0.4-0.7-0.3-1.1
		c-0.5,0.3-0.7,0.7-0.8,1.1c0.3,0,0.6-0.1,0.8-0.4l1.5,1.9L238,332.7z"/>
	<path class="st4" d="M237.2,334.4c0.1,0.2,0.2,0.5,0.1,0.9c0.3-0.2,0.5-0.5,0.4-0.8C237.5,334.6,237.3,334.5,237.2,334.4z"/>
	<path class="st4" d="M238.3,335.7c-0.4,0-0.6,0.2-0.6,0.7h1.1c0.5-0.2,0.7-0.6,0.8-1v-1.3l-0.5-0.1l0.1,0.5l-0.4,0.4l0.4,0.4
		C239,335.6,238.7,335.7,238.3,335.7z"/>
	<path class="st4" d="M241.1,334.9c-0.3,0-0.5,0.1-0.7,0.4l0.7,0.4V334.9z"/>
	<path class="st4" d="M240.6,337.8l-1.8-0.6c0.9,0.8,1.9,1.4,3.1,1.9C241.7,338.3,241.3,337.9,240.6,337.8z"/>
	<path class="st4" d="M237.7,338.9c-0.5,0.1-0.7,0.5-0.8,1h2.3l-0.6-0.8c-0.2-0.3-0.1-0.5,0.2-0.8L237.7,338.9z"/>
	<path class="st4" d="M237.2,338.4v-0.6h-0.6v0.6H237.2z"/>
	<path class="st4" d="M237.6,340.9l-1,0.1l0.4,2.2h0.7c0.7-0.4,0.9-1.1,0.8-1.9C238.2,341,238,340.9,237.6,340.9z"/>
	<path class="st4" d="M242.6,340.2l0.4,0.4v-0.4H242.6z"/>
	<path class="st4" d="M242.7,342.1h-1.2l0.7,1.7c0.2,0.6,0.2,1.2-0.3,1.8h0.4L242.7,342.1z"/>
	<path class="st4" d="M234.3,342.5l0.7-0.8h-0.7V342.5z"/>
	<path class="st4" d="M235.1,338.5l0.9-1.1c0.4-0.3,0.3-0.7-0.2-1.4L235.1,338.5z"/>
	<path class="st4" d="M235.4,339.8c0.1-0.4,0-0.8-0.3-1.1l-0.4,1.1H235.4z"/>
	<path class="st4" d="M234.7,344.4l0.4-0.4c0.7,0,1.2,0.2,1.5,0.8l-0.5-1.2c-0.2-0.4-0.5-0.7-1-0.7l-0.7,0.7
		C234.2,343.9,234.3,344.2,234.7,344.4z"/>
	<path class="st4" d="M229.3,351.8c-0.3,0.1-0.4,0.5-0.2,1h1c0.3,0,0.6-0.1,0.9-0.4c0.2-0.8,0.6-1,1.3-0.7l1.7,0.7
		c-1-1-2.3-1.3-3.8-1.2L229.3,351.8z"/>
	<path class="st4" d="M230.9,349.3l-2.3,1.2c1.3-0.3,2.5-0.5,3.5-0.4c1.1,0.1,2-0.4,2.9-1.5c0.5-0.1,0.9,0,1.3,0.3
		c0.3,0.2,0.7,0.2,1-0.3c0.5,0.6,0.6,1.2,0.3,1.9c-0.4,0.6-0.1,1.1,0.9,1.5l0.3-0.3c0.5-0.2,0.9-0.1,1.1,0.2l0.8,0.9
		c0.3-0.8,0-1.2-0.9-1.2c-0.8-0.1-1.5-0.3-2.1-0.7l1.1-1.4c0.3-0.6,0.8-0.9,1.6-0.9l-0.8-0.7c-0.7-0.6-1.3-0.8-1.9-0.4
		c-0.3-0.3-0.5-0.7-0.4-1.2l-3.4,2.7C232.8,348.7,231.8,348.8,230.9,349.3z M237.7,348.3c0.1-0.2,0-0.4,0-0.5l0.8,0.8
		C237.9,348.8,237.7,348.7,237.7,348.3z"/>
	<path d="M237.7,347.8c0,0.1,0.1,0.3,0,0.5c0,0.4,0.2,0.5,0.8,0.3L237.7,347.8z"/>
	<path class="st4" d="M235.5,349.3l-1.6,1.9c0.8,1.1,1.8,1.6,3.1,1.6c0.5-0.6,0.5-0.9,0-1.1l-1.2-0.8c0.4-0.3,0.5-0.7,0.4-1.2
		C235.9,349.8,235.6,349.6,235.5,349.3z"/>
	<path class="st4" d="M241.9,347.8c-0.1-0.3-0.4-0.5-0.7-0.4h-0.8l0.7,0.7C241.4,348.3,241.7,348.2,241.9,347.8z"/>
	<path class="st4" d="M239.1,345.2v-0.6h-0.6v0.6H239.1z"/>
	<path class="st4" d="M239.2,344v-0.7c-0.3-0.1-0.5,0.1-0.7,0.4C238.7,343.9,238.9,344.1,239.2,344z"/>
	<path class="st4" d="M240.7,349.9v0.6h0.6v-0.6H240.7z"/>
	<path class="st4" d="M238.5,353.9c0.1-0.4,0-0.8-0.4-1.1l-0.4,0.7C238,353.5,238.3,353.6,238.5,353.9z"/>
	<path class="st4" d="M239.6,354.3h1.2c0.4-0.3,0.7-0.7,0.7-1.2L239.6,354.3z"/>
	<path class="st12" d="M230.5,367.6l-2.3,11c-0.9,3.7-1.4,7.5-1.5,11.4l4.9,4.6l0.4-24.7L230.5,367.6z"/>
	<path class="st12" d="M232.8,355.8l-5.7,0.4l-1.6,28.5l3.5-20.5l1.1-1.1c1,0.6,1.7,1.5,2,2.5l1,2.8c0.3,4.2,0.5,8.3,0.4,12.6
		c0,4.2-0.3,8.4-0.7,12.5c-0.3,1.7,0.3,3,1.6,3.9c1.4,0.9,2.6,1.9,3.7,2.9c0.5-1.2,0.8-2.5,0.9-3.9l0.6-4.1
		c1.9-5.6,2.9-11.6,2.9-17.9c-0.1-6.3,0.1-12.7,0.5-18.9c-1.1,1.2-2.7,1.7-4.9,1.5C236.5,356,234.8,355.6,232.8,355.8z"/>
	<path class="st5" d="M164.8,302.8c-2,0.1-3.9,0.5-5.8,1l-1.9,1.1c-3.9,4-6.5,8.6-7.9,13.7c-1.4,5-2.2,10.4-2.3,15.9
		c2.6,4.7,5.1,9.6,7.4,14.5c2.3,5,4.8,9.5,7.4,13.7l-2.3-9.5c-0.9-3.3-1.1-6.3-0.4-9c0.7-2.7,1.9-5.2,3.4-7.7l4.2-7.3
		c2-0.6,3.8-1.6,5.4-3l4.9-4.2c-3.1-2.3-5.1-5.2-5.9-8.8c-0.8-3.5-0.9-7.2-0.2-11L164.8,302.8z"/>
	<path class="st5" d="M316,328.1c-0.7-0.2-1.4-0.5-1.9-1.1l-1.5-1.2c-2,1.1-3.6,2.5-4.9,4.4c-1.2,1.8-2.7,3.5-4.3,5.1v1.1l3.8-2.2
		c2.7-1,5.1-0.8,7.1,0.4c2.1,1.2,4.2,2.3,6.2,3.4c0.6-2,1.7-3.6,3.5-5c0.6-0.7,0.8-1.5,0.7-2.3l-0.2-2.4c0.1-0.8,0.6-1.4,1.7-1.7
		c-0.3-0.3-0.4-0.7-0.3-1.2c-1.6-1.3-2.8-1.5-3.6-0.6l-2.5,2.9C318.9,328.7,317.6,328.8,316,328.1z"/>
	<path class="st2" d="M289.4,347.1l0.4,0.4l-4.6,7.5c-1.5,2.5-3.1,5-4.9,7.3l4.5,5.8c2.2,1.1,4.3,2.8,6.5,5.1l6.4,6.5
		c2.2,2.1,4.5,3.4,6.9,3.8c2.5,0.4,5.1-0.5,8-2.9l8.9-7.8c3-2.5,5.7-5.2,8.2-8.2c0.3-1.4,0.4-2.7,0.3-4.2c0-1.4-0.4-2.7-1.1-3.8
		l-14.1-15.2c-1.6-1.9-3.6-3-5.9-3.3c-2.3-0.3-4.7-0.4-7.3-0.1c-2.5,0.2-5,0.2-7.3,0c-2.5,0.9-5.2,1.6-8.1,2
		c-2.8,0.4-5.7,0.4-8.6-0.1c-0.7-0.3-1.5-0.4-2.4-0.5c-0.9,0-1.6,0.3-2.2,0.9c0.3,2.5,1.2,4.2,2.9,5.1c1.6,0.9,3.4,1.7,5.3,2.5
		c1.9,0.7,3.4,2.1,4.4,4.1L289.4,347.1z"/>
	<path class="st5" d="M338,371.1c-0.5-0.2-1.1-0.4-1.8-0.8c-0.6-0.4-1.3-0.6-2-0.4l-0.7,27.7c1.8-1,3.6-1.9,5.6-2.6
		c1.9-0.7,3.7-1.7,5.4-3.1c-0.4-3.9-1.1-7.7-2.1-11.3l-2.8-11.1C339.1,370.6,338.6,371.1,338,371.1z"/>
	<path class="st1" d="M276.2,129.4c-0.6,0-0.9,0.5-0.9,1.5c0.3,1.4,0.5,2.9,0.5,4.4c-0.1,1.6,0.5,2.9,1.8,3.9
		c0.3,0.9,0.5,1.9,0.4,3.1v1.9c0.5-0.7,0.7-1.5,0.8-2.3v-0.6v-0.2c-0.5-0.6-0.7-1.3-0.5-2.2c0.1-0.9,0.2-1.8,0.1-2.7l-0.6-2.6
		c-0.3-0.8-0.3-1.6-0.2-2.4c0.5,0.4,0.8,0.8,1,1.3l0.5,1.4l-0.7-4.6L276.2,129.4z"/>
	<path class="st12" d="M266.3,354.1l-1.2,0.3l-1.3,0.6l0,0l-1.2,0.1c-0.3-0.1-0.5-0.2-0.7-0.4v-1.3l0.4-0.6l-17.9-0.4v0.2l-0.3,0.8
		c-0.5,4.2-0.7,8.7-0.5,13.2c0.1,4.5,0.1,8.9-0.2,13.2l-0.3,3l-1.5,6l-0.3,0.8l-1,2.3c0.1,1.3,0,2.7-0.3,4.1
		c-0.4,1.3-0.6,2.7-0.5,3.9c0,0.7,0.1,1.3,0.5,1.8l1.4,1.6l30.7,13.1c0,0,0.2,0.1,0.3,0.1c-5.4-1.8-10.6-3.7-15.8-5.7
		c-0.7-0.2-1.4-0.5-2-0.7l-14.3-4.1l-0.4,0.3l38,41.5c2.9,2.2,5.9,4.6,8.7,7.2l-0.1-0.1c-5.3-2.7-10.1-6.3-14.4-10.5
		c-4.3-4.4-8.4-9-12.5-13.7c-4-4.8-8.3-9.3-12.9-13.3l-3-2c-0.5-0.4-1-0.6-1.5-0.6s-1,0.2-1.6,0.7l-0.3,0.3c0.1,1.1,0.4,2.2,0.7,3.3
		l4,8.9l5.2,8.5c0.5,1,1,1.9,1.5,2.9c0.4,0.8,0.9,1.5,1.4,2.3l7.3,16.1l3.9,14.8c0.3,1.7,0.7,3.4,1,5.2c-0.6,1-0.6,1.8,0,2.6
		c0.5,0.7,0.7,1.6,0.4,2.7V483l-7.6-25.4l0.4-2.2l-5.7-11l0,0l-0.4,0.3l20.5,67.7h56.3c-2.1-10.1-4.2-20-6.4-29.9l-6.5-29.8
		c-1.1-2.3-1.7-4.7-2-7.3c-0.2-2.6-0.7-5.1-1.5-7.5c-0.4-8.5-1.1-17-1.9-25.4l-2.2-25.2c-0.4-0.2-0.6-0.6-0.4-1.1
		c0-0.5-0.2-0.8-0.8-0.8c-0.6,1.4-0.6,2.8,0,4.2h-0.1c-4.7-4.1-9.7-8.1-15-12c-5.3-3.9-9.7-8.6-13.4-14.2c-1.7-0.9-3.2-2.3-4.6-4.2
		c-1.3-1.9-2.8-3.4-4.5-4.5c-0.5-0.3-1.1-0.6-1.7-0.7L266.3,354.1z M304.3,398.5c0.8-2.1,1.2-4.3,1.1-6.6h1.9l-0.9,6.5
		c-0.4,2.2-0.5,4.3-0.2,6.5c0.1,2.1-0.2,4-1.1,5.6c-1,1.7-1.6,3.5-2,5.4c2,8.5,3.6,17.2,4.8,26.1c1.2,8.9,2.6,17.6,4.3,26.3
		l-1.7-5.7c-0.6-2-1.1-4-1.3-6.1l-8.7-41.8c-0.6-1-0.7-2.1-0.4-3c0.3,0.5,0.8,0.9,1.4,1.3c0.6,0.3,0.9,0.9,0.9,1.7
		c0.4-0.5,0.8-1.1,0.9-1.8l0.6-2c-1.5-2-2-4.1-1.5-6.1C302.8,402.7,303.4,400.6,304.3,398.5z"/>
	<path d="M305.4,391.9c0.1,2.3-0.3,4.5-1.1,6.6c-0.9,2.1-1.5,4.2-1.9,6.3c-0.5,2,0,4.1,1.5,6.1l-0.6,2c-0.1,0.7-0.5,1.3-0.9,1.8
		c0-0.8-0.3-1.4-0.9-1.7c-0.6-0.4-1.1-0.8-1.4-1.3c-0.3,0.9-0.2,2,0.4,3l8.7,41.8c0.2,2.1,0.7,4.1,1.3,6.1l1.7,5.7
		c-1.7-8.7-3.1-17.4-4.3-26.3c-1.2-8.9-2.8-17.6-4.8-26.1c0.4-1.9,1-3.7,2-5.4c0.9-1.6,1.2-3.5,1.1-5.6c-0.3-2.2-0.2-4.3,0.2-6.5
		l0.9-6.5H305.4z"/>
</g>
</svg>
