<?xml version="1.0" encoding="utf-8"?>
<!-- Generator: Adobe Illustrator 21.1.0, SVG Export Plug-In . SVG Version: 6.00 Build 0)  -->
<svg version="1.1" id="Слой_2" xmlns="http://www.w3.org/2000/svg" xmlns:xlink="http://www.w3.org/1999/xlink" x="0px" y="0px"
	 viewBox="0 0 512 512" style="enable-background:new 0 0 512 512;" xml:space="preserve">
<style type="text/css">
	.st0{fill:#67513C;}
	.st1{fill:#B09070;}
	.st2{fill:#D3B189;}
	.st3{fill:#FFFFFF;}
	.st4{fill:#724C3F;}
	.st5{fill:#B55C56;}
	.st6{fill:#DFC6A1;}
	.st7{fill:#CCCCCC;}
</style>
<g>
	<path d="M291.9,102.3c-3.5-1.3-7-2.7-10.5-4.2c-4.5-0.9-8.7-0.2-12.4,2l-17.7,10.6c-6,3.5-11.5,7.9-16.8,13.1
		c-3.4,4.1-5.3,8.8-5.7,13.9c-0.6,5.2-1.8,10.2-3.7,14.9c-0.1,2-0.6,3.7-1.4,5.3c-0.1,2.9-0.3,5.9-0.7,9c-0.7,0.4-1,0.9-0.7,1.7
		c0.2,0.7,0.4,1.4,0.5,2.1c0.7,1.5,0.5,3-0.6,4.2l-3.4,3.4c-0.6,2.8-0.2,5.3,1.1,7.5c-0.6,1.2-0.6,2.4,0,3.5c0.3,2.7,1.3,5.1,3,7.2
		c1.7,2.1,3.1,4.4,4.2,6.8c0.3,3.2,0.8,6.2,1.7,8.9c-5.6,7.1-10.8,14.4-15.5,21.9c-0.7,2.7-0.3,5.1,1,7.2l-3.5,3.2
		c-4.3,1.2-8.6,3-12.8,5.1c-4.2,2.1-7.3,5.4-9.3,10c-9.5,43-16.1,87.3-19.7,133c-0.4,10.9-0.1,21.6,1.1,32.2
		c1.2,10.6,1.6,21.3,0.9,32.1l-0.9,1.1l-1.6,18.6c-0.8,1.7-2.2,2.4-4.2,2.2l-5.3,0.1l-4.6,14c-1.4,4.6-2.1,9.5-2,14.6
		c0.9,0.4,1.8,0.4,2.6,0s1.7-0.6,2.5-0.6c2.2,1.2,3.4,2.9,3.5,5h2.3c0.7-11.4,2.8-22.3,6-32.7c2.8,2.3,5.8,4.4,8.9,6.2
		c3,1.7,5.9,4,8.5,6.9c1,0.7,2.2,1,3.5,1l0.2-0.4c0.4-0.5,0.8-0.8,1.4-0.8v1l-1.3,18.8h3.5c0.9-8.7,1.6-17.4,2.2-26.1l2.3-22.7
		c1.8-13,4.3-25.7,7.6-38.2c12.9,6.3,25.6,13.6,37.8,21.7c4.3,3.7,7.9,7.8,10.9,12.2l4.3,6v-0.5h0.2c0.7,1.1,1.5,2.3,2.6,3.4
		c1.3,1.3,2.2,2.7,3,4.1c0.7,1.5,0.6,3.1-0.2,5c-2.8,7.2-5.3,14.5-7.7,21.9c-1.2,4.4-2.7,8.8-4.2,13.2h1.4l10.3-25
		c0.2-0.9,0.8-1.6,1.7-2c1.1-0.6,2.1-0.5,2.8,0.2l3.1,26.8h4.1l-4.3-28.2c1.8-5.6,4.8-10.6,9.1-15.2c4.2-4.5,8.3-9.1,12.1-13.9
		l12.1-18.6c1.8-2.7,3.6-5.5,5.6-8.1l-0.1-0.2c2.4-3.6,5.4-7.3,9-11.1c1,1.6,1.5,3.5,1.4,5.9c-0.1,2.3,0,4.5,0.5,6.5
		c1.7,19,2.7,38.5,3,58.5c0.1,8.2,0,16.3-0.4,24.4h1.2l0.6-35.3c0.3-20-1-39.7-4.1-59.1l14.3-18.6c2.1-4.6,4.7-9,7.9-13.1l9.1-12.6
		c3.4-6.8,7-13.6,10.8-20.2c3.7-6.7,6.7-13.5,9.2-20.7v-10.6c-7.2-11.1-15.6-21.7-25.3-31.8c-9.7-10.2-19.6-20-29.7-29.5L298.8,247
		c0.3-2.4,1.4-4.1,3.6-5.3c2.2-1.1,3.1-3,2.7-5.6c-3.7-5.3-7-10.8-10-16.6c2.3-1.8,5-3.3,8-4.4c3.1-2.3,5-5.2,5.7-8.8
		c0.8-3.5,1.7-6.9,2.9-10.2c0-4.6-0.2-9.4-0.6-14.3c-0.4-5,0.2-9.7,1.8-14.3c1.3-1.5,2.2-3.4,2.5-5.7c0.5-10.7-0.1-21-1.7-31.1
		c-2.9-5.3-6.5-10.1-10.8-14.3c-2.2-2.2-4.1-4.6-5.5-7.1C295.9,106.7,294.1,104.4,291.9,102.3z M274.8,99.2
		c5.3,0.6,10.4,2.1,15.2,4.6l0.7,1c1.1,0.8,1.9,2,2.3,3.5l0.9,1.8l7.2,8.8c-0.6-0.2-1.4-0.9-2.3-2.1l-0.1-0.1l-1.2-0.7
		c-0.5-0.6-1-0.7-1.5-0.5l10.3,10.7l2.6,3c2.7,3.8,4.1,8.1,4,13l0.1,0.8l-0.4-0.3l0.3,3.4c0.3,2.4,0.5,4.8,0.4,7.2v1
		c0.2,4-0.4,7.8-1.8,11.3c-1.5-2.8-2.1-5.7-1.7-8.6c-2.6-9.1-7.2-17.3-14.1-24.6c-0.8-2.1-2.1-3.6-3.8-4.5c-0.3,0.7-0.2,1.5,0.3,2.2
		c-0.2,0-0.5-0.3-1.1-0.7c-0.5-0.5-0.9-0.2-0.9,0.7c1,1.8,2.2,3.5,3.7,5.1c6,12.3,10.4,25.3,13.3,38.9c0.4,2,0.9,3.9,1.4,5.7
		l0.3-0.4v0.6l0.1-0.1c0.2,1.6,0.2,3.7,0.2,6.3c-1.2,0-1.9-0.7-2-2l-0.1-0.7l-0.9-1.3c0.3,3.5,0.4,7,0.2,10.5L306,200
		c-0.5,5.2-2.5,9.8-5.9,13.6l-10,7.5v-0.5l-0.7,0.4l0.7-1.6c1-2,2.3-3.9,4-5.8l0.9-0.8l0.2-0.3l0.9-0.8c1.1-2,2.2-4.1,3.1-6.2
		l0.2-2.2l0.7-2.2l0.9-7.2v-0.1l-0.5-5c-0.3-1.7-0.9-3.2-1.7-4.7l-6.6-9.7l-1.7-3.9v-0.1l0.1,0.1l5.6,5.4c-0.6-3.1-2-5.9-4-8.5
		c-0.7-1-1.3-2.1-1.6-3.1l-0.4-1.2v-0.3c-0.3-1.4-0.3-3,0-4.7c-0.7-2.1-1.3-4.3-1.6-6.6l-0.3-1.6c-0.4-2.8-1.4-5.3-2.9-7.5
		c0.1,2.8,0.6,5.6,1.3,8.5c-0.2-0.7-0.5-1.2-1-1.6c0,3.8,0.7,7.6,1.9,11.4c-0.9-0.8-1.5-1.9-2.1-3l-1.1-2.7l-0.2-0.3
		c-0.3,0.6-0.7,0.8-1.1,0.3s-0.7-0.8-1.2-1c-0.5,2-0.1,3.8,1.5,5.5v6.4c-1.3-4.4-2.9-8.5-4.6-12.3c-0.9,0.6-1.1,1.4-0.8,2.3
		c0.4,1,0.3,1.9,0,2.8l-2,3.9c0.4-1.7,0.4-3.8,0-6.5c-2.4,2.7-4.6,5.5-6.6,8.3c1.1-3.5,2.6-7.2,4.6-11.2l-0.3-0.2l-6.3,7.4l0.1-0.7
		l-0.1-0.5v-0.3c-4.3,4-8.8,7.2-13.7,9.7c-4.8,2.4-9.3,5.5-13.5,9.3c0.6-0.6,0.8-1.2,0.9-1.9v-0.1l-0.1-0.4l-2.8,2.4l1.2-2.5l6.6-10
		l0.1-0.2l4.2-4.4l15.9-14.7h-1.1c-6.8,4.2-13.2,9.4-19.4,15.6c-6.1,6.2-9.9,13.3-11.2,21.3c-0.4,0.2-0.6,0.4-0.6,0.8h-0.6
		c1.4-8,5-15.3,10.7-21.8c5.6-6.6,11.9-12.2,18.9-17c-2.6,0.4-5,1.5-7.2,3.3l0.2-0.2c-0.6-0.2-1.2,0-1.8,0.3l-1,0.9
		c-5.3,3.8-10.3,8.3-14.9,13.3c-4.7,5.1-7.1,11-7.4,17.8l0.6,0.8c-0.8,7.5-1.2,14.8-1.5,22.1c0.9,2.5,2.2,4.9,3.8,7.2
		c-4.7-5.1-7.8-10.7-9.3-16.9c-1.5-1.2-2.3-2.6-2.4-4.2l0.1-0.7v-0.1l0.1-0.4c0.4-2.2-0.1-4.2-1.4-6c2.1-1.6,3.4-3.6,3.8-5.9
		l0.5-4.6l0.6-5c0.5-9.7,2.4-18.9,5.6-27.7l1-2.7l12.3-16.5l13.4-9.9l0.1-0.1l1.4-1C264.5,105.4,269.6,102.2,274.8,99.2z
		 M301.1,144.6l0.1,0.2c2.9,4.3,5.2,9,6.9,13.9c0.7,1.9,1.1,3.7,1.4,5.6c0.8,3.4,0.8,7,0,10.7c-1.1-3.4-2.1-7-2.9-10.8L301.1,144.6z
		 M285.4,165.3v-0.7l0.2,0.7c1.9,5.4,4.4,10.7,7.5,15.7c-2.4,0.5-4.8,1.2-7.2,2.1c-2.4,0.9-4.8,0.6-7.1-0.9
		c-0.1-1.3,0.4-2.5,1.2-3.6c0.9-1.1,0.7-2.1-0.3-3.1c-1.4,2.7-2.6,5.6-3.5,8.6l-0.5-0.3c-0.3,0.2-0.4,0.5-0.4,0.9
		c0.5,0.8,1.1,1.2,1.9,1.3c0.9-0.1,1.3,0.3,1.4,1.3c0.5,0.4,1.1,0.9,1.8,1.3c0.6,0.4,0.8,1,0.4,1.8l-0.3,0.3l8.1,6.2
		c3.5,1.3,6.8,0.7,9.6-1.6c-0.5,8.7-4,15.9-10.7,21.9c-6.6,5.9-13.6,10.6-20.7,14.1c-5.3,0-9.6-2-13.2-6.1
		c-3.5-4.1-7.2-7.7-11.1-10.7c-3.3-4-5.3-8.7-5.9-14c-0.6-5.4,0.3-10.4,2.8-15c1.1,0.3,2.3,1,3.6,2.2c1.3,1.1,2.6,1.2,4.1,0.2
		l7.6-0.6c-1.2-1-2.8-1.6-4.7-1.8c1.9-0.5,4-0.1,6.3,1c2.4,1,3.7,0,3.9-3.3l4.3-0.5c-0.7,0.6-1.3,1.3-1.6,2c2,0.1,3.8-0.9,5.3-2.9
		c-0.2-1.1,0.1-2,0.9-2.9c0.7-0.9,1.3-1.8,1.7-2.8c-1,0.3-1.8,1-2.5,2.2c-0.6,1.1-1.5,2.1-2.6,2.7c-4.8-0.3-9-1.9-12.6-4.9l12.8-9.4
		c-1.3,2.3-2.4,4.7-3.4,7.4c4.2-3.6,8-7.5,11.5-11.7l-1,5.7c-0.4,1.9-0.3,3.8,0.3,5.7l2.4-4.2c-0.1,0.3,0,0.6,0.3,0.8
		c1.8-2.5,3-5.2,3.4-8.2c0.4,3.6,1.2,7.1,2.5,10.4l0.3-0.2l2.3,7.4h0.7L285.4,165.3z M281,186.9l-1.3-0.3c5,0.9,10.2,1,15.4,0.1
		l1.5,0.8l-0.4-0.1c-1.6-0.4-3.5-0.3-5.6,0.1c-2.2,0.5-4.4,0.5-6.7,0L281,186.9z M294.3,191.2v0.1c-0.2,1-0.8,1.6-1.8,1.7
		c-3.6,0.4-6.8-0.3-9.3-2.2l-0.1-0.1v-0.9l0.1,0.1c0.9,1.3,2.1,1.7,3.6,1.3c0.6-0.8,1.2-1.3,2-1.7
		C291,189.3,292.7,189.8,294.3,191.2z M292.9,221.2v0.1c3.1,4.8,6,9.9,8.8,15.2l-0.3,2.3c-4.2,4.6-7.9,9.3-11.3,14.2H290l-7.8-22.2
		L292.9,221.2z M277.1,231.9h0.2c-0.4,1.4-0.1,2.2,1.1,2.6c4.2,11,8.2,22.1,12,33.5c1.1,6.9,0.2,13.2-2.8,18.8
		c-3,5.7-6.6,11.1-10.7,16.3h-0.1c4-5.1,7.6-10.6,10.6-16.3c3-5.6,3.9-11.9,2.8-18.9c-3.7-11.3-7.7-22.4-12-33.4
		C277.1,234.1,276.7,233.3,277.1,231.9z M276.1,236.6l0.1-0.1v0.1l0.1-0.1c3.7,11.5,7.7,22.8,11.9,34.1c-0.2,5.5-1.2,10.9-2.8,15.9
		v-0.1v0.1c-1.7,4.9-4.7,9.2-9.1,12.8l-0.1,0.1c-0.1-10.4-2.9-19.6-8.3-27.7l-0.8-1.2c0.1,2.4,0.7,4.8,1.7,7.1s1.9,4.7,2.6,7.1
		c1.3,4.8,1.8,9.8,1.5,15.2c-6.8-0.1-12.9-2-18.4-5.6c-4.1-2.8-7.7-6.3-10.6-10.4l-2.5-4c-0.7-4.4-1.5-8.7-2.4-12.9l-1-4.9
		c-0.8-3.6-1.2-7.3-1.5-11.1l6.8-3.4h0.1c4.9,1.3,9.7,3,14.2,5.1l0.3-0.2c3.8-3.9,7.9-7.5,12-11L276.1,236.6z M265.7,235.3l6.8-4.3
		c0.8,0.9,0.8,1.7,0.3,2.6l-1.4,2.5c-3.4,2.3-7.3,2.9-11.8,2c-2.8-0.7-5.4-2.1-7.6-4.1l-1-0.9l0.4,0.2
		C255.9,235.8,260.7,236.5,265.7,235.3z M297.2,247.6c-0.5,0.7-0.7,1.5-0.5,2.3c2.9,4.1,5.1,8.5,6.7,13.2l-5.3,18.6
		c3.8,15.7,6.9,31.6,9.4,47.9l-0.1,0.1c-2.4-16.3-5.6-32.3-9.4-48l5.3-18.6c-1.6-4.8-3.8-9.1-6.7-13.2
		C296.4,249,296.6,248.2,297.2,247.6L297.2,247.6z M294.7,249.9L294.7,249.9l4.2,7c1.3,2.4,1.8,5,1.6,7.9c-1.5,3.1-2.8,6.3-3.9,9.7
		l0,0l-6.1-20C291.7,252.8,293.1,251.3,294.7,249.9z M323.7,274.2l0.1-0.2c0.4,7.5-0.6,14.5-3.2,21.1l-2.1,3.6
		c-0.8,1.1-0.3,2.1,1.3,3.1c-1.7-1-2.2-2-1.4-3.2l2.1-3.5C323,288.5,324.1,281.5,323.7,274.2z M316.2,264.1l0.1,0.1
		c1.1,3.6,2.4,7,4.1,10.3c0.2,2.9,0.7,5.5,1.3,7.9v0.1c-0.7-2.5-1.2-5.1-1.5-8C318.6,271.2,317.3,267.7,316.2,264.1l-1.3-0.9v-0.1
		L316.2,264.1z M341.1,301.6l-0.2,0.1l3.4-8.9l-0.5-0.5l0.7,0.5L341.1,301.6z M348.2,299.5h0.2c-0.7,2.6-2.1,4.7-4.3,6.4
		c-2.4,1.7-4.5,3.5-6.4,5.5l-2.1,2.3c-0.8,0.7-0.9,1.5-0.1,2.5h-0.1c-0.8-1-0.7-1.9,0.1-2.6l2.2-2.3c1.8-2,3.9-3.7,6.3-5.4
		C346.2,304.3,347.6,302.1,348.2,299.5z M364.1,319l1.3,0.4l0,0L364.1,319z M369.2,322.5l1.2,2.1c0.8,2.6,0.3,4.7-1.6,6.3
		c-0.5,0-0.9,0.1-1.3,0c0.3,0,0.7,0,1.1,0c2-1.6,2.6-3.7,1.7-6.3L369.2,322.5z M359.6,313.7h-0.1l0.6-0.6l0.1,0.1L359.6,313.7z
		 M348.2,326.2l0.2,0.1v0.3c-0.2,0.2-0.4,0.3-0.7,0.2v0.6l0,0v-0.6l0,0l0.5-0.2V326.2z M362.3,328l0.1,0.1c0.6,1.7,1.4,3.4,2.3,5.2
		c0.9,1.8,0.8,3.6-0.3,5.6v-0.1c1.1-2,1.2-3.8,0.3-5.6C363.7,331.5,363,329.7,362.3,328z M350.6,320.8c3.1-1.9,6.6-2,10.3-0.3
		l3.2,0.4l-3.1-0.3c-3.7-1.7-7.2-1.6-10.3,0.2l-9.1,5.5v2.2h-0.1v-2.3L350.6,320.8z M340.9,317.1c-0.3-1.1,0-2.1,1.1-3.2
		c0.9-1.1,2.1-1.8,3.4-2L340.9,317.1z M328.9,312.6c1,0.9,1.7,2,2.1,3.4c0.2,1.3,1.2,2.3,2.8,2.8c1.2,1.6,1.7,3.4,1.2,5.6
		c-0.3,2.1-1,4.1-1.9,5.9l-2.2,7.7l-13.5,28.8l-2.9-0.2c-1-0.5-1.3-1.5-0.9-3.1c0.6-2.6,0.7-4.8,0.3-6.9c0.8-17.4,2.2-34.5,4.1-51.3
		l0.1,0.1l4.1,2.6l1.2,1.1c1.3,1.4,2.9,2.5,4.7,3.2h0.2l0.5,0.2L328.9,312.6z M312.2,328.5c2-3.2,2.4-6.8,1.2-10.9v-0.2
		c1.3,4.2,0.9,7.9-1.1,11.2l-6.5,9.5c-0.7,4.4-0.6,8.7,0.6,12.9l3.1,12.3l-0.1,0.1l-3.1-12.5c-1.1-4.2-1.3-8.4-0.6-12.9L312.2,328.5
		z M304.6,328.5v0.1l-7.3,3.7l-0.8,0.1l0.7-0.1L304.6,328.5z M307.7,337.9v-0.2l1,12.1l-0.1-0.3L307.7,337.9z M312.6,339.7l0.3,0.4
		v0.2L312.6,339.7z M334,340.3l1.8-0.6l2.6-5.8c0.8-2,2.3-3.3,4.5-3.6c1.6-1,3.3-1.6,5-1.9c-1.6,0.3-3.2,0.9-4.9,1.9
		c-2.2,0.4-3.7,1.7-4.5,3.7l-2.7,5.7l-1.7,0.6c-4.4,9.5-9.3,18.8-14.6,28l0.5,0.3l-0.6-0.3C324.7,359.1,329.6,349.8,334,340.3z
		 M287.7,328.9l0.7,0.2h-0.2L287.7,328.9z M280.2,326.2L280.2,326.2l0.5,0.2L280.2,326.2z M295.5,337.5c2.6-0.5,5-0.9,7.5-1
		c1,6.2,2,12.8,2.8,19.8c0.9,6.9,1.8,13.4,2.8,19.5c-4,3.3-8.5,5.7-13.4,7.4v-0.5c-7.6,3.3-15.8,5.6-24.4,7
		c-13.5,2.2-27.1,2-40.9-0.8l-5.5-1v-5.1c2.7-1.7,5.2-3.9,7.6-6.2c2.3-2.5,4.8-4.4,7.6-5.8c1.6-1.7,2.1-3.2,1.5-4.5l0.8,0.5
		c0.6-3.2,0.9-6.5,1.2-10c4.2-5.3,9-9.8,14.4-13.5c5.5-3.6,10.9-7.2,16.2-10.7c4.9,0.6,9.5,1.9,14,3.8l0.5,0.2l-0.1-0.6
		C290.5,337.6,293,338.1,295.5,337.5z M300.8,400l0.1,0.1c2.2,3.5,3,7.5,2.5,11.8c-0.5,4.3-1.3,8.4-2.3,12.1l0.1-0.1
		c1.9-1.7,3-3.9,3.7-6.4c0.5-2.7,1.4-5,2.5-7.2c1.6-0.2,2.5-0.9,2.9-2.2l0.8-3.9c-0.4-7.7-2.3-14.8-6-21.4c1.2-1.6,2.6-2.8,4.3-3.7
		l0.1,0.1c3.6,9.3,6.3,19,8.2,29.1c-2.7,6.6-6.3,12.9-10.9,18.8c-4.6,5.6-9.6,11.3-14.7,17c-5,5.5-10.5,10.3-16.5,14.3l-0.3,0.2
		c5.2-7.7,9.6-15.9,13.4-24.4c3.9-8.6,5.9-17.9,6-28C296.2,403.7,298.2,401.6,300.8,400z M311.7,374.8l4.5-4.5
		c9.2,1.1,16,5.8,20.6,13.9l0.5,2.7l0.2,1.3c0.2,3.2-0.6,6.3-2.6,9.4l-0.9,1l-0.4,0.4l-0.9,1l-2.5,2.9c-2.6,3.2-5.1,6.4-7.6,9.8
		c0.1-0.5,0.2-1.2,0.5-2.2l-0.9-2.4L322,408v-0.2c-0.7-1.2-0.9-2.6-0.5-4.1l-0.7-2.2l-0.2-0.6h0.1
		C318.1,392,315.1,383.3,311.7,374.8z M246.5,180.4L246.5,180.4l0.7,1.4l1.3,1.2c1.9-1.2,4-1.7,6.2-1.2c0.6,0.5,1.3,0.7,2.3,0.6
		l0.7,0.1c0.3,0.3,0.2,0.8-0.1,1.6l-5.9-0.1c-2.1,0-3.9-0.6-5.5-1.8l0,0C245.9,181.6,246,181,246.5,180.4z M236.9,214l-0.1-0.2h0.8
		l0.6-1.1l0.1,0.2c0.2,0.8,0.3,1.7,0.2,2.6L236.9,214z M230.8,217L230.8,217c-0.4,12.7-0.3,25.2,0.6,37.7c-2.6-3.7-5.4-7.1-8.5-10.1
		l-5.5-5h-0.1c-1.1-1.9-1.4-3.9-0.8-6c3.4-6.4,7.8-12.6,12.9-18.3L230.8,217z M256.5,242.4l-3.4-0.5c-1.2-0.3-2.3-0.7-3.3-1.3
		l-0.4-0.1h0.2c1,0,1.8-0.2,2.6-0.7l-0.3-0.3l-3.7-3.6l-2-2l0.5,0.3c2,1.3,4,2.8,5.8,4.5c2.1,1.8,4.5,2.6,7.5,2.3l5.4-0.2
		c-2.2,1.1-4.7,1.6-7.8,1.7L256.5,242.4z M215,247.5l2.9,2.1c-0.2,1.4-1,2.5-2.1,3.7c-1.3,1.1-1.9,2.4-1.9,4.1
		c-0.4,1.1-0.3,2.1,0.1,2.9l1.2,1.4c0.5,0.4,0.8,0.8,0.9,1.2c0.2,0.8-0.4,1.6-1.6,2.4v0.6v0.1c3.1,2.6,6.2,5.2,9.5,7.5l0.6,0.4
		l4.3,3.8l3,3.3l0.9,1.2c3,28,4.7,56.5,5.1,85.5c-1.9,1.1-4,1.6-6.3,1.6l-6.9,0.4l-11.9-0.9c-0.1,0.9,0,1.8,0.4,2.8l0.7,1h-0.1
		c-1.1-0.6-2-1.3-2.8-2.2c-0.6-0.7-1.1-1.5-1.4-2.5c-0.8-14.6-2.8-28.8-6-42.5l-7.1-58.8l-0.5-2.1l-0.1-0.7l-2.6-6.8v0.1l1.9,26
		l-0.6-1.7l-0.7-1.6v-0.1l0.3,11.5l-0.8,5.7c-0.5,1.7-1.2,3.4-2,5l0.7,11.7l4,18.1c0.4,6.2,1.1,12.5,2,18.9c0.8,6.3,0.5,12.5-1,18.7
		v0.1l0.3,0.4c0.3,0.8,0.6,1.6,0.7,2.4l-12.1,0.4c-4,0-7.7,0.6-11.3,2l0.1,0.8l0.5,0.7c7.6,0,14.8-0.8,21.8-2.5l-0.3,0.2
		c-7.5,3.8-14.7,7.9-21.7,12.5h0.1c4.5-0.2,8.8-1.2,12.8-3.2c4.2-2,7.6-5,10.1-9.1h0.6l0.1,0.1c1.3,4.5,1.5,9,0.6,13.6
		c-1.1,4.5-1.7,9-1.8,13.4V401l1.4-3.9v0.3l0.4,30c0.1,10.2-1.1,19.8-3.5,28.9c-3.4,1.8-7.2,2.6-11.4,2.6c-4.1-0.1-7.9-0.7-11.4-2
		H173c0.2-9.6-0.3-19.2-1.4-28.7c-1.1-9.6-1.6-19.3-1.7-29.1c1.2-13.9,2.9-27.5,5.2-41c2.3-13.4,3.7-27.2,4.2-41.3
		c2.6-18.5,6-36.6,10.2-54.4c2-4.2,4.9-7.7,8.8-10.2c4-2.6,8-4.6,12.1-6.1c1.6-0.2,2.9,0.1,4.1,1L215,247.5z M231.4,256.5l0.5,15.1
		L218.2,257l6-7.4L231.4,256.5z M239.5,281.1c-0.7,0-1.2,0.2-1.7,0.8c0.5,9.6,1.5,19,3,28.2s2.5,18.6,3,28.2l0.8,0.8h-0.1l-0.9-0.8
		c-0.5-9.6-1.5-19-2.9-28.2c-1.6-9.2-2.6-18.6-3.1-28.2C238.1,281.3,238.7,281,239.5,281.1z M250.4,334.2v-0.1
		c0.8-0.6,1.7-0.8,2.8-0.8C252.1,333.3,251.2,333.6,250.4,334.2z M249.6,333.7h0.4l0,0h-0.5H249.6z M203.3,340.5h0.9v0.1l2.3,7.1
		l1,26.9c4.5,3,6.1,7.2,5,12.5l-8,31.5c-0.2,0.6-0.6,0.9-1.1,0.6h-0.1c-0.6-0.3-0.9,0-1.1,0.8v1.2c-1.1-13.9-1.1-27.6,0-41.2
		c-0.3-2.8-0.8-5.4-1.5-8s-1-5.3-0.8-8.3c-0.1-4.1,0.4-8,1.4-11.7C202.4,348.4,203,344.5,203.3,340.5z M215.1,389.9
		c1.5-0.2,3,0.2,4.2,1.2l1.8,1.6l2.3,1.5l1,0.4c0.8,1.3,0.9,2.7,0.3,4.3c-1.3,2.9-2.8,5.8-4.4,8.5c-1.6,2.8-2.4,6-2.4,9.5l0,0
		l2.7,1.8l1,0.7l0,0c-0.5,0-1,0.2-1.4,0.6l3,2.7c1.2,0.9,1.6,2,1.2,3.4c5.4,3.3,10.4,7.2,15,11.9c-10.2-6.5-21.1-12-32.6-16.6
		c-0.6-1.6-0.4-3.1,0.5-4.5C209.4,407.7,212,398.7,215.1,389.9z M171,465.1l1.8-6.7c7.1,3.2,14.6,3.8,22.5,2l-2.5,25.7
		c-8.3,0.3-15.5-2.5-21.8-8.3C170.3,473.8,170.3,469.6,171,465.1z M156.4,492.3c-1,3.2-0.8,6.4,0.6,9.7c0.5,0.6,1,0.9,1.8,1
		c0.6,0.1,1,0.6,1.1,1.4c-2.3-0.1-4.5,0.3-6.3,1.1c0-4.6,0.8-8.9,2.4-13.1c1.6-4.1,3.1-8.4,4.4-12.6c1.3-0.9,2.7-1,4-0.6
		c-1.3,0.1-2.8,0.9-4.3,2.6l5.4,0.5c-1.7-0.1-3.5,0.2-5.4,0.9C158.8,486.1,157.5,489.1,156.4,492.3z"/>
	<path class="st0" d="M290,103.8c-4.8-2.5-9.9-4-15.2-4.6c-5.2,3-10.3,6.2-15.3,9.6l-1.4,1l-0.1,0.1l-13.4,9.9l-12.3,16.5l-1,2.7
		c-3.2,8.8-5.1,18-5.6,27.7l-0.6,5l-0.3,3.9l-0.2,0.7c-0.4,2.3-1.7,4.3-3.8,5.9c1.3,1.8,1.8,3.8,1.4,6l-0.1,0.4v0.1v0.4l-0.1,0.3
		c0.1,1.6,0.9,3,2.4,4.2c1.5,6.2,4.6,11.8,9.3,16.9c-1.6-2.3-2.9-4.7-3.8-7.2c0.3-7.3,0.7-14.6,1.5-22.1l-0.6-0.8
		c0.3-6.8,2.7-12.7,7.4-17.8c4.6-5,9.6-9.5,14.9-13.3l1-0.9c0.6-0.3,1.2-0.5,1.8-0.3l-0.2,0.2c2.2-1.8,4.6-2.9,7.2-3.3
		c-7,4.8-13.3,10.4-18.9,17c-5.7,6.5-9.3,13.8-10.7,21.8h0.6c0-0.4,0.2-0.6,0.6-0.8c1.3-8,5.1-15.1,11.2-21.3
		c6.2-6.2,12.6-11.4,19.4-15.6h1.1l-15.9,14.7l-4.2,4.4l-0.1,0.2l-6.6,10l-1.2,2.5l2.8-2.4l0.1,0.4v0.1c-0.1,0.7-0.3,1.3-0.9,1.9
		c4.2-3.8,8.7-6.9,13.5-9.3c4.9-2.5,9.4-5.7,13.7-9.7v0.3h0.1v0.5l-0.1,0.7l6.3-7.4l0.3,0.2c-2,4-3.5,7.7-4.6,11.2
		c2-2.8,4.2-5.6,6.6-8.3c0.4,2.7,0.4,4.8,0,6.5l2-3.9c0.3-0.9,0.4-1.8,0-2.8c-0.3-0.9-0.1-1.7,0.8-2.3c1.7,3.8,3.3,7.9,4.6,12.3
		v-6.4c-1.6-1.7-2-3.5-1.5-5.5c0.5,0.2,0.8,0.5,1.2,1s0.8,0.3,1.1-0.3l0.2,0.3l0.2,0.3c0.2,0.8,0.5,1.5,0.8,2.1l0.1,0.3
		c0.6,1.1,1.2,2.2,2.1,3c-1.2-3.8-1.9-7.6-1.9-11.4c0.5,0.4,0.8,0.9,1,1.6c-0.7-2.9-1.2-5.7-1.3-8.5c1.5,2.2,2.5,4.7,2.9,7.5
		l0.3,1.6c0.3,2.3,0.9,4.5,1.6,6.6c-0.3,1.7-0.3,3.3,0,4.7v0.3l0.4,1.2c0.3,1,0.9,2.1,1.6,3.1c2,2.6,3.4,5.4,4,8.5l-5.6-5.4h-0.1
		l1.7,3.9l6.6,9.7c0.8,1.5,1.4,3,1.7,4.7l0.5,5v0.1l-0.9,7.2l-0.7,2.2l-0.2,2.2c1.4-3.5,2.3-7.2,2.8-11.1c2.1-2.6,3.2-5.6,3.5-9
		c0.4-0.1,0.6-0.4,0.6-0.8c0.3,2.7,0.4,5.4,0.3,8.1c0.2-3.5,0.1-7-0.2-10.5l0.9,1.3c-0.2-0.9-0.6-1.8-1-2.4l1.2-6.1l1.4,5.1l0.2-0.1
		v-0.6l-0.3,0.4c-0.5-1.8-1-3.7-1.4-5.7c-2.9-13.6-7.3-26.6-13.3-38.9c-1.5-1.6-2.7-3.3-3.7-5.1c0-0.9,0.4-1.2,0.9-0.7
		c0.6,0.4,0.9,0.7,1.1,0.7c-0.5-0.7-0.6-1.5-0.3-2.2c1.7,0.9,3,2.4,3.8,4.5c6.9,7.3,11.5,15.5,14.1,24.6c0-0.9,0.2-1.7,0.5-2.6
		c1-3.8,1.2-7.8,0.3-11.9c-0.6-5.6-2.6-10.5-6-14.9c-3.4-4.4-7.2-8.6-11.4-12.7c-0.9-2.6-2-5.1-3.4-7.6c-1.4-2.5-3.6-4.1-6.6-4.8
		v-1.2l6.2,2.7l1.3,0.8L290,103.8z M278.6,101.5l0.3,1.7l2.1,21.9v0.9c-0.1,8.5-0.6,16.8-1.3,25
		C280.1,134.3,279.8,117.8,278.6,101.5z M292.5,149.5c0.4,8.7,2.5,16.7,6.1,24.1C293.9,166.6,291.8,158.6,292.5,149.5z M274.5,149.7
		c-1.6,2.9-3.8,5.7-6.6,8.6C269.7,155.3,271.9,152.4,274.5,149.7z M278.6,141.6c-4.2,6.2-9.1,11.8-15,16.9L246,172.4
		c4.7-5.2,10.1-10.3,16.1-15C268.1,152.6,273.6,147.3,278.6,141.6z M251,127.9l-3.7,3c2.8-0.8,5.7-1.8,8.6-3l-2.8,2.8l7.3-1.2
		c-5.7,1.7-11.1,4.8-16,9.3c-5,4.5-9,9.4-12.2,14.8h-0.6c0.1-2.9,1-5.4,2.6-7.7l5.4-6.4c-0.6-0.2-1.1-0.2-1.6,0.3
		c-0.5,0.4-1,0.5-1.5,0.3C240.6,134.6,245.4,130.5,251,127.9z M238.7,150.2l-4,5.7l-0.9,1.5l-4.9,11.5l-1.1,5.5
		c-0.2,1.9-0.4,3.8-0.4,5.7l-0.1,0.8l0.1,0.4l-0.1,2.4l-0.2,7.9c-1.8-11.1-0.5-21.5,4-31.2c4.5-9.8,11.6-17.6,21.4-23.4
		c1.8-1.4,3.7-2.6,5.7-3.8l-5.1,3.4l-0.6,0.4l-2.5,1.9l-0.2,0.2C245.6,142.4,241.9,146.1,238.7,150.2z M248.2,168.1
		c1.7-3.9,4.3-7.4,7.8-10.4s7-5.7,10.5-8.2L248.2,168.1z M237.6,160.7c-2.6,3.6-4.6,7.5-6,11.7C232.4,168,234.4,164.1,237.6,160.7z
		 M228.8,197.2l0.6,6.4C228.3,201.6,228.1,199.4,228.8,197.2z"/>
	<path d="M278.9,103.2l-0.3-1.7c1.2,16.3,1.5,32.8,1.1,49.5c0.7-8.2,1.2-16.5,1.3-25v-0.9L278.9,103.2z"/>
	<path d="M298.6,173.6c-3.6-7.4-5.7-15.4-6.1-24.1C291.8,158.6,293.9,166.6,298.6,173.6z"/>
	<path d="M267.9,158.3c2.8-2.9,5-5.7,6.6-8.6C271.9,152.4,269.7,155.3,267.9,158.3z"/>
	<path d="M263.6,158.5c5.9-5.1,10.8-10.7,15-16.9c-5,5.7-10.5,11-16.5,15.8c-6,4.7-11.4,9.8-16.1,15L263.6,158.5z"/>
	<path d="M247.3,130.9l3.7-3c-5.6,2.6-10.4,6.7-14.5,12.2c0.5,0.2,1,0.1,1.5-0.3c0.5-0.5,1-0.5,1.6-0.3l-5.4,6.4
		c-1.6,2.3-2.5,4.8-2.6,7.7h0.6c3.2-5.4,7.2-10.3,12.2-14.8c4.9-4.5,10.3-7.6,16-9.3l-7.3,1.2l2.8-2.8
		C253,129.1,250.1,130.1,247.3,130.9z"/>
	<path d="M234.7,155.9l4-5.7c3.2-4.1,6.9-7.8,11.1-11.1l0.2-0.2l2.5-1.9c-9.8,5.8-16.9,13.6-21.4,23.4c-4.5,9.7-5.8,20.1-4,31.2
		l0.2-7.9v-2.8l0.1-0.8c0-1.9,0.2-3.8,0.4-5.7l1.1-5.5l4.9-11.5L234.7,155.9z"/>
	<path d="M253.1,136.6l5.1-3.4c-2,1.2-3.9,2.4-5.7,3.8L253.1,136.6z"/>
	<path d="M256,157.7c-3.5,3-6.1,6.5-7.8,10.4l18.3-18.6C263,152,259.5,154.7,256,157.7z"/>
	<path d="M231.6,172.4c1.4-4.2,3.4-8.1,6-11.7C234.4,164.1,232.4,168,231.6,172.4z"/>
	<path d="M229.4,203.6l-0.6-6.4C228.1,199.4,228.3,201.6,229.4,203.6z"/>
	<path class="st1" d="M283.2,101.3v1.2c3,0.7,5.2,2.3,6.6,4.8c1.4,2.5,2.5,5,3.4,7.6c4.2,4.1,8,8.3,11.4,12.7
		c3.4,4.4,5.4,9.3,6,14.9c0.9,4.1,0.7,8.1-0.3,11.9c-0.3,0.9-0.5,1.7-0.5,2.6c-0.4,2.9,0.2,5.8,1.7,8.6c1.4-3.5,2-7.3,1.8-11.3v-1
		c0.1-2.4-0.1-4.8-0.4-7.2l-0.3-3.4l0.4,0.3l-0.1-0.8l-0.9-5c-0.5-2.9-1.5-5.6-3.1-8l-2.6-3l-0.6-0.6c-3.6-3.2-7-6.5-9.9-10l0.2-0.1
		c0.5-0.2,1-0.1,1.5,0.5l1.2,0.7h0.5l-6-7.5l-0.2-0.9c-0.4-1.5-1.2-2.7-2.3-3.5l-1.3-0.8L283.2,101.3z"/>
	<path class="st0" d="M305.7,125.6l0.6,0.6L296,115.5l-0.2,0.1C298.7,119.1,302.1,122.4,305.7,125.6z"/>
	<path class="st0" d="M312,137.2l0.9,5c0.1-4.9-1.3-9.2-4-13C310.5,131.6,311.5,134.3,312,137.2z"/>
	<path class="st0" d="M298.7,116.7L298.7,116.7c1,1.3,1.8,2,2.4,2.2l-7.2-8.8l-0.9-1.8l0.2,0.9l6,7.5H298.7z"/>
	<path class="st1" d="M302,194.4c-0.5,3.9-1.4,7.6-2.8,11.1c-0.9,2.1-2,4.2-3.1,6.2c-1.7,2.7-3.7,5.3-6,7.7v1.2v0.5l10-7.5
		c3.4-3.8,5.4-8.4,5.9-13.6l0.4-7.3c0.1-2.7,0-5.4-0.3-8.1c0,0.4-0.2,0.7-0.6,0.8C305.2,188.8,304.1,191.8,302,194.4z"/>
	<path class="st1" d="M308.9,180l-0.2,0.1l-1.4-5.1l-1.2,6.1c0.4,0.6,0.8,1.5,1,2.4l0.1,0.7c0.1,1.3,0.8,2,2,2c0-2.6,0-4.7-0.2-6.3
		L308.9,180z"/>
	<path class="st0" d="M296.1,211.7l-0.9,0.8l-0.2,0.3l-0.7,0.7l-0.2,0.1c-1.7,1.9-3,3.8-4,5.8C292.4,217,294.4,214.4,296.1,211.7z"
		/>
	<path class="st0" d="M290.1,219.4l-0.7,1.6l0.7-0.4V219.4z"/>
	<path class="st0" d="M309.5,164.3c-0.3-1.9-0.7-3.7-1.4-5.6c-1.7-4.9-4-9.6-6.9-13.9l5.2,18.7l-0.1-0.8l2-2L309.5,164.3z"/>
	<path class="st1" d="M306.4,163.5l0.2,0.7c0.8,3.8,1.8,7.4,2.9,10.8c0.8-3.7,0.8-7.3,0-10.7l-1.2-3.6l-2,2L306.4,163.5z"/>
	<path class="st2" d="M285.6,165.3h-0.2l-0.2,14.5h-0.7l-2.3-7.4l-0.3,0.2c-1.3-3.3-2.1-6.8-2.5-10.4c-0.4,3-1.6,5.7-3.4,8.2
		c-0.3-0.2-0.4-0.5-0.3-0.8l-2.4,4.2c-0.6-1.9-0.7-3.8-0.3-5.7l1-5.7c-3.5,4.2-7.3,8.1-11.5,11.7c1-2.7,2.1-5.1,3.4-7.4l-12.8,9.4
		c3.6,3,7.8,4.6,12.6,4.9c1.1-0.6,2-1.6,2.6-2.7c0.7-1.2,1.5-1.9,2.5-2.2c-0.4,1-1,1.9-1.7,2.8c-0.8,0.9-1.1,1.8-0.9,2.9
		c-1.5,2-3.3,3-5.3,2.9c0.3-0.7,0.9-1.4,1.6-2l-4.3,0.5c-0.2,3.3-1.5,4.3-3.9,3.3c-2.3-1.1-4.4-1.5-6.3-1c1.9,0.2,3.5,0.8,4.7,1.8
		l-7.6,0.6c-1.5,1-2.8,0.9-4.1-0.2c-1.3-1.2-2.5-1.9-3.6-2.2c-2.5,4.6-3.4,9.6-2.8,15c0.6,5.3,2.6,10,5.9,14
		c3.9,3,7.6,6.6,11.1,10.7c3.6,4.1,7.9,6.1,13.2,6.1c7.1-3.5,14.1-8.2,20.7-14.1c6.7-6,10.2-13.2,10.7-21.9
		c-2.8,2.3-6.1,2.9-9.6,1.6l-8.1-6.2l0.3-0.3c0.4-0.8,0.2-1.4-0.4-1.8c-0.7-0.4-1.3-0.9-1.8-1.3c-0.1-1-0.5-1.4-1.4-1.3
		c-0.8-0.1-1.4-0.5-1.9-1.3c0-0.4,0.1-0.7,0.4-0.9l0.5,0.3c0.9-3,2.1-5.9,3.5-8.6c1,1,1.2,2,0.3,3.1c-0.8,1.1-1.3,2.3-1.2,3.6
		c2.3,1.5,4.7,1.8,7.1,0.9c2.4-0.9,4.8-1.6,7.2-2.1C290,176,287.5,170.7,285.6,165.3z M271.4,176.9l-0.3,1l-0.9,0.8L271.4,176.9z
		 M275.7,187.9l-0.2,0.8l0.3-0.4l-2.4,7.4v-0.4l-0.1,0.2C272.9,192.5,273.7,189.9,275.7,187.9z M275.3,183c-2,4.8-3.5,9.8-4.5,15.1
		C271.1,192.6,272.6,187.6,275.3,183z M282.8,217.3h-0.6c-0.3-1.6,0.3-2.4,1.7-2.6C284,215.8,283.7,216.6,282.8,217.3z M267.7,208.2
		l-4.6-0.9c-0.8-1.4-1.9-2.5-3.1-3.2c1.7,0,3.5,0.9,5.1,2.6c1.7,1.6,3.6,1.6,5.7,0c1.8-1.4,2.8-3,3.2-5c0.2,2.2-0.4,3.9-2.1,5
		C270.7,208.1,269.3,208.5,267.7,208.2z M268.8,215.3c1,0,1.9,0.5,2.7,1.4c0.8,0.8,1.7,1,2.8,0.6c0.7,0.6,1.1,1.3,1,2.2
		c0-0.5-0.3-0.9-0.8-1.3l-1.6,0.3v0.1v-0.1l-1.1,1l-0.7,1.5c-0.3,0.6-0.4,1.2-0.5,1.9c-0.1,1-0.7,1.7-1.8,2.1l-11.4-1.4L255,221
		c-0.8-1-0.9-2.1-0.3-3.5l0.6,2.1c0.3-1.6,0-3.1-0.9-4.5l-2.2-0.3l0.1-0.1h-0.6c0.9-0.8,1.9-0.9,2.9-0.1c1,0.7,2.1,0.8,3.3,0.1
		c2-1.8,3.7-1.8,5.4-0.1C264.9,216.4,266.7,216.6,268.8,215.3z"/>
	<path d="M271.1,177.9l0.3-1l-1.2,1.8L271.1,177.9z"/>
	<path d="M275.5,188.7l0.2-0.8c-2,2-2.8,4.6-2.4,7.6l0.1-0.2L275.5,188.7z"/>
	<path class="st3" d="M275.8,188.3l-0.3,0.4l-2.1,6.6v0.4L275.8,188.3z"/>
	<path d="M270.8,198.1c1-5.3,2.5-10.3,4.5-15.1C272.6,187.6,271.1,192.6,270.8,198.1z"/>
	<path d="M282.2,217.3h0.6c0.9-0.7,1.2-1.5,1.1-2.6C282.5,214.9,281.9,215.7,282.2,217.3z"/>
	<path d="M263.1,207.3l4.6,0.9c1.6,0.3,3-0.1,4.2-1.5c1.7-1.1,2.3-2.8,2.1-5c-0.4,2-1.4,3.6-3.2,5c-2.1,1.6-4,1.6-5.7,0
		c-1.6-1.7-3.4-2.6-5.1-2.6C261.2,204.8,262.3,205.9,263.1,207.3z"/>
	<path d="M271.5,216.7c-0.8-0.9-1.7-1.4-2.7-1.4c-2.1,1.3-3.9,1.1-5.5-0.7c-1.7-1.7-3.4-1.7-5.4,0.1c-1.2,0.7-2.3,0.6-3.3-0.1
		c-1-0.8-2-0.7-2.9,0.1h0.6h1.6l2.4,0.8l1.7,0.2h1.3c1.8,0.1,3.2,1,4.4,2.8l4-0.3l1.1-0.1l0.8-0.1c1.2,0.4,1.7,1.3,1.5,2.8
		c-1.5,2.2-3.5,3.2-6.1,3l-7.1-1.1c-1.2-0.9-2-1.9-2.6-3.1l-0.6-2.1c-0.6,1.4-0.5,2.5,0.3,3.5l2.4,2.6l11.4,1.4
		c1.1-0.4,1.7-1.1,1.8-2.1c0.1-0.7,0.2-1.3,0.5-1.9l0.7-1.5l1.1-1l0,0l1.6-0.3c0.5,0.4,0.8,0.8,0.8,1.3c0.1-0.9-0.3-1.6-1-2.2
		C273.2,217.7,272.3,217.5,271.5,216.7z M266,217.6c-0.2,0.4-1.1,0.2-3-0.6v-0.1l-0.2-0.1l-0.7-0.5l-1.9-1l2.9,0.3
		c0.7,0.4,1.8,0.9,3.2,1.4c0.3,0.2,0.8,0.1,1.6-0.4l2.6,0.4L266,217.6z"/>
	<path class="st4" d="M263,217c1.9,0.8,2.8,1,3,0.6l4.5-0.6l-2.6-0.4c-0.8,0.5-1.3,0.6-1.6,0.4c-1.4-0.5-2.5-1-3.2-1.4l-2.9-0.3
		l1.9,1l0.7,0.5L263,217L263,217z"/>
	<path class="st4" d="M269.6,218l-0.8,0.1c0.6,0,1.2,0.2,1.7,0.6c0,1-0.6,1.6-1.7,1.8l-6.9-0.6c-2.4-0.4-3.9-1.7-4.8-4.1l0.9-0.1
		l-1.7-0.2l-2.4-0.8h-1.6l-0.1,0.1l2.2,0.3c0.9,1.4,1.2,2.9,0.9,4.5c0.6,1.2,1.4,2.2,2.6,3.1l7.1,1.1c2.6,0.2,4.6-0.8,6.1-3
		C271.3,219.3,270.8,218.4,269.6,218z"/>
	<path class="st4" d="M272.9,218.5v0.1V218.5L272.9,218.5z"/>
	<path class="st5" d="M268.8,220.5c1.1-0.2,1.7-0.8,1.7-1.8c-0.5-0.4-1.1-0.6-1.7-0.6l-1.1,0.1l-0.6,0.3c-2.1,0.7-3.8,0.4-5-1.1
		c-0.7-0.9-1.7-1.4-2.8-1.7H258l-0.9,0.1c0.9,2.4,2.4,3.7,4.8,4.1L268.8,220.5z"/>
	<path class="st4" d="M267.7,218.2l-4,0.3c-1.2-1.8-2.6-2.7-4.4-2.8c1.1,0.3,2.1,0.8,2.8,1.7c1.2,1.5,2.9,1.8,5,1.1L267.7,218.2z"/>
	<path class="st2" d="M296.2,187.4l-1-0.6c-4.8,0.8-9.5,0.8-14.2,0.1l2.9,0.6c2.3,0.5,4.5,0.5,6.7,0
		C292.7,187.1,294.6,187,296.2,187.4z"/>
	<path class="st3" d="M286.9,191.4c-1.6,0.3-2.8-0.2-3.7-1.5v0.9c2.5,1.9,5.7,2.6,9.3,2.2c1-0.1,1.6-0.7,1.8-1.7
		c-1.6-1.3-3.3-1.9-5.4-1.6C288.1,190,287.4,190.6,286.9,191.4z"/>
	<path class="st3" d="M301.4,238.8l0.3-2.3c-2.8-5.3-5.7-10.4-8.8-15.2l-10.6,9.5l7.8,22.2C293.5,248.1,297.2,243.4,301.4,238.8z"/>
	<path class="st6" d="M276.3,236.5l-0.1,0.1h-0.1l-6.2,4.9l-0.3,0.3l-0.1,0.2l1.1,1.7c7.4,13.2,12.4,27.5,14.8,42.7v0.1
		c1.6-5,2.6-10.4,2.8-15.9C284,259.3,280,248,276.3,236.5z"/>
	<path class="st2" d="M269.5,242l0.1-0.2L258,252.5h-0.1l-0.3,0.2c-4.5-2.1-9.3-3.8-14.2-5.1l-6.7,3.4v0.2c0.2,3.8,0.6,7.3,1.3,10.9
		l1,4.9l0.4,1.3c0.8,3.8,1.5,7.6,2.2,11.5v0.1l2.3,4c2.9,4.1,6.5,7.6,10.6,10.4c5.5,3.6,11.6,5.5,18.4,5.6
		c0.3-5.4-0.2-10.4-1.5-15.2c-0.7-2.4-1.6-4.8-2.6-7.1s-1.6-4.7-1.7-7.1l0.8,1.2v-0.1c5.2,7.4,8,16.6,8.4,27.7
		c4.4-3.6,7.4-7.9,9.1-12.8v-0.1c-2.4-15.2-7.4-29.5-14.8-42.7L269.5,242z"/>
	<path class="st2" d="M272.5,231l-6.8,4.3c-5,1.2-9.8,0.5-14.3-2l0.9,0.9c2.1,1.8,4.5,3.1,7.3,3.9c4.5,0.9,8.4,0.3,11.8-2l1.4-2.5
		C273.3,232.7,273.3,231.9,272.5,231z"/>
	<path class="st7" d="M252.3,234.2L252,234c2.2,2,4.8,3.4,7.6,4.1C256.8,237.3,254.4,236,252.3,234.2z"/>
	<path class="st3" d="M294.8,250c-1.6,1.4-3.1,2.9-4.2,4.5l6,20c1.1-3.4,2.4-6.6,3.9-9.7c0.2-2.9-0.3-5.5-1.6-7.9L294.8,250z"/>
	<path class="st3" d="M342,313.9c-1.1,1.1-1.4,2.1-1.1,3.2l4.5-5.2C344.1,312.1,342.9,312.8,342,313.9z"/>
	<path class="st3" d="M280.2,326.2L280.2,326.2l0.5,0.2L280.2,326.2z"/>
	<path class="st6" d="M303,336.5c-2.5,0.1-4.9,0.5-7.5,1c-2.5,0.6-5,0.1-7.4-1.5l0.1,0.6l1.3,3.5l3.7,21.2c1.2,7,1.9,14.1,2,21.4
		v0.5c4.9-1.7,9.4-4.1,13.4-7.4c-1-6.1-1.9-12.6-2.8-19.5C305,349.3,304,342.7,303,336.5z"/>
	<path class="st2" d="M289.5,340.1l-1.3-3.5l-0.5-0.2c-4.5-1.9-9.1-3.2-14-3.8c-5.3,3.5-10.7,7.1-16.2,10.7
		c-5.4,3.7-10.2,8.2-14.4,13.5c-0.3,3.5-0.6,6.8-1.2,10l-0.8-0.5c0.6,1.3,0.1,2.8-1.5,4.5c-2.8,1.4-5.3,3.3-7.6,5.8
		c-2.4,2.3-4.9,4.5-7.6,6.2v5.1l5.5,1c13.8,2.8,27.4,3,40.9,0.8c8.6-1.4,16.8-3.7,24.4-7c-0.1-7.3-0.8-14.4-2-21.4L289.5,340.1z
		 M279,359.5c1,0.1,1.7,0.7,2,1.6l-0.2,3.5l-1.8-2.9V359.5z"/>
	<path d="M281,361.1c-0.3-0.9-1-1.5-2-1.6v2.2l1.8,2.9L281,361.1z"/>
	<path class="st3" d="M309.5,379.2c-1.7,0.9-3.1,2.1-4.3,3.7c3.7,6.6,5.7,13.7,6,21.4l-0.9,3.8c-0.3,1.3-1.2,2.1-2.8,2.4
		c-1.1,2.1-1.9,4.4-2.6,7.1c-0.5,2.6-1.8,4.8-3.7,6.5v-0.2l-0.1,0.1c1-3.7,1.8-7.8,2.3-12.1c0.5-4.3-0.3-8.3-2.5-11.8
		c-2.5,1.6-4.6,3.7-6,6.2c-0.2,10.1-2.2,19.4-6.1,28c-3.8,8.4-8.2,16.4-13.2,24.1c6-4,11.5-8.8,16.5-14.3c5.1-5.7,10.1-11.4,14.7-17
		c4.6-5.9,8.2-12.2,10.9-18.8C315.8,398.2,313.1,388.5,309.5,379.2z"/>
	<path class="st2" d="M316.2,370.3l-4.5,4.5c3.4,8.5,6.4,17.2,9,26.1h0.5c5.6-4.1,11-8.8,16.1-14l-0.5-2.7
		C332.2,376.1,325.4,371.4,316.2,370.3z"/>
	<path class="st2" d="M320.8,401.5l0.7,2.2c-0.4,1.5-0.2,2.9,0.5,4.1C322,405.6,321.6,403.5,320.8,401.5z"/>
	<path class="st6" d="M320.6,400.9l0.2,0.6c0.8,2,1.2,4.1,1.2,6.3v0.2l0.2,0.1c0.9,0.6,1.2,1.3,0.9,2.3v0.1c-0.3,1-0.4,1.7-0.5,2.2
		c2.5-3.4,5-6.6,7.6-9.8l2.5-2.9l1.3-1.4l0.9-1c2-3.1,2.8-6.2,2.6-9.4l-0.2-1.3c-5.1,5.2-10.5,9.9-16.1,14h-0.5H320.6z"/>
	<path class="st2" d="M332.7,400l0.9-1l0.4-0.4L332.7,400z"/>
	<path class="st2" d="M322.2,408.1l0.9,2.4v-0.1C323.4,409.4,323.1,408.7,322.2,408.1z"/>
	<path class="st3" d="M257,182.4c-0.9,0.1-1.6,0-2.2-0.5c-2.2-0.5-4.3-0.1-6.2,1.1h-0.1l-1.3-1.2l-0.7-1.3c-0.5,0.6-0.6,1.1-0.3,1.7
		c1.6,1.2,3.4,1.8,5.5,1.8l5.9,0.1c0.3-0.8,0.4-1.3,0.1-1.6L257,182.4z"/>
	<path class="st0" d="M238.5,215.5c0.1-0.9,0-1.8-0.2-2.6l-0.6,1.1h-0.8L238.5,215.5z"/>
	<path class="st3" d="M230.8,217l-1.4-1.6c-5,5.7-9.3,11.9-12.9,18.3c-0.6,2.1-0.3,4.1,0.9,5.9l5.5,5c3.1,3,5.9,6.4,8.5,10.1
		C230.5,242.2,230.4,229.7,230.8,217z"/>
	<path class="st2" d="M253.1,241.9l3.4,0.5l1.1,0.1c3.1-0.1,5.6-0.6,7.8-1.7L260,241c-3,0.3-5.4-0.5-7.5-2.3
		c-1.8-1.7-3.8-3.2-5.8-4.5l2.1,2l3.3,3.3H252h-0.1l0.3,0.3c-0.8,0.5-1.6,0.7-2.6,0.7l0,0l0.3,0.1
		C250.9,241.1,252,241.5,253.1,241.9z"/>
	<path class="st7" d="M248.8,236.2l-0.6-0.3l3.7,3.6h0.1h0.1L248.8,236.2z"/>
	<path class="st7" d="M249.9,240.6L249.9,240.6c0.9,0.6,2,1,3.2,1.3C252,241.5,250.9,241.1,249.9,240.6z"/>
	<path class="st3" d="M217.9,249.6l-2.9-2.1l-0.5-0.4c-1.1-0.8-2.5-1.1-4-0.9c-4.2,1.5-8.2,3.5-12.1,6.1c-4,2.5-6.9,6-8.8,10.3
		c-4.3,17.7-7.7,35.8-10.2,54.3c-0.6,14.1-2,27.9-4.3,41.3c-2.2,13.5-4,27.1-5.1,41c0,9.9,0.5,19.5,1.6,29.1
		c1.1,9.5,1.6,19.1,1.5,28.6c3.5,1.3,7.3,1.9,11.4,2c4.2,0,8-0.8,11.4-2.6c2.4-9.1,3.6-18.7,3.5-28.9l-0.4-30l-1.4,3.8V401v0.1
		c0.1-4.4,0.7-8.9,1.8-13.4c0.9-4.6,0.7-9.1-0.6-13.6h-0.6c-2.6,4.1-6,7.1-10.2,9.1c-4,2-8.3,3-12.9,3.2l0.1-0.1h-0.1
		c7-4.6,14.2-8.7,21.7-12.5c-6.9,1.6-14,2.4-21.5,2.3l0,0l-0.5-0.7l-0.1-0.8c3.6-1.4,7.3-2,11.3-2l12.1-0.4
		c-0.1-0.8-0.4-1.6-0.7-2.4l-0.3-0.3v-0.1v-0.1c1.5-6.2,1.8-12.4,1-18.7c-0.9-6.4-1.6-12.7-2-18.9l-4-18.1l-0.7-11.7
		c0.8-1.6,1.5-3.3,2-5l0.8-5.7l-0.3-11.5v0.1v-0.1l0.7,1.7l0.6,1.7l-1.9-26V257l2.6,6.8l0.1,0.7l0.5,2.1l7.2,58.8
		c3.2,13.7,5.2,27.9,5.9,42.7l1.4,2.3c0.8,0.9,1.7,1.6,2.8,2.2l-0.6-1c-0.4-1-0.5-1.9-0.4-2.8l11.9,0.9l6.9-0.4
		c2.3,0,4.4-0.5,6.3-1.6c-0.4-29-2.1-57.5-5.1-85.5l-0.9-1.2l-3-3.3l-4.3-3.8l-0.5-0.3c-3.4-2.4-6.5-4.9-9.6-7.6l0,0v-0.1v-0.6
		c1.2-0.8,1.8-1.6,1.6-2.4c-0.1-0.4-0.4-0.8-0.9-1.1c-0.5-0.5-0.9-1-1.2-1.5c-0.4-0.8-0.5-1.8-0.1-2.9c0-1.7,0.6-3,1.9-4.1
		C216.9,252.1,217.7,251,217.9,249.6z M225.9,345.3c-0.3-0.7-0.5-1.4-0.6-2.2c1.4-0.9,2.7-1.1,4.1-0.5c1.3,0.6,2.6,1.1,3.9,1.4h0.1
		c-1.4-0.2-2.7-0.7-4-1.3c-1.3-0.6-2.6-0.4-4,0.5C225.4,344,225.6,344.7,225.9,345.3z M226.7,346.2l0.1,0.1l-4.5-0.2
		c-1.2,0.8-1.5,1.8-1,2.9c-0.6-1.2-0.4-2.2,0.9-3L226.7,346.2z M223,353.7h-0.1l0.2,0.1c-1.2,0.1-2.3-0.3-3.4-1.4l0.1,0.1l-0.2-0.2
		L223,353.7z M223,351.1l0.1,0.1c-1.4-0.3-2.4-0.9-3.2-1.8C220.7,350.3,221.7,350.9,223,351.1z M216.9,334.8c-1-0.6-2.1-1.2-3.2-1.6
		h0.2C215,333.7,216,334.2,216.9,334.8z M218.4,361.9l-0.5-0.2l2-0.3l-1.6-1.5l-7.3-6.5c3.3,2.2,6.8,4,10.4,5.6
		c3.8,1.6,7.8,1.5,11.9-0.1l0,0h0.1c0.3,0.7,0.4,1.5,0.3,2.3c-5.3,2.1-10.5,2.3-15.8,0.6L218.4,361.9z M191.7,385.1
		c0.6,0.7,0.7,1.3,0.2,2.1c-5,5.1-10.7,8.8-17.2,11.2c2.9-3.4,6.3-6.7,10.2-10.2l11.4-9.4C194.2,380.7,192.6,382.8,191.7,385.1z
		 M178.8,369.7l1.4,0.1c-1.4,0-2.6,0.4-3.7,1.2l4.3,0.6l-1.2,0.2h0.6l-5.7,1.1c-0.5-1.1-0.6-2.2-0.3-3.1l-0.1-0.2
		c-0.1-1.1,0.4-2,1.4-2.4l4.4,0.9l-2.2,0.1l1.7,0.4c-0.9-0.1-1.8,0-2.5,0.5l3.9,0.3L178.8,369.7z M179,366.6
		c-1.1,0.7-2.3,0.9-3.7,0.3L179,366.6z"/>
	<path d="M222.9,353.7h0.1l-3.4-1.4l0.2,0.2C220.9,353.4,221.9,353.8,222.9,353.7z"/>
	<path d="M218.3,359.9l1.6,1.4v0.1l-2,0.3l0.5,0.2c5.2,1.5,10.2,1.3,15.3-0.8c0.1-0.8,0-1.5-0.4-2.2l0,0c-4.1,1.6-8.1,1.7-11.9,0.1
		c-3.6-1.6-7.1-3.4-10.4-5.6L218.3,359.9z"/>
	<path d="M178.8,369.7l2-0.3l-3.9-0.3l-0.5-0.1l1.3-0.8l2.2-0.1l-4.4-0.9c-1,0.4-1.5,1.3-1.4,2.4l0.1,0.2l0.3,2.9l5.1-0.9l1.2-0.2
		l-4.3-0.6h-0.1C177.1,370.4,177.9,369.9,178.8,369.7z"/>
	<path class="st3" d="M231.9,271.6l-0.5-15.1l-7.2-6.9l-6,7.4L231.9,271.6z"/>
	<path class="st3" d="M219.3,391.1c-1.2-0.9-2.6-1.3-4.1-1.1c-3.1,8.8-5.7,17.8-7.8,26.9c-0.9,1.4-1.1,2.9-0.6,4.5
		c11.5,4.6,22.4,10.1,32.6,16.6c-4.6-4.7-9.6-8.6-15-11.9c0.4-1.4,0-2.5-1.2-3.4l-3-2.7c0.4-0.4,0.9-0.6,1.4-0.6l-1-0.7l-2.7-1.8
		l0,0c0-3.5,0.8-6.7,2.4-9.5c1.6-2.7,3.1-5.6,4.4-8.5c0.6-1.6,0.5-3-0.3-4.3l-1-0.4l-2.3-1.5L219.3,391.1z"/>
	<path class="st3" d="M172.8,458.4l-1.8,6.7c-0.7,4.5-0.7,8.7,0,12.7c6.3,5.8,13.5,8.6,21.8,8.3l2.5-25.7
		C187.4,462.2,179.9,461.6,172.8,458.4z"/>
	<path class="st6" d="M310.7,427.7l0.1,0.2c1.4,6.1,2.3,12.5,2.7,19.4c0.5,6.8,1.1,13.4,2,19.9c1.1,14.8,1.6,29.7,1.5,44.7h7.2
		c0.4-8.1,0.5-16.2,0.4-24.4c-0.3-20-1.3-39.5-3-58.5c-0.5-2-0.6-4.2-0.5-6.5c0.1-2.4-0.4-4.3-1.4-5.9
		C316.1,420.4,313.1,424.1,310.7,427.7z"/>
	<path class="st2" d="M310.8,427.9c-2,2.6-3.8,5.4-5.6,8.1l-12.1,18.6c-3.8,4.8-7.9,9.4-12.1,13.9c-4.3,4.6-7.3,9.6-9.1,15.2
		l4.3,28.2H317c0.1-15-0.4-29.9-1.5-44.7c-0.9-6.5-1.5-13.1-2-19.9C313.1,440.4,312.2,434,310.8,427.9z"/>
	<path class="st6" d="M264.7,476.8c0.8-1.9,0.9-3.5,0.2-5c-0.8-1.4-1.7-2.8-3-4.1c-1.1-1.1-1.9-2.3-2.6-3.4h-0.2v0.5
		c-0.4,5-1.3,9.6-2.8,14c-0.9,2.3-1.6,4.7-2.1,7.2l-0.8,0.9l-0.3,0.6c-2.4,8.3-5.3,16.4-8.5,24.4h8.2c1.5-4.4,3-8.8,4.2-13.2
		C259.4,491.3,261.9,484,264.7,476.8z"/>
	<path class="st2" d="M178.2,485.4c-3.1-1.8-6.1-3.9-8.9-6.2c-3.2,10.4-5.3,21.3-6,32.7h27.2l1.3-18.8l-1.4-0.2l-0.2,0.4
		c-1.3,0-2.5-0.3-3.5-1C184.1,489.4,181.2,487.1,178.2,485.4z"/>
	<path class="st2" d="M198.5,463.1l-2.3,22.7c-0.6,8.7-1.3,17.4-2.2,26.1h48.3l1.6-4.6c2.5-7.9,5.3-15.6,8.3-23.2l0.9-0.6
		c-2.4,9.6-5.5,19.1-9.2,28.4h0.7c3.2-8,6.1-16.1,8.5-24.4l0.3-0.6l0.8-0.9c0.5-2.5,1.2-4.9,2.1-7.2c1.5-4.4,2.4-9,2.8-14l-4.3-6
		c-3-4.4-6.6-8.5-10.9-12.2c-12.2-8.1-24.9-15.4-37.8-21.7C202.8,437.4,200.3,450.1,198.5,463.1z"/>
	<path d="M253.1,483.5l-0.9,0.6c-3,7.6-5.8,15.3-8.3,23.2l-1.6,4.6h1.6C247.6,502.6,250.7,493.1,253.1,483.5z"/>
</g>
</svg>
