<?xml version="1.0" encoding="utf-8"?>
<!-- Generator: Adobe Illustrator 21.1.0, SVG Export Plug-In . SVG Version: 6.00 Build 0)  -->
<svg version="1.1" id="Слой_1" xmlns="http://www.w3.org/2000/svg" xmlns:xlink="http://www.w3.org/1999/xlink" x="0px" y="0px"
	 viewBox="0 0 512 512" style="enable-background:new 0 0 512 512;" xml:space="preserve">
<style type="text/css">
	.st0{fill:#D1AC80;}
	.st1{fill:#FFFFFF;}
	.st2{fill:#BA8150;}
	.st3{fill:#C0824D;}
	.st4{fill:#D5B28A;}
	.st5{fill:#B19B80;}
	.st6{fill:#BBA285;}
	.st7{fill:#B19A80;}
	.st8{fill:#D2AD80;}
	.st9{fill:#D48483;}
	.st10{fill:#D2AD81;}
	.st11{fill:#B6A087;}
	.st12{fill:#D6B389;}
	.st13{fill:#B37A4A;}
	.st14{fill:#C9854B;}
	.st15{fill:#FAF093;}
	.st16{fill:url(#SVGID_1_);}
	.st17{fill:url(#SVGID_2_);}
	.st18{fill:url(#SVGID_3_);}
	.st19{fill:#0F0E0E;}
	.st20{fill:url(#SVGID_4_);}
	.st21{fill:url(#SVGID_5_);}
	.st22{fill:url(#SVGID_6_);}
	.st23{fill:url(#SVGID_7_);}
	.st24{fill:url(#SVGID_8_);}
	.st25{fill:url(#SVGID_9_);}
	.st26{fill:url(#SVGID_10_);}
	.st27{fill:url(#SVGID_11_);}
	.st28{fill:url(#SVGID_12_);}
	.st29{fill:url(#SVGID_13_);}
	.st30{fill:#D6B289;}
	.st31{fill:#D3B188;}
	.st32{fill:#B69D81;}
	.st33{fill:#B39C81;}
</style>
<g>
	<path d="M224.2,32c-10.4,3.4-18,8.2-22.4,14.8c-4.2,6.4-6.6,13.4-7,20.8c-0.6,7.4-0.2,13.8,1,19.6l2.6,11.2l-3.2,0.6
		c0,0-0.4,0-0.4,0.2c-1,0.6-1.6,1.6-1.6,3l1.6,19.2l6.8,21.6c1.2,3,2.8,5.4,4.6,7.2l2.2,0.8l1.4,6.4l-4.4,3.6l-13.8,14.2
		c-0.4,1.2-1.2,2-2,2.4l-1.8,0.2L106,202.2l-3.4,1.6c-2.2,1-4.8,3.4-8,7.2c-3.4,3.6-6,7.2-7.8,10.6l-2.8,5.2l-16.2,73.8l-4.2,97.6
		l-2,5.2l-0.2,2c0.2,2.6,0,4.6-0.6,6.2c-0.4,1.6-0.2,2.6,0,3.4l1,1.8c0.2,0.6,0,1.2-0.8,2c-1.6,3.6-2.6,5.6-3,6l-0.8,1.6
		c-0.6,0.8-0.6,1.6,0.2,2.6c0.8,2,3,6.8,6.8,14c3.8,7,8.2,13.8,13.2,20.2c4.8,6.2,9.2,9.2,12.8,9.2L123,470l1.2-0.2
		c0.8,0,1.2,0.4,1.2,1.2l-0.4,8l-2,8l0.4,4.6l0.8,3.2l-0.2,16.6h3v-7.2c-0.2-5,0-10.6,0.4-16.6c0.2-6.2,1.2-11,2.4-14.4
		c1.2-2,1.8-3,1.4-3.2l28,3.4l29.6,6.8c2.8,1,6,1.8,9,2l5,0.4l11.2-1.2l1.6,1l3.8,1c2-0.6,3.6-1.2,4.6-1.8c1-0.6,2-0.8,2.8-0.6
		l27.6-4.6c2.2-0.4,4.4-1.4,6.6-3.6l5.6-6l2.2-3.2l13.6-7c2.6-1.8,3.8-3.6,3.6-5.4c-0.4-2-1.2-3.4-2.2-4.8l-2.2-1.8l3.8-1.2
		c2.2-0.6,3.8-2.2,5-4.8c1-2.4,0-6.2-3-11.2c-1-1.2-2.8-1.8-5.6-1.4l-6.6,1c-14,2.8-25,4.4-32.8,4.8l-12,0.4L264,423h1
		c0.4-0.2,0.8-1,1.2-2.2c-0.2-5.6-2-9.2-5.4-11c-3.4-1.6-7-2.2-10.8-1.8l-37.6,3.4l-9.2-0.2l-16-19.8c-3.8-4.2-6.2-6.8-7.2-7.6
		c1-5.2-0.2-10-3.2-14.6c-1.8-2.4-3.6-4.4-5.4-5.8c-1.8-1.6-3.8-2.6-5.8-3.4c-4.2-1.8-7.2-0.8-9,2.8c-1.6,4.4-1.4,8.4,0.4,12.4
		l3.2,6.2l-2.2,4.2c-1.2,2.6-1.8,4.4-2,5.6c1,3,1,5.8,0.6,8.4c-0.6,2.6-1.4,3.8-2.2,4c-1.4-0.6-2-1.4-2.2-2.4v-1.6l0.4-2
		c0.2-1,0-2.2-0.6-3.2c-1-2.2-1.2-4.6-0.8-7.6l1-7.4c0.4-2.2-0.2-2.8-1.4-2c-0.4-1,0-5.8,1-14.6c0.8-8.6,1.4-19.2,1.6-31.8
		c0-12.6-1-25-3.4-37.6c-2.4-12.6-7-23.2-13.8-31.8c5,9.2,8.6,20,10.8,32c2,12,3,23.8,3.2,35.4c0.2,11.6,0,21.2-0.6,29l-1,13.4
		c-5-3.8-10.4-7.4-16.6-11.2c-6.2-4-11.6-7.4-16.4-10l-7.4-4.2l35.4,25.8c3.2,3,5,6.4,5.2,10.6c0.4,4.2,0.4,6.4,0.2,6.8l-4.4-10.8
		l1,4.8c0.6,2.8,1.4,5.2,2.4,7l-0.2,1.2l2,6c0.8,2.4,0.4,4.2-1.2,5.4c-12.4-4.8-22.8-5.4-31.2-1.8c-8.4,3.4-15.2,8.8-20,16
		c-5,7-8.6,13.6-10.8,19.6l-3,9.8l-0.8,4.2c-0.2,2.6,0.2,4.4,1.8,5.6l3.4,1.4l6.2,1.2c0.8-0.2,1-0.4,0.8-0.6l-0.6-0.4l-2.8-0.8
		c-2-0.6-3.2-1.2-3.8-2c-1.2-1-1.6-2.2-1.4-3.6c0-1,0.4-2.2,1.2-3.8c5.6,6.4,11,10.6,15.8,12.8l7.8,3.2L91,464.8
		c-2.6,0-3.8-0.6-3.8-1.4c-2.6-2.8-5.6-6.4-8.8-11.2l-13-22.4c-1.4-2.2-2-4-1.6-5l0.6-1.8l12-25l-3.6,3.6c-2.2,2-3.8,4.2-4.6,6.4
		c-1.2,0.6-2-0.8-2.6-3.6c-0.4-3-0.4-6-0.2-9c0.4-2.8,1.4-4,2.8-3.6l3.8-62.6l2.6-28.4l2,1.4c1,0.8,1.8,1.4,2.6,1.8
		c0.2,2.8,1.8,4.6,4.4,5.6c2.6,1.2,5.4,2,8,2.2l5.2,0.4c-6-2.4-11-5.4-15.2-8.8l-6.6-5.8l13-63.4l2-6.4c1.2-4.2,3.6-8.6,6.8-13.4
		s7.8-8.6,13.4-11l81.2-22.8l-2.6,6.2c-1.6,4-1.6,10.8,0,20.4c0.8,5.2,2.8,11,5.6,18c2.4,6,6,12.8,10.2,20.4l6.8-2
		c3.4-1,8.2-2.8,14.2-5.4L237,236l-5.6,13.2l-0.2,1.2c-0.2,0.6,0.6,1.6,2.4,2.8c3.2,3,8.2,6.4,14.8,10.4c6.4,4.2,13.2,8.2,20.4,12.2
		L295,290l0.6,23l7.4,83.2l3,115.4h120.8l-3.2-70l5-2l4.2-2c2.4-1.2,5.4-2.2,8.6-3c3.2-0.6,6-0.4,8.2,1c3,2.2,4.4,3.4,4.2,3.4
		l16,72.6h2l-11.4-69l1.8-1.8c1-1.4,2.2-3.6,3.6-7.2c1-2.2,1.4-4.2,1.2-5.6l-51.8-177c-1.8-7.4-3.8-12.8-5.8-16.2
		c-2-3.2-3.6-5.2-5-6.2c-1.2-1-2.6-2.2-4-3.4c-4.2-3.2-9.4-6.6-16-10.4c-9-5.2-18.6-10.6-28.6-15.8c-10.2-5.2-18.6-9.4-25.8-12.8
		l-11.2-5.4l-8.6-10v-1.4c0.2,0.2,1-1,2.6-3.4c1.6-2.6,2.6-7.4,3.2-14.8c3.8-3.8,6.2-7.6,7-11.4c0.4-2,0.6-3.6,0.8-4.6
		c0-1,0.2-1.6,0-1.6l0.4-21.2c0-0.4,0-0.8,0-1.2c0.2-4.2,0-6.8,0-8c-0.6-1.6-1-2.4-1.2-2.6l-2.8-1.8l1.2-8.6c1-5.6,0.6-12.4-1-20.4
		c-1.4-8.2-5.4-16.2-11.8-24c-6.6-7.8-17-14-31.2-18.6c-0.4-0.6-2.2-1.6-5.2-3c-3-1.6-6-2.6-8.6-3.4L247,18.6
		c-2.4-0.2-4.2,0.2-5.6,1c-0.8,1.2-0.8,2,0.2,2.8l1.6,1.2l-0.8,1.4c-0.2-0.4-1.8,0.4-4.8,2.2c-1.6-0.4-4,0-6.8,1.2L224.2,32z
		 M226,34.2v-0.6l5.4-0.2l-0.4-0.8l-0.2-0.6l2.2,1.2l1.8-0.2l1.2,2.2c0.6,1.2,1.8,1.8,3.6,1.8l6.2,0.2l3.4,0.6l3.2-0.4
		c0.4-0.2,0-0.8-1.2-1.8c-1.4-1-2-1.8-2.2-2.2c0.4-0.8,2,0.2,4.8,2.6l2.4,0.2l0.4-1.6l2.2,0.4l5.2-0.2c1.8,3,3,3.8,3.6,2.6
		c0.4-1.2,0.6-2,0.4-2.4l3.4,1c1.4,0,1.6-0.4,0.2-1.8l-2-2.6c1.4-0.2,2.8,0.2,4,1.2l1.6,1.8l1.2,1.8l-1-1.8l1-0.6
		c0.6-0.2,1-0.8,1.2-1.8c1.8,1,2.2,0.8,1.4-0.4l-0.8-1.4c13,5.4,21.8,11,26.8,17.4c4.8,6.2,7.6,11.6,8.2,16.2c0.4,4.4,0.6,6.8,0.2,7
		l-0.4,1c-0.4,0.8-0.2,1.4,0.2,2.4c2.2,5,3.2,9.2,3,12.8l-0.6,5.4l-1.2-4.6l-1-6.8c0-2-0.8-3.8-2.2-5.2l-2.8-2.6
		c2.2,4,3.8,7.6,4.4,10.8L314,89l-3-1.8l-10.8,4.4l0.2-1.4l-0.4,1.2l-8.8,2.8l0.8-1c0.4-0.4,0.2-0.6-1-0.2l-2.8,1.8l1.4-1.8
		c0.6-1,0.4-1.2-1-0.2c-0.4-0.6-0.8-0.6-1.4,0l-0.8,1l-0.6-0.4l0.4-1c0.4-0.6,0.2-1,0-1c-0.6,1-1.4,2-2,2.4c-0.4-0.8-0.8-1-1-0.6
		l-0.8,1.4c-0.4-0.8-1-1-1.2-0.6l-1.2,2.2l0.6,0.6v0.6h1.2c0.4,0,1-0.4,1.6-1l0.8-1.2l-1,2.4c3.4,1.4,8.6,1,15.6-1.2L298,98l-5.6,2
		l-10.6,0.6c-1.2-0.8-2.2-1.4-2.6-1.4c-0.4-0.2-0.4-0.2-0.6,0l0,0l0,0l0.4-2.6l-1.2,2.4v0.2l0.2,1.8h1.2l4,0.8h2.4l0.4,2.6
		c0.2,1.6,1.4,2.8,3.6,3.6c0,1,1,2,2.6,3.2c0.2,0,0.4,0.2,0.6,0.4l3.6,2.2l1.4,28.2l0.2,0.6l-1.4-28.8l0.8,0.8
		c0.4,0.2,1,0.2,1.8-0.6c5.4,0.4,8.4-0.4,9.2-2.4c0.2,0,0.2-0.2,0.2-0.4c0.6-1.8,0.2-3.6-0.8-5.6l-1.8-3.4l1-1.8
		c0.2,1,0.4,1.4,0.6,1.4l0.4-0.6c0-0.4,0.6,0,1.6,0.8c1.2,0.8,1.8,1,1.6,0.4l-1-1.6c-0.8-0.6-1.4-1-2-1.2l-1.6-1h-1.4
		c-1.8-1-3.4-1.2-4.8-1l-2.2,0.6l0.8-1.8l9.6-0.6c1.4-0.4,1.8-0.6,1-0.8l-1.6-0.4l2-1.2c2,1.6,3.2,2,3.2,1c0.2-0.8,0-1.4,0-1.8
		l1.2,1c-0.2,4,0,5.6,0.4,5s0.6-2,0.4-4.4l0.8-0.6l-1.2,33.2l-0.2,0.2c0.2,0.6,0.4,3.4,0.4,8.2c0,1.4,0,3,0,4.8
		c-0.2,8.2-2.6,17.8-7.6,29c-1.8,4.2-4.4,8.2-7.6,12.2c-5,6-11.8,11.8-20.4,17c-1.2,0.8-3.4,1.8-6,3.2c-2.8,1-6.2,1.4-10.6,0.8
		c-4.2-0.4-9.2-3-15.4-7.4c-7.2-4-13.2-8.6-18-13.6c-3.4-3.6-6.2-7.4-8.4-11.4c-5.2-10-8.2-18.8-9.4-26.4c-0.4-3.6-0.8-6.2-1-8.2
		c-0.4-2.6-0.4-4-0.2-4.2l4,2.4l-4-2.4l-0.6-7.6l0.8-1c0.6-1,1-2.6,1.2-5.2c-0.4-2-0.8-4.2-1.2-6c-1-4.6-1.6-8.6-2-12
		c-0.6-3.8-0.8-7-0.8-9.8c0.2-6.2,1-10.6,2-13l2.4-4.4c0.4-0.8,0.2-1.4-0.4-1.2H211l2.2-4.4c1.2-2.6,2.2-5.2,3-7.8
		c0.8-2.4,0.6-3.4-1-2.8l5-9c0.2-1.2,0-1.8-0.4-1.6l-1,0.6l-3.6,4.8c1.2-2.8,1.2-3.8,0.2-3.4l-2,1.2l4.8-4.8c0.6-0.4,0.6-0.8,0-0.8
		h-1l2.2-2.8l-6,2.8l4-2.2c1.4-0.8,2-1.4,2-1.8c-0.8,0-2.8,1.2-6.2,3.6l-5.8,4.2l5.8-4.8c3.4-2.8,6.2-4.2,8-4l2.8-2.4L226,34.2z
		 M286.4,101.8l0.6,0.2l0.4,0.8c0.2,0.6,1.2,0.8,2.8,0.8c2.4,0.4,3.6,0.8,3.6,1h3.2h5l0.6-1l1.4-1.4c0,0.2,0,0.6-0.4,0.8v0.6
		c-0.2,0.2,0,0.2,0.6-0.2c0.8-0.8,1.2-1,0.8-0.6c2,4.4,2.6,7.2,1.2,8.4c0,0,0,0-0.2,0c-1.6,1.2-3.6,1.6-5.8,1.2l-3.8-0.8l-2.2-0.8
		l-5.8-3.8c-0.6-0.2-1-0.4-1.2-1C286.4,103.6,286.2,102.2,286.4,101.8z M297.4,100.8l-1,0.6l-0.8-0.6c0-0.4,0.4-0.6,0.8-0.6
		C297,100.2,297.2,100.4,297.4,100.8z M292.8,101.2l1-0.4l0.2,0.8c0.4,0.6,1,0.8,2,0.8s1.8-0.4,2.2-1l0.4-1l1.4-0.2
		c0,0.2,0,0.6-0.4,1.6c-0.4,0.8-1.4,1.4-3.4,1.6c-1.2,0-2.2-0.2-2.6-1L292.8,101.2z M289.8,102.8c-1.6-0.2-2.4-0.4-2.2-0.8l1.8-0.2
		L289.8,102.8z M290,101.8l1.8-0.4l1.4,2c-1,0.2-1.8,0-2.4-0.6L290,101.8z M302.8,99.2l0.6,0.6l-2.4,3.4h-1.6l1.2-1.6
		c0.4-0.8,0.6-1.6,0.4-2.4c0-0.2,0-0.4,0-0.6C301.8,98.6,302.4,98.8,302.8,99.2z M194.8,110.6c-0.6-4.8-0.4-7.8,0.2-9.2
		c1.6-1.8,3.2-2.2,4.8-0.8c1.8,1.2,2.6,2,2.8,2.6c1.2,1.6,2.2,4.2,3.2,8c0.6,1.8,1,4,1.2,6.4c0.8,6,1.6,12,2,17.6
		c0.2,0.8,0.2,1.6,0.2,2.6l0.6,10.2l-2.2-0.2c-1.6,0-2.8-1-3.4-2.4c-1.6-3.4-3-6.8-4.2-10.2c-0.8-2.8-1.6-5.4-2.4-8.2
		c-1.4-6-2.4-11.2-2.8-15.8C194.8,111,194.8,110.8,194.8,110.6z M212.2,166c1.6,4.6,3.6,9.8,6.2,15.2c3.2,6.4,7,13.2,11.8,20.6
		c5,7.8,10.4,15.8,16,23.4c3.8,5.4,7.8,10.6,11.8,16c10,12.6,18.6,23.2,25.8,31.6L295,286v1.2v1.8c-16.2-8.8-29-16-37.8-21.6
		c-9-5.8-15.4-10-18.8-12.8l-5.2-4l5.2-15c0.4-0.4,0.4-0.8,0.2-0.8l-0.8-0.2l-12.6,2l-18.8,6.4c-4-6.4-7.2-12.4-9.6-17.8
		c-3.2-7.2-5.2-13.6-6-19.4c-1.2-10.2-0.2-18.4,2.6-24.6c3-6.4,6-11,9.4-14l5.6-4.2l2.2-0.8C211.8,162,212.4,163.2,212.2,166z
		 M307.6,181.2c0-1.8,0-3.4,0-5.2l0.6-1.2l0.8-1l6.4,7c0,0,0.4,0.2,0.4,0.4c3.8,4.4,8.2,9.8,13.2,16.2c5,6.6,9.2,13.2,12.4,19.8
		c1.6,2.8,2.8,5.4,3.4,8c0.8,3,1,5.8,0.4,8.4l-27.8-9.6c-0.2,0,0.2,0.6,1.6,1.2c0.2,0.2,0.4,0.4,1,0.6l10.2,4.6l1.2,0.8
		c0.4,0.4,0.4,1.4-0.4,2.6L300.2,266l12.8-10.4c6.2-4.8,11.4-9.6,16.4-14.4c4.6-4.6,6.4-8,5-9.6c0.8,0.4,2,1.2,4,2.2l5.2,2l2.4,0.4
		l1-0.6c1.2-3.4,1.6-6.8,1.2-10.4c-0.6-3.2-1.8-6.4-3.4-9.6c-3.6-7.4-7.8-13.6-12.4-18.8l-7.4-8.2l12.8,5.6
		c8.2,3.6,17.8,8.2,28.8,14.2c9.8,5.2,18.6,10.8,26.6,16.8c1,0.6,1.8,1.4,2.6,2c8.6,6.6,13.6,13,14.8,19.4l52,178l1.2,2.2
		c0.6,1.2,0.4,3-0.8,5.4l-3,6c-2.4-1.8-6.4-3.6-11.8-5.8c-5.4-2-10.8-3.6-16-4.6c-5-1-8.4-0.6-9.6,1c-0.8-1.4-0.6-3.8,0.6-7l2-5.4
		l17.2,5.6l-4.4-3.8c-2,0.4-4,0-6.2-1.2c-2.4-1-3.2-2.6-2.8-4.8l-8.8-6.4c6,1.8,11,2.8,15.6,3.2l6.8,0.2c-0.2-0.4-3.6-2.6-10-6.2
		c-6.2-3.8-13.2-6.4-20.8-8l-8.4-64.2c-0.2-0.8,0-1.4,0.4-1.8l0.8-0.6l-1.2-10.4c0.2,0.2,0.6-0.8,0.8-2.6l3.2-30
		c0.6-6.6,0.6-10.4,0.2-11.8l-10.2-30.2c-2-5.8-3.4-8.8-3.8-9.2l11.6,40.2c0.2,1.8,0.2,5.8-0.2,12l-1.8,27.6l-11-51.2
		c0,0.6,0.4,4.2,1.6,10.4l7,44.2c0.8,6.4,1,10,0.4,10.8l18,183.2H309.4l-1.4-51.6l-3.6-66.6l-6.6-83.2c-0.2-18.4,0.2-33,1.2-43.6
		c0.8-10.8,2-20.2,3.4-28c0.6-4.2,1.4-8.6,2-13.2c0.6-4,1-8.2,1.6-12.4C306.8,204.4,307.4,194,307.6,181.2z M280.4,206.6l6.4-6.2
		l10-11.8v-0.2l7.2-8l0.6,19.6l-29.8,27.2l-1.6,0.2l-3-1.8H270L238.8,207c-0.2,0.2-1.2-0.4-2.8-2.4l-13.2-20l22.4,19.4
		c1.6,1,3.2,2.2,5,3.2l6.8,2.6l7,1.2c0.4,0.4,2.4,0.4,6.2,0l5.6-1.8L280.4,206.6z M304.8,201.4l-0.2,4.4l-29,27.4l0,0l0.4,3.4h0.8
		l0.2,1.6l0.8-1l-0.4-2h-1.2V234l28.4-24.8l-9.6,74.4l-15-19.8h1l-0.8-11.6l7.4-1.2l-1.2-7.2l-7.6,0.8l-0.6-5l-0.8-0.4H277l0.6,6.4
		l8-1l1,6l-7.4,1l0.8,11.2h-0.8l-0.4-0.4l-2-2.8l-3.8-5v-0.8v-1v-0.2h-1.4h-0.2l-4.6-6.6l5-0.2l-0.2-6.2h-0.8l0.2,5.6l-4.8,0.4
		l-8.2-11.4h-0.2l-13.4-18.6v-0.2l16.8,11.4l0,0l11.4,7.2l0.2,1.2l-2.2,0.8l0.2,3.6l0.8-0.2v-2.8h3.8v-1h-0.2h-1.4l0,0h-0.2v-1.8
		L244.8,215l-2.2-1.4l-4.4-6.2l23.6,14.2l1,0.8l11.2,6.8L304.8,201.4z M319.8,102.8l0.2-2.4l1.4,0.8l1.8,1.4
		c0.2,0.4,0.2,1.8,0.2,4.2l-1.6,19.4l1.6-5.6v6c0,2.6-0.4,5.4-1,8.6c0,1.2-0.2,2.4-0.6,3.8c-1,4.4-2.8,8-5.4,10.6v-22.4l4.8-19.2
		c0.6-1,1.2-1.4,1.4-1.2l0.2-0.8h-1c-0.6,0-1,0.4-1.2,1l-3.8,15.2l1-13.8C318.8,106.4,319.4,104.4,319.8,102.8z M138.8,439l-9.8,1
		l-22.8-14.6c-4.6-3.4-6.6-5.6-5.8-6.8c0-0.6,2-3,5.8-7c4-4.2,9.8-7.2,17.8-9.2s18.4-0.2,31,5.6l0.8,1.8c-0.2,1.2,0,2.2,0.4,3
		c0.2,1,0.2,1.8,0.2,3c0.2,0.4,0.4,0.6,0.6,0.2l1.4-14l-0.2-0.2l0.8-0.4l-0.4-6c-0.4-3.4,0.2-5.4,1.2-6.4c-0.2-1.2,0-1.8,0.6-2.4
		v0.2l1.2-2.2c0.4,1.2,0.8,1.6,1,1.2l0.6,1.8l-0.4,2v0.2c0.2,1,1.2,2,3.4,2.8l5,0.2c0.2,0,0.2,0,0.2,0c0.4-0.4,0.4-1,0-2
		c-0.6-1-1.4-2.2-2.6-3.6l-2.4-4c-1.6-1-3.2-2.8-4.6-5.2l-2.6-5c-2.2-7.2-1.6-10.8,1.4-11.4c2.8-0.4,6.2,1,10.2,4.2
		c0.2,0,0.4,0.4,0.6,0.4c3.6,3,6,6.2,7,9.6l0.2,2.8c0,1.8-0.2,3.2-0.4,4.6l19.6,25.8l0.2,0.8c0.2,0.4-0.2,0.8-0.8,0.8l-11.8,0.2
		c-2.2,0.2-3,0.2-2.6,0.6c1.2,1,4.4,1.6,9.6,1.8l28.4-0.2c15-2.8,25.6-3.8,31.8-3.2c6.2,0.8,9.8,2.2,10.8,4.6c1,2.2,1.2,4.4,0.6,6.6
		l-2-0.2c-0.6-0.4-1.4-2.4-2.6-6c-0.8-1.4-2.8-1.4-5.8-0.2l-5.8,2.4v2.8l0.6,1.4l1,1.8c0.6,1,1.6,1.6,3,1.8l-5.4,1.8l-1.8-0.2
		l-15.4,4.2c-3.4,1-5.2,1.8-5.8,2.2l-3.2-0.2l-10.2,3.4l-18.4,1.2l-0.4,0.8c0.2-0.2,0.6,0,1,0.8c0.4,0.4,0.4,0.8,0,1.4
		c0,0.4,0,0.8,0.6,0.8h0.6l29.8-2H235l1.4-0.6l2.6-1.8c2.8-2,4.4-2.8,4.6-2.4l35-6.2l7-0.2c1.4,0.4,2.2,1.2,2.4,2.4l0.4,3.4l1,4.4
		l-0.4,0.2l-0.6-0.6l-1.2-3.8l-1.2-2l-7.6,1l-2.4,0.8l-2.8,0.2l-37.6,6.6h0.2l37.6-6.4c-0.4,3.4,0,6,1,7.2l1.8,1.8
		c0.2,0.2,0.2,0.4-0.2,1l-27.8,8.2l-17.6,2.8h-0.4v-0.8l-0.4,0.2l-3.6,0.2c-1.8,0.2-2,0.4-0.8,1c0.2,0.2,0.2,0.4,0,0.6l-14,0.4
		c-2.8,0.4-4.2,1-4.6,2v0.2l19.6-0.6l22.6-3.8l28.8-9c1.8-0.2,3.4,0.8,4.8,2.8c1.2,2.2,0.8,4-1.6,5.2l-2.4-4.8
		c0-0.2-0.4-0.4-1.2-0.6l-8.8,3c-0.8,1.6-1,3.4,0,5c0.8,1.8,1.6,2.6,2.2,2.6s0.6,0.4,0.2,0.8l-11.4,5l-27,5.2l-23.4,1.6
		c-1.2-0.6-3.2-1.8-6-3.8c-3-2-4.8-3.2-5.4-3.2c-0.6,0.2-1.2,0.8-1.4,2l2.4,2l2.6,1.6l0.8,0.6l0.4,0.6c0.2,0.4,0,0.6-0.6,0.8
		l-11.2-0.2l-15.6-19.2v-3.8l2.2,1.8c1.4,1,2.4,0.8,3.2-0.6l-0.4-3l1.4,0.6c0.6,0,0.8-0.4,0.8-1.2c-3.6-3.8-5.6-7-6.2-9.2l-0.8-3.6
		h0.2l-0.8-5.6c-0.8,1-2,1.4-3.4,1.2c-0.2-0.2-0.4-0.2-0.8-0.2l-2.8-1.2l1,16.4c0.2,3.4,0,5.4-0.2,5.6c-2,0.8-3.8-1-5.4-5.2
		c-1.4-4.4-2.6-9-3.4-13.6l-1.4-7.6l-0.6,0.2l1,8.4c-1,1-1.6,2.8-2,5.8c-0.2,2.8,0.4,5,2,7c1.4,1.6,2.8,4.4,4.2,8l2.4,7
		c-1.8-0.4-3.2-1.8-4.4-4l-2-4.2h-7.8v2.2l0.6,3c0.6,1,1,2.2,1.2,3.4v1.8l-1.4-0.8l-2.2-2.4c-5.2-5.2-8.4-9.2-9.8-12
		c-1.4-2.8-1.8-4.8-1.6-6L138.8,439z M169.4,442.4l0.4-5.6l3.8,10.2v2.8l-2.2-2.6c0-0.2,0-0.2,0-0.2
		C170.2,445.4,169.6,443.8,169.4,442.4z M258.4,414.8l0.4,0.4l1.8,4.8l-4.2,1.6h-5.8l-0.6-2c-0.4-1.2-0.2-2,0.2-2.8l1.4-0.6
		L258.4,414.8z M251.4,423.2l-1-1.4l6-0.2l-4,1.6H251.4z M286.8,440l-2.4,1.8c-1.4,0.8-3.2,1.4-5.2,1.4l-1.8-2.8c-1-1.6-1.2-3.4-1-5
		c0.2-0.8,0.4-1.4,0.8-1.4l7.8-1.4c0.2,0.2,0.6,1.6,1,3.8L286.8,440z M270.2,451.2l7-2.4l1.8,2.6c1,1.4,1.4,2.4,1.4,3l-3.4,2l-4,1.8
		c-1.6,0-2.8-0.8-3.4-2.4L269,453C268.6,452.6,269,452.2,270.2,451.2z M263.4,467.6l-0.6,1l-2.8,2.6c-1.6,1.4-3.2,2.4-4.8,2.8
		l-30.8,3.2l-0.6-1.8l-0.4-2.2l39-6.6C263.4,466.8,263.8,467.2,263.4,467.6z M216.4,480.2c-0.8-0.4-1.4-1.2-2-2.8l-0.8-3l6.2-0.4
		l2.4-0.6l1.4,4.6c0.2,1-0.6,1.8-2.4,2.2l-3,0.8C218,481.2,217.4,481,216.4,480.2z M213,476l0.6,1.8h-12.2L213,476z"/>
	<path class="st0" d="M226,33.6v0.6l-2,1.2l-2.8,2.4c-1.8-0.2-4.6,1.2-8,4l-5.8,4.8l5.8-4.2c3.4-2.4,5.4-3.6,6.2-3.6
		c0,0.4-0.6,1-2,1.8l-4,2.2l6-2.8l-2.2,2.8h1c0.6,0,0.6,0.4,0,0.8l-4.8,4.8l2-1.2c1-0.4,1,0.6-0.2,3.4l3.6-4.8l1-0.6
		c0.4-0.2,0.6,0.4,0.4,1.6l-5,9c1.6-0.6,1.8,0.4,1,2.8c-0.8,2.6-1.8,5.2-3,7.8l-2.2,4.4h0.8c0.6-0.2,0.8,0.4,0.4,1.2l-2.4,4.4
		c-1,2.4-1.8,6.8-2,13c0,2.8,0.2,6,0.8,9.8c0.4,3.4,1,7.4,2,12c0.4,1.8,0.8,4,1.2,6c-0.2,2.6-0.6,4.2-1.2,5.2l-0.8,1l0.6,7.6l4,2.4
		l18,10.6l1.8-19.6l-1.2,19.8h0.2l3,1.2h4.6c-0.2-0.6,0.2-2.2,1-5c0.6-1.6,1.6-3.4,3.2-5.2c1.2-1.6,2.8-3.2,4.6-5l-2.4,3.6l1.8-1.4
		l2-1l0.8-0.2l-0.2-4.2c-0.2-2.2,0.4-3.8,1.6-4.6l-0.4,5.6c0,2.6,0.6,3.6,2,3.2c0.8-0.4,2.4-0.4,4.4,0l6.2,2.8
		c0.6,0.4,1.8,0.8,3.6,1.2c0.6,0,1.2,0.2,1.8,0.2l3.2-0.2c1.6-0.4,4-1.8,7-4.2l1,0.4c0.2,0.2,1-0.2,2.2-1l-0.4,1
		c0,0.4-0.8,0.6-2.4,1c3,0.6,4.8,0,5.6-1.4c0.6-1.6,1-3.4,0.8-5.2l-0.2-3.2c0.4,1.2,0.8,2.6,0.8,4.2l0.2,2.8l0,0
		c0.4-0.4,0.6-0.2,0.8,0.4l4,4.2c0.2,0.2,0.6,0.6,0.8,1c1.6,1.8,2.8,4.2,3.8,7.4l-0.2-0.6l-1.4-28.2l-3.6-2.2
		c-0.2-0.2-0.4-0.4-0.6-0.4c-1.6-1.2-2.6-2.2-2.6-3.2c-2.2-0.8-3.4-2-3.6-3.6l-0.4-2.6h-2.4l-4-0.8H278l-0.2-1.8V99l1.2-2.4
		l-0.4,2.6l0,0l0,0c0.2-0.2,0.2-0.2,0.6,0c0.4,0,1.4,0.6,2.6,1.4l10.6-0.6l5.6-2l0.8-1.6c-7,2.2-12.2,2.6-15.6,1.2l1-2.4l-0.8,1.2
		c-0.6,0.6-1.2,1-1.6,1h-1.2v-0.6l-0.6-0.6l1.2-2.2c0.2-0.4,0.8-0.2,1.2,0.6l0.8-1.4c0.2-0.4,0.6-0.2,1,0.6c0.6-0.4,1.4-1.4,2-2.4
		c0.2,0,0.4,0.4,0,1l-0.4,1l0.6,0.4l0.8-1c0.6-0.6,1-0.6,1.4,0c1.4-1,1.6-0.8,1,0.2l-1.4,1.8L291,93c1.2-0.4,1.4-0.2,1,0.2l-0.8,1
		l8.8-2.8l0.4-1.2l0.2-0.8l0.2-0.2l0,0L301,88l-0.4-4c-0.2-1.6-1.2-4.2-3-8l-12.2,0.6l-3.2-1.2h-26.6l-1.8,0.8l-8.2-0.6h7.6l2.8-1
		l26.6,0.2l3.6,1.2c0.8,0.2,2.4,0.2,4.8,0l6.4-0.6l-2-4.4l-19-34.6l-1.2-1.8l-1.6-1.8c-1.2-1-2.6-1.4-4-1.2l2,2.6
		c1.4,1.4,1.2,1.8-0.2,1.8l-3.4-1c0.2,0.4,0,1.2-0.4,2.4c-0.6,1.2-1.8,0.4-3.6-2.6l-5.2,0.2l-2.2-0.4l-0.4,1.6l-2.4-0.2
		c-2.8-2.4-4.4-3.4-4.8-2.6c0.2,0.4,0.8,1.2,2.2,2.2c1.2,1,1.6,1.6,1.2,1.8l-3.2,0.4l-3.4-0.6l-6.2-0.2c-1.8,0-3-0.6-3.6-1.8
		l-1.2-2.2l-1.8,0.2l-2.2-1.2l0.2,0.6l0.4,0.8L226,33.6z M273.8,67.2l5.6-1l10,0.4L278.6,67l-3.2,1h-13.2l-4.4-1.2L246.6,67
		l11.8-0.8L262,67L273.8,67.2z M276.4,91.8l0.4,3.2c0,1.6,0,2.8-0.6,4.2c-0.2,0.4-0.4,0.8-0.6,1.2v2l-10.6,0.4l-0.8-1
		c-0.4-0.6-0.4-1,0.4-1c0.6-0.4,0.8-0.8,0.4-1l-1-0.4c-0.2-0.2-0.2-0.2-0.4-0.2c-0.2-0.4-0.4-0.8,0-1.2l-0.4-1l1.2,0.4l-1.4-5.6
		c0-0.2,0.2-0.2,0.4,0c1,4.2,2.4,6.6,4.6,7.4c0,0,0.2,0,0.4,0l3.8,0.4c0.4,0,0.4,0.2,0,0.4l-5.2-0.4l-1.2-0.8l1,2h7.4
		c0.4-0.4,0.8-0.8,1-1.6c0.4-0.8,0.6-1.8,0.6-3L276.4,91.8z M253,63.8c0.2,0,0.2,0.4,0,0.8h-10l0.6-0.6L253,63.8z M232.8,66.2
		l2.2-1.6l-6.6,6.8L232.8,66.2z M227.2,72.6l0.2,0.4l-4.8,6.6c-1.6,2.2-2.8,5.8-3.2,11.2c0.2-1.4,0.8-1.4,1.8-0.2l2.2-3
		c0.6-0.8,1.8-0.8,3.8,0c2.6,1.8,5.8,3.2,9.6,4.6l15.2,4.6l-2.2-1.2l-2.4-1.2V94h1.4l0.6,0.6c0.2,0.2,0.4,0,0.6-0.4l1.6,1.2
		c1,0.6,0.8,0-0.4-1.6c0.6-0.6,1.6,0,3,1.8l1,1.8c0.4,0.6,1.2,1,2.2,1.2c0.2,0.2,0.2,0.4,0.2,0.6c-0.2,0.4-0.6,0.8-1.6,1.2L238.6,97
		l-8.6-0.4c-0.8,0-1.4-0.4-2-1c-0.4-0.6-1-0.8-1.4-0.8c-1,0-2.2,0.4-3.4,1.4c-1.4,1-2.4,1.2-3.4,0.6c-0.4,0-0.8,0.6-0.8,1.8v2.2
		l-1,0.4l0.2-4.4l-0.2-1.2l1-8.4c0-4.2,1.2-7.6,3.8-10.4C225.2,73.8,226.8,72.6,227.2,72.6z M234,103.8l-1.2-0.2v0.6l2.2,1
		c0,0.2,0,0.4-0.4,0.4l-1.2-0.2c-0.8,0-1.4-0.2-1.8-0.8c-0.6-0.4-1.2-0.4-1.8,0.6c-0.8,0.8,0.4,2.6,3,5.2l-0.6,0.2l-1.8-1.4
		c-1-0.8-2.2-2.2-3.2-4.2c-1.2,0-1.8-0.2-2-0.6l1,3.8c0.2,1.2,0.8,2,1.6,3c0.8,0.8,2,1.6,3.4,2.2c2.6,1.4,6.8,0.6,12.6-2.2
		c0.2-0.2,0.4-0.2,0.4-0.2c0.2,0,0.4,0,0.4,0.2c0.2,0,0,0.2-0.2,0.4c-7.8,3.4-13,4.2-15.8,2.4c-1.4-0.8-2.6-1.8-3.2-2.8
		c-0.8-1.2-1.2-2.4-1.2-3.6l-0.2-4.8l-1.6,0.4l1.6-1.2c1-0.8,2.2-1.2,3.6-1.4l6.6-1.4l23.2,3l0.8-1l3.2-0.6c0.4,0.2,0.4,0.4,0,0.8
		h-1.2c-0.8,0-1.8,0.6-3,1.8H250c-1.4,0.8-3.8,1.4-7,1.6C239.6,105.2,236.6,104.8,234,103.8z M227.6,99.6v0.4l-2,0.4
		c-0.4,0.2-0.8,0.4-1,0.4c-0.2,0-0.4,0.2-0.8,0.4c-0.4,0.2-0.8-0.2-1-1l-1.8-0.6C221.6,99.2,223.6,99.2,227.6,99.6z M257.4,95.6
		l1-0.2c0.4-0.6,1-0.4,1.2,0.2l0.6,1.2L261,97c0.4,0,0.2,0.2-0.4,0.6l0.6,0.4c0.2,0,0,0.2-0.4,0.6c0,0.2,0,0.4,0,0.6
		c-0.2,0-0.2,0-0.2,0c-0.2,0-0.4,0-0.6,0c-0.4-0.2-0.6-0.8-0.8-1.4l-1-0.2l-1,0.2c-1.2-0.4-1.8-0.8-1.8-1.2v-1l0.4-0.6v-0.6h0.8
		C257.2,94.6,257.4,95,257.4,95.6z M266,131.6l-4.2-2l2.4,0.6c1.4,0.2,3.4,1,5.6,2h2.4c1,0.2,1.2,0.4,0.6,1
		C270.6,133.2,268.4,132.6,266,131.6z M256.4,124l4-2.2c2.2-0.8,5.4-0.4,9.6,1L256.4,124z M279.4,121.8c-0.4-0.2,0,0,1,0.6l2,0.8
		H281l-6.4-2l4.2,0.2L279.4,121.8z M275,122.8c-2.6,0-4.8-0.6-6.6-1.6l6,0.2l5,1.6L275,122.8z M275.2,132.4
		c-1.4-0.2-1.8-0.4-1.6-0.8l8.8-3l-3.2,1.8C277.4,131.4,276,132,275.2,132.4z M219.4,114.8c-0.4-0.2-0.4-0.4-0.4-0.8v-0.8l0.2-0.6
		l0.6-0.4c0.4-0.2,0.6,0.2,0.8,0.8C220.2,114,219.8,114.4,219.4,114.8z M217.4,122.8h1c0.4,0.4,0.6,0.8,0.4,1v1.2H218l-0.6-0.8
		V122.8z M222,120.6h1.2c0.4,0.4,0.6,0.8,0.4,1.6c0.2,1,0,1.6-0.2,1.8c-0.6,0-1.2-0.6-1.4-1.6C221.6,121.2,221.6,120.6,222,120.6z
		 M226.4,118.6c0,0.6-0.2,0.8-0.6,0.8c-0.8-0.4-1.4-1-1.4-2c0.2-0.4,0.4-0.6,1-0.4l0.8,0.8L226.4,118.6z"/>
	<path d="M279.4,66.2l-5.6,1L262,67l-3.6-0.8L246.6,67l11.2-0.2l4.4,1.2h13.2l3.2-1l10.8-0.4L279.4,66.2z"/>
	<path d="M276.8,95l-0.4-3.2l-0.6,4.4c0,1.2-0.2,2.2-0.6,3c-0.2,0.8-0.6,1.2-1,1.6h-7.4l-1-2l1.2,0.8l5.2,0.4c0.4-0.2,0.4-0.4,0-0.4
		l-3.8-0.4c-0.2,0-0.4,0-0.4,0c-2.2-0.8-3.6-3.2-4.6-7.4c-0.2-0.2-0.4-0.2-0.4,0l1.4,5.6l-1.2-0.4l0.4,1c-0.4,0.4-0.2,0.8,0,1.2
		c0.2,0,0.2,0,0.4,0.2l1,0.4c0.4,0.2,0.2,0.6-0.4,1c-0.8,0-0.8,0.4-0.4,1l0.8,1l10.6-0.4v-2c0.2-0.4,0.4-0.8,0.6-1.2
		C276.8,97.8,276.8,96.6,276.8,95z"/>
	<path d="M253,64.6c0.2-0.4,0.2-0.8,0-0.8l-9.4,0.2l-0.6,0.6H253z"/>
	<path d="M235,64.6l-2.2,1.6l-4.4,5.2L235,64.6z"/>
	<path d="M227.4,73l-0.2-0.4c-0.4,0-2,1.2-4.4,4.2c-2.6,2.8-3.8,6.2-3.8,10.4l-1,8.4l0.2,1.2l-0.2,4.4l1-0.4v-2.2
		c0-1.2,0.4-1.8,0.8-1.8c1,0.6,2,0.4,3.4-0.6c1.2-1,2.4-1.4,3.4-1.4c0.4,0,1,0.2,1.4,0.8c0.6,0.6,1.2,1,2,1l8.6,0.4l17.4,3.4
		c1-0.4,1.4-0.8,1.6-1.2c0-0.2,0-0.4-0.2-0.6c-1-0.2-1.8-0.6-2.2-1.2l-1-1.8c-1.4-1.8-2.4-2.4-3-1.8c1.2,1.6,1.4,2.2,0.4,1.6
		l-1.6-1.2c-0.2,0.4-0.4,0.6-0.6,0.4l-0.6-0.6h-1.4v0.4l2.4,1.2l2.2,1.2l-15.2-4.6c-3.8-1.4-7-2.8-9.6-4.6c-2-0.8-3.2-0.8-3.8,0
		l-2.2,3c-1-1.2-1.6-1.2-1.8,0.2c0.4-5.4,1.6-9,3.2-11.2L227.4,73z"/>
	<path d="M232.8,103.6l1.2,0.2c2.6,1,5.6,1.4,9,1c3.2-0.2,5.6-0.8,7-1.6h7.2c1.2-1.2,2.2-1.8,3-1.8h1.2c0.4-0.4,0.4-0.6,0-0.8
		l-3.2,0.6l-0.8,1l-23.2-3l-6.6,1.4c-1.4,0.2-2.6,0.6-3.6,1.4l-1.6,1.2l1.6-0.4l0.2,4.8c0,1.2,0.4,2.4,1.2,3.6c0.6,1,1.8,2,3.2,2.8
		c2.8,1.8,8,1,15.8-2.4c0.2-0.2,0.4-0.4,0.2-0.4c0-0.2-0.2-0.2-0.4-0.2c0,0-0.2,0-0.4,0.2c-5.8,2.8-10,3.6-12.6,2.2
		c-1.4-0.6-2.6-1.4-3.4-2.2c-0.8-1-1.4-1.8-1.6-3l-1-3.8c0.2,0.4,0.8,0.6,2,0.6c1,2,2.2,3.4,3.2,4.2l1.8,1.4l0.6-0.2
		c-2.6-2.6-3.8-4.4-3-5.2c0.6-1,1.2-1,1.8-0.6c0.4,0.6,1,0.8,1.8,0.8l1.2,0.2c0.4,0,0.4-0.2,0.4-0.4l-2.2-1V103.6z M235.2,100.8
		l0.6,2l-3-1.4l0.6-0.8L235.2,100.8z M236.6,102.4l-0.6-1.8h1.6l0.4,1.4c0.4,0.8,1.2,1.2,2.6,1.4l0,0c1,0,1.6-0.4,2-1l0.6-1h1.2
		l-0.4,1.4c-0.6,0.8-1.6,1.2-3.4,1.2C238.2,103.8,237,103.2,236.6,102.4z M245.6,102l1,1l-2.2,0.2l0.6-1L245.6,102z M240.8,101.4
		c0.6,0,0.8,0.2,1,0.6c-0.2,0.2-0.4,0.4-1,0.6L240,102C240,101.6,240.4,101.4,240.8,101.4z M248.4,102.6l0.2,0.6l-1,0.2l-0.4-0.8
		H248.4z"/>
	<path class="st1" d="M235.8,102.8l-0.6-2l-1.8-0.2l-0.6,0.8L235.8,102.8z"/>
	<path class="st2" d="M236,100.6l0.6,1.8c0.4,0.8,1.6,1.4,4,1.6c1.8,0,2.8-0.4,3.4-1.2l0.4-1.4h-1.2l-0.6,1c-0.4,0.6-1,1-2,1l0,0
		c-1.4-0.2-2.2-0.6-2.6-1.4l-0.4-1.4H236z"/>
	<path class="st1" d="M246.6,103l-1-1l-0.6,0.2l-0.6,1L246.6,103z"/>
	<path class="st1" d="M241.8,102c-0.2-0.4-0.4-0.6-1-0.6c-0.4,0-0.8,0.2-0.8,0.6l0.8,0.6C241.4,102.4,241.6,102.2,241.8,102z"/>
	<path class="st3" d="M248.6,103.2l-0.2-0.6h-1.2l0.4,0.8L248.6,103.2z"/>
	<path d="M227.6,100v-0.4c-4-0.4-6-0.4-6.6,0l1.8,0.6c0.2,0.8,0.6,1.2,1,1c0.4-0.2,0.6-0.4,0.8-0.4c0.2,0,0.6-0.2,1-0.4L227.6,100z"
		/>
	<path d="M258.4,95.4l-1,0.2c0-0.6-0.2-1-0.8-1.2h-0.8V95l-0.4,0.6v1c0,0.4,0.6,0.8,1.8,1.2l1-0.2l1,0.2c0.2,0.6,0.4,1.2,0.8,1.4
		c0.2,0,0.4,0,0.6,0c0,0,0,0,0.2,0c0-0.2,0-0.4,0-0.6c0.4-0.4,0.6-0.6,0.4-0.6l-0.6-0.4c0.6-0.4,0.8-0.6,0.4-0.6l-0.8-0.2l-0.6-1.2
		C259.4,95,258.8,94.8,258.4,95.4z"/>
	<path d="M261.8,129.6l4.2,2c2.4,1,4.6,1.6,6.8,1.6c0.6-0.6,0.4-0.8-0.6-1h-2.4c-2.2-1-4.2-1.8-5.6-2L261.8,129.6z"/>
	<path d="M260.4,121.8l-4,2.2l13.6-1.2C265.8,121.4,262.6,121,260.4,121.8z"/>
	<path d="M280.4,122.4c-1-0.6-1.4-0.8-1-0.6l-0.6-0.4l-4.2-0.2l6.4,2h1.4L280.4,122.4z"/>
	<path d="M268.4,121.2c1.8,1,4,1.6,6.6,1.6l4.4,0.2l-5-1.6L268.4,121.2z"/>
	<path d="M273.6,131.6c-0.2,0.4,0.2,0.6,1.6,0.8c0.8-0.4,2.2-1,4-2l3.2-1.8L273.6,131.6z"/>
	<path d="M219,114c0,0.4,0,0.6,0.4,0.8c0.4-0.4,0.8-0.8,1.2-1.8c-0.2-0.6-0.4-1-0.8-0.8l-0.6,0.4l-0.2,0.6V114z"/>
	<path d="M218.4,122.8h-1v1.4l0.6,0.8h0.8v-1.2C219,123.6,218.8,123.2,218.4,122.8z"/>
	<path d="M223.2,120.6H222c-0.4,0-0.4,0.6,0,1.8c0.2,1,0.8,1.6,1.4,1.6c0.2-0.2,0.4-0.8,0.2-1.8C223.8,121.4,223.6,121,223.2,120.6z
		"/>
	<path d="M225.8,119.4c0.4,0,0.6-0.2,0.6-0.8l-0.2-0.8l-0.8-0.8c-0.6-0.2-0.8,0-1,0.4C224.4,118.4,225,119,225.8,119.4z"/>
	<path class="st4" d="M276.4,34l-1,0.6l1,1.8l19,34.6l2.2,4.4l2.4-0.2c0.2,0,0.2,0.2-0.2,0.6l-2,0.2c1.6,3.8,2.6,6.4,2.8,8l0.4,4
		l-0.2,1.2l0,0l-0.2,0.2l-0.2,0.8l-0.2,1.4l10.8-4.4l3,1.8l-1.2-4.8c-0.6-3.2-2.2-6.8-4.4-10.8l2.8,2.6c1.4,1.4,2.2,3.2,2.2,5.2
		l1,6.8l1.2,4.6l0.6-5.4c0.2-3.6-0.8-7.8-3-12.8c-0.4-1-0.6-1.6-0.2-2.4l0.4-1c0.4-0.2,0.2-2.6-0.2-7c-0.6-4.6-3.4-10-8.2-16.2
		c-5-6.4-13.8-12-26.8-17.4l0.8,1.4c0.8,1.2,0.4,1.4-1.4,0.4C277.4,33.2,277,33.8,276.4,34z"/>
	<path d="M297.4,75.4L291,76c-2.4,0.2-4,0.2-4.8,0l-3.6-1.2L256,74.6l-2.8,1h-7.6l8.2,0.6l1.8-0.8h26.6l3.2,1.2l12.2-0.6
		c1.8,3.8,2.8,6.4,3,8l0.4,4l-0.4-4c-0.2-1.6-1.2-4.2-2.8-8l2-0.2c0.4-0.4,0.4-0.6,0.2-0.6l-2.4,0.2l-2.2-4.4L297.4,75.4z"/>
	<path class="st5" d="M299,96.4l-0.8,1.8l2.2-0.6c1.4-0.2,3,0,4.8,1h1.4l1.6,1c0.6,0.2,1.2,0.6,2,1.2l1,1.6c0.2,0.6-0.4,0.4-1.6-0.4
		c-1-0.8-1.6-1.2-1.6-0.8l-0.4,0.6c-0.2,0-0.4-0.4-0.6-1.4l-1,1.8l1.8,3.4c1,2,1.4,3.8,0.8,5.6c0,0.2,0,0.4-0.2,0.4
		c-0.8,2-3.8,2.8-9.2,2.4c-0.8,0.8-1.4,0.8-1.8,0.6l-0.8-0.8l1.4,28.8l0,0l0.4,1.2l0.6,3.8l0.4,4.2l-0.2,1.4l-0.4,7.6
		c-0.2,2.6-0.6,4.6-1,5.8l-1,2.4c2.8-2.6,4.4-7,4.8-13c0.4-6.2,0.2-12-0.2-17.4l-0.8-9c0.2,0.2,0.4,2,0.8,5.6c0,0,0,0.2,0,0.4
		l1.6,15l-0.2-4.6l5.6-9.2v-0.4l0.2,0.2l5.8-9.8l0.2,0.2l0.2-0.2l1.2-33.2l-0.8,0.6c0.2,2.4,0,3.8-0.4,4.4s-0.6-1-0.4-5l-1.2-1
		c0,0.4,0.2,1,0,1.8c0,1-1.2,0.6-3.2-1l-2,1.2l1.6,0.4c0.8,0.2,0.4,0.4-1,0.8L299,96.4z M306.6,119.6l0.2-1c0.4-1,0.8-1.2,1.2-0.8
		l0.6,1.2c0.4,0.8,0.4,1.6,0.2,2l-0.8,0.8c-0.4,0.4-0.8-0.2-1.2-1.4L306.6,119.6z M310.4,115.4c0,0.4,0,0.8-0.4,0.8l-1.2-0.6
		l-0.4-1.4c0.2-0.2,0.4-0.4,0.8-0.4l0.8,0.4L310.4,115.4z M310,126.8l0.6-0.4c0.2-0.4,0.4-0.2,0.6,0.6v1.6l-0.4,0.6
		c-0.2,0.4-0.4,0.2-0.6-0.4L310,126.8z"/>
	<path d="M306.8,118.6l-0.2,1l0.2,0.8c0.4,1.2,0.8,1.8,1.2,1.4l0.8-0.8c0.2-0.4,0.2-1.2-0.2-2l-0.6-1.2
		C307.6,117.4,307.2,117.6,306.8,118.6z"/>
	<path d="M310,116.2c0.4,0,0.4-0.4,0.4-0.8l-0.4-1.2l-0.8-0.4c-0.4,0-0.6,0.2-0.8,0.4l0.4,1.4L310,116.2z"/>
	<path d="M310.6,126.4l-0.6,0.4l0.2,2c0.2,0.6,0.4,0.8,0.6,0.4l0.4-0.6V127C311,126.2,310.8,126,310.6,126.4z"/>
	<path d="M251.8,131.2l1,1.4c0.8,0.8,2,1.4,4.2,1.8c0.4,0,1.2,0.2,2.2,0.8c0.6,0.2,1.2,0.6,2,0.8l4,2l0.8,6.8h0.4v-6.2l1.8,0.6
		c1,0.6,1.4,2.2,1.4,4.6c1,1.4,1.8,1.4,2.4-0.2l0.4-2.2l0.2-2l0.8-0.2c0.6,0,1,0,1.2,0.4l0.4,4.6l0.6-0.4h0.2v-5.2l2.2-2.2
		c0.6-0.6,1-1,1.4-1.2c0.8-0.8,1.6-1.2,2.4-1.4c1.2,0.2,2.6-0.2,4.2-0.8c1.6-0.6,2.6-1.8,2.6-3.4l0,0l-0.2-2.8c0-1.6-0.4-3-0.8-4.2
		l0.2,3.2c0.2,1.8-0.2,3.6-0.8,5.2c-0.8,1.4-2.6,2-5.6,1.4c1.6-0.4,2.4-0.6,2.4-1l0.4-1c-1.2,0.8-2,1.2-2.2,1l-1-0.4
		c-3,2.4-5.4,3.8-7,4.2l-3.2,0.2c-0.6,0-1.2-0.2-1.8-0.2c-1.8-0.4-3-0.8-3.6-1.2l-6.2-2.8c-2-0.4-3.6-0.4-4.4,0
		c-1.4,0.4-2-0.6-2-3.2l0.4-5.6c-1.2,0.8-1.8,2.4-1.6,4.6L251.8,131.2z M258.2,134.2l-0.2-0.8h0.8l3.4,2.4v0.2H262L258.2,134.2z"/>
	<path class="st6" d="M258,133.4l0.2,0.8l3.8,1.8h0.2v-0.2l-3.4-2.4H258z"/>
	<path class="st7" d="M252.8,132.6l-1-1.4l-0.8,0.2l-5,3.8c-3,2.8-4.2,7.4-3.4,13.8l3.6-2.2h5c2.4-1.6,5-2.6,7.4-2.6h4.2v0.4
		l3.2,0.2l-0.8-6.8l-4-2c-0.8-0.2-1.4-0.6-2-0.8c-1-0.6-1.8-0.8-2.2-0.8C254.8,134,253.6,133.4,252.8,132.6z"/>
	<path class="st7" d="M247.2,133.8l2.4-3.6c-1.8,1.8-3.4,3.4-4.6,5c-1.6,1.8-2.6,3.6-3.2,5.2c-0.8,2.8-1.2,4.4-1,5h-4.6l-3-1.2
		l-0.4,7.8c-0.2,5.2,1.6,10.8,5.2,17.2c2.4,4.6,6.6,8.4,12.4,12c2.4,1.4,5,2.6,8,4l3.4,1.8c2.2,1,4.8,1.6,8.2,1.6
		c3.4,0,7.2-1.4,11.2-4.2c1.6-1,3-2.2,4.4-3.2c4.2-3.4,7-6,8.6-8c1.8-2.8,2.6-4.2,2.4-4.2l1.2-2.4c0.4-1.4,0.8-3.2,1-5.8l0.4-7.6
		c0-0.4,0-0.8,0-1.4l-0.2-4.2l-0.6-3.8l-0.4-1.2l0,0l-0.2-0.6l0.2,0.6c-1-3.2-2.2-5.6-3.8-7.4c-0.2-0.4-0.6-0.8-0.8-1l-4-4.2
		c-0.2-0.6-0.4-0.8-0.8-0.4c0,1.6-1,2.8-2.6,3.4c-1.6,0.6-3,1-4.2,0.8c-0.8,0.2-1.6,0.6-2.4,1.4c-0.4,0.2-0.8,0.6-1.4,1.2l-2.2,2.2
		v5.2h-0.2l-0.6,0.4l-0.4-4.6c-0.2-0.4-0.6-0.4-1.2-0.4l-0.8,0.2l-0.2,2l-0.4,2.2c-0.6,1.6-1.4,1.6-2.4,0.2c0-2.4-0.4-4-1.4-4.6
		l-1.8-0.6v6.2H266l-3.2-0.2v-0.4h-4.2c-2.4,0-5,1-7.4,2.6h-5l-3.6,2.2c-0.8-6.4,0.4-11,3.4-13.8l5-3.8l-2,1L247.2,133.8z
		 M243.4,157.2L242,156c-0.8-0.8-0.8-1.8,0.2-2.8l18.2-4.2l9.8,0.6l1.8,0.2c1,0.2,2.4-0.6,4.2-2.2l5.8,0.6l12.6,4.8l-3.2,4.6
		L291,158l-3.8,5l3.2,4.4l2,2c0.6,0.4,1,1.2,1,2.2c0,0.8-0.4,1.6-0.8,2.6l-3.6,0.2c-1-0.6-1.8-2.4-2.2-5.4l-3-4.4l-5.4,2.6v4.8
		c2.4,1.2,3.2,2.6,2,4l-1.6,1.6l-0.8,0.6l-0.4,0.6c-0.2,0.4-0.8,0.4-1.4,0l-3,0.8c-2,0.2-4,0-6.2-1l-2.2-1c-0.6-0.6-1.2-1.6-1.4-3.2
		l0.6-1.2l2.4-1.2l5.4-0.4h0.8h3.2v-3.2l-1.4,0.4c-1,0.2-1.4-0.6-1.2-2.4l-15,0.6l-0.8-0.2c-0.4-0.2-0.8-0.6-1-1.2
		c-2.4,0-3.6-0.4-3.6-1.6l0.2-2l0,0l-8.2-4.2v0.2l0.2,2l-1.4-2.8H243.4z M276,183.4c0.2,0,0.4,0.4,0.4,1c0,0.8-1,1.4-3.2,1.8
		c-0.2,0.8-0.6,1.2-0.8,1l-1.2-0.4h-4.4c-2.4-1.2-4.4-2.6-6.4-4.4l-2.8-2.8c0.2,0.4,1.8,0.8,4.8,1.6c0.8,0.2,1.6,0.4,2.8,0.6
		c4,1,8.8,0.8,14-0.6c0.8-0.2,1.6-0.4,2.2-0.8l-3.8,2.8L276,183.4z"/>
	<path class="st8" d="M242,156l1.4,1.2l-0.8-2.4l1.2-0.2l0.8,3.2l0.2,0.2v-0.2l8.2,4.2l1.4-0.6l-4-1.6c-2.2-0.8-3.4-1.4-3.6-1.6
		c7.8,2.6,14.4,3.8,20,3.8l8.8-0.4l-2.2-8.8l-5.6-0.4l-19.8,2c-0.4-0.6,1-1,4.2-1.6l9.4-1.6c2-1,4-1.4,6.2-0.8l3.8,0.8l5.4-1.2
		c3.2-0.6,8.6,0.6,16,3.6l-13-1.4l4.4,7.2l2.8-1.2l3.8-0.2l0.4-0.4l3.2-4.6l-12.6-4.8l-5.8-0.6c-1.8,1.6-3.2,2.4-4.2,2.2l-1.8-0.2
		l-9.8-0.6l-18.2,4.2C241.2,154.2,241.2,155.2,242,156z"/>
	<path d="M243.8,154.6l-1.2,0.2l0.8,2.4h0.2l1.4,2.8l-0.2-2l-0.2-0.2L243.8,154.6z"/>
	<path d="M252.2,152.8c-3.2,0.6-4.6,1-4.2,1.6l19.8-2l5.6,0.4l2.2,8.8l-8.8,0.4c-5.6,0-12.2-1.2-20-3.8c0.2,0.2,1.4,0.8,3.6,1.6
		l4,1.6L253,162l0,0l-0.2,2c0,1.2,1.2,1.6,3.6,1.6c0.2,0.6,0.6,1,1,1.2l0.8,0.2l15-0.6c-0.2,1.8,0.2,2.6,1.2,2.4l1.4-0.4v3.2h-3.2
		l3.2,0.2v2.4c0.4,0.8,0.6,1.2,0.4,1.6l-0.6,1.4c0,0.6,0.2,1,0.6,1.4l0.8,0.2l0.6-0.4c0.2-0.2,0.4-0.6,0.2-1.4c-0.4-1-0.2-2,0.4-2.8
		l0.2-2.2v-4.8l5.4-2.6l3,4.4c0.4,3,1.2,4.8,2.2,5.4l3.6-0.2c0.4-1,0.8-1.8,0.8-2.6c0-1-0.4-1.8-1-2.2l-2-2l-3.2-4.4l3.8-5l-3.8,0.2
		l-2.8,1.2l-4.4-7.2l13,1.4c-7.4-3-12.8-4.2-16-3.6l-5.4,1.2l-3.8-0.8c-2.2-0.6-4.2-0.2-6.2,0.8L252.2,152.8z M255,153.4l-0.2-0.4
		l2.8-0.8l0.2,0.8L255,153.4z M276.6,152l0.6-0.2l0.8,0.2l1.8,1.4l9.4,14.2l-2,0.4L276.6,152z M285.8,151.6l0.2,0.6h-1.8l-0.2-1
		l1,0.2L285.8,151.6z M287.6,168.6c0.8-0.6,1.6-0.6,2.6,0l1.8,2.2l0.2,1.4c0.2,0.8,0,1.4-0.6,1.8l-2.4-0.2l-1.4-2.6
		C287.4,170.4,287.4,169.4,287.6,168.6z M280.8,160.4l-4.2,0.8l1.4-5L280.8,160.4z"/>
	<path class="st1" d="M254.8,153l0.2,0.4l2.8-0.4l-0.2-0.8L254.8,153z"/>
	<path class="st1" d="M277.2,151.8l-0.6,0.2l10.6,16l2-0.4l-9.4-14.2L278,152L277.2,151.8z"/>
	<path class="st1" d="M286,152.2l-0.2-0.6l-0.8-0.2l-1-0.2l0.2,1H286z"/>
	<path class="st9" d="M290.2,168.6c-1-0.6-1.8-0.6-2.6,0c-0.2,0.8-0.2,1.8,0.2,2.6l1.4,2.6l2.4,0.2c-0.4,0-0.6-0.6-0.8-1.6
		c0-1-0.4-2-1-2.6c-0.4-0.6-0.4-1-0.2-1L290.2,168.6z"/>
	<path class="st1" d="M289.8,169.8c0.6,0.6,1,1.6,1,2.6c0.2,1,0.4,1.6,0.8,1.6c0.6-0.4,0.8-1,0.6-1.8l-0.2-1.4l-1.8-2.2l-0.6,0.2
		C289.4,168.8,289.4,169.2,289.8,169.8z"/>
	<path class="st0" d="M276.6,161.2l4.2-0.8l-2.8-4.2L276.6,161.2z"/>
	<path class="st10" d="M275.8,171.8l-3.2-0.2h-0.8l-5.4,0.4l-2.4,1.2l-0.6,1.2c0.2,1.6,0.8,2.6,1.4,3.2l2.2,1c2.2,1,4.2,1.2,6.2,1
		l3-0.8c0.6,0.4,1.2,0.4,1.4,0l0.4-0.6l0.8-0.6l1.6-1.6c1.2-1.4,0.4-2.8-2-4l-0.2,2.2c-0.6,0.8-0.8,1.8-0.4,2.8
		c0.2,0.8,0,1.2-0.2,1.4l-0.6,0.4l-0.8-0.2c-0.4-0.4-0.6-0.8-0.6-1.4l0.6-1.4c0.2-0.4,0-0.8-0.4-1.6V171.8z"/>
	<path d="M276.4,184.4c0-0.6-0.2-1-0.4-1l1.6-0.2l3.8-2.8c-0.6,0.4-1.4,0.6-2.2,0.8c-5.2,1.4-10,1.6-14,0.6c-1.2-0.2-2-0.4-2.8-0.6
		c-3-0.8-4.6-1.2-4.8-1.6l2.8,2.8c2,1.8,4,3.2,6.4,4.4h4.4l1.2,0.4c0.2,0.2,0.6-0.2,0.8-1C275.4,185.8,276.4,185.2,276.4,184.4z"/>
	<path class="st11" d="M232.4,144L232.4,144l-18-10.6l-4-2.4c-0.2,0.2-0.2,1.6,0.2,4.2c0.2,2,0.6,4.6,1,8.2
		c1.2,7.6,4.2,16.4,9.4,26.4c2.2,4,5,7.8,8.4,11.4c4.8,5,10.8,9.6,18,13.6c6.2,4.4,11.2,7,15.4,7.4c4.4,0.6,7.8,0.2,10.6-0.8
		c2.6-1.4,4.8-2.4,6-3.2c8.6-5.2,15.4-11,20.4-17c3.2-4,5.8-8,7.6-12.2c5-11.2,7.4-20.8,7.6-29c0-1.8,0-3.4,0-4.8
		c0-4.8-0.2-7.6-0.4-8.2l-0.2-0.2l-5.8,9.8l-0.2-0.2v0.4l-5.6,9.2l0.2,4.6v3.2c0,4.8-1.2,9-3.4,12.6l-7.8,11c-1.2,1.4-2,2.6-3,3.8
		c-1.8,2.2-3.4,4-4.8,5c-0.6,0.8-1,1.4-1,2.2l0.2,1.2c0,0.2-1,1-2.8,2.4c-2,1.4-4.8,2.4-8.4,2.8c-3.8,0.6-8.6-0.4-14.4-3.2
		c-2.6-1.2-5.2-3-7.8-4.8l-3.8-3.2l0.4-0.4l-0.6-1.6c-0.2,0-0.4-0.2-0.6-0.4c-5.8-4.4-9.4-9.4-11-15c-1.8-5.8-2.6-11-2.4-15.4
		L232.4,144z M217.8,142.8c-0.2-0.2-0.2-0.6,0.2-1.2l0.4-1.2l0.8-0.4c0.6,0,0.6,0.4,0.6,1.2l-0.8,2.2L217.8,142.8z"/>
	<path d="M218,141.6c-0.4,0.6-0.4,1-0.2,1.2l1.2,0.6l0.8-2.2c0-0.8,0-1.2-0.6-1.2l-0.8,0.4L218,141.6z"/>
	<path d="M232.4,144L232.4,144l-0.6,6.8c-0.2,4.4,0.6,9.6,2.4,15.4c1.6,5.6,5.2,10.6,11,15c0.2,0.2,0.4,0.4,0.6,0.4l0.6,1.6
		l-0.4,0.4l3.8,3.2c2.6,1.8,5.2,3.6,7.8,4.8c5.8,2.8,10.6,3.8,14.4,3.2c3.6-0.4,6.4-1.4,8.4-2.8c1.8-1.4,2.8-2.2,2.8-2.4l-0.2-1.2
		c0-0.8,0.4-1.4,1-2.2c1.4-1,3-2.8,4.8-5c1-1.2,1.8-2.4,3-3.8l7.8-11c2.2-3.6,3.4-7.8,3.4-12.6v-3.2l-1.6-15c0-0.2,0-0.4,0-0.4
		c-0.4-3.6-0.6-5.4-0.8-5.6l0.8,9c0.4,5.4,0.6,11.2,0.2,17.4c-0.4,6-2,10.4-4.8,13l1-2.4c0.4-1.2,0.8-3.2,1-5.8
		c-0.2,2.6-0.6,4.4-1,5.8l-1.2,2.4c0.2,0-0.6,1.4-2.4,4.2c-1.6,2-4.4,4.6-8.6,8c-1.4,1-2.8,2.2-4.4,3.2c-4,2.8-7.8,4.2-11.2,4.2
		c-3.4,0-6-0.6-8.2-1.6l-3.4-1.8c-3-1.4-5.6-2.6-8-4c-5.8-3.6-10-7.4-12.4-12c-3.6-6.4-5.4-12-5.2-17.2l0.4-7.8H233l1.2-19.8
		L232.4,144z"/>
	<path d="M299.2,151.8c0,0.6,0,1,0,1.4l0.2-1.4l-0.4-4.2L299.2,151.8z"/>
	<path class="st8" d="M287,102l-0.6-0.2c-0.2,0.4,0,1.8,0.8,4.2c0.2,0.6,0.6,0.8,1.2,1l5.8,3.8l2.2,0.8l0.6-7h-3.2
		c0-0.2-1.2-0.6-3.6-1c-1.6,0-2.6-0.2-2.8-0.8L287,102z"/>
	<path class="st12" d="M303.6,103c0.4-0.2,0.4-0.6,0.4-0.8l-1.4,1.4l-0.6,1h-5l-0.6,7l3.8,0.8c2.2,0.4,4.2,0,5.8-1.2
		c0.2,0,0.2,0,0.2,0c1.4-1.2,0.8-4-1.2-8.4c0.4-0.4,0-0.2-0.8,0.6c-0.6,0.4-0.8,0.4-0.6,0.2V103z"/>
	<path class="st1" d="M296.4,101.4l1-0.6c-0.2-0.4-0.4-0.6-1-0.6c-0.4,0-0.8,0.2-0.8,0.6L296.4,101.4z"/>
	<path class="st13" d="M293.8,100.8l-1,0.4l0.8,1.2c0.4,0.8,1.4,1,2.6,1c2-0.2,3-0.8,3.4-1.6c0.4-1,0.4-1.4,0.4-1.6l-1.4,0.2l-0.4,1
		c-0.4,0.6-1.2,1-2.2,1s-1.6-0.2-2-0.8L293.8,100.8z"/>
	<path class="st14" d="M287.6,102c-0.2,0.4,0.6,0.6,2.2,0.8l-0.4-1L287.6,102z"/>
	<path class="st1" d="M291.8,101.4l-1.8,0.4l0.8,1c0.6,0.6,1.4,0.8,2.4,0.6L291.8,101.4z"/>
	<path class="st1" d="M303.4,99.8l-0.6-0.6c-0.4-0.4-1-0.6-1.8-0.6c0,0.2,0,0.4,0,0.6c0.2,0.8,0,1.6-0.4,2.4l-1.2,1.6h1.6
		L303.4,99.8z"/>
	<path class="st10" d="M195,101.4c-0.6,1.4-0.8,4.4-0.2,9.2c0,0.2,0,0.4,0,0.6c0.4,4.6,1.4,9.8,2.8,15.8c0.8,2.8,1.6,5.4,2.4,8.2
		c1.2,3.4,2.6,6.8,4.2,10.2c0.6,1.4,1.8,2.4,3.4,2.4l2.2,0.2l-0.6-10.2c0-1,0-1.8-0.2-2.6c-0.4-5.6-1.2-11.6-2-17.6
		c-0.2-2.4-0.6-4.6-1.2-6.4c-1-3.8-2-6.4-3.2-8c-0.2-0.6-1-1.4-2.8-2.6C198.2,99.2,196.6,99.6,195,101.4z M196.8,104.6h1.6L205,125
		l-2.2-4.6c-0.2,0-1,0.8-1.6,2.6c-0.6,2,0.2,4.8,2.6,8.6c-3.4-4.2-4.6-7.4-3.6-9.6c0.8-2.2,1.6-3.2,2-3.2l-5.4-12.8V104.6z
		 M207.4,135.2c-0.2,0-0.4,0.2-0.6,0.4c-1,0.4-2,0.6-2.6,0.6c-1.4-0.8-2.2-1-2.6-0.4c-0.2-0.2-0.2-0.4,0-0.6c0.2-0.2,0.4-0.4,1-0.6
		l-4.4-8.2l4.6,8.2l1.4,0.6c0.6,0.2,1.2,0.2,2,0c0.4-0.2,0.8-0.4,1.4-0.6C207.8,134.8,207.8,134.8,207.4,135.2z"/>
	<path d="M198.4,104.6h-1.6v1.4l5.4,12.8c-0.4,0-1.2,1-2,3.2c-1,2.2,0.2,5.4,3.6,9.6c-2.4-3.8-3.2-6.6-2.6-8.6
		c0.6-1.8,1.4-2.6,1.6-2.6l2.2,4.6L198.4,104.6z"/>
	<path d="M206.8,135.6c0.2-0.2,0.4-0.4,0.6-0.4c0.4-0.4,0.4-0.4,0.2-0.6c-0.6,0.2-1,0.4-1.4,0.6c-0.8,0.2-1.4,0.2-2,0l-1.4-0.6
		l-4.6-8.2l4.4,8.2c-0.6,0.2-0.8,0.4-1,0.6c-0.2,0.2-0.2,0.4,0,0.6c0.4-0.6,1.2-0.4,2.6,0.4C204.8,136.2,205.8,136,206.8,135.6z"/>
	<path class="st15" d="M218.4,181.2c-2.6-5.4-4.6-10.6-6.2-15.2c0.2-2.8-0.4-4-1.6-3.8l-2.2,0.8l-5.6,4.2c-3.4,3-6.4,7.6-9.4,14
		c-2.8,6.2-3.8,14.4-2.6,24.6c0.8,5.8,2.8,12.2,6,19.4c2.4,5.4,5.6,11.4,9.6,17.8l18.8-6.4l12.6-2l0.8,0.2c0.2,0,0.2,0.4-0.2,0.8
		l-5.2,15l5.2,4c3.4,2.8,9.8,7,18.8,12.8c8.8,5.6,21.6,12.8,37.8,21.6v-1.8V286l-11.2-13.2c-7.2-8.4-15.8-19-25.8-31.6
		c-4-5.4-8-10.6-11.8-16c-5.6-7.6-11-15.6-16-23.4C225.4,194.4,221.6,187.6,218.4,181.2z"/>
	<path class="st15" d="M307.6,176c0,1.8,0,3.4,0,5.2c-0.2,12.8-0.8,23.2-1.6,31.6c-0.6,4.2-1,8.4-1.6,12.4c-0.6,4.6-1.4,9-2,13.2
		c-1.4,7.8-2.6,17.2-3.4,28c-1,10.6-1.4,25.2-1.2,43.6l6.6,83.2l3.6,66.6l1.4,51.6h109.8l-18-183.2c0.6-0.8,0.4-4.4-0.4-10.8
		l-7-44.2c-1.2-6.2-1.6-9.8-1.6-10.4l11,51.2l1.8-27.6c0.4-6.2,0.4-10.2,0.2-12l-11.6-40.2c0.4,0.4,1.8,3.4,3.8,9.2l10.2,30.2
		c0.4,1.4,0.4,5.2-0.2,11.8l-3.2,30c-0.2,1.8-0.6,2.8-0.8,2.6l1.2,10.4l-0.8,0.6c-0.4,0.4-0.6,1-0.4,1.8l8.4,64.2
		c7.6,1.6,14.6,4.2,20.8,8c6.4,3.6,9.8,5.8,10,6.2l-6.8-0.2c-4.6-0.4-9.6-1.4-15.6-3.2l8.8,6.4c-0.4,2.2,0.4,3.8,2.8,4.8
		c2.2,1.2,4.2,1.6,6.2,1.2l4.4,3.8l-17.2-5.6l-2,5.4c-1.2,3.2-1.4,5.6-0.6,7c1.2-1.6,4.6-2,9.6-1c5.2,1,10.6,2.6,16,4.6
		c5.4,2.2,9.4,4,11.8,5.8l3-6c1.2-2.4,1.4-4.2,0.8-5.4l-1.2-2.2l-52-178c-1.2-6.4-6.2-12.8-14.8-19.4c-0.8-0.6-1.6-1.4-2.6-2
		c-8-6-16.8-11.6-26.6-16.8c-11-6-20.6-10.6-28.8-14.2l-12.8-5.6l7.4,8.2c4.6,5.2,8.8,11.4,12.4,18.8c1.6,3.2,2.8,6.4,3.4,9.6
		c0.4,3.6,0,7-1.2,10.4l-1,0.6l-2.4-0.4l-5.2-2c-2-1-3.2-1.8-4-2.2c1.4,1.6-0.4,5-5,9.6c-5,4.8-10.2,9.6-16.4,14.4L300.2,266
		l30.8-32.2c0.8-1.2,0.8-2.2,0.4-2.6l-1.2-0.8l-10.2-4.6c-0.6-0.2-0.8-0.4-1-0.6c-1.4-0.6-1.8-1.2-1.6-1.2l27.8,9.6
		c0.6-2.6,0.4-5.4-0.4-8.4c-0.6-2.6-1.8-5.2-3.4-8c-3.2-6.6-7.4-13.2-12.4-19.8c-5-6.4-9.4-11.8-13.2-16.2c0-0.2-0.4-0.4-0.4-0.4
		l-6.4-7l-0.8,1L307.6,176z M313.6,310.4l0.6,3.2v2.8c-0.2,1.8-0.8,3.4-1.8,4.8c-1.2,1.4-3,2.4-5.2,2.6c-2.4,0.2-4.4-0.8-6-2.8
		c-1.2-1.6-1.8-3.4-1.8-5.2l0.4-3.2c-0.2-0.4,0.2-1.8,1.8-3.8l2.6-2.6l1.6-0.6l4.6,0.4C312.2,307,313.2,308.4,313.6,310.4z
		 M313.4,381.4h3.8l1.2,1c0.6,0.6,1.2,1.2,1.6,2l1.2,4v5c0,0.4-0.4,1.6-1.4,3.6s-3.4,2.8-6.8,2.4c-1.8-1-3-2-3.6-3l-0.8-1.8
		c-0.4-0.2-0.6-2-0.6-5.8c0.4-1.8,0.8-3,1.2-3.8l2-2.2C311.8,382.2,312.6,381.6,313.4,381.4z M320.2,454.6l1.2,0.6
		c0.6,0.6,1.4,1.4,1.8,2.6l0.6,2l0.2,3.4c0,1.6-0.2,3-0.6,4l-1,1.6l-1,1.6c-0.8,0.8-2,1.4-3.4,1.8c-2.6,0.4-4.6-0.2-5.8-1.6
		c-1.8-2.2-2.6-3.4-2.4-3.8l-0.6-2.2l0.6-4.2l1.4-2.8l1.2-1.6c0.8-0.8,1.8-1.4,3.4-1.8L320.2,454.6z"/>
	<path d="M314.2,313.6l-0.6-3.2c-0.4-2-1.4-3.4-3.2-4.4l-4.6-0.4l-1.6,0.6l-2.6,2.6c-1.6,2-2,3.4-1.8,3.8l-0.4,3.2
		c0,1.8,0.6,3.6,1.8,5.2c1.6,2,3.6,3,6,2.8c2.2-0.2,4-1.2,5.2-2.6c1-1.4,1.6-3,1.8-4.8V313.6z M312.8,310.6l0.4,2.8
		c0.2,0.4,0.2,1.8,0,4.6c-0.4,2.6-2.2,4.2-6,4.8c-4.4-0.6-6.8-2.2-7-5.2c0-3.2,0-4.8,0.4-5.2c-0.2-0.4,0.6-1.6,2.2-3.8
		c1.4-2,3.8-2.6,7-1.8C311.4,307.8,312.4,309,312.8,310.6z"/>
	<path class="st15" d="M313.2,313.4l-0.4-2.8c-0.4-1.6-1.4-2.8-3-3.8c-3.2-0.8-5.6-0.2-7,1.8c-1.6,2.2-2.4,3.4-2.2,3.8
		c-0.4,0.4-0.4,2-0.4,5.2c0.2,3,2.6,4.6,7,5.2c3.8-0.6,5.6-2.2,6-4.8C313.4,315.2,313.4,313.8,313.2,313.4z M309.8,315l0.2-0.2
		l0.2-0.6l-0.4-0.2c-0.4-0.4-0.2-0.8,0.6-1.2c1.2,0.2,1.6,0.4,1.6,0.8l-0.2,2.6l-0.2,0.2h-10.8v-0.6l1.6-0.2l-0.2-0.8
		c0-1,0-1.4,0.2-1.4c0.2-0.4,0.4-0.6,1-0.6c0.6,0.2,0.8,0.4,0.8,0.6l-0.6,1c0,0.2,0,0.6,0.4,0.6l0.2,0.6l5.6-0.2V315z"/>
	<path d="M310,314.8l-0.2,0.2v0.4l-5.6,0.2L304,315c-0.4,0-0.4-0.4-0.4-0.6l0.6-1c0-0.2-0.2-0.4-0.8-0.6c-0.6,0-0.8,0.2-1,0.6
		c-0.2,0-0.2,0.4-0.2,1.4l0.2,0.8l-1.6,0.2v0.6h10.8l0.2-0.2l0.2-2.6c0-0.4-0.4-0.6-1.6-0.8c-0.8,0.4-1,0.8-0.6,1.2l0.4,0.2
		L310,314.8z"/>
	<path d="M317.2,381.4h-3.8c-0.8,0.2-1.6,0.8-2.2,1.4l-2,2.2c-0.4,0.8-0.8,2-1.2,3.8c0,3.8,0.2,5.6,0.6,5.8l0.8,1.8
		c0.6,1,1.8,2,3.6,3c3.4,0.4,5.8-0.4,6.8-2.4s1.4-3.2,1.4-3.6v-5l-1.2-4c-0.4-0.8-1-1.4-1.6-2L317.2,381.4z M319.4,385
		c0.6,2,0.8,3.2,0.8,3.4l0.2,3c0,2-0.4,3.6-1.4,5.4c-1,1.6-3,2-6,1.6c-1.8-0.8-3-2.2-3.6-4.2s-0.8-3.8-0.6-5.6c0.4-1.6,1-3,2-4.2
		c1-1.2,2-2,2.8-2.2C316.8,382.2,318.8,383.2,319.4,385z"/>
	<path class="st15" d="M320.2,388.4c0-0.2-0.2-1.4-0.8-3.4c-0.6-1.8-2.6-2.8-5.8-2.8c-0.8,0.2-1.8,1-2.8,2.2c-1,1.2-1.6,2.6-2,4.2
		c-0.2,1.8,0,3.6,0.6,5.6s1.8,3.4,3.6,4.2c3,0.4,5,0,6-1.6c1-1.8,1.4-3.4,1.4-5.4L320.2,388.4z M319.2,391.6l-0.4,0.2l-9.4,0.6v-0.8
		h1.4l-0.2-0.8l0.2-1.2l0.8-0.6l0.6,0.6l-0.4,0.8l0.4,0.6c0,0,0.2,0.2,0,0.4l5-0.4v-0.4l0.2-0.2V390v-0.2c-0.4-0.4-0.4-0.8,0.4-1.2
		c1,0.2,1.4,0.4,1.4,0.8V391.6z"/>
	<path d="M318.8,391.8l0.4-0.2v-2.2c0-0.4-0.4-0.6-1.4-0.8c-0.8,0.4-0.8,0.8-0.4,1.2v0.2v0.4l-0.2,0.2v0.4l-5,0.4
		c0.2-0.2,0-0.4,0-0.4l-0.4-0.6l0.4-0.8l-0.6-0.6l-0.8,0.6l-0.2,1.2l0.2,0.8h-1.4v0.8L318.8,391.8z"/>
	<path d="M321.4,455.2l-1.2-0.6l-4.4-0.4c-1.6,0.4-2.6,1-3.4,1.8l-1.2,1.6l-1.4,2.8l-0.6,4.2l0.6,2.2c-0.2,0.4,0.6,1.6,2.4,3.8
		c1.2,1.4,3.2,2,5.8,1.6c1.4-0.4,2.6-1,3.4-1.8l1-1.6l1-1.6c0.4-1,0.6-2.4,0.6-4l-0.2-3.4l-0.6-2C322.8,456.6,322,455.8,321.4,455.2
		z M323.2,463c0,1.6-0.4,3.2-1.2,5c-0.8,1.8-2.2,2.8-4,3.4c-2,0.4-4-0.2-5.8-1.8c-1.8-1.4-2.6-4-2-7.2c0.6-4,2.4-6.4,5.6-7.4
		c3.4,0,5.4,0.8,6.2,2.6C322.8,459.4,323.2,461.2,323.2,463z"/>
	<path class="st15" d="M322,468c0.8-1.8,1.2-3.4,1.2-5c0-1.8-0.4-3.6-1.2-5.4c-0.8-1.8-2.8-2.6-6.2-2.6c-3.2,1-5,3.4-5.6,7.4
		c-0.6,3.2,0.2,5.8,2,7.2c1.8,1.6,3.8,2.2,5.8,1.8C319.8,470.8,321.2,469.8,322,468z M319.8,463.4V463l-0.2-0.4
		c-0.4-0.4-0.2-0.8,0.6-1.2c1.2,0.2,1.6,0.4,1.6,0.8l-0.4,2.6l-0.2,0.4h-10.6v-0.8h1.6l-0.2-0.8c0-1,0-1.6,0.2-1.6
		c0.2-0.2,0.4-0.4,1-0.6c0.4,0.4,0.6,0.6,0.8,0.8l-0.6,0.8c0,0.4,0,0.6,0.4,0.8v0.4h5.6v-0.6L319.8,463.4z"/>
	<path d="M319.8,463v0.4l-0.4,0.2v0.6h-5.6v-0.4c-0.4-0.2-0.4-0.4-0.4-0.8l0.6-0.8c-0.2-0.2-0.4-0.4-0.8-0.8c-0.6,0.2-0.8,0.4-1,0.6
		c-0.2,0-0.2,0.6-0.2,1.6l0.2,0.8h-1.6v0.8h10.6l0.2-0.4l0.4-2.6c0-0.4-0.4-0.6-1.6-0.8c-0.8,0.4-1,0.8-0.6,1.2L319.8,463z"/>
	<path class="st5" d="M286.8,200.4l-6.4,6.2l-4.6,2.6l-5.6,1.8c-3.8,0.4-5.8,0.4-6.2,0l-7-1.2l-6.8-2.6c-1.8-1-3.4-2.2-5-3.2
		l-22.4-19.4l13.2,20c1.6,2,2.6,2.6,2.8,2.4l31.2,18.6h0.2l3.2-1.8c1.8-1.2,3.6-2.2,5-3c2.4-2.2,3.6-3.2,3.4-3.8l15-28.4
		L286.8,200.4z"/>
	<path class="st0" d="M296.8,188.4v0.2l-15,28.4c0.2,0.6-1,1.6-3.4,3.8c-1.4,0.8-3.2,1.8-5,3l-3.2,1.8l3,1.8l1.6-0.2l29.8-27.2
		l-0.6-19.6L296.8,188.4z"/>
	<path class="st1" d="M304.6,205.8l0.2-4.4L274,229.2l-11.2-6.8L262,223l-7.2-4.4l-9-5.6l0.2-0.4l7.4,4.4l0.2,0.2l7.6,4.8l0.6-0.4
		l-23.6-14.2l4.4,6.2l2.2,1.4l28.8,18.8v1.8h0.2v-1.8h0.2v-0.2l-18.4-12l18,10.8c0.6,0.2,0.8,0.2,1,0l2.4-2.2l-2.6,2.2l-30-18.4
		v-0.6l29.2,17.2l1-0.8l0.8,0.2l29.2-27.4v2v0.8l-29.8,28v0.2l0.4,0.2v1.8h0.2v1h-3.8v2.8l-0.8,0.2l-3.4,0.2l3.4-0.2h0.8l0.2,6.2
		l-5,0.2l4.6,6.6h0.2l-3.8-5l5.6-0.6v-1.4l-0.2-0.8v-1.2l0.2-0.2v-1.2l-0.2,0.2v-1.8l0.2-0.2v-0.8l1-0.2h0.2l1.8-0.2l1,7.4l4.2-0.4
		l-0.2,0.2l1-0.2h0.2h0.6l0,0h0.8l0.6-0.2v0.2h0.2l0.6,3.8l-7,1.2v1.8l0.2,2.4l0.2,7l0.4,0.4h0.8l-0.8-11.2l7.4-1l-1-6l-8,1
		l-0.6-6.4h0.4l0.8,0.4l2.2,1.4l-2.2-1.8l5.2-1l-5.4,0.4h-0.8l0.6-0.6l5-6.4l-5,5.6l-0.8,1l-0.2-1.6H276l-0.4-3.4l0,0L304.6,205.8z
		 M273.2,237.6h0.8h2.2l0.2,1l-3,0.4v-1.2h-0.2V237.6z M272.8,239.6l0.4,0.4v0.6h-1v-0.8l0.4-0.2H272.8z"/>
	
		<linearGradient id="SVGID_1_" gradientUnits="userSpaceOnUse" x1="-1581.5835" y1="237.7382" x2="1695.219" y2="237.7382" gradientTransform="matrix(3.000000e-04 0 0 3.000000e-04 -3811.8694 -3355.7192)">
		<stop  offset="0" style="stop-color:#FFFFFF"/>
		<stop  offset="0.1608" style="stop-color:#E3CB92"/>
		<stop  offset="1" style="stop-color:#D0AF85"/>
		<stop  offset="1" style="stop-color:#000000"/>
	</linearGradient>
	<path class="st16" d="M274,237.6h-0.8v0.2h0.2h0.8L274,237.6z"/>
	<path class="st15" d="M273.4,237.8v1.2l3-0.4l-0.2-1H274l0.2,0.2H273.4z"/>
	
		<linearGradient id="SVGID_2_" gradientUnits="userSpaceOnUse" x1="-1581.5835" y1="240.1382" x2="1695.219" y2="240.1382" gradientTransform="matrix(3.000000e-04 0 0 3.000000e-04 -3812.3694 -3354.5193)">
		<stop  offset="0" style="stop-color:#FFFFFF"/>
		<stop  offset="3.920000e-03" style="stop-color:#E3CB92"/>
		<stop  offset="1" style="stop-color:#D0AF85"/>
		<stop  offset="1" style="stop-color:#000000"/>
	</linearGradient>
	<path class="st17" d="M273.2,240l-0.4-0.4h-0.2l-0.4,0.2v0.8h1V240z"/>
	<path class="st15" d="M304.6,204.6v-2L275.4,230l-0.8-0.2l-1,0.8l-29.2-17.2v0.6l30,18.4l2.6-2.2L304.6,204.6z"/>
	
		<linearGradient id="SVGID_3_" gradientUnits="userSpaceOnUse" x1="267085.2813" y1="235837.0469" x2="270362.0938" y2="235837.0469" gradientTransform="matrix(1.500000e-02 0 0 1.500000e-02 -3751.3174 -3317.4175)">
		<stop  offset="0" style="stop-color:#FFFFFF"/>
		<stop  offset="3.920000e-03" style="stop-color:#E3CB92"/>
		<stop  offset="0.9922" style="stop-color:#D0AF85"/>
		<stop  offset="1" style="stop-color:#000000"/>
	</linearGradient>
	<path class="st18" d="M304.6,205.4v-0.8L277,230.2l-2.4,2.2c-0.2,0.2-0.4,0.2-1,0l-18-10.8l18.4,12v0.2h-0.2v1.8l0,0h1.4v-1.8
		l-0.4-0.2v-0.2L304.6,205.4z"/>
	<path class="st19" d="M261.8,221.6l-0.6,0.4l-7.6-4.8l1.2,1.4l7.2,4.4l0.8-0.6L261.8,221.6z"/>
	
		<linearGradient id="SVGID_4_" gradientUnits="userSpaceOnUse" x1="-1581.5835" y1="215.6382" x2="1695.219" y2="215.6382" gradientTransform="matrix(2.700000e-03 0 0 2.700000e-03 -3814.2241 -3359.1243)">
		<stop  offset="0" style="stop-color:#FFFFFF"/>
		<stop  offset="0.1608" style="stop-color:#E3CB92"/>
		<stop  offset="0.8706" style="stop-color:#D0AF85"/>
		<stop  offset="1" style="stop-color:#000000"/>
	</linearGradient>
	<path class="st20" d="M253.6,217.2l-0.2-0.2l-7.4-4.4l-0.2,0.4l9,5.6L253.6,217.2z"/>
	<path class="st5" d="M261.2,226.8L261.2,226.8L261.2,226.8l-16.8-11.4v0.2l13.4,18.6L261.2,226.8z"/>
	<path class="st0" d="M261.2,226.8L261.2,226.8l-3.4,7.4h0.2l8.2,11.4l4.8-0.4l-0.2-5.6l-3.4,0.2l3.4-0.2l-0.2-3.6l2.2-0.8l-0.2-1.2
		L261.2,226.8z"/>
	<path class="st0" d="M277.8,238l0.2,0.6l5.4-0.4l-5.2,1l2.2,1.8l-2.2-1.4l0.6,5l7.6-0.8l1.2,7.2l-7.4,1.2l0.8,11.6h-1l15,19.8
		l9.6-74.4L276.2,234v1.2h1.2l0.4,2l5-5.6L277.8,238z"/>
	<path d="M278,238.6l-0.2-0.6l-0.6,0.6H278z"/>
	
		<linearGradient id="SVGID_5_" gradientUnits="userSpaceOnUse" x1="-1581.5835" y1="247.5382" x2="1695.219" y2="247.5382" gradientTransform="matrix(1.000000e-03 -1.000000e-03 1.000000e-03 1.000000e-03 -3802.929 -3352.8501)">
		<stop  offset="0" style="stop-color:#FFFFFF"/>
		<stop  offset="0" style="stop-color:#E3CB92"/>
		<stop  offset="1" style="stop-color:#D0AF85"/>
		<stop  offset="1" style="stop-color:#000000"/>
	</linearGradient>
	<path class="st21" d="M277.4,247l3.4-0.4l-3,2.2l3.6-2.4l0.2-0.2l-4.2,0.4V247z"/>
	<path class="st15" d="M280.8,246.6l-3.4,0.4v-0.4l-1-7.4l-1.8,0.2l0.2,1.4l-1.4,1.4v1.2l2.2-2.4l0.2,1.8v0.2v0.6l-2.4,2v1.4
		l-5.6,0.6l3.8,5h1.4v0.2l2.6-1.8l-1,1.2l3.8-2.4l-5.4,4v0.8l1.6,2l3.8-2.6v0.8l-3.2,2.6l1.6,2.2l2,2.8l-0.2-7v0.6l-2,1.4l-0.2-0.2
		l2.2-1.8l-0.2-2.4l-4,3.2l-0.6-0.6l4.6-3.6v1v-1.8l7-1.2l-0.6-3.8h-0.2v0.2l-1.8,1.6l-0.4-0.2l-1.2,0.6l2.8-2.2h-0.8l-3.4,3l2.6-3
		l-1,0.2l-3.6,2.4L280.8,246.6z M284.6,246.6l0.2,0.2l-2.2,1.8l0.2-0.4L284.6,246.6z M276,244l0.2,1l-1.8,1L276,244z M275.2,253.6
		L275,254l-1.4,1.2l-0.6-0.6l3.6-2.2L275.2,253.6z"/>
	<path class="st1" d="M284.8,246.8l-0.2-0.2l-1.8,1.6l-0.2,0.4L284.8,246.8z"/>
	
		<linearGradient id="SVGID_6_" gradientUnits="userSpaceOnUse" x1="-1581.5835" y1="245.0382" x2="1695.219" y2="245.0382" gradientTransform="matrix(6.000000e-04 -6.000000e-04 6.000000e-04 6.000000e-04 -3807.6274 -3353.3999)">
		<stop  offset="0" style="stop-color:#FFFFFF"/>
		<stop  offset="0" style="stop-color:#E3CB92"/>
		<stop  offset="1" style="stop-color:#D0AF85"/>
		<stop  offset="1" style="stop-color:#000000"/>
	</linearGradient>
	<path class="st22" d="M276.2,245l-0.2-1l-1.6,2L276.2,245z"/>
	
		<linearGradient id="SVGID_7_" gradientUnits="userSpaceOnUse" x1="-1581.5835" y1="253.8382" x2="1695.219" y2="253.8382" gradientTransform="matrix(9.000000e-04 -9.000000e-04 9.000000e-04 9.000000e-04 -3805.9661 -3349.45)">
		<stop  offset="0" style="stop-color:#FFFFFF"/>
		<stop  offset="0" style="stop-color:#E3CB92"/>
		<stop  offset="0.9647" style="stop-color:#D0AF85"/>
		<stop  offset="1" style="stop-color:#000000"/>
	</linearGradient>
	<path class="st23" d="M275,254l0.2-0.4l1.4-1.2l-3.6,2.2l0.6,0.6L275,254z"/>
	
		<linearGradient id="SVGID_8_" gradientUnits="userSpaceOnUse" x1="-1581.5835" y1="247.7382" x2="1695.219" y2="247.7382" gradientTransform="matrix(1.000000e-03 -1.000000e-03 1.000000e-03 1.000000e-03 -3801.729 -3352.5)">
		<stop  offset="0" style="stop-color:#FFFFFF"/>
		<stop  offset="0" style="stop-color:#E3CB92"/>
		<stop  offset="1" style="stop-color:#D0AF85"/>
		<stop  offset="1" style="stop-color:#000000"/>
	</linearGradient>
	<path class="st24" d="M283.2,246.2L283.2,246.2h-0.6h-0.2l-2.6,3L283.2,246.2z"/>
	
		<linearGradient id="SVGID_9_" gradientUnits="userSpaceOnUse" x1="-1581.5835" y1="247.2382" x2="1695.219" y2="247.2382" gradientTransform="matrix(9.000000e-04 -9.000000e-04 9.000000e-04 9.000000e-04 -3801.7661 -3352.55)">
		<stop  offset="0" style="stop-color:#FFFFFF"/>
		<stop  offset="0" style="stop-color:#E3CB92"/>
		<stop  offset="1" style="stop-color:#D0AF85"/>
		<stop  offset="1" style="stop-color:#000000"/>
	</linearGradient>
	<path class="st25" d="M284.6,246l-0.6,0.2l-2.8,2.2l1.2-0.6l0.4,0.2l1.8-1.6v-0.2V246z"/>
	<path class="st15" d="M273.4,239.6v0.8l1-1L273.4,239.6z"/>
	
		<linearGradient id="SVGID_10_" gradientUnits="userSpaceOnUse" x1="-1581.5835" y1="240.9382" x2="1695.219" y2="240.9382" gradientTransform="matrix(5.000000e-04 0 0 5.000000e-04 -3810.7822 -3353.3823)">
		<stop  offset="0" style="stop-color:#FFFFFF"/>
		<stop  offset="0" style="stop-color:#E3CB92"/>
		<stop  offset="1" style="stop-color:#D0AF85"/>
		<stop  offset="1" style="stop-color:#000000"/>
	</linearGradient>
	<path class="st26" d="M273.4,240.4l-0.2,0.2v1.8l0.2-0.2l1.4-1.4l-0.2-1.4h-0.2L273.4,240.4z"/>
	
		<linearGradient id="SVGID_11_" gradientUnits="userSpaceOnUse" x1="-1581.5835" y1="244.2382" x2="1695.219" y2="244.2382" gradientTransform="matrix(8.000000e-04 -8.000000e-04 8.000000e-04 8.000000e-04 -3806.9531 -3354.05)">
		<stop  offset="0" style="stop-color:#FFFFFF"/>
		<stop  offset="0" style="stop-color:#E3CB92"/>
		<stop  offset="1" style="stop-color:#D0AF85"/>
		<stop  offset="1" style="stop-color:#000000"/>
	</linearGradient>
	<path class="st27" d="M275.8,243v-0.2l-2.4,1.8l-0.2,0.2l0.2,0.8l2.4-2V243z"/>
	
		<linearGradient id="SVGID_12_" gradientUnits="userSpaceOnUse" x1="-1581.5835" y1="242.9382" x2="1695.219" y2="242.9382" gradientTransform="matrix(7.000000e-04 0 0 7.000000e-04 -3810.1453 -3352.1453)">
		<stop  offset="0" style="stop-color:#FFFFFF"/>
		<stop  offset="0" style="stop-color:#E3CB92"/>
		<stop  offset="1" style="stop-color:#D0AF85"/>
		<stop  offset="1" style="stop-color:#000000"/>
	</linearGradient>
	<path class="st28" d="M275.8,242.8l-0.2-1.8l-2.2,2.4l-0.2,0.2v1.2l0.2-0.2L275.8,242.8z"/>
	
		<linearGradient id="SVGID_13_" gradientUnits="userSpaceOnUse" x1="-1581.5835" y1="251.8382" x2="1695.219" y2="251.8382" gradientTransform="matrix(1.500000e-03 -1.500000e-03 1.500000e-03 1.500000e-03 -3801.1936 -3350.8)">
		<stop  offset="0" style="stop-color:#FFFFFF"/>
		<stop  offset="0" style="stop-color:#E3CB92"/>
		<stop  offset="0.9647" style="stop-color:#D0AF85"/>
		<stop  offset="1" style="stop-color:#000000"/>
	</linearGradient>
	<path class="st29" d="M275.6,251l-2.6,1.8v1l5.4-4l-3.8,2.4L275.6,251z"/>
	<path class="st1" d="M276.4,257.2l0.2,0.2l2-1.4v-0.6L276.4,257.2z"/>
	<path class="st1" d="M273.8,255.6l0.6,0.6l4-3.2v-1L273.8,255.6z"/>
	<path class="st1" d="M274.6,256.6l-1.6-2l3.8,5l-1.6-2.2l3.2-2.6V254L274.6,256.6z"/>
	<path class="st12" d="M320,100.4l-0.2,2.4c-0.4,1.6-1,3.6-2,5.6l-1,13.8l3.8-15.2c0.2-0.6,0.6-1,1.2-1h1l-0.2,0.8
		c-0.2-0.2-0.8,0.2-1.4,1.2l-4.8,19.2v22.4c2.6-2.6,4.4-6.2,5.4-10.6c0.4-1.4,0.6-2.6,0.6-3.8c0.6-3.2,1-6,1-8.6v-6l-1.6,5.6
		l1.6-19.4c0-2.4,0-3.8-0.2-4.2l-1.8-1.4L320,100.4z"/>
	<path class="st30" d="M129,440l9.8-1l-0.8,1.6c-0.2,1.2,0.2,3.2,1.6,6c1.4,2.8,4.6,6.8,9.8,12l2.2,2.4l1.4,0.8V460
		c-0.2-1.2-0.6-2.4-1.2-3.4l-0.6-3v-2.2h7.8l2,4.2c1.2,2.2,2.6,3.6,4.4,4l-2.4-7c-1.4-3.6-2.8-6.4-4.2-8c-1.6-2-2.2-4.2-2-7
		c0.4-3,1-4.8,2-5.8l-1-8.4l0.6-0.2l1.4,7.6c0.8,4.6,2,9.2,3.4,13.6c1.6,4.2,3.4,6,5.4,5.2c0.2-0.2,0.4-2.2,0.2-5.6l-1-16.4l2.8,1.2
		c0.4,0,0.6,0,0.8,0.2c1.4,0.2,2.6-0.2,3.4-1.2l0.8,5.6l48.8-5.2l0,0l24-7l-0.6-1.4V417l5.8-2.4c3-1.2,5-1.2,5.8,0.2
		c1.2,3.6,2,5.6,2.6,6l2,0.2c0.6-2.2,0.4-4.4-0.6-6.6c-1-2.4-4.6-3.8-10.8-4.6c-6.2-0.6-16.8,0.4-31.8,3.2l-28.4,0.2
		c-5.2-0.2-8.4-0.8-9.6-1.8c-0.4-0.4,0.4-0.4,2.6-0.6l11.8-0.2c0.6,0,1-0.4,0.8-0.8l-0.2-0.8l-19.6-25.8c0.2-1.4,0.4-2.8,0.4-4.6
		l-0.2-2.8c-1-3.4-3.4-6.6-7-9.6c-0.2,0-0.4-0.4-0.6-0.4c-4-3.2-7.4-4.6-10.2-4.2c-3,0.6-3.6,4.2-1.4,11.4l2.6,5
		c1.4,2.4,3,4.2,4.6,5.2l2.4,4l12.4,7.8c2.2,1.4,3.2,2.2,3.2,2.6c-0.2,0.4-0.2,0.8,0.4,1.2v0.2l0.6,0.4h0.2l1.2,1l0.4,0.2l1.4,1
		l0.2,0.2l1.6,0.8l0.2,0.2h0.2l0.2,0.2c0.2,0.2,0.2,0.2,0.2,0.4l-0.4,0.2l2.4,3.4c0.6,0.4,0.6,0.6-0.4,0.6h-0.2l-7.2-2.6l-3.2-1
		l-2.8,0.4l4.2,1.4c2.4,0.8,3.2,1.4,2.2,2l-1.4-0.6l-2.2-0.4c-1,0.8-1.6,1-1.6,0.8l-9.8-0.4c0.4-1.6,0-2.4-0.8-2.8l-1.6-0.2
		l-5.8,0.2l-1.4-0.2l0,0l-1.8-1.2l-1-1l-1.4,14c-0.2,0.4-0.4,0.2-0.6-0.2c0-1.2,0-2-0.2-3c-0.4-0.8-0.6-1.8-0.4-3L155,408
		c-12.6-5.8-23-7.6-31-5.6s-13.8,5-17.8,9.2c-3.8,4-5.8,6.4-5.8,7c-0.8,1.2,1.2,3.4,5.8,6.8L129,440z"/>
	<path class="st5" d="M188.6,401.6l-1.4-1l-0.4-0.2l-1.2-1h-0.2l-0.6-0.4v-0.2c-0.6-0.4-0.8-0.8-0.6-1.2c0-0.4-1-1.2-3-2.6
		l-12.4-7.8c1.2,1.4,2,2.6,2.6,3.6c0.4,1,0.4,1.6,0,2c0,0,0,0-0.2,0l-5-0.2c-2.2-0.8-3.2-1.8-3.4-2.8v-0.2l0,0l-0.6,1.6
		c-0.2,0.6-0.6,0.8-1,0.4l-0.2-0.2l-0.2-0.8l-0.2-1.4l-0.2-2.4v-0.2c-0.6,0.6-0.8,1.2-0.6,2.4c-1,1-1.6,3-1.2,6.4l0.4,6l-0.8,0.4
		l0.2,0.2l1,1l1.8,1.2l0,0l1.4,0.2l0.4-0.2h1.2H164c-0.4-0.4-0.2-0.8,0.4-1.2h3.4c-0.4-1.6,0.6-2.2,2.6-2c0.4,0.2,0.6,0.2,1,0.2
		c1.8,0.4,3.6,0.8,5.6,1.6l3.8,1.4l1.2-0.4l3.4,1.2l7.2,2.6h0.2c1-0.2,1-0.4,0.2-0.6c-0.8-0.4-1.2-0.8-0.8-1.4l-1.6-2l0.4-0.2V403
		l-0.2-0.2h-0.2l-0.2-0.2l-1.6-0.8L188.6,401.6z"/>
	<path d="M190.8,403.6l0.4-0.2c0-0.2,0-0.2-0.2-0.4v0.4l-0.4,0.2l1.6,2c-0.4,0.6,0,1,0.8,1.4c0.8,0.2,0.8,0.4-0.2,0.6
		c1,0,1-0.2,0.4-0.6L190.8,403.6z"/>
	<path class="st30" d="M163.2,387.6l-0.6-1.8c-0.2,0.4-0.6,0-1-1.2l-1.2,2.2l0.2,2.4l0.2,1.4l0.4,1c0.4,0.4,0.8,0.2,1-0.4l0.6-1.6
		l0,0L163.2,387.6z"/>
	<path d="M161,391.4l0.2,0.2l-0.4-1L161,391.4z"/>
	<path d="M164.4,403c-0.6,0.4-0.8,0.8-0.4,1.2h0.2H163l-0.4,0.2l5.8-0.2l1.6,0.2c0.8,0.4,1.2,1.2,0.8,2.8l9.8,0.4
		c0,0.2,0.6,0,1.6-0.8l2.2,0.4l1.4,0.6c1-0.6,0.2-1.2-2.2-2l-4.2-1.4l2.8-0.4l3.2,1l-3.4-1.2l-1.2,0.4l-3.8-1.4
		c-2-0.8-3.8-1.2-5.6-1.6c-0.4,0-0.6,0-1-0.2c-2-0.2-3,0.4-2.6,2H164.4z"/>
	<path d="M184.8,398.8c-0.6-0.4-0.6-0.8-0.4-1.2c0-0.4-1-1.2-3.2-2.6c2,1.4,3,2.2,3,2.6C184,398,184.2,398.4,184.8,398.8z"/>
	<path class="st7" d="M175.6,433.4h-0.2l0.8,3.6c0.6,2.2,2.6,5.4,6.2,9.2c0,0.8-0.2,1.2-0.8,1.2l-1.4-0.6l0.4,3
		c-0.8,1.4-1.8,1.6-3.2,0.6l-2.2-1.8v3.8l15.6,19.2l11.2,0.2c0.6-0.2,0.8-0.4,0.6-0.8l-0.4-0.6l-0.8-0.6l-2.6-1.6l-2.4-2
		c0.2-1.2,0.8-1.8,1.4-2c0.6,0,2.4,1.2,5.4,3.2c2.8,2,4.8,3.2,6,3.8l23.4-1.6l27-5.2l11.4-5c0.4-0.4,0.4-0.8-0.2-0.8
		s-1.4-0.8-2.2-2.6c-1-1.6-0.8-3.4,0-5l8.8-3c0.8,0.2,1.2,0.4,1.2,0.6l2.4,4.8c2.4-1.2,2.8-3,1.6-5.2c-1.4-2-3-3-4.8-2.8l-28.8,9
		l-22.6,3.8l-19.6,0.6l-0.4-0.4l-3.6-0.4l-7.6-1.8l-6-3.4c-0.6-0.6-0.8-1-0.4-1.4l0.8-0.6l0,0l1.4-0.6l2.2-0.8h0.6l0,0l0.6-0.2h0.4
		l1,0.4l0.6,0.2l1.2,0.8l1,1l1.6,1.2l2.2,0.4l27.8,0.8v0.2v0.8h0.4l17.6-2.8L276,444c0.4-0.6,0.4-0.8,0.2-1l-1.8-1.8
		c-1-1.2-1.4-3.8-1-7.2l-37.6,6.4h-0.2L194,441h-0.6c-0.6,0-0.6-0.4-0.6-0.8c0.4-0.6,0.4-1,0-1.4c-0.4-0.8-0.8-1-1-0.8l0.4-0.8
		l18.4-1.2l10.2-3.4l3.2,0.2c0.6-0.4,2.4-1.2,5.8-2.2l15.4-4.2l1.8,0.2l5.4-1.8c-1.4-0.2-2.4-0.8-3-1.8l-1-1.8l-24,7l0,0
		L175.6,433.4z"/>
	<path class="st30" d="M193.8,449.4L193.8,449.4h-0.6v0.2l-2.2,0.6l-1.4,0.6l0,0l-0.8,0.6c-0.2,0.4-0.2,0.8,0.4,1.4l6,3.4l7.6,1.8
		l3.4,0.2l0.2,0.2l0.4,0.4v-0.2c0.4-1,1.8-1.6,4.6-2l14-0.4c0.2-0.2,0.2-0.4,0-0.6c-1.2-0.6-1-0.8,0.8-1l3.6-0.2l0.4-0.2V454
		l-27.8-0.8l-2.2-0.4l-1.6-1.2l-2.2-1.8l-0.6-0.2l-1-0.4h-0.4L193.8,449.4z"/>
	<path d="M193.2,449.6v-0.2l-2.2,0.8L193.2,449.6z"/>
	<path d="M188.8,451.4c-0.4,0.4-0.2,0.8,0.4,1.4C188.6,452.2,188.6,451.8,188.8,451.4l0.8-0.6L188.8,451.4z"/>
	<path d="M198.6,451.6l-1-1l-1.2-0.8L198.6,451.6z"/>
	<path class="st30" d="M223.8,439l-29.8,2l41.6-0.6l37.6-6.6l2.8-0.2l2.4-0.8l7.6-1l1.2,2l1.2-0.2l-0.4-3.4c-0.2-1.2-1-2-2.4-2.4
		l-7,0.2l-35,6.2c-0.2-0.4-1.8,0.4-4.6,2.4l-2.6,1.8L235,439H223.8z"/>
	<path class="st7" d="M289.4,438l-1-4.4l-1.2,0.2l1.2,3.8l0.6,0.6L289.4,438z"/>
	<path d="M206.4,458.4l-0.2-0.2l-3.4-0.2L206.4,458.4z"/>
	<path class="st31" d="M169.8,436.8l-0.4,5.6c0.2,1.4,0.8,3,2,4.6c0,0,0,0,0,0.2l2.2,2.6V447L169.8,436.8z"/>
	<path class="st30" d="M258.8,415.2l-0.4-0.4l-6.8,1.4l-1.4,0.6c-0.4,0.8-0.6,1.6-0.2,2.8l0.6,2h5.8l4.2-1.6L258.8,415.2z"/>
	<path class="st32" d="M250.4,421.8l1,1.4h1l4-1.6L250.4,421.8z"/>
	<path class="st7" d="M284.4,441.8l2.4-1.8l-0.8-3.6c-0.4-2.2-0.8-3.6-1-3.8l-7.8,1.4c-0.4,0-0.6,0.6-0.8,1.4c-0.2,1.6,0,3.4,1,5
		l1.8,2.8C281.2,443.2,283,442.6,284.4,441.8z"/>
	<path class="st33" d="M277.2,448.8l-7,2.4c-1.2,1-1.6,1.4-1.2,1.8l0.6,2.8c0.6,1.6,1.8,2.4,3.4,2.4l4-1.8l3.4-2
		c0-0.6-0.4-1.6-1.4-3L277.2,448.8z"/>
	<path class="st7" d="M262.8,468.6l0.6-1c0.4-0.4,0-0.8-1-1l-39,6.6l0.4,2.2l0.6,1.8l30.8-3.2c1.6-0.4,3.2-1.4,4.8-2.8L262.8,468.6z
		"/>
	<path class="st1" d="M214.4,477.4c0.6,1.6,1.2,2.4,2,2.8c1,0.8,1.6,1,1.8,0.8l3-0.8c1.8-0.4,2.6-1.2,2.4-2.2l-1.4-4.6l-2.4,0.6
		l-6.2,0.4L214.4,477.4z"/>
	<path class="st33" d="M213.6,477.8L213,476l-11.6,1.8H213.6z"/>
	<path class="st15" d="M188.8,207.2c-1.6-9.6-1.6-16.4,0-20.4l2.6-6.2l-81.2,22.8c-5.6,2.4-10.2,6.2-13.4,11s-5.6,9.2-6.8,13.4
		l-2,6.4l-13,63.4l6.6,5.8c4.2,3.4,9.2,6.4,15.2,8.8l-5.2-0.4c-2.6-0.2-5.4-1-8-2.2c-2.6-1-4.2-2.8-4.4-5.6c-0.8-0.4-1.6-1-2.6-1.8
		l-2-1.4L72,329.2l-3.8,62.6c-1.4-0.4-2.4,0.8-2.8,3.6c-0.2,3-0.2,6,0.2,9c0.6,2.8,1.4,4.2,2.6,3.6c0.8-2.2,2.4-4.4,4.6-6.4l3.6-3.6
		l-12,25l-0.6,1.8c-0.4,1,0.2,2.8,1.6,5l13,22.4c3.2,4.8,6.2,8.4,8.8,11.2c0,0.8,1.2,1.4,3.8,1.4l20.2-1.2l-7.8-3.2
		c-4.8-2.2-10.2-6.4-15.8-12.8c-0.8,1.6-1.2,2.8-1.2,3.8c-0.2,1.4,0.2,2.6,1.4,3.6c0.6,0.8,1.8,1.4,3.8,2l2.8,0.8l0.6,0.4
		c0.2,0.2,0,0.4-0.8,0.6l-6.2-1.2l-3.4-1.4c-1.6-1.2-2-3-1.8-5.6l0.8-4.2l3-9.8c2.2-6,5.8-12.6,10.8-19.6c4.8-7.2,11.6-12.6,20-16
		c8.4-3.6,18.8-3,31.2,1.8c1.6-1.2,2-3,1.2-5.4l-2-6l0.2-1.2c-1-1.8-1.8-4.2-2.4-7l-1-4.8l4.4,10.8c0.2-0.4,0.2-2.6-0.2-6.8
		c-0.2-4.2-2-7.6-5.2-10.6L108.2,346l7.4,4.2c4.8,2.6,10.2,6,16.4,10c6.2,3.8,11.6,7.4,16.6,11.2l1-13.4c0.6-7.8,0.8-17.4,0.6-29
		c-0.2-11.6-1.2-23.4-3.2-35.4c-2.2-12-5.8-22.8-10.8-32c6.8,8.6,11.4,19.2,13.8,31.8c2.4,12.6,3.4,25,3.4,37.6
		c-0.2,12.6-0.8,23.2-1.6,31.8c-1,8.8-1.4,13.6-1,14.6c1.2-0.8,1.8-0.2,1.4,2l-1,7.4c-0.4,3-0.2,5.4,0.8,7.6c0.6,1,0.8,2.2,0.6,3.2
		l-0.4,2v1.6c0.2,1,0.8,1.8,2.2,2.4c0.8-0.2,1.6-1.4,2.2-4c0.4-2.6,0.4-5.4-0.6-8.4c0.2-1.2,0.8-3,2-5.6l2.2-4.2l-3.2-6.2
		c-1.8-4-2-8-0.4-12.4c1.8-3.6,4.8-4.6,9-2.8c2,0.8,4,1.8,5.8,3.4c1.8,1.4,3.6,3.4,5.4,5.8c3,4.6,4.2,9.4,3.2,14.6
		c1,0.8,3.4,3.4,7.2,7.6l16,19.8l9.2,0.2L250,408c3.8-0.4,7.4,0.2,10.8,1.8c3.4,1.8,5.2,5.4,5.4,11c-0.4,1.2-0.8,2-1.2,2.2h-1
		l-33.6,9.2l12-0.4c7.8-0.4,18.8-2,32.8-4.8l6.6-1c2.8-0.4,4.6,0.2,5.6,1.4c3,5,4,8.8,3,11.2c-1.2,2.6-2.8,4.2-5,4.8l-3.8,1.2
		l2.2,1.8c1,1.4,1.8,2.8,2.2,4.8c0.2,1.8-1,3.6-3.6,5.4l-13.6,7l-2.2,3.2l-5.6,6c-2.2,2.2-4.4,3.2-6.6,3.6l-27.6,4.6
		c-0.8-0.2-1.8,0-2.8,0.6c-1,0.6-2.6,1.2-4.6,1.8l-3.8-1l-1.6-1l-11.2,1.2l-5-0.4c-3-0.2-6.2-1-9-2l-29.6-6.8l-28-3.4
		c0.4,0.2-0.2,1.2-1.4,3.2c-1.2,3.4-2.2,8.2-2.4,14.4c-0.4,6-0.6,11.6-0.4,16.6v7.2v0.8h179v-0.6l-3-115.4l-7.4-83.2l-0.6-23
		l-26.2-14.2c-7.2-4-14-8-20.4-12.2c-6.6-4-11.6-7.4-14.8-10.4c-1.8-1.2-2.6-2.2-2.4-2.8l0.2-1.2L237,236l-11.4,2.2
		c-6,2.6-10.8,4.4-14.2,5.4l-6.8,2c-4.2-7.6-7.8-14.4-10.2-20.4C191.6,218.2,189.6,212.4,188.8,207.2z M97.2,281.4
		c-0.6,0.4-0.8,1-0.6,1.6l0.4,0.6l4.2,5c2.8,3,8.2,6,16,9c-8.2-0.4-14.8-2.2-19.6-5.2c-5.2-3-8.8-6-11.2-9l-3.4-4.6l5.8-2.2l6.8-0.4
		L98,280l0.6,0.8C99,281.2,98.4,281.4,97.2,281.4z"/>
	<path d="M96.6,283c-0.2-0.6,0-1.2,0.6-1.6c1.2,0,1.8-0.2,1.4-0.6L98,280l-2.4-3.8l-6.8,0.4l-5.8,2.2l3.4,4.6c2.4,3,6,6,11.2,9
		c4.8,3,11.4,4.8,19.6,5.2c-7.8-3-13.2-6-16-9l-4.2-5L96.6,283z"/>
	<path class="st7" d="M428.6,439.6l-5,2l3.2,70h15L428.6,439.6z"/>
	<path class="st30" d="M441.4,434.6c-3.2,0.8-6.2,1.8-8.6,3l-4.2,2l13.2,72h28l-16-72.6c0.2,0-1.2-1.2-4.2-3.4
		C447.4,434.2,444.6,434,441.4,434.6z"/>
</g>
</svg>
